<?xml version="1.0" standalone="no"?>
<!DOCTYPE svg PUBLIC "-//W3C//DTD SVG 1.1//EN" "http://www.w3.org/Graphics/SVG/1.1/DTD/svg11.dtd" >
<svg xmlns="http://www.w3.org/2000/svg" xmlns:xlink="http://www.w3.org/1999/xlink" version="1.1">
<metadata>
Created by FontForge 20170731 at Mon Jan 18 17:58:34 2021
 By Aleksey,,,
Copyright  2010 by Ryoichi Tsunekawa. All rights reserved.
</metadata>
<defs>
<font id="SVN-BebasNeueBook" horiz-adv-x="780" >
  <font-face 
    font-family="SVN-Bebas Neue Book"
    font-weight="400"
    font-stretch="normal"
    units-per-em="2048"
    panose-1="0 0 5 0 0 0 0 0 0 0"
    ascent="1536"
    descent="-512"
    x-height="1434"
    cap-height="1434"
    bbox="-92 -360 1667 2025"
    underline-thickness="102"
    underline-position="-327"
    unicode-range="U+0020-F6C3"
  />
<missing-glyph horiz-adv-x="1122" 
d="M102 1434h918v-1434h-918v1434zM514 737l-260 -596h70l233 537l236 -537h77l-260 596l242 553h-68l-219 -495l-219 495h-76z" />
    <glyph glyph-name=".notdef" horiz-adv-x="1122" 
d="M102 1434h918v-1434h-918v1434zM514 737l-260 -596h70l233 537l236 -537h77l-260 596l242 553h-68l-219 -495l-219 495h-76z" />
    <glyph glyph-name=".null" horiz-adv-x="0" 
 />
    <glyph glyph-name="nonmarkingreturn" horiz-adv-x="317" 
 />
    <glyph glyph-name="space" unicode=" " horiz-adv-x="317" 
 />
    <glyph glyph-name="exclam" unicode="!" horiz-adv-x="258" 
d="M82 686v750h94v-750l-12 -369h-70zM174 178v-178h-90v178h90z" />
    <glyph glyph-name="quotedbl" unicode="&#x22;" horiz-adv-x="421" 
d="M174 1436l-12 -357h-70l-10 357h92zM340 1436l-12 -357h-68l-12 357h92z" />
    <glyph glyph-name="numbersign" unicode="#" horiz-adv-x="847" 
d="M653 989l-49 -465h125l-6 -69h-125l-49 -455h-80l49 455h-242l-47 -455h-79l49 455h-136l7 69h135l49 465h-137l6 70h137l39 377h80l-39 -377h240l38 377h80l-39 -377h125l-6 -70h-125zM573 989h-241l-47 -465h239z" />
    <glyph glyph-name="dollar" unicode="$" horiz-adv-x="772" 
d="M428 1436q73 -6 122 -36q50 -30 83 -77q31 -44 47 -109q14 -57 14 -133v-32h-90v36q0 62 -11 107q-12 51 -37 84q-24 33 -67 55q-40 21 -98 21q-117 0 -165 -75t-48 -190q0 -85 38 -147t96 -111q51 -43 125 -92q68 -45 125 -96q58 -52 96 -122t38 -167q0 -72 -15 -133
q-15 -60 -47 -108q-32 -47 -83 -77t-123 -36v-115h-80v115q-71 6 -123 35q-50 28 -84 76q-33 47 -48 109q-15 63 -15 134v80h90v-84q0 -117 49 -191q49 -75 168 -75t168 75q49 74 49 191q0 85 -38 146q-36 57 -96 108q-51 43 -125 92q-64 42 -125 97q-59 53 -96 121
q-38 70 -38 169q0 153 62 246q63 94 202 109v123h80v-123z" />
    <glyph glyph-name="percent" unicode="%" horiz-adv-x="1239" 
d="M270 1438q104 0 150 -67q45 -66 45 -165v-436q0 -99 -45 -165t-150 -66q-50 0 -88 18q-35 17 -59 49q-21 28 -34 73q-11 39 -11 91v436q0 52 11 91q13 45 34 73q24 32 59 49q40 19 88 19zM930 1436l-565 -1436h-62l565 1436h62zM270 1378q-74 0 -101 -50
q-28 -51 -28 -120v-442q0 -67 28 -118q27 -50 101 -50q72 0 101 50q28 49 28 118v442q0 71 -28 120q-29 50 -101 50zM969 893q48 0 88 -19q35 -17 60 -50q23 -31 34 -73q10 -40 10 -92v-430q0 -51 -10 -91q-11 -42 -34 -73q-27 -35 -60 -51q-37 -18 -88 -18q-53 0 -90 18
q-36 17 -60 51q-22 31 -34 73q-11 39 -11 91v430q0 53 11 92q12 42 34 73q23 32 60 50q40 19 90 19zM969 831q-73 0 -101 -49t-28 -118v-439q0 -69 28 -119q28 -51 101 -51q74 0 101 51q28 53 28 119v439q0 67 -28 118q-27 49 -101 49z" />
    <glyph glyph-name="ampersand" unicode="&#x26;" horiz-adv-x="825" 
d="M426 1348q-250 0 -250 -267v-57q0 -98 51 -164q50 -64 146 -69h221v159h94v-159h78v-86h-78v-517q0 -58 4 -98q4 -45 33 -90h-98q-16 30 -24 62q-7 29 -7 75q-32 -74 -96 -112q-62 -37 -146 -37q-141 0 -207 92q-65 90 -65 239v136q0 102 45 183t143 114q-98 28 -143 107
t-45 183v35q0 174 85 265q86 92 259 92h203v-86h-203zM385 705q-103 -6 -156 -73t-53 -175v-131q0 -113 50 -183q50 -69 161 -69q92 0 148 52q58 53 59 148v431h-209z" />
    <glyph glyph-name="quotesingle" unicode="'" horiz-adv-x="249" 
d="M170 1436l-10 -357h-70l-10 357h90z" />
    <glyph glyph-name="parenleft" unicode="(" horiz-adv-x="473" 
d="M369 1356q-54 0 -93 -17q-35 -15 -57 -47q-22 -31 -29 -74q-8 -46 -8 -100v-801q0 -53 8 -99q8 -45 29 -75q22 -31 56 -47q35 -16 94 -16h41v-80h-45q-79 0 -134 22q-53 21 -85 62q-32 40 -45 99q-13 56 -13 134v801q0 78 13 134q14 60 45 100q32 41 85 62q55 22 134 22
h45v-80h-41z" />
    <glyph glyph-name="parenright" unicode=")" horiz-adv-x="473" 
d="M109 1436q159 0 219 -83q59 -81 59 -235v-801q0 -78 -13 -134q-14 -59 -45 -99q-32 -41 -86 -62q-57 -22 -134 -22h-46v80h41q114 0 151 63q38 64 38 174v801q0 108 -38 173t-151 65h-41v80h46z" />
    <glyph glyph-name="asterisk" unicode="*" horiz-adv-x="806" 
d="M436 1071l195 -242l-64 -47l-164 265l-163 -263l-66 45l197 242l-303 72l24 76l291 -109l-21 313h80l-18 -313l291 104l24 -75z" />
    <glyph glyph-name="plus" unicode="+" horiz-adv-x="794" 
d="M432 682v-299h-70v299h-290v70h290v295h70v-295h293v-70h-293z" />
    <glyph glyph-name="comma" unicode="," horiz-adv-x="274" 
d="M133 0h-31v180h91v-172l-60 -164h-41z" />
    <glyph glyph-name="hyphen" unicode="-" horiz-adv-x="532" 
d="M78 760h377v-86h-377v86z" />
    <glyph glyph-name="period" unicode="." horiz-adv-x="256" 
d="M174 180v-180h-92v180h92z" />
    <glyph glyph-name="slash" unicode="/" horiz-adv-x="759" 
d="M705 1434l-566 -1434h-84l566 1434h84z" />
    <glyph glyph-name="zero" unicode="0" 
d="M76 1083q0 81 18 147t58 115q38 47 98 74t141 27t141 -27q61 -28 99 -74q39 -47 57 -115q19 -70 19 -147v-733q0 -74 -19 -144q-18 -68 -57 -115q-40 -50 -99 -76q-60 -27 -141 -27t-141 27q-57 26 -98 76q-40 49 -58 115t-18 144v733zM170 346q0 -118 51 -195t170 -77
t170 77t51 195v744q0 116 -51 193t-170 77t-170 -77t-51 -193v-744z" />
    <glyph glyph-name="one" unicode="1" horiz-adv-x="575" 
d="M354 1274q-40 -53 -95 -83q-58 -32 -128 -38v82q108 8 161 64q55 58 83 137h74v-1436h-95v1274z" />
    <glyph glyph-name="two" unicode="2" horiz-adv-x="772" 
d="M391 1446q82 0 143 -28q56 -26 95 -77q35 -47 54 -115q17 -62 17 -145q0 -104 -38 -186t-97 -158q-53 -69 -125 -142q-71 -73 -126 -143q-58 -74 -97 -160q-40 -87 -41 -190v-16h512v-86h-606v70q0 127 39 223t97 175q54 73 126 147q61 63 126 139q57 68 97 147
q39 78 39 176q0 125 -48 204t-171 79q-58 0 -100 -22t-67 -59q-24 -36 -37 -88q-11 -45 -11 -108v-98h-90v92q0 82 17 146q18 67 55 116q38 50 95 78q60 29 142 29z" />
    <glyph glyph-name="three" unicode="3" horiz-adv-x="774" 
d="M387 1446q79 0 140 -28q59 -27 97 -76q37 -47 55 -114q17 -62 17 -145v-34q0 -107 -49 -186q-48 -78 -141 -111q97 -28 144 -107q46 -77 46 -184v-111q0 -82 -17 -144q-19 -69 -55 -115q-38 -49 -97 -76t-140 -27t-140 27q-57 26 -96 76q-38 48 -56 115q-17 62 -17 144
v82h90v-86q0 -63 11 -108q12 -50 38 -86t68 -58q39 -20 100 -20q119 0 168 78q49 77 49 200v111q0 112 -54 175q-54 62 -159 67h-96v86h100q99 6 154 70t55 169v51q0 124 -49 201q-49 78 -168 78q-118 0 -168 -77q-49 -76 -49 -193v-58h-90v51q0 83 17 145q18 65 56 114
q39 50 96 76q61 28 140 28z" />
    <glyph glyph-name="four" unicode="4" horiz-adv-x="825" 
d="M645 317v-317h-92v317h-490v89l476 1030h106v-1033h121v-86h-121zM150 403h403v857z" />
    <glyph glyph-name="five" unicode="5" horiz-adv-x="774" 
d="M188 836q37 59 95 85q56 25 137 25q76 0 127 -26q52 -27 87 -74q33 -45 49 -112q15 -64 15 -138v-246q0 -82 -17 -144q-19 -69 -55 -115q-38 -49 -98 -76t-141 -27t-140 27q-57 26 -96 76q-38 48 -56 115q-17 62 -17 144v78h90v-82q0 -56 12 -106q11 -47 38 -86
q24 -36 67 -58q39 -20 100 -20t101 20q43 22 68 58q27 39 38 86q12 50 12 106v242q0 56 -12 106q-11 47 -38 86q-25 36 -68 58q-40 20 -101 20q-160 0 -205 -164v-24h-88l37 766h539v-88h-453z" />
    <glyph glyph-name="six" unicode="6" horiz-adv-x="782" 
d="M393 1446q83 0 141 -27q59 -27 96 -73q37 -45 55 -113q17 -62 17 -143v-17h-90v23q0 115 -49 189q-49 75 -168 75q-61 0 -103 -21q-45 -23 -70 -57q-29 -40 -40 -89q-12 -53 -12 -116v-332q34 60 96 96t160 36q76 0 129 -27q52 -27 87 -74q33 -44 50 -110q17 -65 17 -140
v-176q0 -74 -19 -144q-18 -68 -57 -115q-41 -50 -98 -76q-60 -27 -142 -27q-83 0 -143 27q-57 26 -98 76q-40 49 -58 115t-18 144v729q0 81 18 148q17 63 57 116q37 48 98 76q60 27 144 27zM393 788q-121 0 -172 -76t-51 -192v-174q0 -118 51 -194t172 -76q119 0 170 76
t51 194v174q0 116 -51 192t-170 76z" />
    <glyph glyph-name="seven" unicode="7" horiz-adv-x="774" 
d="M602 1348h-526v88h622v-86l-403 -1350h-96z" />
    <glyph glyph-name="eight" unicode="8" horiz-adv-x="794" 
d="M397 1446q162 0 244 -94t82 -254v-45q0 -110 -44 -192q-43 -80 -147 -109q104 -30 148 -113q43 -82 43 -195v-102q0 -157 -81 -256q-80 -98 -245 -98q-166 0 -245 97q-80 98 -80 257v102q0 116 42 195q42 80 150 113q-105 29 -148 107q-44 80 -44 194v45q0 160 81 254
t244 94zM397 1360q-117 0 -174 -69t-57 -195v-60q0 -245 231 -245q232 0 232 245v60q0 125 -59 195q-58 69 -173 69zM397 705q-231 0 -231 -252v-109q0 -126 57 -198t174 -72q116 0 173 72q57 73 59 198v109q0 252 -232 252z" />
    <glyph glyph-name="nine" unicode="9" horiz-adv-x="782" 
d="M389 1448q80 0 142 -28t99 -75q38 -48 56 -115q19 -70 19 -147v-729q0 -80 -18 -147q-19 -70 -56 -116q-40 -50 -99 -76q-60 -27 -143 -27t-141 26q-59 26 -97 74q-39 49 -57 114q-18 66 -18 144v19h90v-23q0 -116 51 -192t170 -76q121 0 172 78t51 206v353
q-35 -80 -96 -116q-62 -36 -158 -36q-76 0 -129 27q-54 28 -87 72t-50 111q-16 63 -16 140v174q0 81 18 147t58 115t98 75q62 28 141 28zM389 1360q-119 0 -170 -77t-51 -193v-175q0 -117 51 -193q51 -77 170 -77t170 77q51 76 51 193v175q0 116 -51 193t-170 77z" />
    <glyph glyph-name="colon" unicode=":" horiz-adv-x="256" 
d="M174 961v-181h-92v181h92zM174 180v-180h-92v180h92z" />
    <glyph glyph-name="semicolon" unicode=";" horiz-adv-x="274" 
d="M193 961v-181h-91v181h91zM133 0h-31v180h91v-172l-60 -164h-41z" />
    <glyph glyph-name="less" unicode="&#x3c;" horiz-adv-x="757" 
d="M676 408l-602 274v70l602 274v-74l-510 -235l510 -236v-73z" />
    <glyph glyph-name="equal" unicode="=" horiz-adv-x="624" 
d="M547 905v-69h-469v69h469zM547 655v-69h-469v69h469z" />
    <glyph glyph-name="greater" unicode="&#x3e;" horiz-adv-x="757" 
d="M82 481l512 236l-512 235v74l602 -274v-70l-602 -274v73z" />
    <glyph glyph-name="question" unicode="?" horiz-adv-x="743" 
d="M373 1446q81 0 142 -28q57 -26 94 -77t53 -115t16 -145q0 -78 -23 -142t-55 -115q-30 -49 -72 -98q-34 -41 -71 -96q-34 -51 -56 -107t-22 -128q0 -37 10 -76h-86q-10 39 -10 80q0 78 21 138q19 54 55 110q37 58 69 97q31 38 70 97q33 49 54 108q22 61 22 136
q0 56 -11 108q-11 51 -34 87t-66 58q-42 22 -102 22q-59 0 -101 -22q-41 -21 -65 -59q-24 -37 -36 -88q-11 -45 -11 -108v-100h-90v94q0 81 16 146q17 68 53 116q38 50 94 78q58 29 142 29zM389 178v-178h-90v178h90z" />
    <glyph glyph-name="at" unicode="@" horiz-adv-x="1409" 
d="M799 1495q145 0 249 -42q102 -41 169 -119q66 -76 96 -183t30 -236q0 -122 -23 -228q-24 -111 -68 -199t-109 -141q-66 -54 -150 -54q-69 0 -103 40q-33 39 -38 103q-29 -72 -86 -115q-55 -42 -135 -40q-63 0 -103 25q-40 26 -63 69q-23 45 -29 100q-6 57 0 119l21 203
q6 65 25 117q19 53 52 95q31 40 76 61q47 22 105 22q148 -4 186 -146l14 135h84l-61 -585q-4 -42 11 -83q15 -40 67 -40q76 0 125 57t78 140q26 75 39 176q12 93 12 167q0 114 -28 210q-27 94 -86 160q-59 67 -148 101q-91 35 -213 35q-171 0 -292 -67t-200 -184
q-77 -114 -115 -267q-36 -145 -36 -319q0 -288 135 -445t424 -157q105 0 199 26q101 28 184 92l-7 -86q-89 -60 -182 -84q-95 -24 -198 -24q-165 0 -286 47q-120 47 -198 135t-115 215q-38 129 -38 285q0 176 42 341q42 164 131 291q86 123 226 201q136 76 330 76zM737 1008
q-94 0 -141 -64q-46 -63 -57 -158l-19 -192q-4 -45 0 -87q5 -43 21 -74t47 -51t80 -20q46 0 82 19q35 18 59 50q25 32 38 74q12 37 17 89l23 199q4 38 -1 81q-4 38 -23 69q-17 29 -49 47t-77 18z" />
    <glyph glyph-name="A" unicode="A" horiz-adv-x="892" 
d="M219 317l-72 -317h-86l314 1436h137l319 -1436h-94l-71 317h-447zM233 399h418l-211 928z" />
    <glyph glyph-name="B" unicode="B" horiz-adv-x="774" 
d="M383 1434q161 0 227 -78t66 -228v-81q0 -118 -40 -189t-149 -94q116 -22 166 -104q49 -80 49 -203v-125q0 -156 -73 -244t-240 -88h-307v1434h301zM336 801q65 0 109 10q47 11 77 36t45 69t15 112v92q0 114 -43 170q-44 58 -158 58h-205v-547h160zM389 86q119 0 169 64
t50 184v129q0 138 -63 195t-191 57h-178v-629h213z" />
    <glyph glyph-name="C" unicode="C" horiz-adv-x="765" 
d="M385 1446q79 0 140 -28q59 -27 97 -76q37 -47 55 -114q17 -62 17 -145v-118h-90v125q0 61 -11 106q-12 50 -38 86q-25 35 -68 57q-41 21 -100 21t-100 -21q-43 -22 -68 -57q-26 -36 -38 -86q-11 -45 -11 -106v-746q0 -61 11 -106q12 -51 38 -85q27 -36 68 -57
q39 -20 100 -20t100 20q41 21 68 57q26 34 38 85q11 45 11 106v170h90v-164q0 -82 -17 -144q-19 -69 -55 -115q-38 -49 -97 -76t-140 -27t-140 27t-97 76q-36 46 -55 115q-17 62 -17 144v733q0 83 17 145q18 67 55 114q38 49 97 76q61 28 140 28z" />
    <glyph glyph-name="D" unicode="D" horiz-adv-x="788" 
d="M397 1434q82 0 143 -26q59 -25 99 -73q39 -47 57 -112q19 -70 19 -146v-721q0 -75 -19 -145q-18 -67 -57 -113t-99 -72q-61 -26 -143 -26h-315v1434h315zM395 86q120 0 173 74t53 192v729q0 117 -54 193q-53 74 -172 74h-219v-1262h219z" />
    <glyph glyph-name="E" unicode="E" horiz-adv-x="718" 
d="M567 770v-86h-391v-598h471v-86h-565v1434h565v-86h-471v-578h391z" />
    <glyph glyph-name="F" unicode="F" horiz-adv-x="688" 
d="M547 735v-86h-371v-649h-94v1434h545v-86h-451v-613h371z" />
    <glyph glyph-name="G" unicode="G" horiz-adv-x="770" 
d="M385 1446q79 0 140 -28q59 -27 97 -76q37 -47 55 -114q17 -62 17 -145v-106h-90v113q0 61 -11 106q-12 50 -38 86q-25 35 -68 57q-41 21 -100 21t-100 -21q-43 -22 -68 -57q-26 -36 -38 -86q-11 -45 -11 -106v-746q0 -61 11 -106q12 -51 38 -85q27 -36 68 -57
q39 -20 100 -20t100 20q41 21 68 57q26 34 38 85q11 45 11 106v309h-190v86h280v-389q0 -82 -17 -144q-19 -69 -55 -115q-38 -49 -97 -76t-140 -27t-140 27t-97 76q-36 46 -55 115q-17 62 -17 144v733q0 83 17 145q18 67 55 114q38 49 97 76q61 28 140 28z" />
    <glyph glyph-name="H" unicode="H" horiz-adv-x="800" 
d="M176 674v-674h-94v1434h94v-674h447v674h96v-1434h-96v674h-447z" />
    <glyph glyph-name="I" unicode="I" horiz-adv-x="258" 
d="M176 1434v-1434h-94v1434h94z" />
    <glyph glyph-name="J" unicode="J" horiz-adv-x="518" 
d="M59 86q29 -2 43 -1q7 1 20.5 2t20.5 1q103 8 153 67t50 191v1088h94v-1082q0 -187 -78 -267q-78 -79 -208 -85q-45 -2 -95 0v86z" />
    <glyph glyph-name="K" unicode="K" horiz-adv-x="827" 
d="M274 674l-98 -156v-518h-94v1434h94v-758l467 758h98l-409 -668l436 -766h-98z" />
    <glyph glyph-name="L" unicode="L" horiz-adv-x="686" 
d="M82 0v1434h94v-1348h451v-86h-545z" />
    <glyph glyph-name="M" unicode="M" horiz-adv-x="1034" 
d="M563 2h-94l-303 1268v-1270h-84v1434h135l301 -1268l299 1268h135v-1434h-90v1274z" />
    <glyph glyph-name="N" unicode="N" horiz-adv-x="800" 
d="M168 0h-86v1434h123l430 -1211v1211h86v-1434h-105l-448 1278v-1278z" />
    <glyph glyph-name="O" unicode="O" 
d="M76 1083q0 79 18 145q17 63 57 114q39 50 97 76q62 28 141 28q80 0 142 -28q60 -27 100 -76q39 -48 57 -114q19 -70 19 -145v-733q0 -74 -19 -144q-18 -68 -57 -115q-40 -49 -100 -76t-142 -27q-81 0 -141 27q-58 26 -97 76t-57 115q-18 66 -18 144v733zM170 344
q0 -116 50 -193t169 -77q118 0 171 77q52 76 52 193v746q0 117 -52 193q-53 77 -171 77q-119 0 -169 -77t-50 -193v-746z" />
    <glyph glyph-name="P" unicode="P" horiz-adv-x="749" 
d="M379 1434q164 0 236 -96q71 -95 71 -253v-155q0 -171 -80 -256q-80 -84 -252 -84h-178v-590h-94v1434h297zM354 676q125 0 182 58q56 57 56 190v168q0 118 -46 186q-47 70 -167 70h-203v-672h178z" />
    <glyph glyph-name="Q" unicode="Q" horiz-adv-x="835" 
d="M391 1446q79 0 141 -28q59 -26 99 -76q39 -48 57 -114q19 -70 19 -145v-733q0 -72 -17 -137t-51 -111q18 -32 46 -45q27 -12 67 -12h22v-84h-24q-119 0 -170 84q-34 -26 -82 -42q-47 -15 -107 -15q-81 0 -141 27q-57 26 -98 76q-40 49 -58 115t-18 144v733q0 79 18 145
q17 64 58 114t98 76q62 28 141 28zM391 1360q-119 0 -170 -77t-51 -193v-746q0 -116 51 -193t170 -77t170 77q51 76 51 193v746q0 116 -51 193t-170 77z" />
    <glyph glyph-name="R" unicode="R" horiz-adv-x="790" 
d="M381 1434q163 0 235 -86t72 -238v-125q0 -251 -207 -297q111 -24 159 -100t48 -193v-223q0 -44 6 -91q6 -46 29 -81h-98q-19 36 -25 73q-6 40 -6 99v225q0 70 -19 119t-54 75q-36 27 -85 39q-45 11 -110 11h-150v-641h-94v1434h299zM328 727q65 0 112 10q49 10 83 37
q34 26 52 74q19 49 19 119v135q0 117 -49 181q-50 65 -166 65h-203v-621h152z" />
    <glyph glyph-name="S" unicode="S" horiz-adv-x="757" 
d="M381 1446q82 0 139 -27t94 -74t55 -114q17 -62 17 -144v-30h-90v37q0 61 -11 105q-12 49 -37 84q-24 34 -67 56q-41 21 -98 21q-117 0 -165 -75t-48 -189q0 -88 38 -150t96 -111q63 -53 125 -97q70 -50 125 -100q57 -53 96 -124q38 -70 38 -168q0 -81 -17 -143
q-18 -65 -56 -114q-37 -48 -96 -75q-56 -26 -140 -26t-140 26q-60 28 -97 75t-55 114q-17 62 -17 143v74h90v-80q0 -115 49 -189q49 -75 168 -75t168 75q49 74 49 189q0 85 -38 147q-39 64 -96 112q-59 50 -125 95q-64 43 -125 100q-58 54 -96 125t-38 171q0 162 72 258
t233 98z" />
    <glyph glyph-name="T" unicode="T" horiz-adv-x="755" 
d="M330 0v1348h-293v86h678v-86h-291v-1348h-94z" />
    <glyph glyph-name="U" unicode="U" horiz-adv-x="770" 
d="M172 346q0 -62 11 -107q12 -51 37 -87q24 -36 67 -58q39 -20 100 -20t100 20q43 22 67 58q25 36 37 87q11 45 11 107v1088h88v-1084q0 -79 -16 -143q-17 -67 -53 -115q-38 -50 -96 -77q-59 -27 -140 -27t-140 27q-56 26 -95 77q-37 49 -55 115q-17 62 -17 143v1084h94
v-1088z" />
    <glyph glyph-name="V" unicode="V" horiz-adv-x="888" 
d="M158 1434l291 -1325l290 1325h88l-311 -1434h-139l-316 1434h97z" />
    <glyph glyph-name="W" unicode="W" horiz-adv-x="1234" 
d="M426 0h-131l-232 1434h93l215 -1307l209 1300h100l201 -1296l206 1303h84l-229 -1434h-123l-192 1174z" />
    <glyph glyph-name="X" unicode="X" horiz-adv-x="901" 
d="M446 668l-290 -668h-93l324 743l-301 691h98l271 -617l272 617h90l-301 -691l322 -743h-101z" />
    <glyph glyph-name="Y" unicode="Y" horiz-adv-x="849" 
d="M377 551l-322 883h99l274 -754l274 754h93l-324 -883v-551h-94v551z" />
    <glyph glyph-name="Z" unicode="Z" horiz-adv-x="794" 
d="M715 0h-645v86l555 1262h-529v86h627v-88l-555 -1260h547v-86z" />
    <glyph glyph-name="bracketleft" unicode="[" horiz-adv-x="475" 
d="M408 80v-80h-320v1436h320v-80h-226v-1276h226z" />
    <glyph glyph-name="backslash" unicode="\" horiz-adv-x="759" 
d="M139 1434l566 -1434h-84l-566 1434h84z" />
    <glyph glyph-name="bracketright" unicode="]" horiz-adv-x="475" 
d="M295 80v1276h-225v80h319v-1436h-319v80h225z" />
    <glyph glyph-name="asciicircum" unicode="^" horiz-adv-x="837" 
d="M147 801h-79l315 633h72l315 -633h-80l-272 545z" />
    <glyph glyph-name="underscore" unicode="_" horiz-adv-x="1050" 
d="M985 -20v-72h-932v72h932z" />
    <glyph glyph-name="grave" unicode="`" horiz-adv-x="403" 
d="M186 1737l146 -195h-74l-174 195h102z" />
    <glyph glyph-name="a" unicode="a" horiz-adv-x="892" 
d="M219 317l-72 -317h-86l314 1436h137l319 -1436h-94l-71 317h-447zM233 399h418l-211 928z" />
    <glyph glyph-name="b" unicode="b" horiz-adv-x="774" 
d="M383 1434q161 0 227 -78t66 -228v-81q0 -118 -40 -189t-149 -94q116 -22 166 -104q49 -80 49 -203v-125q0 -156 -73 -244t-240 -88h-307v1434h301zM336 801q65 0 109 10q47 11 77 36t45 69t15 112v92q0 114 -43 170q-44 58 -158 58h-205v-547h160zM389 86q119 0 169 64
t50 184v129q0 138 -63 195t-191 57h-178v-629h213z" />
    <glyph glyph-name="c" unicode="c" horiz-adv-x="765" 
d="M385 1446q79 0 140 -28q59 -27 97 -76q37 -47 55 -114q17 -62 17 -145v-118h-90v125q0 61 -11 106q-12 50 -38 86q-25 35 -68 57q-41 21 -100 21t-100 -21q-43 -22 -68 -57q-26 -36 -38 -86q-11 -45 -11 -106v-746q0 -61 11 -106q12 -51 38 -85q27 -36 68 -57
q39 -20 100 -20t100 20q41 21 68 57q26 34 38 85q11 45 11 106v170h90v-164q0 -82 -17 -144q-19 -69 -55 -115q-38 -49 -97 -76t-140 -27t-140 27t-97 76q-36 46 -55 115q-17 62 -17 144v733q0 83 17 145q18 67 55 114q38 49 97 76q61 28 140 28z" />
    <glyph glyph-name="d" unicode="d" horiz-adv-x="788" 
d="M397 1434q82 0 143 -26q59 -25 99 -73q39 -47 57 -112q19 -70 19 -146v-721q0 -75 -19 -145q-18 -67 -57 -113t-99 -72q-61 -26 -143 -26h-315v1434h315zM395 86q120 0 173 74t53 192v729q0 117 -54 193q-53 74 -172 74h-219v-1262h219z" />
    <glyph glyph-name="e" unicode="e" horiz-adv-x="718" 
d="M567 770v-86h-391v-598h471v-86h-565v1434h565v-86h-471v-578h391z" />
    <glyph glyph-name="f" unicode="f" horiz-adv-x="688" 
d="M547 735v-86h-371v-649h-94v1434h545v-86h-451v-613h371z" />
    <glyph glyph-name="g" unicode="g" horiz-adv-x="770" 
d="M385 1446q79 0 140 -28q59 -27 97 -76q37 -47 55 -114q17 -62 17 -145v-106h-90v113q0 61 -11 106q-12 50 -38 86q-25 35 -68 57q-41 21 -100 21t-100 -21q-43 -22 -68 -57q-26 -36 -38 -86q-11 -45 -11 -106v-746q0 -61 11 -106q12 -51 38 -85q27 -36 68 -57
q39 -20 100 -20t100 20q41 21 68 57q26 34 38 85q11 45 11 106v309h-190v86h280v-389q0 -82 -17 -144q-19 -69 -55 -115q-38 -49 -97 -76t-140 -27t-140 27t-97 76q-36 46 -55 115q-17 62 -17 144v733q0 83 17 145q18 67 55 114q38 49 97 76q61 28 140 28z" />
    <glyph glyph-name="h" unicode="h" horiz-adv-x="800" 
d="M176 674v-674h-94v1434h94v-674h447v674h96v-1434h-96v674h-447z" />
    <glyph glyph-name="i" unicode="i" horiz-adv-x="258" 
d="M176 1434v-1434h-94v1434h94z" />
    <glyph glyph-name="j" unicode="j" horiz-adv-x="518" 
d="M59 86q29 -2 43 -1q7 1 20.5 2t20.5 1q103 8 153 67t50 191v1088h94v-1082q0 -187 -78 -267q-78 -79 -208 -85q-45 -2 -95 0v86z" />
    <glyph glyph-name="k" unicode="k" horiz-adv-x="827" 
d="M274 674l-98 -156v-518h-94v1434h94v-758l467 758h98l-409 -668l436 -766h-98z" />
    <glyph glyph-name="l" unicode="l" horiz-adv-x="686" 
d="M82 0v1434h94v-1348h451v-86h-545z" />
    <glyph glyph-name="m" unicode="m" horiz-adv-x="1034" 
d="M563 2h-94l-303 1268v-1270h-84v1434h135l301 -1268l299 1268h135v-1434h-90v1274z" />
    <glyph glyph-name="n" unicode="n" horiz-adv-x="800" 
d="M168 0h-86v1434h123l430 -1211v1211h86v-1434h-105l-448 1278v-1278z" />
    <glyph glyph-name="o" unicode="o" 
d="M76 1083q0 79 18 145q17 63 57 114q39 50 97 76q62 28 141 28q80 0 142 -28q60 -27 100 -76q39 -48 57 -114q19 -70 19 -145v-733q0 -74 -19 -144q-18 -68 -57 -115q-40 -49 -100 -76t-142 -27q-81 0 -141 27q-58 26 -97 76t-57 115q-18 66 -18 144v733zM170 344
q0 -116 50 -193t169 -77q118 0 171 77q52 76 52 193v746q0 117 -52 193q-53 77 -171 77q-119 0 -169 -77t-50 -193v-746z" />
    <glyph glyph-name="p" unicode="p" horiz-adv-x="745" 
d="M379 1434q164 0 236 -96q71 -95 71 -253v-155q0 -171 -80 -256q-80 -84 -252 -84h-178v-590h-94v1434h297zM354 676q125 0 182 58q56 57 56 190v168q0 118 -46 186q-47 70 -167 70h-203v-672h178z" />
    <glyph glyph-name="q" unicode="q" horiz-adv-x="796" 
d="M391 1446q79 0 141 -28q59 -26 99 -76q39 -48 57 -114q19 -70 19 -145v-733q0 -72 -17 -137t-51 -111q18 -32 46 -45q27 -12 67 -12h22v-84h-24q-119 0 -170 84q-34 -26 -82 -42q-47 -15 -107 -15q-81 0 -141 27q-57 26 -98 76q-40 49 -58 115t-18 144v733q0 79 18 145
q17 64 58 114t98 76q62 28 141 28zM391 1360q-119 0 -170 -77t-51 -193v-746q0 -116 51 -193t170 -77t170 77q51 76 51 193v746q0 116 -51 193t-170 77z" />
    <glyph glyph-name="r" unicode="r" horiz-adv-x="790" 
d="M381 1434q163 0 235 -86t72 -238v-125q0 -251 -207 -297q111 -24 159 -100t48 -193v-223q0 -44 6 -91q6 -46 29 -81h-98q-19 36 -25 73q-6 40 -6 99v225q0 70 -19 119t-54 75q-36 27 -85 39q-45 11 -110 11h-150v-641h-94v1434h299zM328 727q65 0 112 10q49 10 83 37
q34 26 52 74q19 49 19 119v135q0 117 -49 181q-50 65 -166 65h-203v-621h152z" />
    <glyph glyph-name="s" unicode="s" horiz-adv-x="757" 
d="M381 1446q82 0 139 -27t94 -74t55 -114q17 -62 17 -144v-30h-90v37q0 61 -11 105q-12 49 -37 84q-24 34 -67 56q-41 21 -98 21q-117 0 -165 -75t-48 -189q0 -88 38 -150t96 -111q63 -53 125 -97q70 -50 125 -100q57 -53 96 -124q38 -70 38 -168q0 -81 -17 -143
q-18 -65 -56 -114q-37 -48 -96 -75q-56 -26 -140 -26t-140 26q-60 28 -97 75t-55 114q-17 62 -17 143v74h90v-80q0 -115 49 -189q49 -75 168 -75t168 75q49 74 49 189q0 85 -38 147q-39 64 -96 112q-59 50 -125 95q-64 43 -125 100q-58 54 -96 125t-38 171q0 162 72 258
t233 98z" />
    <glyph glyph-name="t" unicode="t" horiz-adv-x="745" 
d="M324 0v1348h-291v86h678v-86h-293v-1348h-94z" />
    <glyph glyph-name="u" unicode="u" horiz-adv-x="770" 
d="M172 346q0 -62 11 -107q12 -51 37 -87q24 -36 67 -58q39 -20 100 -20t100 20q43 22 67 58q25 36 37 87q11 45 11 107v1088h88v-1084q0 -79 -16 -143q-17 -67 -53 -115q-38 -50 -96 -77q-59 -27 -140 -27t-140 27q-56 26 -95 77q-37 49 -55 115q-17 62 -17 143v1084h94
v-1088z" />
    <glyph glyph-name="v" unicode="v" horiz-adv-x="888" 
d="M158 1434l291 -1325l290 1325h88l-311 -1434h-139l-316 1434h97z" />
    <glyph glyph-name="w" unicode="w" horiz-adv-x="1234" 
d="M426 0h-131l-232 1434h93l215 -1307l209 1300h100l201 -1296l206 1303h84l-229 -1434h-123l-192 1174z" />
    <glyph glyph-name="x" unicode="x" horiz-adv-x="901" 
d="M446 668l-290 -668h-93l324 743l-301 691h98l271 -617l272 617h90l-301 -691l322 -743h-101z" />
    <glyph glyph-name="y" unicode="y" horiz-adv-x="849" 
d="M377 551l-322 883h99l274 -754l274 754h93l-324 -883v-551h-94v551z" />
    <glyph glyph-name="z" unicode="z" horiz-adv-x="794" 
d="M715 0h-645v86l555 1262h-529v86h627v-88l-555 -1260h547v-86z" />
    <glyph glyph-name="braceleft" unicode="{" horiz-adv-x="524" 
d="M416 1356q-76 0 -99 -47q-21 -44 -26 -123l-12 -258q-1 -16 -8 -70q-5 -33 -18 -60t-39 -48t-69 -33q43 -12 69 -33t39 -48t18 -61q7 -54 8 -69l12 -256q5 -80 26 -124q22 -46 99 -46h45v-80h-76q-96 0 -135 58t-45 155l-15 281q-2 41 -6 71q-5 33 -17 53q-13 22 -38 36
t-68 20v86q46 6 68 20q25 16 38 36q12 19 17 52q4 30 6 72l15 283q6 93 45 153t135 60h76v-80h-45z" />
    <glyph glyph-name="bar" unicode="|" horiz-adv-x="512" 
d="M299 1483v-1530h-78v1530h78z" />
    <glyph glyph-name="braceright" unicode="}" horiz-adv-x="524" 
d="M139 1436q96 0 135 -60t45 -153l15 -283q1 -34 7 -72q5 -31 18 -52q13 -20 38 -36q22 -14 68 -20v-86q-43 -6 -68 -20t-38 -36t-18 -53q-6 -39 -7 -71l-15 -281q-6 -97 -45 -155t-135 -58h-76v80h48q74 0 96 46q21 44 26 124l15 256q1 35 6 69q5 38 18 61q15 28 40 48
q26 21 69 33q-43 12 -69 33q-25 20 -40 48q-13 23 -18 60q-5 33 -6 70l-15 258q-5 80 -26 124q-22 46 -96 46h-48v80h76z" />
    <glyph glyph-name="asciitilde" unicode="~" horiz-adv-x="813" 
d="M254 815q48 2 87 -18q51 -25 81 -44q16 -10 77 -44q37 -20 74 -19q42 1 72 33t60 78l49 -47q-41 -66 -83 -101q-42 -34 -96 -39q-46 -2 -86 19q-37 19 -79 45q-43 27 -78 44q-38 19 -80 19q-48 0 -80 -28q-32 -27 -66 -82l-49 43q45 72 91 106q47 35 106 35z" />
    <glyph glyph-name="uni00A0" unicode="&#xa0;" horiz-adv-x="317" 
 />
    <glyph glyph-name="exclamdown" unicode="&#xa1;" horiz-adv-x="258" 
d="M174 1436v-181h-90v181h90zM82 668l12 450h70l12 -450v-668h-94v668z" />
    <glyph glyph-name="cent" unicode="&#xa2;" horiz-adv-x="772" 
d="M426 1348q70 -6 123 -34q50 -27 84 -74q33 -47 48 -107q15 -62 15 -134v-65h-90v70q0 117 -49 188q-49 72 -168 72q-59 0 -99 -21q-41 -21 -67 -56q-26 -34 -38 -85q-11 -45 -11 -107v-553q0 -61 11 -106q12 -50 38 -86t67 -57q40 -21 99 -21q119 0 168 76t49 190v113h90
v-107q0 -73 -15 -136q-15 -62 -48 -109q-34 -48 -84 -76q-52 -29 -123 -35v-98h-80v98q-73 6 -122 36q-50 31 -83 78q-32 46 -47 110q-14 59 -14 134v543q0 75 14 134q16 65 47 111q33 47 83 78q49 30 122 36v96h80v-96z" />
    <glyph glyph-name="sterling" unicode="&#xa3;" horiz-adv-x="790" 
d="M406 1446q81 0 139 -29q56 -28 93 -79q35 -48 52 -117q17 -70 17 -144v-88h-89v92q0 63 -11 108q-12 51 -36 88q-24 38 -64 60q-41 23 -99 23q-61 0 -103 -22t-65 -58q-24 -38 -36 -87q-11 -45 -11 -108q0 -91 18 -159q17 -63 44 -124q17 -38 53 -112q29 -60 46 -123h301
v-75h-293q6 -48 2 -91q-4 -41 -25 -94q-20 -50 -55 -103q-40 -60 -91 -118h518v-86h-637v84q45 34 84 76q42 45 69 95q28 51 43 112q14 56 6 125h-176v75h162q-21 66 -48 120q-32 63 -53 111q-27 61 -44 124q-19 71 -19 159q0 77 17 145q17 67 53 115q39 51 95 77
q61 28 143 28z" />
    <glyph glyph-name="currency" unicode="&#xa4;" horiz-adv-x="714" 
d="M541 860q51 -62 51 -143q0 -83 -51 -144l98 -96l-41 -41l-96 94q-61 -47 -146 -47q-79 0 -143 47l-96 -94l-41 41l96 94q-49 65 -49 146q0 82 49 143l-96 96l41 41l98 -96q61 49 141 49q81 0 146 -49l96 96l41 -41zM356 889q-36 0 -66 -13q-33 -14 -56 -37
q-20 -20 -36 -55q-14 -31 -14 -67q0 -37 14 -68q15 -33 36 -54q23 -23 56 -37q30 -13 66 -13q71 0 123 50q51 49 51 122t-51 122q-52 50 -123 50z" />
    <glyph glyph-name="yen" unicode="&#xa5;" horiz-adv-x="882" 
d="M487 508v-150h224v-53h-224v-305h-94v305h-221v53h221v150h-221v53h213l-328 873h101l286 -766l289 766h90l-329 -873h217v-53h-224z" />
    <glyph glyph-name="brokenbar" unicode="&#xa6;" horiz-adv-x="514" 
d="M221 1481h80v-643h-80v643zM221 596h80v-643h-80v643z" />
    <glyph glyph-name="section" unicode="&#xa7;" horiz-adv-x="774" 
d="M391 1446q129 -1 215 -72q84 -69 84 -190v-39h-90v26q0 93 -60 143q-61 50 -147 52q-85 0 -150 -42t-69 -136q-2 -62 37 -102q38 -39 96 -70q69 -37 125 -60q71 -30 126 -68q59 -41 97 -96q39 -57 39 -145q0 -100 -56 -166q-57 -67 -142 -106q43 -23 77 -44
q37 -23 65 -55t43 -71q15 -41 15 -94q-1 -57 -26 -104q-23 -45 -67 -78q-41 -31 -97 -49q-52 -17 -117 -17q-70 0 -124 17q-59 19 -97 51q-42 36 -65 82t-23 112v68h88v-58q0 -49 17 -83q18 -36 48 -60q32 -25 71 -37q40 -12 83 -12q41 0 77 10q37 10 68 32q33 23 50 54
q19 34 20 76q2 63 -36 104q-40 43 -96 72q-67 35 -126 58q-64 25 -126 67q-59 39 -97 95q-39 57 -39 144q0 101 64 168q67 70 153 99q-38 18 -83 45q-41 24 -71 56q-29 31 -48 73q-17 38 -17 96q1 60 26 108q24 46 67 80t97 50t121 16zM387 881q-38 -6 -80 -25
q-36 -17 -68 -47q-31 -29 -49 -67t-18 -83q0 -52 23 -90q21 -36 57 -65q33 -27 78 -49q44 -21 84 -39q76 22 134 80q56 56 56 147q0 47 -18 83t-49 64q-30 27 -70 50q-41 24 -80 41z" />
    <glyph glyph-name="dieresis" unicode="&#xa8;" horiz-adv-x="389" 
d="M139 1700h111v-174h-111v174z" />
    <glyph glyph-name="copyright" unicode="&#xa9;" horiz-adv-x="1531" 
d="M766 1434q150 0 280 -55q128 -54 221 -150q91 -94 145 -228q52 -129 52 -284q0 -156 -52 -285q-53 -132 -145 -227q-94 -97 -221 -151q-128 -54 -280 -54t-280 54q-127 54 -221 151q-92 95 -145 227q-52 129 -52 285q0 155 52 284q54 134 145 228q93 96 221 150
q130 55 280 55zM766 1370q-138 0 -255 -50q-116 -50 -200 -137q-85 -88 -131 -207q-47 -121 -47 -259t47 -259q46 -119 131 -207q84 -87 200 -137q119 -51 255 -51q133 0 254 51q117 50 200 137q84 89 130 207q47 121 47 259t-47 259q-46 118 -130 207q-83 87 -200 137
q-118 50 -254 50zM758 1165q114 0 163 -70q50 -71 50 -182v-49h-66v54q0 78 -33 131t-114 53q-79 0 -114 -53q-34 -52 -34 -131v-402q0 -79 34 -131q35 -53 114 -53q81 0 114 53t33 131v76h66v-74q0 -107 -50 -180q-49 -72 -163 -72q-115 0 -166 72t-51 180v395
q0 109 51 181q50 71 166 71z" />
    <glyph glyph-name="ordfeminine" unicode="&#xaa;" horiz-adv-x="559" 
d="M299 1444q101 0 141 -64q39 -63 39 -159v-533h-55l-4 127q-21 -62 -64 -99q-44 -38 -110 -38q-86 0 -129 52t-43 144v7q0 73 30 119t80 72t111 36q59 10 121 10v111q0 65 -24 110t-95 45t-101 -44t-30 -117v-25h-62v23q0 98 46 161q45 62 149 62zM416 1067q-52 0 -102 -9
t-89 -30t-62 -54q-24 -34 -24 -85v-10q0 -65 31 -104q30 -38 96 -38q72 0 107 53q36 55 43 117v160zM479 549v-64h-401v64h401z" />
    <glyph glyph-name="guillemotleft" unicode="&#xab;" horiz-adv-x="583" 
d="M63 719l136 502h86l-133 -502l133 -512h-86zM301 719l133 502h86l-133 -502l133 -512h-86z" />
    <glyph glyph-name="logicalnot" unicode="&#xac;" horiz-adv-x="778" 
d="M72 682v70h635v-344h-70v274h-565z" />
    <glyph glyph-name="uni00AD" unicode="&#xad;" horiz-adv-x="532" 
d="M78 760h377v-86h-377v86z" />
    <glyph glyph-name="registered" unicode="&#xae;" horiz-adv-x="1531" 
d="M766 1434q150 0 280 -55q128 -54 221 -150q91 -94 145 -228q52 -129 52 -284q0 -156 -52 -285q-53 -132 -145 -227q-94 -97 -221 -151q-128 -54 -280 -54t-280 54q-127 54 -221 151q-92 95 -145 227q-52 129 -52 285q0 155 52 284q54 134 145 228q93 96 221 150
q130 55 280 55zM766 1370q-138 0 -255 -50q-116 -50 -200 -137q-85 -88 -131 -207q-47 -121 -47 -259t47 -259q46 -119 131 -207q84 -87 200 -137q119 -51 255 -51q133 0 254 51q117 50 200 137q84 89 130 207q47 121 47 259t-47 259q-46 118 -130 207q-83 87 -200 137
q-118 50 -254 50zM774 1155q116 0 165 -59q50 -61 50 -168v-27q0 -79 -30 -131q-31 -54 -101 -76q71 -22 101 -73t30 -129v-95q0 -31 4 -62q4 -33 21 -56h-72q-13 20 -18 52q-4 24 -4 68v95q0 100 -53 133q-51 32 -136 32h-98v-380h-70v876h211zM750 725q86 0 128 36t42 128
v31q0 82 -33 125q-34 45 -117 45h-137v-365h117z" />
    <glyph glyph-name="macron" unicode="&#xaf;" horiz-adv-x="518" 
d="M457 1599v-69h-398v69h398z" />
    <glyph glyph-name="degree" unicode="&#xb0;" horiz-adv-x="430" 
d="M215 1450q65 0 108 -43q44 -44 44 -107q0 -62 -44 -106q-43 -43 -108 -43q-64 0 -107 43q-45 45 -45 106q0 62 45 107q43 43 107 43zM215 1401q-42 0 -73 -29q-29 -28 -29 -72q0 -43 29 -71q31 -29 73 -29q41 0 72 29q30 29 30 71q0 44 -30 72q-31 29 -72 29z" />
    <glyph glyph-name="plusminus" unicode="&#xb1;" horiz-adv-x="794" 
d="M362 455v241h-284v72h284v279h70v-279h285v-72h-285v-241h285v-72h-639v72h284z" />
    <glyph glyph-name="twosuperior" unicode="&#xb2;" horiz-adv-x="555" 
d="M283 1638q108 0 153 -66t45 -167q0 -67 -24 -119q-23 -49 -61 -99q-34 -44 -79 -89q-38 -38 -80 -90q-39 -48 -63 -101q-26 -56 -27 -121v-8h324v-59h-387v47q0 78 25 140q26 65 61 111q41 54 80 93q36 36 80 87q36 42 61 93q25 52 25 113q0 77 -30 127q-30 49 -105 49
q-76 0 -106 -50q-30 -49 -30 -124v-62h-61v60q0 52 11 92q13 46 35 75q25 33 61 50q38 18 92 18z" />
    <glyph glyph-name="threesuperior" unicode="&#xb3;" horiz-adv-x="555" 
d="M279 1638q104 0 150 -65t46 -166v-23q0 -64 -28 -115t-87 -73q60 -22 87 -71q28 -50 28 -113v-72q0 -101 -46 -166t-150 -65q-107 0 -153 65t-46 166v51h61v-55q0 -70 31 -120q30 -48 104 -48q75 0 105 48q31 50 31 126v70q0 68 -34 108q-35 41 -99 41h-62v60h64
q59 0 96 45q37 44 35 106v33q0 76 -31 126q-30 48 -105 48q-74 0 -104 -48q-31 -50 -31 -120v-37h-61v33q0 101 46 166t153 65z" />
    <glyph glyph-name="acute" unicode="&#xb4;" horiz-adv-x="403" 
d="M315 1737l-172 -195h-71l147 195h96z" />
    <glyph glyph-name="uni00B5" unicode="&#xb5;" horiz-adv-x="817" 
d="M629 186q-27 -89 -87 -142q-59 -52 -151 -52q-83 0 -133 44t-68 111l3 -335h-95v1212h95v-674q0 -117 49 -193q50 -77 164 -77t164 77q51 79 51 193v674h94v-1024h-86v186z" />
    <glyph glyph-name="paragraph" unicode="&#xb6;" horiz-adv-x="811" 
d="M379 1362v-1489h-72v719q-140 6 -199 93q-59 88 -59 247v162q0 79 13 140t47 106q35 46 87 69q56 25 138 25h373v-1561h-72v1489h-256z" />
    <glyph glyph-name="periodcentered" unicode="&#xb7;" horiz-adv-x="256" 
d="M174 827v-180h-92v180h92z" />
    <glyph glyph-name="cedilla" unicode="&#xb8;" horiz-adv-x="505" 
d="M281 -80q67 -2 109 -22q44 -21 44 -82q0 -37 -15 -61q-14 -22 -41 -38q-24 -14 -59 -19q-37 -5 -67 -5q-33 0 -66 6q-35 6 -58 20q-27 16 -41 37q-15 22 -15 58v12h67v-10q0 -45 38 -63q36 -17 75 -19q41 0 77 18t36 66t-36 63t-81 15h-15v114h48v-90z" />
    <glyph glyph-name="onesuperior" unicode="&#xb9;" horiz-adv-x="364" 
d="M72 1505q65 4 99 38t52 85h51v-909h-65v805q-24 -29 -59 -47q-36 -19 -78 -23v51z" />
    <glyph glyph-name="ordmasculine" unicode="&#xba;" horiz-adv-x="561" 
d="M281 1444q106 0 154 -66t48 -166v-309q0 -100 -48 -166q-47 -65 -154 -65q-108 0 -155 65q-48 66 -48 166v309q0 100 48 166t155 66zM281 1384q-77 0 -108 -48q-32 -49 -32 -119v-318q0 -71 32 -120q31 -48 108 -48q73 0 105 48q32 49 32 120v318q0 70 -32 119
q-32 48 -105 48zM483 551v-64h-403v64h403z" />
    <glyph glyph-name="guillemotright" unicode="&#xbb;" horiz-adv-x="583" 
d="M197 719l-134 502h87l135 -502l-135 -512h-87zM432 719l-131 502h86l133 -502l-133 -512h-86z" />
    <glyph glyph-name="onequarter" unicode="&#xbc;" horiz-adv-x="1081" 
d="M238 1329q-24 -28 -60 -47q-33 -17 -76 -22l-2 51q68 5 101 38q35 35 51 85h51v-910h-65v805zM291 0h-60l566 1434h59zM940 0h-63v197h-312v59l301 653h74v-653h74v-59h-74v-197zM877 256v530l-250 -530h250z" />
    <glyph glyph-name="onehalf" unicode="&#xbd;" horiz-adv-x="1173" 
d="M238 1329q-24 -28 -60 -47q-33 -17 -76 -22l-2 51q68 5 101 38q35 35 51 85h51v-910h-65v805zM836 1434l-566 -1434h-61l565 1434h62zM899 920q108 0 154 -67q45 -66 45 -167q0 -63 -25 -118q-23 -50 -60 -98q-34 -44 -79 -89q-38 -38 -80 -90q-34 -42 -61 -101
q-26 -56 -27 -120v-11h321v-59h-387v47q0 77 25 140q26 65 61 111q38 50 81 93t81 87q39 45 62 93q24 49 24 113q0 79 -29 127q-30 49 -106 49t-106 -50q-31 -51 -31 -124v-61h-62v59q0 101 46 168q47 68 153 68z" />
    <glyph glyph-name="threequarters" unicode="&#xbe;" horiz-adv-x="1183" 
d="M279 1444q103 0 150 -66q46 -65 46 -166v-22q0 -65 -28 -116t-87 -73q60 -23 87 -70q28 -50 28 -114v-72q0 -100 -46 -165q-47 -66 -150 -66q-107 0 -153 66q-46 65 -46 165v52h61v-56q0 -69 31 -119q31 -49 104 -49q74 0 105 49q31 50 31 126v69q0 69 -34 109
q-35 41 -99 41h-62v59h64q59 0 96 45q37 44 35 107v32q0 76 -31 126q-30 48 -105 48q-74 0 -104 -48q-31 -50 -31 -119v-37h-61v32q0 101 46 166q46 66 153 66zM905 1434h62l-566 -1434h-61zM977 197h-309v59l301 653h73v-653h74v-59h-74v-197h-65v197zM729 256h248v530z
" />
    <glyph glyph-name="questiondown" unicode="&#xbf;" horiz-adv-x="743" 
d="M444 1434v-179h-92v179h92zM438 1114q13 -41 13 -80q0 -76 -23 -137q-22 -60 -54 -111q-27 -44 -70 -97q-40 -50 -71 -96q-33 -49 -54 -110q-21 -60 -21 -135q0 -62 10 -109q10 -49 36 -87q25 -37 66 -58q39 -20 103 -20q59 0 100 21t66 60q22 34 35 88q12 49 12 107v101
h90v-95q0 -75 -17 -145q-17 -69 -53 -117q-38 -50 -95 -78t-140 -28q-85 0 -143 27q-56 26 -95 77q-36 47 -53 116q-17 68 -17 144q0 79 23 143q22 61 55 114t72 99t72 96q32 48 55 106q22 56 22 128q0 9 -2 37q-2 21 -6 39h84z" />
    <glyph glyph-name="Agrave" unicode="&#xc0;" horiz-adv-x="892" 
d="M365 1704l145 -195h-74l-174 195h103zM219 317l-72 -317h-86l314 1436h137l319 -1436h-94l-71 317h-447zM233 399h418l-211 928z" />
    <glyph glyph-name="Aacute" unicode="&#xc1;" horiz-adv-x="892" 
d="M623 1706l-172 -195h-72l145 195h99zM219 317l-72 -317h-86l314 1436h137l319 -1436h-94l-71 317h-447zM233 399h418l-211 928z" />
    <glyph glyph-name="Acircumflex" unicode="&#xc2;" horiz-adv-x="892" 
d="M317 1509h-88l172 185h82l174 -185h-90l-125 129zM219 317l-72 -317h-86l314 1436h137l319 -1436h-94l-71 317h-447zM233 399h418l-211 928z" />
    <glyph glyph-name="Atilde" unicode="&#xc3;" horiz-adv-x="892" 
d="M348 1667q31 0 53 -11q41 -20 49 -25q8 -4 45 -23q22 -11 44 -11q25 1 44 19q14 13 31 45l52 -35q-21 -45 -50 -71q-28 -25 -69 -25q-31 -2 -52 9q-26 13 -46 25q-11 7 -46 23q-21 10 -47 10q-53 0 -86 -61l-51 33q43 93 129 98zM219 317l-72 -317h-86l314 1436h137
l319 -1436h-94l-71 317h-447zM233 399h418l-211 928z" />
    <glyph glyph-name="Adieresis" unicode="&#xc4;" horiz-adv-x="892" 
d="M385 1681v-172h-84v172h84zM584 1681v-172h-84v172h84zM219 317l-72 -317h-86l314 1436h137l319 -1436h-94l-71 317h-447zM233 399h418l-211 928z" />
    <glyph glyph-name="Aring" unicode="&#xc5;" horiz-adv-x="892" 
d="M442 1786q58 0 98 -39t40 -96q0 -60 -40 -99t-98 -39q-59 0 -98 39t-39 99q0 57 39 96t98 39zM442 1735q-36 0 -62 -24t-26 -60q0 -39 26 -63q24 -23 62 -23q36 0 62 23t26 63q0 37 -26 60q-27 24 -62 24zM219 317l-72 -317h-86l314 1436h137l319 -1436h-94l-71 317h-447
zM233 399h418l-211 928z" />
    <glyph glyph-name="AE" unicode="&#xc6;" horiz-adv-x="1206" 
d="M1061 770v-86h-346v-598h418v-86h-512v322h-359l-117 -322h-90l510 1434h568v-86h-418v-578h346zM287 406h334v911z" />
    <glyph glyph-name="Ccedilla" unicode="&#xc7;" horiz-adv-x="765" 
d="M385 1446q79 0 140 -28q59 -27 97 -76q37 -47 55 -114q17 -62 17 -145v-118h-90v125q0 61 -11 106q-12 50 -38 86q-25 35 -68 57q-41 21 -100 21t-100 -21q-43 -22 -68 -57q-26 -36 -38 -86q-11 -45 -11 -106v-746q0 -61 11 -106q12 -51 38 -85q27 -36 68 -57
q39 -20 100 -20t100 20q41 21 68 57q26 34 38 85q11 45 11 106v170h90v-164q0 -75 -16 -138q-16 -64 -51 -114q-34 -49 -89 -78q-52 -27 -130 -32v-58q72 -2 112 -31q41 -30 41 -83q0 -65 -48 -99q-47 -34 -134 -32q-89 0 -133 33q-47 35 -47 96v12h65v-10q0 -34 31 -56
q27 -19 84 -24q56 0 86 21q31 22 31 61q0 34 -32 55t-91 21h-15v96q-76 4 -129 33t-87 76q-33 46 -50 113q-16 63 -16 138v733q0 83 17 145q18 67 55 114q38 49 97 76q61 28 140 28z" />
    <glyph glyph-name="Egrave" unicode="&#xc8;" horiz-adv-x="718" 
d="M313 1724l146 -194h-76l-172 194h102zM567 770v-86h-391v-598h471v-86h-565v1434h565v-86h-471v-578h391z" />
    <glyph glyph-name="Eacute" unicode="&#xc9;" horiz-adv-x="718" 
d="M532 1710l-172 -194h-71l145 194h98zM567 770v-86h-391v-598h471v-86h-565v1434h565v-86h-471v-578h391z" />
    <glyph glyph-name="Ecircumflex" unicode="&#xca;" horiz-adv-x="718" 
d="M238 1518h-88l172 184h81l175 -184h-91l-125 131zM567 770v-86h-391v-598h471v-86h-565v1434h565v-86h-471v-578h391z" />
    <glyph glyph-name="Edieresis" unicode="&#xcb;" horiz-adv-x="718" 
d="M305 1690v-174h-82v174h82zM504 1690v-174h-84v174h84zM567 770v-86h-391v-598h471v-86h-565v1434h565v-86h-471v-578h391z" />
    <glyph glyph-name="Igrave" unicode="&#xcc;" horiz-adv-x="258" 
d="M-49 1710h100l146 -194h-74zM82 1434h94v-1434h-94v1434z" />
    <glyph glyph-name="Iacute" unicode="&#xcd;" horiz-adv-x="258" 
d="M197 1712h98l-172 -194h-72zM82 1434h94v-1434h-94v1434z" />
    <glyph glyph-name="Icircumflex" unicode="&#xce;" horiz-adv-x="258" 
d="M170 1700l172 -184h-88l-125 131l-125 -131h-88l172 184h82zM82 1434h94v-1434h-94v1434z" />
    <glyph glyph-name="Idieresis" unicode="&#xcf;" horiz-adv-x="258" 
d="M72 1690v-172h-84v172h84zM270 1690v-172h-84v172h84zM176 1434v-1434h-94v1434h94z" />
    <glyph glyph-name="Eth" unicode="&#xd0;" horiz-adv-x="788" 
d="M397 1434q82 0 143 -26q59 -25 99 -73q39 -47 57 -112q19 -70 19 -146v-721q0 -75 -19 -145q-18 -67 -57 -113t-99 -72q-61 -26 -143 -26h-315v678h-94v78h94v678h315zM358 678h-182v-592h219q120 0 173 74t53 192v729q0 117 -54 193q-53 74 -172 74h-219v-592h182v-78z
" />
    <glyph glyph-name="Ntilde" unicode="&#xd1;" horiz-adv-x="800" 
d="M625 1642q-39 -91 -119 -96q-29 0 -52 10q-22 10 -46 24q-19 11 -46 24q-21 10 -47 10q-51 0 -86 -62l-49 33q39 94 127 98q30 0 53 -10q36 -16 49 -23q7 -4 22 -12.5t23 -12.5q19 -11 44 -9q28 0 45 17t32 44zM168 0h-86v1434h123l430 -1211v1211h86v-1434h-105
l-448 1278v-1278z" />
    <glyph glyph-name="Ograve" unicode="&#xd2;" 
d="M344 1724l145 -194h-75l-172 194h102zM389 1446q80 0 142 -28q60 -27 100 -76q39 -48 57 -114q19 -70 19 -145v-733q0 -74 -19 -144q-18 -68 -57 -115q-40 -49 -100 -76t-142 -27q-81 0 -141 27q-58 26 -97 76t-57 115q-18 66 -18 144v733q0 79 18 145q17 63 57 114
q39 50 97 76q62 28 141 28zM389 1360q-119 0 -169 -77t-50 -193v-746q0 -116 50 -193t169 -77q118 0 171 77q52 76 52 193v746q0 117 -52 193q-53 77 -171 77z" />
    <glyph glyph-name="Oacute" unicode="&#xd3;" 
d="M598 1724l-172 -194h-72l146 194h98zM389 1446q80 0 142 -28q60 -27 100 -76q39 -48 57 -114q19 -70 19 -145v-733q0 -74 -19 -144q-18 -68 -57 -115q-40 -49 -100 -76t-142 -27q-81 0 -141 27q-58 26 -97 76t-57 115q-18 66 -18 144v733q0 79 18 145q17 63 57 114
q39 50 97 76q62 28 141 28zM389 1360q-119 0 -169 -77t-50 -193v-746q0 -116 50 -193t169 -77q118 0 171 77q52 76 52 193v746q0 117 -52 193q-53 77 -171 77z" />
    <glyph glyph-name="Ocircumflex" unicode="&#xd4;" 
d="M272 1526h-88l172 184h82l172 -184h-88l-125 131zM389 1446q80 0 142 -28q60 -27 100 -76q39 -48 57 -114q19 -70 19 -145v-733q0 -74 -19 -144q-18 -68 -57 -115q-40 -49 -100 -76t-142 -27q-81 0 -141 27q-58 26 -97 76t-57 115q-18 66 -18 144v733q0 79 18 145
q17 63 57 114q39 50 97 76q62 28 141 28zM389 1360q-119 0 -169 -77t-50 -193v-746q0 -116 50 -193t169 -77q118 0 171 77q52 76 52 193v746q0 117 -52 193q-53 77 -171 77z" />
    <glyph glyph-name="Otilde" unicode="&#xd5;" 
d="M621 1638q-17 -43 -49 -70q-31 -27 -70 -28q-29 0 -52 10q-26 11 -47 24l-45 24q-22 12 -47 12q-56 0 -86 -64l-51 35q45 96 129 96q30 0 53 -10q32 -14 48 -23t46 -24q20 -10 44 -10q27 2 45 18q18 17 30 43zM389 1446q80 0 142 -28q60 -27 100 -76q39 -48 57 -114
q19 -70 19 -145v-733q0 -74 -19 -144q-18 -68 -57 -115q-40 -49 -100 -76t-142 -27q-81 0 -141 27q-58 26 -97 76t-57 115q-18 66 -18 144v733q0 79 18 145q17 63 57 114q39 50 97 76q62 28 141 28zM389 1360q-119 0 -169 -77t-50 -193v-746q0 -116 50 -193t169 -77
q118 0 171 77q52 76 52 193v746q0 117 -52 193q-53 77 -171 77z" />
    <glyph glyph-name="Odieresis" unicode="&#xd6;" 
d="M332 1700v-174h-84v174h84zM530 1700v-174h-84v174h84zM389 1446q80 0 142 -28q60 -27 100 -76q39 -48 57 -114q19 -70 19 -145v-733q0 -74 -19 -144q-18 -68 -57 -115q-40 -49 -100 -76t-142 -27q-81 0 -141 27q-58 26 -97 76t-57 115q-18 66 -18 144v733q0 79 18 145
q17 63 57 114q39 50 97 76q62 28 141 28zM389 1360q-119 0 -169 -77t-50 -193v-746q0 -116 50 -193t169 -77q118 0 171 77q52 76 52 193v746q0 117 -52 193q-53 77 -171 77z" />
    <glyph glyph-name="multiply" unicode="&#xd7;" horiz-adv-x="690" 
d="M561 451l-215 217l-217 -217l-49 49l217 215l-215 215l47 49l217 -215l215 215l47 -47l-215 -217l215 -215z" />
    <glyph glyph-name="Oslash" unicode="&#xd8;" 
d="M647 1321q30 -46 45 -107q15 -60 15 -131v-733q0 -74 -19 -144q-18 -68 -57 -115q-40 -49 -100 -76t-142 -27q-71 0 -127 21q-52 20 -92 61l-41 -105l-47 17l51 135q-57 90 -57 233v733q0 79 18 145q17 63 57 114q39 50 97 76q62 28 141 28q71 0 128 -22q54 -21 93 -60
l39 100l45 -16zM170 344q0 -28 3 -54q4 -34 7 -50l393 1026q-27 43 -71 68q-46 26 -113 26q-119 0 -169 -77t-50 -193v-746zM612 1090q0 58 -12 110l-393 -1030q27 -45 71 -71q43 -25 111 -25q118 0 171 77q52 76 52 193v746z" />
    <glyph glyph-name="Ugrave" unicode="&#xd9;" horiz-adv-x="770" 
d="M317 1712l146 -194h-76l-172 194h102zM690 350q0 -79 -16 -143q-17 -67 -53 -115q-38 -50 -96 -77q-59 -27 -140 -27t-140 27q-56 26 -95 77q-37 49 -55 115q-17 62 -17 143v1084h94v-1088q0 -62 11 -107q12 -51 37 -87q24 -36 67 -58q39 -20 100 -20t100 20q43 22 67 58
q25 36 37 87q11 45 11 107v1088h88v-1084z" />
    <glyph glyph-name="Uacute" unicode="&#xda;" horiz-adv-x="770" 
d="M580 1724l-172 -194h-72l145 194h99zM690 350q0 -79 -16 -143q-17 -67 -53 -115q-38 -50 -96 -77q-59 -27 -140 -27t-140 27q-56 26 -95 77q-37 49 -55 115q-17 62 -17 143v1084h94v-1088q0 -62 11 -107q12 -51 37 -87q24 -36 67 -58q39 -20 100 -20t100 20q43 22 67 58
q25 36 37 87q11 45 11 107v1088h88v-1084z" />
    <glyph glyph-name="Ucircumflex" unicode="&#xdb;" horiz-adv-x="770" 
d="M262 1526h-88l172 184h82l174 -184h-90l-125 131zM690 350q0 -79 -16 -143q-17 -67 -53 -115q-38 -50 -96 -77q-59 -27 -140 -27t-140 27q-56 26 -95 77q-37 49 -55 115q-17 62 -17 143v1084h94v-1088q0 -62 11 -107q12 -51 37 -87q24 -36 67 -58q39 -20 100 -20t100 20
q43 22 67 58q25 36 37 87q11 45 11 107v1088h88v-1084z" />
    <glyph glyph-name="Udieresis" unicode="&#xdc;" horiz-adv-x="770" 
d="M328 1696v-174h-84v174h84zM526 1696v-174h-84v174h84zM690 350q0 -79 -16 -143q-17 -67 -53 -115q-38 -50 -96 -77q-59 -27 -140 -27t-140 27q-56 26 -95 77q-37 49 -55 115q-17 62 -17 143v1084h94v-1088q0 -62 11 -107q12 -51 37 -87q24 -36 67 -58q39 -20 100 -20
t100 20q43 22 67 58q25 36 37 87q11 45 11 107v1088h88v-1084z" />
    <glyph glyph-name="Yacute" unicode="&#xdd;" horiz-adv-x="849" 
d="M616 1710l-172 -194h-71l147 194h96zM377 551l-322 883h99l274 -754l274 754h93l-324 -883v-551h-94v551z" />
    <glyph glyph-name="Thorn" unicode="&#xde;" horiz-adv-x="772" 
d="M379 1184q165 0 236 -95t71 -253v-156q0 -171 -80 -256q-80 -84 -252 -84h-178v-340h-94v1434h94v-250h203zM354 426q125 0 182 58q56 57 56 190v166q0 119 -46 187q-46 69 -167 69h-203v-670h178z" />
    <glyph glyph-name="germandbls" unicode="&#xdf;" horiz-adv-x="1458" 
d="M375 1446q82 0 139 -27q56 -27 94 -75q37 -48 55 -113q17 -62 17 -144v-30h-90v37q0 61 -11 105q-12 49 -37 84q-24 34 -67 56q-40 21 -98 21q-117 0 -165 -75t-48 -189q0 -88 38 -150t96 -111q63 -53 125 -97q70 -50 125 -100q57 -53 96 -124q38 -70 38 -168
q0 -81 -17 -143q-18 -65 -56 -114q-37 -48 -96 -75q-56 -26 -140 -26q-85 0 -141 26q-58 27 -96 75q-37 47 -55 114q-18 66 -18 143v74h91v-80q0 -115 49 -189q49 -75 168 -75q117 0 167 74t50 190q0 85 -38 147q-39 64 -96 112q-59 50 -125 95q-64 43 -125 100
q-58 54 -96 125t-38 171q0 162 72 258t233 98zM1085 1446q83 0 140 -27q56 -27 94 -75q36 -46 54 -113q18 -66 18 -144v-30h-91v37q0 61 -11 105q-12 49 -37 84q-24 34 -66 56q-40 21 -99 21q-116 0 -164 -75q-49 -77 -49 -189q0 -88 38 -150q36 -60 97 -111q63 -53 125 -97
q66 -47 124 -100q59 -55 97 -124q38 -70 38 -168q0 -77 -18 -143q-18 -67 -55 -114q-38 -48 -96 -75q-56 -26 -141 -26q-84 0 -140 26q-59 27 -96 75q-37 47 -55 114q-18 66 -18 143v74h90v-80q0 -115 49 -189q49 -75 168 -75t168 75q49 74 49 189q0 86 -37 147
q-38 62 -97 112t-125 95q-64 43 -125 100q-58 54 -96 125t-38 171q0 161 73 258q72 96 232 98z" />
    <glyph glyph-name="agrave" unicode="&#xe0;" horiz-adv-x="892" 
d="M365 1704l145 -195h-74l-174 195h103zM219 317l-72 -317h-86l314 1436h137l319 -1436h-94l-71 317h-447zM233 399h418l-211 928z" />
    <glyph glyph-name="aacute" unicode="&#xe1;" horiz-adv-x="892" 
d="M623 1706l-172 -195h-72l145 195h99zM219 317l-72 -317h-86l314 1436h137l319 -1436h-94l-71 317h-447zM233 399h418l-211 928z" />
    <glyph glyph-name="acircumflex" unicode="&#xe2;" horiz-adv-x="892" 
d="M317 1509h-88l172 185h82l174 -185h-90l-125 129zM219 317l-72 -317h-86l314 1436h137l319 -1436h-94l-71 317h-447zM233 399h418l-211 928z" />
    <glyph glyph-name="atilde" unicode="&#xe3;" horiz-adv-x="892" 
d="M348 1667q31 0 53 -11q41 -20 49 -25q8 -4 45 -23q22 -11 44 -11q25 1 44 19q14 13 31 45l52 -35q-21 -45 -50 -71q-28 -25 -69 -25q-31 -2 -52 9q-26 13 -46 25q-11 7 -46 23q-21 10 -47 10q-53 0 -86 -61l-51 33q43 93 129 98zM219 317l-72 -317h-86l314 1436h137
l319 -1436h-94l-71 317h-447zM233 399h418l-211 928z" />
    <glyph glyph-name="adieresis" unicode="&#xe4;" horiz-adv-x="892" 
d="M385 1681v-172h-84v172h84zM584 1681v-172h-84v172h84zM219 317l-72 -317h-86l314 1436h137l319 -1436h-94l-71 317h-447zM233 399h418l-211 928z" />
    <glyph glyph-name="aring" unicode="&#xe5;" horiz-adv-x="892" 
d="M442 1786q58 0 98 -39t40 -96q0 -60 -40 -99t-98 -39q-59 0 -98 39t-39 99q0 57 39 96t98 39zM442 1735q-36 0 -62 -24t-26 -60q0 -39 26 -63q24 -23 62 -23q36 0 62 23t26 63q0 37 -26 60q-27 24 -62 24zM219 317l-72 -317h-86l314 1436h137l319 -1436h-94l-71 317h-447
zM233 399h418l-211 928z" />
    <glyph glyph-name="ae" unicode="&#xe6;" horiz-adv-x="1206" 
d="M1061 770v-86h-346v-598h418v-86h-512v322h-359l-117 -322h-90l510 1434h568v-86h-418v-578h346zM287 406h334v911z" />
    <glyph glyph-name="ccedilla" unicode="&#xe7;" horiz-adv-x="765" 
d="M385 1446q79 0 140 -28q59 -27 97 -76q37 -47 55 -114q17 -62 17 -145v-118h-90v125q0 61 -11 106q-12 50 -38 86q-25 35 -68 57q-41 21 -100 21t-100 -21q-43 -22 -68 -57q-26 -36 -38 -86q-11 -45 -11 -106v-746q0 -61 11 -106q12 -51 38 -85q27 -36 68 -57
q39 -20 100 -20t100 20q41 21 68 57q26 34 38 85q11 45 11 106v170h90v-164q0 -75 -16 -138q-16 -64 -51 -114q-34 -49 -89 -78q-52 -27 -130 -32v-58q72 -2 112 -31q41 -30 41 -83q0 -65 -48 -99q-47 -34 -134 -32q-89 0 -133 33q-47 35 -47 96v12h65v-10q0 -34 31 -56
q27 -19 84 -24q56 0 86 21q31 22 31 61q0 34 -32 55t-91 21h-15v96q-76 4 -129 33t-87 76q-33 46 -50 113q-16 63 -16 138v733q0 83 17 145q18 67 55 114q38 49 97 76q61 28 140 28z" />
    <glyph glyph-name="egrave" unicode="&#xe8;" horiz-adv-x="718" 
d="M313 1724l146 -194h-76l-172 194h102zM567 770v-86h-391v-598h471v-86h-565v1434h565v-86h-471v-578h391z" />
    <glyph glyph-name="eacute" unicode="&#xe9;" horiz-adv-x="718" 
d="M532 1710l-172 -194h-71l145 194h98zM567 770v-86h-391v-598h471v-86h-565v1434h565v-86h-471v-578h391z" />
    <glyph glyph-name="ecircumflex" unicode="&#xea;" horiz-adv-x="718" 
d="M238 1518h-88l172 184h81l175 -184h-91l-125 131zM567 770v-86h-391v-598h471v-86h-565v1434h565v-86h-471v-578h391z" />
    <glyph glyph-name="edieresis" unicode="&#xeb;" horiz-adv-x="718" 
d="M305 1690v-174h-82v174h82zM504 1690v-174h-84v174h84zM567 770v-86h-391v-598h471v-86h-565v1434h565v-86h-471v-578h391z" />
    <glyph glyph-name="igrave" unicode="&#xec;" horiz-adv-x="258" 
d="M-49 1710h100l146 -194h-74zM82 1434h94v-1434h-94v1434z" />
    <glyph glyph-name="iacute" unicode="&#xed;" horiz-adv-x="258" 
d="M197 1712h98l-172 -194h-72zM82 1434h94v-1434h-94v1434z" />
    <glyph glyph-name="icircumflex" unicode="&#xee;" horiz-adv-x="258" 
d="M170 1700l172 -184h-88l-125 131l-125 -131h-88l172 184h82zM82 1434h94v-1434h-94v1434z" />
    <glyph glyph-name="idieresis" unicode="&#xef;" horiz-adv-x="258" 
d="M72 1690v-172h-84v172h84zM270 1690v-172h-84v172h84zM176 1434v-1434h-94v1434h94z" />
    <glyph glyph-name="eth" unicode="&#xf0;" horiz-adv-x="788" 
d="M397 1434q82 0 143 -26q59 -25 99 -73q39 -47 57 -112q19 -70 19 -146v-721q0 -75 -19 -145q-18 -67 -57 -113t-99 -72q-61 -26 -143 -26h-315v676h-86v78h86v680h315zM360 676h-184v-590h219q120 0 173 74t53 192v729q0 117 -54 193q-53 74 -172 74h-219v-594h184v-78z
" />
    <glyph glyph-name="ntilde" unicode="&#xf1;" horiz-adv-x="800" 
d="M625 1642q-39 -91 -119 -96q-29 0 -52 10q-22 10 -46 24q-19 11 -46 24q-21 10 -47 10q-51 0 -86 -62l-49 33q39 94 127 98q30 0 53 -10q36 -16 49 -23q7 -4 22 -12.5t23 -12.5q19 -11 44 -9q28 0 45 17t32 44zM168 0h-86v1434h123l430 -1211v1211h86v-1434h-105
l-448 1278v-1278z" />
    <glyph glyph-name="ograve" unicode="&#xf2;" 
d="M344 1724l145 -194h-75l-172 194h102zM389 1446q80 0 142 -28q60 -27 100 -76q39 -48 57 -114q19 -70 19 -145v-733q0 -74 -19 -144q-18 -68 -57 -115q-40 -49 -100 -76t-142 -27q-81 0 -141 27q-58 26 -97 76t-57 115q-18 66 -18 144v733q0 79 18 145q17 63 57 114
q39 50 97 76q62 28 141 28zM389 1360q-119 0 -169 -77t-50 -193v-746q0 -116 50 -193t169 -77q118 0 171 77q52 76 52 193v746q0 117 -52 193q-53 77 -171 77z" />
    <glyph glyph-name="oacute" unicode="&#xf3;" 
d="M598 1724l-172 -194h-72l146 194h98zM389 1446q80 0 142 -28q60 -27 100 -76q39 -48 57 -114q19 -70 19 -145v-733q0 -74 -19 -144q-18 -68 -57 -115q-40 -49 -100 -76t-142 -27q-81 0 -141 27q-58 26 -97 76t-57 115q-18 66 -18 144v733q0 79 18 145q17 63 57 114
q39 50 97 76q62 28 141 28zM389 1360q-119 0 -169 -77t-50 -193v-746q0 -116 50 -193t169 -77q118 0 171 77q52 76 52 193v746q0 117 -52 193q-53 77 -171 77z" />
    <glyph glyph-name="ocircumflex" unicode="&#xf4;" 
d="M272 1526h-88l172 184h82l172 -184h-88l-125 131zM389 1446q80 0 142 -28q60 -27 100 -76q39 -48 57 -114q19 -70 19 -145v-733q0 -74 -19 -144q-18 -68 -57 -115q-40 -49 -100 -76t-142 -27q-81 0 -141 27q-58 26 -97 76t-57 115q-18 66 -18 144v733q0 79 18 145
q17 63 57 114q39 50 97 76q62 28 141 28zM389 1360q-119 0 -169 -77t-50 -193v-746q0 -116 50 -193t169 -77q118 0 171 77q52 76 52 193v746q0 117 -52 193q-53 77 -171 77z" />
    <glyph glyph-name="otilde" unicode="&#xf5;" 
d="M621 1638q-17 -43 -49 -70q-31 -27 -70 -28q-29 0 -52 10q-26 11 -47 24l-45 24q-22 12 -47 12q-56 0 -86 -64l-51 35q45 96 129 96q30 0 53 -10q32 -14 48 -23t46 -24q20 -10 44 -10q27 2 45 18q18 17 30 43zM389 1446q80 0 142 -28q60 -27 100 -76q39 -48 57 -114
q19 -70 19 -145v-733q0 -74 -19 -144q-18 -68 -57 -115q-40 -49 -100 -76t-142 -27q-81 0 -141 27q-58 26 -97 76t-57 115q-18 66 -18 144v733q0 79 18 145q17 63 57 114q39 50 97 76q62 28 141 28zM389 1360q-119 0 -169 -77t-50 -193v-746q0 -116 50 -193t169 -77
q118 0 171 77q52 76 52 193v746q0 117 -52 193q-53 77 -171 77z" />
    <glyph glyph-name="odieresis" unicode="&#xf6;" 
d="M332 1700v-174h-84v174h84zM530 1700v-174h-84v174h84zM389 1446q80 0 142 -28q60 -27 100 -76q39 -48 57 -114q19 -70 19 -145v-733q0 -74 -19 -144q-18 -68 -57 -115q-40 -49 -100 -76t-142 -27q-81 0 -141 27q-58 26 -97 76t-57 115q-18 66 -18 144v733q0 79 18 145
q17 63 57 114q39 50 97 76q62 28 141 28zM389 1360q-119 0 -169 -77t-50 -193v-746q0 -116 50 -193t169 -77q118 0 171 77q52 76 52 193v746q0 117 -52 193q-53 77 -171 77z" />
    <glyph glyph-name="divide" unicode="&#xf7;" horiz-adv-x="624" 
d="M356 1022v-180h-90v180h90zM555 752v-70h-483v70h483zM356 592v-180h-90v180h90z" />
    <glyph glyph-name="oslash" unicode="&#xf8;" 
d="M647 1321q30 -46 45 -107q15 -60 15 -131v-733q0 -74 -19 -144q-18 -68 -57 -115q-40 -49 -100 -76t-142 -27q-71 0 -127 21q-52 20 -92 61l-41 -105l-47 17l51 135q-57 90 -57 233v733q0 79 18 145q17 63 57 114q39 50 97 76q62 28 141 28q71 0 128 -22q54 -21 93 -60
l39 100l45 -16zM170 344q0 -28 3 -54q4 -34 7 -50l393 1026q-27 43 -71 68q-46 26 -113 26q-119 0 -169 -77t-50 -193v-746zM612 1090q0 58 -12 110l-393 -1030q27 -45 71 -71q43 -25 111 -25q118 0 171 77q52 76 52 193v746z" />
    <glyph glyph-name="ugrave" unicode="&#xf9;" horiz-adv-x="770" 
d="M317 1712l146 -194h-76l-172 194h102zM690 350q0 -79 -16 -143q-17 -67 -53 -115q-38 -50 -96 -77q-59 -27 -140 -27t-140 27q-56 26 -95 77q-37 49 -55 115q-17 62 -17 143v1084h94v-1088q0 -62 11 -107q12 -51 37 -87q24 -36 67 -58q39 -20 100 -20t100 20q43 22 67 58
q25 36 37 87q11 45 11 107v1088h88v-1084z" />
    <glyph glyph-name="uacute" unicode="&#xfa;" horiz-adv-x="770" 
d="M580 1724l-172 -194h-72l145 194h99zM690 350q0 -79 -16 -143q-17 -67 -53 -115q-38 -50 -96 -77q-59 -27 -140 -27t-140 27q-56 26 -95 77q-37 49 -55 115q-17 62 -17 143v1084h94v-1088q0 -62 11 -107q12 -51 37 -87q24 -36 67 -58q39 -20 100 -20t100 20q43 22 67 58
q25 36 37 87q11 45 11 107v1088h88v-1084z" />
    <glyph glyph-name="ucircumflex" unicode="&#xfb;" horiz-adv-x="770" 
d="M262 1526h-88l172 184h82l174 -184h-90l-125 131zM690 350q0 -79 -16 -143q-17 -67 -53 -115q-38 -50 -96 -77q-59 -27 -140 -27t-140 27q-56 26 -95 77q-37 49 -55 115q-17 62 -17 143v1084h94v-1088q0 -62 11 -107q12 -51 37 -87q24 -36 67 -58q39 -20 100 -20t100 20
q43 22 67 58q25 36 37 87q11 45 11 107v1088h88v-1084z" />
    <glyph glyph-name="udieresis" unicode="&#xfc;" horiz-adv-x="770" 
d="M328 1696v-174h-84v174h84zM526 1696v-174h-84v174h84zM690 350q0 -79 -16 -143q-17 -67 -53 -115q-38 -50 -96 -77q-59 -27 -140 -27t-140 27q-56 26 -95 77q-37 49 -55 115q-17 62 -17 143v1084h94v-1088q0 -62 11 -107q12 -51 37 -87q24 -36 67 -58q39 -20 100 -20
t100 20q43 22 67 58q25 36 37 87q11 45 11 107v1088h88v-1084z" />
    <glyph glyph-name="yacute" unicode="&#xfd;" horiz-adv-x="849" 
d="M616 1710l-172 -194h-71l147 194h96zM377 551l-322 883h99l274 -754l274 754h93l-324 -883v-551h-94v551z" />
    <glyph glyph-name="thorn" unicode="&#xfe;" horiz-adv-x="772" 
d="M379 1184q165 0 236 -95t71 -253v-156q0 -171 -80 -256q-80 -84 -252 -84h-178v-340h-94v1434h94v-250h203zM354 426q125 0 182 58q56 57 56 190v166q0 119 -46 187q-46 69 -167 69h-203v-670h178z" />
    <glyph glyph-name="ydieresis" unicode="&#xff;" horiz-adv-x="849" 
d="M369 1690v-172h-84v172h84zM567 1690v-172h-84v172h84zM377 551l-322 883h99l274 -754l274 754h93l-324 -883v-551h-94v551z" />
    <glyph glyph-name="Abreve" unicode="&#x102;" horiz-adv-x="892" 
d="M643 1681q-5 -87 -59 -133q-56 -47 -142 -47q-85 0 -140 47q-54 47 -56 133h61q2 -62 42 -89q41 -27 93 -27q54 0 95 27q40 27 45 89h61zM219 317l-72 -317h-86l314 1436h137l319 -1436h-94l-71 317h-447zM233 399h418l-211 928z" />
    <glyph glyph-name="abreve" unicode="&#x103;" horiz-adv-x="892" 
d="M643 1681q-5 -87 -59 -133q-56 -47 -142 -47q-85 0 -140 47q-54 47 -56 133h61q2 -62 42 -89q41 -27 93 -27q54 0 95 27q40 27 45 89h61zM219 317l-72 -317h-86l314 1436h137l319 -1436h-94l-71 317h-447zM233 399h418l-211 928z" />
    <glyph glyph-name="Dcroat" unicode="&#x110;" horiz-adv-x="788" 
d="M397 1434q82 0 143 -26q59 -25 99 -73q39 -47 57 -112q19 -70 19 -146v-721q0 -75 -19 -145q-18 -67 -57 -113t-99 -72q-61 -26 -143 -26h-315v676h-86v78h86v680h315zM360 676h-184v-590h219q120 0 173 74t53 192v729q0 117 -54 193q-53 74 -172 74h-219v-594h184v-78z
" />
    <glyph glyph-name="dcroat" unicode="&#x111;" horiz-adv-x="788" 
d="M397 1434q82 0 143 -26q59 -25 99 -73q39 -47 57 -112q19 -70 19 -146v-721q0 -75 -19 -145q-18 -67 -57 -113t-99 -72q-61 -26 -143 -26h-315v676h-86v78h86v680h315zM360 676h-184v-590h219q120 0 173 74t53 192v729q0 117 -54 193q-53 74 -172 74h-219v-594h184v-78z
" />
    <glyph glyph-name="Itilde" unicode="&#x128;" horiz-adv-x="258" 
d="M354 1636q-41 -97 -118 -98q-31 0 -54 10q-26 11 -47 24q-15 9 -45 23q-24 11 -47 11q-51 0 -84 -62l-51 35q45 96 127 96q32 0 55 -10q24 -11 48 -24q8 -4 45 -23q20 -10 44 -10q26 0 43 17q19 19 33 44zM176 1434v-1434h-94v1434h94z" />
    <glyph glyph-name="itilde" unicode="&#x129;" horiz-adv-x="258" 
d="M354 1636q-41 -97 -118 -98q-31 0 -54 10q-26 11 -47 24q-15 9 -45 23q-24 11 -47 11q-51 0 -84 -62l-51 35q45 96 127 96q32 0 55 -10q24 -11 48 -24q8 -4 45 -23q20 -10 44 -10q26 0 43 17q19 19 33 44zM176 1434v-1434h-94v1434h94z" />
    <glyph glyph-name="OE" unicode="&#x152;" horiz-adv-x="1163" 
d="M1018 770v-86h-348v-598h420v-86h-717q-78 0 -137 28t-94 75t-52 114q-16 64 -16 139v721q0 76 16 140q16 65 52 113q37 49 94 76q59 28 137 28h717v-86h-420v-578h348zM375 1348q-55 0 -96 -22t-64 -57q-24 -36 -36 -84q-11 -44 -11 -104v-729q0 -59 11 -103
q12 -48 36 -84q23 -35 64 -57t96 -22h200v1262h-200z" />
    <glyph glyph-name="oe" unicode="&#x153;" horiz-adv-x="1163" 
d="M1018 770v-86h-348v-598h420v-86h-717q-78 0 -137 28t-94 75t-52 114q-16 64 -16 139v721q0 76 16 140q16 65 52 113q37 49 94 76q59 28 137 28h717v-86h-420v-578h348zM375 1348q-55 0 -96 -22t-64 -57q-24 -36 -36 -84q-11 -44 -11 -104v-729q0 -59 11 -103
q12 -48 36 -84q23 -35 64 -57t96 -22h200v1262h-200z" />
    <glyph glyph-name="Scaron" unicode="&#x160;" horiz-adv-x="757" 
d="M258 1712l127 -131l125 131h88l-172 -184h-84l-170 184h86zM381 1446q82 0 139 -27t94 -74t55 -114q17 -62 17 -144v-30h-90v37q0 61 -11 105q-12 49 -37 84q-24 34 -67 56q-41 21 -98 21q-117 0 -165 -75t-48 -189q0 -88 38 -150t96 -111q63 -53 125 -97
q70 -50 125 -100q57 -53 96 -124q38 -70 38 -168q0 -81 -17 -143q-18 -65 -56 -114q-37 -48 -96 -75q-56 -26 -140 -26t-140 26q-60 28 -97 75t-55 114q-17 62 -17 143v74h90v-80q0 -115 49 -189q49 -75 168 -75t168 75q49 74 49 189q0 85 -38 147q-39 64 -96 112
q-59 50 -125 95q-64 43 -125 100q-58 54 -96 125t-38 171q0 162 72 258t233 98z" />
    <glyph glyph-name="scaron" unicode="&#x161;" horiz-adv-x="757" 
d="M258 1712l125 -131l125 131h90l-174 -184h-82l-172 184h88zM381 1446q82 0 139 -27t94 -74t55 -114q17 -62 17 -144v-30h-90v37q0 61 -11 105q-12 49 -37 84q-24 34 -67 56q-41 21 -98 21q-117 0 -165 -75t-48 -189q0 -88 38 -150t96 -111q63 -53 125 -97
q70 -50 125 -100q57 -53 96 -124q38 -70 38 -168q0 -81 -17 -143q-18 -65 -56 -114q-37 -48 -96 -75q-56 -26 -140 -26t-140 26q-60 28 -97 75t-55 114q-17 62 -17 143v74h90v-80q0 -115 49 -189q49 -75 168 -75t168 75q49 74 49 189q0 85 -38 147q-39 64 -96 112
q-59 50 -125 95q-64 43 -125 100q-58 54 -96 125t-38 171q0 162 72 258t233 98z" />
    <glyph glyph-name="Utilde" unicode="&#x168;" horiz-adv-x="770" 
d="M610 1638q-18 -44 -48 -70q-31 -27 -70 -28q-30 0 -53 10q-22 10 -46 24q-7 4 -14.5 8t-16.5 8.5t-14 7.5q-23 12 -47 12q-56 0 -86 -64l-51 35q45 96 129 96q30 0 53 -10q32 -14 48 -23q24 -14 45 -24q20 -10 44 -10q27 2 45 18q20 18 31 43zM690 350q0 -79 -16 -143
q-17 -67 -53 -115q-38 -50 -96 -77q-59 -27 -140 -27t-140 27q-56 26 -95 77q-37 49 -55 115q-17 62 -17 143v1084h94v-1088q0 -62 11 -107q12 -51 37 -87q24 -36 67 -58q39 -20 100 -20t100 20q43 22 67 58q25 36 37 87q11 45 11 107v1088h88v-1084z" />
    <glyph glyph-name="utilde" unicode="&#x169;" horiz-adv-x="770" 
d="M610 1638q-18 -44 -48 -70q-31 -27 -70 -28q-30 0 -53 10q-22 10 -46 24q-7 4 -14.5 8t-16.5 8.5t-14 7.5q-23 12 -47 12q-56 0 -86 -64l-51 35q45 96 129 96q30 0 53 -10q32 -14 48 -23q24 -14 45 -24q20 -10 44 -10q27 2 45 18q20 18 31 43zM690 350q0 -79 -16 -143
q-17 -67 -53 -115q-38 -50 -96 -77q-59 -27 -140 -27t-140 27q-56 26 -95 77q-37 49 -55 115q-17 62 -17 143v1084h94v-1088q0 -62 11 -107q12 -51 37 -87q24 -36 67 -58q39 -20 100 -20t100 20q43 22 67 58q25 36 37 87q11 45 11 107v1088h88v-1084z" />
    <glyph glyph-name="Ydieresis" unicode="&#x178;" horiz-adv-x="849" 
d="M369 1690v-172h-84v172h84zM567 1690v-172h-84v172h84zM377 551l-322 883h99l274 -754l274 754h93l-324 -883v-551h-94v551z" />
    <glyph glyph-name="Zcaron" unicode="&#x17d;" horiz-adv-x="794" 
d="M285 1710l127 -129l125 129h88l-172 -184h-82l-172 184h86zM715 0h-645v86l555 1262h-529v86h627v-88l-555 -1260h547v-86z" />
    <glyph glyph-name="zcaron" unicode="&#x17e;" horiz-adv-x="794" 
d="M285 1710l127 -129l125 129h88l-172 -184h-82l-172 184h86zM715 0h-645v86l555 1262h-529v86h627v-88l-555 -1260h547v-86z" />
    <glyph glyph-name="Ohorn" unicode="&#x1a0;" 
d="M76 1083q0 79 18 145q17 63 57 114q39 50 97 76q62 28 141 28q53 0 100 -12h76q64 0 77 23t13 81v43h88v-37q0 -91 -31 -135q-31 -45 -91 -55q42 -45 64 -117t22 -154v-733q0 -74 -19 -144q-18 -68 -57 -115q-40 -49 -100 -76t-142 -27q-81 0 -141 27q-58 26 -97 76
t-57 115q-18 66 -18 144v733zM170 344q0 -116 50 -193t169 -77q118 0 171 77q52 76 52 193v746q0 117 -52 193q-53 77 -171 77q-119 0 -169 -77t-50 -193v-746z" />
    <glyph glyph-name="ohorn" unicode="&#x1a1;" 
d="M76 1083q0 79 18 145q17 63 57 114q39 50 97 76q62 28 141 28q53 0 100 -12h76q64 0 77 23t13 81v43h88v-37q0 -91 -31 -135q-31 -45 -91 -55q42 -45 64 -117t22 -154v-733q0 -74 -19 -144q-18 -68 -57 -115q-40 -49 -100 -76t-142 -27q-81 0 -141 27q-58 26 -97 76
t-57 115q-18 66 -18 144v733zM170 344q0 -116 50 -193t169 -77q118 0 171 77q52 76 52 193v746q0 117 -52 193q-53 77 -171 77q-119 0 -169 -77t-50 -193v-746z" />
    <glyph glyph-name="Uhorn" unicode="&#x1af;" horiz-adv-x="770" 
d="M172 346q0 -62 11 -107q12 -51 37 -87q24 -36 67 -58q39 -20 100 -20t100 20q43 22 67 58q25 36 37 87q11 45 11 107v1088h55q52 5 62 27q10 23 10 77v43h88v-37q0 -92 -32 -136q-31 -43 -95 -54v-1004q0 -79 -16 -143q-17 -67 -53 -115q-38 -50 -96 -77
q-59 -27 -140 -27t-140 27q-56 26 -95 77q-37 49 -55 115q-17 62 -17 143v1084h94v-1088z" />
    <glyph glyph-name="uhorn" unicode="&#x1b0;" horiz-adv-x="770" 
d="M172 346q0 -62 11 -107q12 -51 37 -87q24 -36 67 -58q39 -20 100 -20t100 20q43 22 67 58q25 36 37 87q11 45 11 107v1088h55q52 5 62 27q10 23 10 77v43h88v-37q0 -92 -32 -136q-31 -43 -95 -54v-1004q0 -79 -16 -143q-17 -67 -53 -115q-38 -50 -96 -77
q-59 -27 -140 -27t-140 27q-56 26 -95 77q-37 49 -55 115q-17 62 -17 143v1084h94v-1088z" />
    <glyph glyph-name="uni02BC" unicode="&#x2bc;" horiz-adv-x="274" 
d="M133 1098h-41l41 155h-31v181h91v-172z" />
    <glyph glyph-name="circumflex" unicode="&#x2c6;" horiz-adv-x="512" 
d="M131 1552h-88l172 185h82l172 -185h-88l-125 129z" />
    <glyph glyph-name="caron" unicode="&#x2c7;" horiz-adv-x="512" 
d="M131 1737l125 -131l125 131h88l-172 -185h-82l-172 185h88z" />
    <glyph glyph-name="breve" unicode="&#x2d8;" horiz-adv-x="520" 
d="M459 1681q-2 -86 -58 -133t-141 -47t-141 47t-58 133h62q5 -63 44 -89q41 -27 93 -27t93 27q39 26 44 89h62z" />
    <glyph glyph-name="dotaccent" unicode="&#x2d9;" horiz-adv-x="303" 
d="M193 1706v-172h-84v172h84z" />
    <glyph glyph-name="ring" unicode="&#x2da;" horiz-adv-x="446" 
d="M223 1802q57 0 98 -39q39 -38 39 -96q0 -60 -39 -98q-41 -39 -98 -39t-97 39t-40 98q0 57 40 96t97 39zM223 1753q-37 0 -62 -24q-26 -24 -26 -62t26 -62q25 -24 62 -24q35 0 62 24q26 23 26 62t-26 62q-27 24 -62 24z" />
    <glyph glyph-name="ogonek" unicode="&#x2db;" horiz-adv-x="419" 
d="M254 2q-40 -30 -68 -79q-26 -46 -24 -87q2 -35 25 -50q24 -15 57 -15q52 0 88 26v-57q-51 -27 -115 -27q-50 1 -90 27q-37 24 -39 78q-4 48 31 99q36 51 84 85h51z" />
    <glyph glyph-name="tilde" unicode="&#x2dc;" horiz-adv-x="536" 
d="M492 1636q-41 -96 -119 -98q-31 0 -54 10q-26 11 -47 24q-10 6 -44 23q-22 11 -46 11q-53 0 -86 -62l-51 35q45 96 129 96q30 0 53 -10q24 -11 48 -24q7 -4 15 -8l17 -8.5t14 -6.5q20 -10 44 -10q27 0 44 17q15 15 31 44z" />
    <glyph glyph-name="hungarumlaut" unicode="&#x2dd;" horiz-adv-x="481" 
d="M258 1737l-158 -195h-65l131 195h92zM432 1737l-158 -195h-65l131 195h92z" />
    <glyph glyph-name="uni1EA0" unicode="&#x1ea0;" horiz-adv-x="892" 
d="M473 -121v-180h-80v180h80zM219 317l-72 -317h-86l314 1436h137l319 -1436h-94l-71 317h-447zM233 399h418l-211 928z" />
    <glyph glyph-name="uni1EA1" unicode="&#x1ea1;" horiz-adv-x="892" 
d="M473 -121v-180h-80v180h80zM219 317l-72 -317h-86l314 1436h137l319 -1436h-94l-71 317h-447zM233 399h418l-211 928z" />
    <glyph glyph-name="uni1EA2" unicode="&#x1ea2;" horiz-adv-x="892" 
d="M434 1796q72 0 104 -32t27 -87q-2 -39 -25 -60q-30 -26 -36 -30q-24 -16 -26 -28q-3 -15 -3 -50h-61q0 54 6 69q7 18 20 32l2 2l17 12q2 1 29 23q17 13 18 34q2 32 -16.5 48t-57.5 16q-32 0 -48 -22q-14 -20 -19 -50h-60q5 58 37 90q33 33 92 33zM219 317l-72 -317h-86
l314 1436h137l319 -1436h-94l-71 317h-447zM233 399h418l-211 928z" />
    <glyph glyph-name="uni1EA3" unicode="&#x1ea3;" horiz-adv-x="892" 
d="M434 1796q72 0 104 -32t27 -87q-2 -39 -25 -60q-30 -26 -36 -30q-24 -16 -26 -28q-3 -15 -3 -50h-61q0 54 6 69q7 18 20 32l2 2l17 12q2 1 29 23q17 13 18 34q2 32 -16.5 48t-57.5 16q-32 0 -48 -22q-14 -20 -19 -50h-60q5 58 37 90q33 33 92 33zM219 317l-72 -317h-86
l314 1436h137l319 -1436h-94l-71 317h-447zM233 399h418l-211 928z" />
    <glyph glyph-name="uni1EA4" unicode="&#x1ea4;" horiz-adv-x="892" 
d="M860 1837l-172 -195h-72l146 195h98zM317 1509h-88l172 185h82l174 -185h-90l-125 129zM219 317l-72 -317h-86l314 1436h137l319 -1436h-94l-71 317h-447zM233 399h418l-211 928z" />
    <glyph glyph-name="uni1EA5" unicode="&#x1ea5;" horiz-adv-x="892" 
d="M860 1837l-172 -195h-72l146 195h98zM317 1509h-88l172 185h82l174 -185h-90l-125 129zM219 317l-72 -317h-86l314 1436h137l319 -1436h-94l-71 317h-447zM233 399h418l-211 928z" />
    <glyph glyph-name="uni1EA6" unicode="&#x1ea6;" horiz-adv-x="892" 
d="M580 1837l145 -195h-74l-174 195h103zM317 1509h-88l172 185h82l174 -185h-90l-125 129zM219 317l-72 -317h-86l314 1436h137l319 -1436h-94l-71 317h-447zM233 399h418l-211 928z" />
    <glyph glyph-name="uni1EA7" unicode="&#x1ea7;" horiz-adv-x="892" 
d="M580 1837l145 -195h-74l-174 195h103zM317 1509h-88l172 185h82l174 -185h-90l-125 129zM219 317l-72 -317h-86l314 1436h137l319 -1436h-94l-71 317h-447zM233 399h418l-211 928z" />
    <glyph glyph-name="uni1EA8" unicode="&#x1ea8;" horiz-adv-x="892" 
d="M637 1929q71 0 103 -32t28 -87q-1 -39 -26 -60q-32 -28 -35 -30q-24 -16 -26 -28q-3 -15 -3 -50h-62q0 52 7 69q7 18 20 32l2 2l17 12q2 1 29 23q17 13 18 35q2 31 -16.5 47t-57.5 16q-33 0 -48 -21t-20 -51h-59q5 58 37 90q33 33 92 33zM317 1509h-88l172 185h82
l174 -185h-90l-125 129zM219 317l-72 -317h-86l314 1436h137l319 -1436h-94l-71 317h-447zM233 399h418l-211 928z" />
    <glyph glyph-name="uni1EA9" unicode="&#x1ea9;" horiz-adv-x="892" 
d="M637 1929q71 0 103 -32t28 -87q-1 -39 -26 -60q-32 -28 -35 -30q-24 -16 -26 -28q-3 -15 -3 -50h-62q0 52 7 69q7 18 20 32l2 2l17 12q2 1 29 23q17 13 18 35q2 31 -16.5 47t-57.5 16q-33 0 -48 -21t-20 -51h-59q5 58 37 90q33 33 92 33zM317 1509h-88l172 185h82
l174 -185h-90l-125 129zM219 317l-72 -317h-86l314 1436h137l319 -1436h-94l-71 317h-447zM233 399h418l-211 928z" />
    <glyph glyph-name="uni1EAA" unicode="&#x1eaa;" horiz-adv-x="892" 
d="M352 1882q31 0 53 -11q41 -20 49 -25q8 -4 45 -23q22 -11 44 -11q25 1 44 19q14 13 31 45l52 -35q-22 -47 -49 -71q-28 -25 -70 -25q-31 -2 -52 9q-26 13 -46 25q-15 9 -45 23q-21 10 -48 10q-53 0 -86 -61l-51 33q43 93 129 98zM317 1509h-88l172 185h82l174 -185h-90
l-125 129zM219 317l-72 -317h-86l314 1436h137l319 -1436h-94l-71 317h-447zM233 399h418l-211 928z" />
    <glyph glyph-name="uni1EAB" unicode="&#x1eab;" horiz-adv-x="892" 
d="M352 1882q31 0 53 -11q41 -20 49 -25q8 -4 45 -23q22 -11 44 -11q25 1 44 19q14 13 31 45l52 -35q-22 -47 -49 -71q-28 -25 -70 -25q-31 -2 -52 9q-26 13 -46 25q-15 9 -45 23q-21 10 -48 10q-53 0 -86 -61l-51 33q43 93 129 98zM317 1509h-88l172 185h82l174 -185h-90
l-125 129zM219 317l-72 -317h-86l314 1436h137l319 -1436h-94l-71 317h-447zM233 399h418l-211 928z" />
    <glyph glyph-name="uni1EAC" unicode="&#x1eac;" horiz-adv-x="892" 
d="M473 -121v-180h-80v180h80zM317 1509h-88l172 185h82l174 -185h-90l-125 129zM219 317l-72 -317h-86l314 1436h137l319 -1436h-94l-71 317h-447zM233 399h418l-211 928z" />
    <glyph glyph-name="uni1EAD" unicode="&#x1ead;" horiz-adv-x="892" 
d="M473 -121v-180h-80v180h80zM317 1509h-88l172 185h82l174 -185h-90l-125 129zM219 317l-72 -317h-86l314 1436h137l319 -1436h-94l-71 317h-447zM233 399h418l-211 928z" />
    <glyph glyph-name="uni1EAE" unicode="&#x1eae;" horiz-adv-x="892" 
d="M637 1933l-172 -194h-72l146 194h98zM643 1681q-5 -87 -59 -133q-56 -47 -142 -47q-85 0 -140 47q-54 47 -56 133h61q2 -62 42 -89q41 -27 93 -27q54 0 95 27q40 27 45 89h61zM219 317l-72 -317h-86l314 1436h137l319 -1436h-94l-71 317h-447zM233 399h418l-211 928z" />
    <glyph glyph-name="uni1EAF" unicode="&#x1eaf;" horiz-adv-x="892" 
d="M637 1933l-172 -194h-72l146 194h98zM643 1681q-5 -87 -59 -133q-56 -47 -142 -47q-85 0 -140 47q-54 47 -56 133h61q2 -62 42 -89q41 -27 93 -27q54 0 95 27q40 27 45 89h61zM219 317l-72 -317h-86l314 1436h137l319 -1436h-94l-71 317h-447zM233 399h418l-211 928z" />
    <glyph glyph-name="uni1EB0" unicode="&#x1eb0;" horiz-adv-x="892" 
d="M360 1933l146 -194h-74l-174 194h102zM643 1681q-5 -87 -59 -133q-56 -47 -142 -47q-85 0 -140 47q-54 47 -56 133h61q2 -62 42 -89q41 -27 93 -27q54 0 95 27q40 27 45 89h61zM219 317l-72 -317h-86l314 1436h137l319 -1436h-94l-71 317h-447zM233 399h418l-211 928z
" />
    <glyph glyph-name="uni1EB1" unicode="&#x1eb1;" horiz-adv-x="892" 
d="M360 1933l146 -194h-74l-174 194h102zM643 1681q-5 -87 -59 -133q-56 -47 -142 -47q-85 0 -140 47q-54 47 -56 133h61q2 -62 42 -89q41 -27 93 -27q54 0 95 27q40 27 45 89h61zM219 317l-72 -317h-86l314 1436h137l319 -1436h-94l-71 317h-447zM233 399h418l-211 928z
" />
    <glyph glyph-name="uni1EB2" unicode="&#x1eb2;" horiz-adv-x="892" 
d="M436 2025q73 0 104 -31q32 -32 27 -87q-2 -40 -25 -61q-26 -23 -36 -29q-23 -16 -26 -29q-3 -15 -3 -49h-61q0 53 6 68q7 18 20 32l2 2l17 12q2 1 29 23q17 13 18 35q2 31 -16.5 47t-57.5 16q-33 0 -48 -21q-14 -20 -19 -50h-60q5 58 37 90t92 32zM643 1681
q-5 -87 -59 -133q-56 -47 -142 -47q-85 0 -140 47q-54 47 -56 133h61q2 -62 42 -89q41 -27 93 -27q54 0 95 27q40 27 45 89h61zM219 317l-72 -317h-86l314 1436h137l319 -1436h-94l-71 317h-447zM233 399h418l-211 928z" />
    <glyph glyph-name="uni1EB3" unicode="&#x1eb3;" horiz-adv-x="892" 
d="M436 2025q73 0 104 -31q32 -32 27 -87q-2 -40 -25 -61q-26 -23 -36 -29q-23 -16 -26 -29q-3 -15 -3 -49h-61q0 53 6 68q7 18 20 32l2 2l17 12q2 1 29 23q17 13 18 35q2 31 -16.5 47t-57.5 16q-33 0 -48 -21q-14 -20 -19 -50h-60q5 58 37 90t92 32zM643 1681
q-5 -87 -59 -133q-56 -47 -142 -47q-85 0 -140 47q-54 47 -56 133h61q2 -62 42 -89q41 -27 93 -27q54 0 95 27q40 27 45 89h61zM219 317l-72 -317h-86l314 1436h137l319 -1436h-94l-71 317h-447zM233 399h418l-211 928z" />
    <glyph glyph-name="uni1EB4" unicode="&#x1eb4;" horiz-adv-x="892" 
d="M659 1837q-35 -92 -112 -96q-28 0 -49 10q-15 7 -43 23q-7 4 -21 11.5t-21 11.5q-19 11 -44 11q-52 0 -80 -61l-49 33q40 94 120 94q28 0 51 -10q20 -9 45 -23q14 -8 42 -22q22 -11 43 -11q23 1 42 19q15 14 27 41zM643 1681q-5 -87 -59 -133q-56 -47 -142 -47
q-85 0 -140 47q-54 47 -56 133h61q2 -62 42 -89q41 -27 93 -27q54 0 95 27q40 27 45 89h61zM219 317l-72 -317h-86l314 1436h137l319 -1436h-94l-71 317h-447zM233 399h418l-211 928z" />
    <glyph glyph-name="uni1EB5" unicode="&#x1eb5;" horiz-adv-x="892" 
d="M659 1837q-35 -92 -112 -96q-28 0 -49 10q-15 7 -43 23q-7 4 -21 11.5t-21 11.5q-19 11 -44 11q-52 0 -80 -61l-49 33q40 94 120 94q28 0 51 -10q20 -9 45 -23q14 -8 42 -22q22 -11 43 -11q23 1 42 19q15 14 27 41zM643 1681q-5 -87 -59 -133q-56 -47 -142 -47
q-85 0 -140 47q-54 47 -56 133h61q2 -62 42 -89q41 -27 93 -27q54 0 95 27q40 27 45 89h61zM219 317l-72 -317h-86l314 1436h137l319 -1436h-94l-71 317h-447zM233 399h418l-211 928z" />
    <glyph glyph-name="uni1EB6" unicode="&#x1eb6;" horiz-adv-x="892" 
d="M473 -121v-180h-80v180h80zM643 1681q-5 -87 -59 -133q-56 -47 -142 -47q-85 0 -140 47q-54 47 -56 133h61q2 -62 42 -89q41 -27 93 -27q54 0 95 27q40 27 45 89h61zM219 317l-72 -317h-86l314 1436h137l319 -1436h-94l-71 317h-447zM233 399h418l-211 928z" />
    <glyph glyph-name="uni1EB7" unicode="&#x1eb7;" horiz-adv-x="892" 
d="M473 -121v-180h-80v180h80zM643 1681q-5 -87 -59 -133q-56 -47 -142 -47q-85 0 -140 47q-54 47 -56 133h61q2 -62 42 -89q41 -27 93 -27q54 0 95 27q40 27 45 89h61zM219 317l-72 -317h-86l314 1436h137l319 -1436h-94l-71 317h-447zM233 399h418l-211 928z" />
    <glyph glyph-name="uni1EB8" unicode="&#x1eb8;" horiz-adv-x="718" 
d="M393 -121v-180h-80v180h80zM567 770v-86h-391v-598h471v-86h-565v1434h565v-86h-471v-578h391z" />
    <glyph glyph-name="uni1EB9" unicode="&#x1eb9;" horiz-adv-x="718" 
d="M393 -121v-180h-80v180h80zM567 770v-86h-391v-598h471v-86h-565v1434h565v-86h-471v-578h391z" />
    <glyph glyph-name="uni1EBA" unicode="&#x1eba;" horiz-adv-x="718" 
d="M367 1796q71 0 103 -32t28 -87q-1 -39 -26 -60q-30 -26 -36 -30q-22 -15 -25 -28q-3 -15 -3 -50h-62q0 54 6 69q6 16 21 32l2 2l16 12q10 7 30 23q16 12 17 34q2 32 -16 48t-57 16q-33 0 -49 -22q-14 -20 -19 -50h-59q5 59 36 90q33 33 93 33zM567 770v-86h-391v-598h471
v-86h-565v1434h565v-86h-471v-578h391z" />
    <glyph glyph-name="uni1EBB" unicode="&#x1ebb;" horiz-adv-x="718" 
d="M367 1796q71 0 103 -32t28 -87q-1 -39 -26 -60q-30 -26 -36 -30q-22 -15 -25 -28q-3 -15 -3 -50h-62q0 54 6 69q6 16 21 32l2 2l16 12q10 7 30 23q16 12 17 34q2 32 -16 48t-57 16q-33 0 -49 -22q-14 -20 -19 -50h-59q5 59 36 90q33 33 93 33zM567 770v-86h-391v-598h471
v-86h-565v1434h565v-86h-471v-578h391z" />
    <glyph glyph-name="uni1EBC" unicode="&#x1ebc;" horiz-adv-x="718" 
d="M610 1638q-18 -44 -48 -70q-31 -27 -70 -28q-30 0 -53 10q-22 10 -46 24q-7 4 -14.5 8t-16.5 8.5t-14 7.5q-23 12 -47 12q-56 0 -86 -64l-51 35q45 96 129 96q30 0 53 -10q32 -14 48 -23q24 -14 45 -24q20 -10 44 -10q27 2 45 18q20 18 31 43zM567 770v-86h-391v-598h471
v-86h-565v1434h565v-86h-471v-578h391z" />
    <glyph glyph-name="uni1EBD" unicode="&#x1ebd;" horiz-adv-x="718" 
d="M600 1638q-18 -44 -48 -70q-31 -27 -71 -28q-29 0 -52 10q-22 10 -46 24q-7 4 -14.5 8t-16.5 8.5t-14 7.5q-22 12 -47 12q-56 0 -86 -64l-51 35q45 96 129 96q30 0 53 -10q32 -14 48 -23q24 -14 45 -24q20 -10 44 -10q27 2 45 18q20 18 31 43zM567 770v-86h-391v-598h471
v-86h-565v1434h565v-86h-471v-578h391z" />
    <glyph glyph-name="uni1EBE" unicode="&#x1ebe;" horiz-adv-x="718" 
d="M780 1845l-172 -194h-71l145 194h98zM238 1518h-88l172 184h81l175 -184h-91l-125 131zM567 770v-86h-391v-598h471v-86h-565v1434h565v-86h-471v-578h391z" />
    <glyph glyph-name="uni1EBF" unicode="&#x1ebf;" horiz-adv-x="718" 
d="M780 1845l-172 -194h-71l145 194h98zM238 1518h-88l172 184h81l175 -184h-91l-125 131zM567 770v-86h-391v-598h471v-86h-565v1434h565v-86h-471v-578h391z" />
    <glyph glyph-name="uni1EC0" unicode="&#x1ec0;" horiz-adv-x="718" 
d="M500 1845l145 -194h-74l-174 194h103zM238 1518h-88l172 184h81l175 -184h-91l-125 131zM567 770v-86h-391v-598h471v-86h-565v1434h565v-86h-471v-578h391z" />
    <glyph glyph-name="uni1EC1" unicode="&#x1ec1;" horiz-adv-x="718" 
d="M500 1845l145 -194h-74l-174 194h103zM238 1518h-88l172 184h81l175 -184h-91l-125 131zM567 770v-86h-391v-598h471v-86h-565v1434h565v-86h-471v-578h391z" />
    <glyph glyph-name="uni1EC2" unicode="&#x1ec2;" horiz-adv-x="718" 
d="M557 1937q72 0 103 -31q32 -32 28 -87q-2 -40 -25 -61q-26 -23 -36 -29q-23 -16 -26 -29q-3 -15 -3 -49h-61q0 53 6 68q7 18 20 32l2 2l17 12q2 1 29 23q17 13 18 35q2 31 -16.5 47t-57.5 16q-33 0 -48 -21q-16 -22 -20 -50h-59q5 58 37 90t92 32zM238 1518h-88l172 184
h81l175 -184h-91l-125 131zM567 770v-86h-391v-598h471v-86h-565v1434h565v-86h-471v-578h391z" />
    <glyph glyph-name="uni1EC3" unicode="&#x1ec3;" horiz-adv-x="718" 
d="M557 1937q72 0 103 -31q32 -32 28 -87q-2 -40 -25 -61q-26 -23 -36 -29q-23 -16 -26 -29q-3 -15 -3 -49h-61q0 53 6 68q7 18 20 32l2 2l17 12q2 1 29 23q17 13 18 35q2 31 -16.5 47t-57.5 16q-33 0 -48 -21q-16 -22 -20 -50h-59q5 58 37 90t92 32zM238 1518h-88l172 184
h81l175 -184h-91l-125 131zM567 770v-86h-391v-598h471v-86h-565v1434h565v-86h-471v-578h391z" />
    <glyph glyph-name="uni1EC4" unicode="&#x1ec4;" horiz-adv-x="718" 
d="M272 1890q32 0 54 -11q32 -16 48 -25q8 -5 45 -23q20 -10 44 -10q26 1 44 18q16 15 32 45l51 -35q-21 -45 -49 -70q-29 -26 -70 -26q-31 -2 -52 9q-26 13 -46 25q-15 9 -45 23q-24 11 -47 11q-53 0 -86 -62l-52 33q43 93 129 98zM238 1518h-89l173 184h81l175 -184h-91
l-125 131zM567 770v-86h-391v-598h471v-86h-565v1434h565v-86h-471v-578h391z" />
    <glyph glyph-name="uni1EC5" unicode="&#x1ec5;" horiz-adv-x="718" 
d="M272 1890q32 0 54 -11q32 -16 48 -25q8 -5 45 -23q20 -10 44 -10q26 1 44 18q16 15 32 45l51 -35q-21 -45 -49 -70q-29 -26 -70 -26q-31 -2 -52 9q-26 13 -46 25q-15 9 -45 23q-24 11 -47 11q-53 0 -86 -62l-52 33q43 93 129 98zM238 1518h-89l173 184h81l175 -184h-91
l-125 131zM567 770v-86h-391v-598h471v-86h-565v1434h565v-86h-471v-578h391z" />
    <glyph glyph-name="uni1EC6" unicode="&#x1ec6;" horiz-adv-x="718" 
d="M393 -121v-180h-80v180h80zM238 1518h-88l172 184h81l175 -184h-91l-125 131zM567 770v-86h-391v-598h471v-86h-565v1434h565v-86h-471v-578h391z" />
    <glyph glyph-name="uni1EC7" unicode="&#x1ec7;" horiz-adv-x="718" 
d="M393 -121v-180h-80v180h80zM238 1518h-88l172 184h81l175 -184h-91l-125 131zM567 770v-86h-391v-598h471v-86h-565v1434h565v-86h-471v-578h391z" />
    <glyph glyph-name="uni1EC8" unicode="&#x1ec8;" horiz-adv-x="258" 
d="M123 1796q71 0 103 -32t28 -87q-1 -39 -26 -60q-32 -28 -35 -30q-24 -16 -26 -28q-3 -15 -3 -50h-62q0 51 7 69t20 32l2 2l16 12q10 7 30 23q17 13 18 34q2 32 -16.5 48t-57.5 16q-32 0 -48 -22t-20 -50h-59q5 58 37 90q33 33 92 33zM176 1434v-1434h-94v1434h94z" />
    <glyph glyph-name="uni1EC9" unicode="&#x1ec9;" horiz-adv-x="258" 
d="M123 1796q71 0 103 -32t28 -87q-1 -39 -26 -60q-32 -28 -35 -30q-24 -16 -26 -28q-3 -15 -3 -50h-62q0 51 7 69t20 32l2 2l16 12q10 7 30 23q17 13 18 34q2 32 -16.5 48t-57.5 16q-32 0 -48 -22t-20 -50h-59q5 58 37 90q33 33 92 33zM176 1434v-1434h-94v1434h94z" />
    <glyph glyph-name="uni1ECA" unicode="&#x1eca;" horiz-adv-x="258" 
d="M170 -121v-180h-80v180h80zM176 1434v-1434h-94v1434h94z" />
    <glyph glyph-name="uni1ECB" unicode="&#x1ecb;" horiz-adv-x="258" 
d="M170 -121v-180h-80v180h80zM176 1434v-1434h-94v1434h94z" />
    <glyph glyph-name="uni1ECC" unicode="&#x1ecc;" 
d="M432 -121v-180h-80v180h80zM76 1083q0 79 18 145q17 63 57 114q39 50 97 76q62 28 141 28q80 0 142 -28q60 -27 100 -76q39 -48 57 -114q19 -70 19 -145v-733q0 -74 -19 -144q-18 -68 -57 -115q-40 -49 -100 -76t-142 -27q-81 0 -141 27q-58 26 -97 76t-57 115
q-18 66 -18 144v733zM170 344q0 -116 50 -193t169 -77q118 0 171 77q52 76 52 193v746q0 117 -52 193q-53 77 -171 77q-119 0 -169 -77t-50 -193v-746z" />
    <glyph glyph-name="uni1ECD" unicode="&#x1ecd;" 
d="M432 -121v-180h-80v180h80zM76 1083q0 79 18 145q17 63 57 114q39 50 97 76q62 28 141 28q80 0 142 -28q60 -27 100 -76q39 -48 57 -114q19 -70 19 -145v-733q0 -74 -19 -144q-18 -68 -57 -115q-40 -49 -100 -76t-142 -27q-81 0 -141 27q-58 26 -97 76t-57 115
q-18 66 -18 144v733zM170 344q0 -116 50 -193t169 -77q118 0 171 77q52 76 52 193v746q0 117 -52 193q-53 77 -171 77q-119 0 -169 -77t-50 -193v-746z" />
    <glyph glyph-name="uni1ECE" unicode="&#x1ece;" 
d="M406 1796q71 0 103 -32t28 -87q-1 -39 -26 -60q-30 -26 -36 -30q-22 -15 -25 -28q-4 -20 -4 -50h-61q0 54 6 69q6 16 21 32l2 2l16 12q10 7 30 23q16 12 17 34q2 32 -16.5 48t-57.5 16q-32 0 -48 -22q-14 -20 -19 -50h-60q5 58 37 90q33 33 93 33zM76 1083q0 79 18 145
q17 63 57 114q39 50 97 76q62 28 141 28q80 0 142 -28q60 -27 100 -76q39 -48 57 -114q19 -70 19 -145v-733q0 -74 -19 -144q-18 -68 -57 -115q-40 -49 -100 -76t-142 -27q-81 0 -141 27q-58 26 -97 76t-57 115q-18 66 -18 144v733zM170 344q0 -116 50 -193t169 -77
q118 0 171 77q52 76 52 193v746q0 117 -52 193q-53 77 -171 77q-119 0 -169 -77t-50 -193v-746z" />
    <glyph glyph-name="uni1ECF" unicode="&#x1ecf;" 
d="M406 1796q71 0 103 -32t28 -87q-1 -39 -26 -60q-30 -26 -36 -30q-22 -15 -25 -28q-4 -20 -4 -50h-61q0 54 6 69q6 16 21 32l2 2l16 12q10 7 30 23q16 12 17 34q2 32 -16.5 48t-57.5 16q-32 0 -48 -22q-14 -20 -19 -50h-60q5 58 37 90q33 33 93 33zM76 1083q0 79 18 145
q17 63 57 114q39 50 97 76q62 28 141 28q80 0 142 -28q60 -27 100 -76q39 -48 57 -114q19 -70 19 -145v-733q0 -74 -19 -144q-18 -68 -57 -115q-40 -49 -100 -76t-142 -27q-81 0 -141 27q-58 26 -97 76t-57 115q-18 66 -18 144v733zM170 344q0 -116 50 -193t169 -77
q118 0 171 77q52 76 52 193v746q0 117 -52 193q-53 77 -171 77q-119 0 -169 -77t-50 -193v-746z" />
    <glyph glyph-name="uni1ED0" unicode="&#x1ed0;" 
d="M815 1853l-172 -194h-72l146 194h98zM272 1526h-88l172 184h82l172 -184h-88l-125 131zM389 1446q80 0 142 -28q60 -27 100 -76q39 -48 57 -114q19 -70 19 -145v-733q0 -74 -19 -144q-18 -68 -57 -115q-40 -49 -100 -76t-142 -27q-81 0 -141 27q-58 26 -97 76t-57 115
q-18 66 -18 144v733q0 79 18 145q17 63 57 114q39 50 97 76q62 28 141 28zM389 1360q-119 0 -169 -77t-50 -193v-746q0 -116 50 -193t169 -77q118 0 171 77q52 76 52 193v746q0 117 -52 193q-53 77 -171 77z" />
    <glyph glyph-name="uni1ED1" unicode="&#x1ed1;" 
d="M815 1853l-172 -194h-72l146 194h98zM272 1526h-88l172 184h82l172 -184h-88l-125 131zM389 1446q80 0 142 -28q60 -27 100 -76q39 -48 57 -114q19 -70 19 -145v-733q0 -74 -19 -144q-18 -68 -57 -115q-40 -49 -100 -76t-142 -27q-81 0 -141 27q-58 26 -97 76t-57 115
q-18 66 -18 144v733q0 79 18 145q17 63 57 114q39 50 97 76q62 28 141 28zM389 1360q-119 0 -169 -77t-50 -193v-746q0 -116 50 -193t169 -77q118 0 171 77q52 76 52 193v746q0 117 -52 193q-53 77 -171 77z" />
    <glyph glyph-name="uni1ED2" unicode="&#x1ed2;" 
d="M535 1853l145 -194h-74l-174 194h103zM272 1526h-88l172 184h82l172 -184h-88l-125 131zM389 1446q80 0 142 -28q60 -27 100 -76q39 -48 57 -114q19 -70 19 -145v-733q0 -74 -19 -144q-18 -68 -57 -115q-40 -49 -100 -76t-142 -27q-81 0 -141 27q-58 26 -97 76t-57 115
q-18 66 -18 144v733q0 79 18 145q17 63 57 114q39 50 97 76q62 28 141 28zM389 1360q-119 0 -169 -77t-50 -193v-746q0 -116 50 -193t169 -77q118 0 171 77q52 76 52 193v746q0 117 -52 193q-53 77 -171 77z" />
    <glyph glyph-name="uni1ED3" unicode="&#x1ed3;" 
d="M535 1853l145 -194h-74l-174 194h103zM272 1526h-88l172 184h82l172 -184h-88l-125 131zM389 1446q80 0 142 -28q60 -27 100 -76q39 -48 57 -114q19 -70 19 -145v-733q0 -74 -19 -144q-18 -68 -57 -115q-40 -49 -100 -76t-142 -27q-81 0 -141 27q-58 26 -97 76t-57 115
q-18 66 -18 144v733q0 79 18 145q17 63 57 114q39 50 97 76q62 28 141 28zM389 1360q-119 0 -169 -77t-50 -193v-746q0 -116 50 -193t169 -77q118 0 171 77q52 76 52 193v746q0 117 -52 193q-53 77 -171 77z" />
    <glyph glyph-name="uni1ED4" unicode="&#x1ed4;" 
d="M592 1946q71 0 103 -32t28 -87q-2 -40 -26 -61q-29 -25 -35 -29q-23 -16 -26 -29q-3 -15 -3 -49h-62q0 51 7 68q7 18 20 32l2 2l16 13q20 14 30 22q17 13 18 35q2 31 -16.5 47t-57.5 16q-33 0 -48 -21q-16 -22 -20 -50h-59q5 58 37 90q33 33 92 33zM272 1526h-88l172 184
h82l172 -184h-88l-125 131zM389 1446q80 0 142 -28q60 -27 100 -76q39 -48 57 -114q19 -70 19 -145v-733q0 -74 -19 -144q-18 -68 -57 -115q-40 -49 -100 -76t-142 -27q-81 0 -141 27q-58 26 -97 76t-57 115q-18 66 -18 144v733q0 79 18 145q17 63 57 114q39 50 97 76
q62 28 141 28zM389 1360q-119 0 -169 -77t-50 -193v-746q0 -116 50 -193t169 -77q118 0 171 77q52 76 52 193v746q0 117 -52 193q-53 77 -171 77z" />
    <glyph glyph-name="uni1ED5" unicode="&#x1ed5;" 
d="M592 1946q71 0 103 -32t28 -87q-2 -40 -26 -61q-29 -25 -35 -29q-23 -16 -26 -29q-3 -15 -3 -49h-62q0 51 7 68q7 18 20 32l2 2l16 13q20 14 30 22q17 13 18 35q2 31 -16.5 47t-57.5 16q-33 0 -48 -21q-16 -22 -20 -50h-59q5 58 37 90q33 33 92 33zM272 1526h-88l172 184
h82l172 -184h-88l-125 131zM389 1446q80 0 142 -28q60 -27 100 -76q39 -48 57 -114q19 -70 19 -145v-733q0 -74 -19 -144q-18 -68 -57 -115q-40 -49 -100 -76t-142 -27q-81 0 -141 27q-58 26 -97 76t-57 115q-18 66 -18 144v733q0 79 18 145q17 63 57 114q39 50 97 76
q62 28 141 28zM389 1360q-119 0 -169 -77t-50 -193v-746q0 -116 50 -193t169 -77q118 0 171 77q52 76 52 193v746q0 117 -52 193q-53 77 -171 77z" />
    <glyph glyph-name="uni1ED6" unicode="&#x1ed6;" 
d="M307 1898q31 0 53 -11q4 -2 22 -10.5t27 -13.5q24 -13 45 -24q20 -10 44 -10q26 1 44 18q14 13 31 45l52 -34q-21 -45 -50 -71t-69 -26q-31 -2 -52 9q-26 13 -46 25q-19 11 -46 24q-21 10 -47 10q-53 0 -86 -62l-51 33q43 93 129 98zM272 1526h-88l172 184h82l172 -184
h-88l-125 131zM389 1446q80 0 142 -28q60 -27 100 -76q39 -48 57 -114q19 -70 19 -145v-733q0 -74 -19 -144q-18 -68 -57 -115q-40 -49 -100 -76t-142 -27q-81 0 -141 27q-58 26 -97 76t-57 115q-18 66 -18 144v733q0 79 18 145q17 63 57 114q39 50 97 76q62 28 141 28z
M389 1360q-119 0 -169 -77t-50 -193v-746q0 -116 50 -193t169 -77q118 0 171 77q52 76 52 193v746q0 117 -52 193q-53 77 -171 77z" />
    <glyph glyph-name="uni1ED7" unicode="&#x1ed7;" 
d="M307 1898q31 0 53 -11q4 -2 22 -10.5t27 -13.5q24 -13 45 -24q20 -10 44 -10q26 1 44 18q14 13 31 45l52 -34q-21 -45 -50 -71t-69 -26q-31 -2 -52 9q-26 13 -46 25q-19 11 -46 24q-21 10 -47 10q-53 0 -86 -62l-51 33q43 93 129 98zM272 1526h-88l172 184h82l172 -184
h-88l-125 131zM389 1446q80 0 142 -28q60 -27 100 -76q39 -48 57 -114q19 -70 19 -145v-733q0 -74 -19 -144q-18 -68 -57 -115q-40 -49 -100 -76t-142 -27q-81 0 -141 27q-58 26 -97 76t-57 115q-18 66 -18 144v733q0 79 18 145q17 63 57 114q39 50 97 76q62 28 141 28z
M389 1360q-119 0 -169 -77t-50 -193v-746q0 -116 50 -193t169 -77q118 0 171 77q52 76 52 193v746q0 117 -52 193q-53 77 -171 77z" />
    <glyph glyph-name="uni1ED8" unicode="&#x1ed8;" 
d="M432 -121v-180h-80v180h80zM272 1526h-88l172 184h82l172 -184h-88l-125 131zM389 1446q80 0 142 -28q60 -27 100 -76q39 -48 57 -114q19 -70 19 -145v-733q0 -74 -19 -144q-18 -68 -57 -115q-40 -49 -100 -76t-142 -27q-81 0 -141 27q-58 26 -97 76t-57 115
q-18 66 -18 144v733q0 79 18 145q17 63 57 114q39 50 97 76q62 28 141 28zM389 1360q-119 0 -169 -77t-50 -193v-746q0 -116 50 -193t169 -77q118 0 171 77q52 76 52 193v746q0 117 -52 193q-53 77 -171 77z" />
    <glyph glyph-name="uni1ED9" unicode="&#x1ed9;" 
d="M272 1526h-88l172 184h82l172 -184h-88l-125 131zM389 1446q80 0 142 -28q60 -27 100 -76q39 -48 57 -114q19 -70 19 -145v-733q0 -74 -19 -144q-18 -68 -57 -115q-40 -49 -100 -76t-142 -27q-81 0 -141 27q-58 26 -97 76t-57 115q-18 66 -18 144v733q0 79 18 145
q17 63 57 114q39 50 97 76q62 28 141 28zM389 1360q-119 0 -169 -77t-50 -193v-746q0 -116 50 -193t169 -77q118 0 171 77q52 76 52 193v746q0 117 -52 193q-53 77 -171 77zM432 -121v-180h-80v180h80z" />
    <glyph glyph-name="uni1EDA" unicode="&#x1eda;" 
d="M598 1724l-172 -194h-72l146 194h98zM76 1083q0 79 18 145q17 63 57 114q39 50 97 76q62 28 141 28q53 0 100 -12h76q64 0 77 23t13 81v43h88v-37q0 -91 -31 -135q-31 -45 -91 -55q42 -45 64 -117t22 -154v-733q0 -74 -19 -144q-18 -68 -57 -115q-40 -49 -100 -76
t-142 -27q-81 0 -141 27q-58 26 -97 76t-57 115q-18 66 -18 144v733zM170 344q0 -116 50 -193t169 -77q118 0 171 77q52 76 52 193v746q0 117 -52 193q-53 77 -171 77q-119 0 -169 -77t-50 -193v-746z" />
    <glyph glyph-name="uni1EDB" unicode="&#x1edb;" 
d="M598 1724l-172 -194h-72l146 194h98zM76 1083q0 79 18 145q17 63 57 114q39 50 97 76q62 28 141 28q53 0 100 -12h76q64 0 77 23t13 81v43h88v-37q0 -91 -31 -135q-31 -45 -91 -55q42 -45 64 -117t22 -154v-733q0 -74 -19 -144q-18 -68 -57 -115q-40 -49 -100 -76
t-142 -27q-81 0 -141 27q-58 26 -97 76t-57 115q-18 66 -18 144v733zM170 344q0 -116 50 -193t169 -77q118 0 171 77q52 76 52 193v746q0 117 -52 193q-53 77 -171 77q-119 0 -169 -77t-50 -193v-746z" />
    <glyph glyph-name="uni1EDC" unicode="&#x1edc;" 
d="M344 1724l145 -194h-75l-172 194h102zM76 1083q0 79 18 145q17 63 57 114q39 50 97 76q62 28 141 28q53 0 100 -12h76q64 0 77 23t13 81v43h88v-37q0 -91 -31 -135q-31 -45 -91 -55q42 -45 64 -117t22 -154v-733q0 -74 -19 -144q-18 -68 -57 -115q-40 -49 -100 -76
t-142 -27q-81 0 -141 27q-58 26 -97 76t-57 115q-18 66 -18 144v733zM170 344q0 -116 50 -193t169 -77q118 0 171 77q52 76 52 193v746q0 117 -52 193q-53 77 -171 77q-119 0 -169 -77t-50 -193v-746z" />
    <glyph glyph-name="uni1EDD" unicode="&#x1edd;" 
d="M344 1724l145 -194h-75l-172 194h102zM76 1083q0 79 18 145q17 63 57 114q39 50 97 76q62 28 141 28q53 0 100 -12h76q64 0 77 23t13 81v43h88v-37q0 -91 -31 -135q-31 -45 -91 -55q42 -45 64 -117t22 -154v-733q0 -74 -19 -144q-18 -68 -57 -115q-40 -49 -100 -76
t-142 -27q-81 0 -141 27q-58 26 -97 76t-57 115q-18 66 -18 144v733zM170 344q0 -116 50 -193t169 -77q118 0 171 77q52 76 52 193v746q0 117 -52 193q-53 77 -171 77q-119 0 -169 -77t-50 -193v-746z" />
    <glyph glyph-name="uni1EDE" unicode="&#x1ede;" 
d="M406 1796q71 0 103 -32t28 -87q-1 -39 -26 -60q-30 -26 -36 -30q-22 -15 -25 -28q-4 -20 -4 -50h-61q0 54 6 69q6 16 21 32l2 2l16 12q10 7 30 23q16 12 17 34q2 32 -16.5 48t-57.5 16q-32 0 -48 -22q-14 -20 -19 -50h-60q5 58 37 90q33 33 93 33zM76 1083q0 79 18 145
q17 63 57 114q39 50 97 76q62 28 141 28q53 0 100 -12h76q64 0 77 23t13 81v43h88v-37q0 -91 -31 -135q-31 -45 -91 -55q42 -45 64 -117t22 -154v-733q0 -74 -19 -144q-18 -68 -57 -115q-40 -49 -100 -76t-142 -27q-81 0 -141 27q-58 26 -97 76t-57 115q-18 66 -18 144v733z
M170 344q0 -116 50 -193t169 -77q118 0 171 77q52 76 52 193v746q0 117 -52 193q-53 77 -171 77q-119 0 -169 -77t-50 -193v-746z" />
    <glyph glyph-name="uni1EDF" unicode="&#x1edf;" 
d="M406 1796q71 0 103 -32t28 -87q-1 -39 -26 -60q-30 -26 -36 -30q-22 -15 -25 -28q-4 -20 -4 -50h-61q0 54 6 69q6 16 21 32l2 2l16 12q10 7 30 23q16 12 17 34q2 32 -16.5 48t-57.5 16q-32 0 -48 -22q-14 -20 -19 -50h-60q5 58 37 90q33 33 93 33zM76 1083q0 79 18 145
q17 63 57 114q39 50 97 76q62 28 141 28q53 0 100 -12h76q64 0 77 23t13 81v43h88v-37q0 -91 -31 -135q-31 -45 -91 -55q42 -45 64 -117t22 -154v-733q0 -74 -19 -144q-18 -68 -57 -115q-40 -49 -100 -76t-142 -27q-81 0 -141 27q-58 26 -97 76t-57 115q-18 66 -18 144v733z
M170 344q0 -116 50 -193t169 -77q118 0 171 77q52 76 52 193v746q0 117 -52 193q-53 77 -171 77q-119 0 -169 -77t-50 -193v-746z" />
    <glyph glyph-name="uni1EE0" unicode="&#x1ee0;" 
d="M621 1638q-17 -43 -49 -70q-31 -27 -70 -28q-29 0 -52 10q-26 11 -47 24l-45 24q-22 12 -47 12q-56 0 -86 -64l-51 35q45 96 129 96q30 0 53 -10q32 -14 48 -23t46 -24q20 -10 44 -10q27 2 45 18q18 17 30 43zM76 1083q0 79 18 145q17 63 57 114q39 50 97 76
q62 28 141 28q53 0 100 -12h76q64 0 77 23t13 81v43h88v-37q0 -91 -31 -135q-31 -45 -91 -55q42 -45 64 -117t22 -154v-733q0 -74 -19 -144q-18 -68 -57 -115q-40 -49 -100 -76t-142 -27q-81 0 -141 27q-58 26 -97 76t-57 115q-18 66 -18 144v733zM170 344q0 -116 50 -193
t169 -77q118 0 171 77q52 76 52 193v746q0 117 -52 193q-53 77 -171 77q-119 0 -169 -77t-50 -193v-746z" />
    <glyph glyph-name="uni1EE1" unicode="&#x1ee1;" 
d="M621 1638q-17 -43 -49 -70q-31 -27 -70 -28q-29 0 -52 10q-26 11 -47 24l-45 24q-22 12 -47 12q-56 0 -86 -64l-51 35q45 96 129 96q30 0 53 -10q32 -14 48 -23t46 -24q20 -10 44 -10q27 2 45 18q18 17 30 43zM76 1083q0 79 18 145q17 63 57 114q39 50 97 76
q62 28 141 28q53 0 100 -12h76q64 0 77 23t13 81v43h88v-37q0 -91 -31 -135q-31 -45 -91 -55q42 -45 64 -117t22 -154v-733q0 -74 -19 -144q-18 -68 -57 -115q-40 -49 -100 -76t-142 -27q-81 0 -141 27q-58 26 -97 76t-57 115q-18 66 -18 144v733zM170 344q0 -116 50 -193
t169 -77q118 0 171 77q52 76 52 193v746q0 117 -52 193q-53 77 -171 77q-119 0 -169 -77t-50 -193v-746z" />
    <glyph glyph-name="uni1EE2" unicode="&#x1ee2;" 
d="M432 -121v-180h-80v180h80zM76 1083q0 79 18 145q17 63 57 114q39 50 97 76q62 28 141 28q53 0 100 -12h76q64 0 77 23t13 81v43h88v-37q0 -91 -31 -135q-31 -45 -91 -55q42 -45 64 -117t22 -154v-733q0 -74 -19 -144q-18 -68 -57 -115q-40 -49 -100 -76t-142 -27
q-81 0 -141 27q-58 26 -97 76t-57 115q-18 66 -18 144v733zM170 344q0 -116 50 -193t169 -77q118 0 171 77q52 76 52 193v746q0 117 -52 193q-53 77 -171 77q-119 0 -169 -77t-50 -193v-746z" />
    <glyph glyph-name="uni1EE3" unicode="&#x1ee3;" 
d="M432 -121v-180h-80v180h80zM76 1083q0 79 18 145q17 63 57 114q39 50 97 76q62 28 141 28q53 0 100 -12h76q64 0 77 23t13 81v43h88v-37q0 -91 -31 -135q-31 -45 -91 -55q42 -45 64 -117t22 -154v-733q0 -74 -19 -144q-18 -68 -57 -115q-40 -49 -100 -76t-142 -27
q-81 0 -141 27q-58 26 -97 76t-57 115q-18 66 -18 144v733zM170 344q0 -116 50 -193t169 -77q118 0 171 77q52 76 52 193v746q0 117 -52 193q-53 77 -171 77q-119 0 -169 -77t-50 -193v-746z" />
    <glyph glyph-name="uni1EE4" unicode="&#x1ee4;" horiz-adv-x="770" 
d="M172 346q0 -62 11 -107q12 -51 37 -87q24 -36 67 -58q39 -20 100 -20t100 20q43 22 67 58q25 36 37 87q11 45 11 107v1088h88v-1084q0 -79 -16 -143q-17 -67 -53 -115q-38 -50 -96 -77q-59 -27 -140 -27t-140 27q-56 26 -95 77q-37 49 -55 115q-17 62 -17 143v1084h94
v-1088zM430 -121v-180h-80v180h80z" />
    <glyph glyph-name="uni1EE5" unicode="&#x1ee5;" horiz-adv-x="770" 
d="M430 -121v-180h-80v180h80zM172 346q0 -62 11 -107q12 -51 37 -87q24 -36 67 -58q39 -20 100 -20t100 20q43 22 67 58q25 36 37 87q11 45 11 107v1088h88v-1084q0 -79 -16 -143q-17 -67 -53 -115q-38 -50 -96 -77q-59 -27 -140 -27t-140 27q-56 26 -95 77q-37 49 -55 115
q-17 62 -17 143v1084h94v-1088z" />
    <glyph glyph-name="uni1EE6" unicode="&#x1ee6;" horiz-adv-x="770" 
d="M385 1796q71 0 103 -32t28 -87q-1 -39 -26 -60q-32 -28 -35 -30q-24 -16 -26 -28q-3 -15 -3 -50h-61q0 54 6 69q7 18 20 32l2 2l17 12q2 1 29 23q17 13 18 34q2 32 -16.5 48t-57.5 16q-32 0 -48 -22t-20 -50h-59q5 58 37 90q33 33 92 33zM172 346q0 -62 11 -107
q12 -51 37 -87q24 -36 67 -58q39 -20 100 -20t100 20q43 22 67 58q25 36 37 87q11 45 11 107v1088h88v-1084q0 -79 -16 -143q-17 -67 -53 -115q-38 -50 -96 -77q-59 -27 -140 -27t-140 27q-56 26 -95 77q-37 49 -55 115q-17 62 -17 143v1084h94v-1088z" />
    <glyph glyph-name="uni1EE7" unicode="&#x1ee7;" horiz-adv-x="770" 
d="M385 1796q71 0 103 -32t28 -87q-1 -39 -26 -60q-32 -28 -35 -30q-24 -16 -26 -28q-3 -15 -3 -50h-61q0 54 6 69q7 18 20 32l2 2l17 12q2 1 29 23q17 13 18 34q2 32 -16.5 48t-57.5 16q-32 0 -48 -22t-20 -50h-59q5 58 37 90q33 33 92 33zM172 346q0 -62 11 -107
q12 -51 37 -87q24 -36 67 -58q39 -20 100 -20t100 20q43 22 67 58q25 36 37 87q11 45 11 107v1088h88v-1084q0 -79 -16 -143q-17 -67 -53 -115q-38 -50 -96 -77q-59 -27 -140 -27t-140 27q-56 26 -95 77q-37 49 -55 115q-17 62 -17 143v1084h94v-1088z" />
    <glyph glyph-name="uni1EE8" unicode="&#x1ee8;" horiz-adv-x="770" 
d="M580 1724l-172 -194h-72l145 194h99zM172 346q0 -62 11 -107q12 -51 37 -87q24 -36 67 -58q39 -20 100 -20t100 20q43 22 67 58q25 36 37 87q11 45 11 107v1088h55q52 5 62 27q10 23 10 77v43h88v-37q0 -92 -32 -136q-31 -43 -95 -54v-1004q0 -79 -16 -143
q-17 -67 -53 -115q-38 -50 -96 -77q-59 -27 -140 -27t-140 27q-56 26 -95 77q-37 49 -55 115q-17 62 -17 143v1084h94v-1088z" />
    <glyph glyph-name="uni1EE9" unicode="&#x1ee9;" horiz-adv-x="770" 
d="M580 1724l-172 -194h-72l145 194h99zM172 346q0 -62 11 -107q12 -51 37 -87q24 -36 67 -58q39 -20 100 -20t100 20q43 22 67 58q25 36 37 87q11 45 11 107v1088h55q52 5 62 27q10 23 10 77v43h88v-37q0 -92 -32 -136q-31 -43 -95 -54v-1004q0 -79 -16 -143
q-17 -67 -53 -115q-38 -50 -96 -77q-59 -27 -140 -27t-140 27q-56 26 -95 77q-37 49 -55 115q-17 62 -17 143v1084h94v-1088z" />
    <glyph glyph-name="uni1EEA" unicode="&#x1eea;" horiz-adv-x="770" 
d="M317 1712l146 -194h-76l-172 194h102zM172 346q0 -62 11 -107q12 -51 37 -87q24 -36 67 -58q39 -20 100 -20t100 20q43 22 67 58q25 36 37 87q11 45 11 107v1088h55q52 5 62 27q10 23 10 77v43h88v-37q0 -92 -32 -136q-31 -43 -95 -54v-1004q0 -79 -16 -143
q-17 -67 -53 -115q-38 -50 -96 -77q-59 -27 -140 -27t-140 27q-56 26 -95 77q-37 49 -55 115q-17 62 -17 143v1084h94v-1088z" />
    <glyph glyph-name="uni1EEB" unicode="&#x1eeb;" horiz-adv-x="770" 
d="M317 1712l146 -194h-76l-172 194h102zM172 346q0 -62 11 -107q12 -51 37 -87q24 -36 67 -58q39 -20 100 -20t100 20q43 22 67 58q25 36 37 87q11 45 11 107v1088h55q52 5 62 27q10 23 10 77v43h88v-37q0 -92 -32 -136q-31 -43 -95 -54v-1004q0 -79 -16 -143
q-17 -67 -53 -115q-38 -50 -96 -77q-59 -27 -140 -27t-140 27q-56 26 -95 77q-37 49 -55 115q-17 62 -17 143v1084h94v-1088z" />
    <glyph glyph-name="uni1EEC" unicode="&#x1eec;" horiz-adv-x="770" 
d="M385 1796q71 0 103 -32t28 -87q-1 -39 -26 -60q-32 -28 -35 -30q-24 -16 -26 -28q-3 -15 -3 -50h-61q0 54 6 69q7 18 20 32l2 2l17 12q2 1 29 23q17 13 18 34q2 32 -16.5 48t-57.5 16q-32 0 -48 -22t-20 -50h-59q5 58 37 90q33 33 92 33zM172 346q0 -62 11 -107
q12 -51 37 -87q24 -36 67 -58q39 -20 100 -20t100 20q43 22 67 58q25 36 37 87q11 45 11 107v1088h55q52 5 62 27q10 23 10 77v43h88v-37q0 -92 -32 -136q-31 -43 -95 -54v-1004q0 -79 -16 -143q-17 -67 -53 -115q-38 -50 -96 -77q-59 -27 -140 -27t-140 27q-56 26 -95 77
q-37 49 -55 115q-17 62 -17 143v1084h94v-1088z" />
    <glyph glyph-name="uni1EED" unicode="&#x1eed;" horiz-adv-x="770" 
d="M385 1796q71 0 103 -32t28 -87q-1 -39 -26 -60q-32 -28 -35 -30q-24 -16 -26 -28q-3 -15 -3 -50h-61q0 54 6 69q7 18 20 32l2 2l17 12q2 1 29 23q17 13 18 34q2 32 -16.5 48t-57.5 16q-32 0 -48 -22t-20 -50h-59q5 58 37 90q33 33 92 33zM172 346q0 -62 11 -107
q12 -51 37 -87q24 -36 67 -58q39 -20 100 -20t100 20q43 22 67 58q25 36 37 87q11 45 11 107v1088h55q52 5 62 27q10 23 10 77v43h88v-37q0 -92 -32 -136q-31 -43 -95 -54v-1004q0 -79 -16 -143q-17 -67 -53 -115q-38 -50 -96 -77q-59 -27 -140 -27t-140 27q-56 26 -95 77
q-37 49 -55 115q-17 62 -17 143v1084h94v-1088z" />
    <glyph glyph-name="uni1EEE" unicode="&#x1eee;" horiz-adv-x="770" 
d="M610 1638q-18 -44 -48 -70q-31 -27 -70 -28q-30 0 -53 10q-22 10 -46 24q-7 4 -14.5 8t-16.5 8.5t-14 7.5q-23 12 -47 12q-56 0 -86 -64l-51 35q45 96 129 96q30 0 53 -10q32 -14 48 -23q24 -14 45 -24q20 -10 44 -10q27 2 45 18q20 18 31 43zM172 346q0 -62 11 -107
q12 -51 37 -87q24 -36 67 -58q39 -20 100 -20t100 20q43 22 67 58q25 36 37 87q11 45 11 107v1088h55q52 5 62 27q10 23 10 77v43h88v-37q0 -92 -32 -136q-31 -43 -95 -54v-1004q0 -79 -16 -143q-17 -67 -53 -115q-38 -50 -96 -77q-59 -27 -140 -27t-140 27q-56 26 -95 77
q-37 49 -55 115q-17 62 -17 143v1084h94v-1088z" />
    <glyph glyph-name="uni1EEF" unicode="&#x1eef;" horiz-adv-x="770" 
d="M610 1638q-18 -44 -48 -70q-31 -27 -70 -28q-30 0 -53 10q-22 10 -46 24q-7 4 -14.5 8t-16.5 8.5t-14 7.5q-23 12 -47 12q-56 0 -86 -64l-51 35q45 96 129 96q30 0 53 -10q32 -14 48 -23q24 -14 45 -24q20 -10 44 -10q27 2 45 18q20 18 31 43zM172 346q0 -62 11 -107
q12 -51 37 -87q24 -36 67 -58q39 -20 100 -20t100 20q43 22 67 58q25 36 37 87q11 45 11 107v1088h55q52 5 62 27q10 23 10 77v43h88v-37q0 -92 -32 -136q-31 -43 -95 -54v-1004q0 -79 -16 -143q-17 -67 -53 -115q-38 -50 -96 -77q-59 -27 -140 -27t-140 27q-56 26 -95 77
q-37 49 -55 115q-17 62 -17 143v1084h94v-1088z" />
    <glyph glyph-name="uni1EF0" unicode="&#x1ef0;" horiz-adv-x="770" 
d="M430 -121v-180h-80v180h80zM172 346q0 -62 11 -107q12 -51 37 -87q24 -36 67 -58q39 -20 100 -20t100 20q43 22 67 58q25 36 37 87q11 45 11 107v1088h55q52 5 62 27q10 23 10 77v43h88v-37q0 -92 -32 -136q-31 -43 -95 -54v-1004q0 -79 -16 -143q-17 -67 -53 -115
q-38 -50 -96 -77q-59 -27 -140 -27t-140 27q-56 26 -95 77q-37 49 -55 115q-17 62 -17 143v1084h94v-1088z" />
    <glyph glyph-name="uni1EF1" unicode="&#x1ef1;" horiz-adv-x="770" 
d="M430 -121v-180h-80v180h80zM172 346q0 -62 11 -107q12 -51 37 -87q24 -36 67 -58q39 -20 100 -20t100 20q43 22 67 58q25 36 37 87q11 45 11 107v1088h55q52 5 62 27q10 23 10 77v43h88v-37q0 -92 -32 -136q-31 -43 -95 -54v-1004q0 -79 -16 -143q-17 -67 -53 -115
q-38 -50 -96 -77q-59 -27 -140 -27t-140 27q-56 26 -95 77q-37 49 -55 115q-17 62 -17 143v1084h94v-1088z" />
    <glyph glyph-name="Ygrave" unicode="&#x1ef2;" horiz-adv-x="849" 
d="M354 1724l148 -194h-76l-172 194h100zM377 551l-322 883h99l274 -754l274 754h93l-324 -883v-551h-94v551z" />
    <glyph glyph-name="ygrave" unicode="&#x1ef3;" horiz-adv-x="849" 
d="M354 1724l148 -194h-76l-172 194h100zM377 551l-322 883h99l274 -754l274 754h93l-324 -883v-551h-94v551z" />
    <glyph glyph-name="uni1EF4" unicode="&#x1ef4;" horiz-adv-x="849" 
d="M465 -121v-180h-80v180h80zM377 551l-322 883h99l274 -754l274 754h93l-324 -883v-551h-94v551z" />
    <glyph glyph-name="uni1EF5" unicode="&#x1ef5;" horiz-adv-x="849" 
d="M465 -121v-180h-80v180h80zM377 551l-322 883h99l274 -754l274 754h93l-324 -883v-551h-94v551z" />
    <glyph glyph-name="uni1EF6" unicode="&#x1ef6;" horiz-adv-x="849" 
d="M424 1796q71 0 103 -32t28 -87q-1 -39 -26 -60q-33 -28 -35 -30q-24 -16 -26 -28q-3 -15 -3 -50h-62q0 51 7 69t20 32l2 2l17 12q2 1 29 23q17 13 18 34q2 32 -16.5 48t-57.5 16q-32 0 -48 -22t-20 -50h-59q5 58 37 90q33 33 92 33zM377 551l-322 883h99l274 -754
l274 754h93l-324 -883v-551h-94v551z" />
    <glyph glyph-name="uni1EF7" unicode="&#x1ef7;" horiz-adv-x="849" 
d="M424 1796q71 0 103 -32t28 -87q-1 -39 -26 -60q-33 -28 -35 -30q-24 -16 -26 -28q-3 -15 -3 -50h-62q0 51 7 69t20 32l2 2l17 12q2 1 29 23q17 13 18 34q2 32 -16.5 48t-57.5 16q-32 0 -48 -22t-20 -50h-59q5 58 37 90q33 33 92 33zM377 551l-322 883h99l274 -754
l274 754h93l-324 -883v-551h-94v551z" />
    <glyph glyph-name="uni1EF8" unicode="&#x1ef8;" horiz-adv-x="849" 
d="M645 1638q-18 -44 -48 -70q-31 -27 -71 -28q-29 0 -52 10q-22 10 -46 24q-7 4 -14.5 8t-16.5 8.5t-14 7.5q-23 12 -47 12q-56 0 -86 -64l-51 35q45 96 129 96q30 0 53 -10q32 -14 48 -23q24 -14 45 -24q20 -10 44 -10q27 2 45 18q20 18 31 43zM377 551l-322 883h99
l274 -754l274 754h93l-324 -883v-551h-94v551z" />
    <glyph glyph-name="uni1EF9" unicode="&#x1ef9;" horiz-adv-x="849" 
d="M645 1638q-18 -44 -48 -70q-31 -27 -71 -28q-29 0 -52 10q-22 10 -46 24q-7 4 -14.5 8t-16.5 8.5t-14 7.5q-23 12 -47 12q-56 0 -86 -64l-51 35q45 96 129 96q30 0 53 -10q32 -14 48 -23q24 -14 45 -24q20 -10 44 -10q27 2 45 18q20 18 31 43zM377 551l-322 883h99
l274 -754l274 754h93l-324 -883v-551h-94v551z" />
    <glyph glyph-name="uni1EFA" unicode="&#x1efa;" horiz-adv-x="0" 
d="M604 1434h35q64 0 77 23t13 81v43h88v-37q0 -104 -41 -148t-123 -44h-16q-12 0 -15 1q-4 1 -18 3v78z" />
    <glyph glyph-name="uni1EFB" unicode="&#x1efb;" horiz-adv-x="0" 
d="M438 1819q72 0 104 -33q31 -33 27 -88q-1 -39 -24 -63q-21 -22 -35 -31q-22 -15 -27 -30q-4 -13 -4 -50q-20 0 -29 -1t-30 -1q0 54 7 69q8 18 22 33l2 2l16 12q10 7 29 26q14 14 16 38q2 29 -16 49q-18 21 -60 21q-41 0 -53 -24q-11 -23 -16 -52h-58q5 58 37 90
q33 33 92 33z" />
    <glyph glyph-name="figuredash" unicode="&#x2012;" horiz-adv-x="927" 
d="M53 756h821v-78h-821v78z" />
    <glyph glyph-name="endash" unicode="&#x2013;" horiz-adv-x="854" 
d="M53 756h750v-78h-750v78z" />
    <glyph glyph-name="emdash" unicode="&#x2014;" horiz-adv-x="1372" 
d="M53 756h1268v-78h-1268v78z" />
    <glyph glyph-name="quoteleft" unicode="&#x2018;" horiz-adv-x="274" 
d="M141 1434h41l-41 -156h33v-180h-92v172z" />
    <glyph glyph-name="quoteright" unicode="&#x2019;" horiz-adv-x="274" 
d="M133 1098h-41l41 155h-31v181h91v-172z" />
    <glyph glyph-name="quotesinglbase" unicode="&#x201a;" horiz-adv-x="274" 
d="M133 -156h-41l41 156h-31v180h91v-172z" />
    <glyph glyph-name="quotedblleft" unicode="&#x201c;" horiz-adv-x="434" 
d="M141 1434h41l-41 -156h33v-180h-92v172zM301 1434h43l-43 -156h33v-180h-92v172z" />
    <glyph glyph-name="quotedblright" unicode="&#x201d;" horiz-adv-x="434" 
d="M125 1098h-43l43 155h-33v181h92v-172zM285 1098h-41l41 155h-33v181h92v-172z" />
    <glyph glyph-name="quotedblbase" unicode="&#x201e;" horiz-adv-x="444" 
d="M133 -156h-41l41 156h-31v180h91v-172zM305 -156h-43l43 156h-33v180h90v-172z" />
    <glyph glyph-name="dagger" unicode="&#x2020;" horiz-adv-x="804" 
d="M442 1026h291v-76h-291v-1083h-80v1083h-290v76h290v408h80v-408z" />
    <glyph glyph-name="daggerdbl" unicode="&#x2021;" horiz-adv-x="804" 
d="M442 1026h291v-76h-291v-596h291v-78h-291v-409h-80v409h-290v78h290v596h-290v76h290v408h80v-408z" />
    <glyph glyph-name="bullet" unicode="&#x2022;" horiz-adv-x="538" 
d="M268 864q62 0 105 -43t43 -104q0 -62 -43 -105t-105 -43q-59 0 -102 43t-43 105q0 61 43 104t102 43z" />
    <glyph glyph-name="ellipsis" unicode="&#x2026;" horiz-adv-x="579" 
d="M174 180v-180h-92v180h92zM334 180v-180h-90v180h90zM498 180v-180h-90v180h90z" />
    <glyph glyph-name="perthousand" unicode="&#x2030;" horiz-adv-x="1744" 
d="M270 1438q104 0 150 -67q45 -66 45 -165v-436q0 -99 -45 -165t-150 -66q-50 0 -88 18q-35 17 -59 49q-21 28 -34 73q-11 39 -11 91v436q0 52 11 91q13 45 34 73q24 32 59 49q40 19 88 19zM930 1436l-565 -1436h-62l565 1436h62zM270 1378q-74 0 -101 -50
q-28 -51 -28 -120v-442q0 -67 28 -118q27 -50 101 -50q72 0 101 50q28 49 28 118v442q0 71 -28 120q-29 50 -101 50zM969 893q48 0 88 -19q35 -17 60 -50q23 -31 34 -73q10 -40 10 -92v-430q0 -51 -10 -91q-11 -42 -34 -73q-27 -35 -60 -51q-37 -18 -88 -18q-53 0 -90 18
q-36 17 -60 51q-22 31 -34 73q-11 39 -11 91v430q0 53 11 92q12 42 34 73q23 32 60 50q40 19 90 19zM1475 893q48 0 88 -19q35 -17 60 -50q23 -31 34 -73q10 -40 10 -92v-430q0 -51 -10 -91q-11 -42 -34 -73q-27 -35 -60 -51q-37 -18 -88 -18q-53 0 -91 18q-34 16 -59 51
q-22 31 -34 73q-11 38 -11 91v430q0 53 11 92q12 42 34 73q24 33 59 50q40 19 91 19zM969 831q-73 0 -101 -49t-28 -118v-439q0 -69 28 -119q28 -51 101 -51q74 0 101 51q28 53 28 119v439q0 67 -28 118q-27 49 -101 49zM1475 831q-73 0 -101 -49t-28 -118v-439
q0 -69 28 -119q28 -51 101 -51q74 0 101 51q28 53 28 119v439q0 67 -28 118q-27 49 -101 49z" />
    <glyph glyph-name="guilsinglleft" unicode="&#x2039;" horiz-adv-x="350" 
d="M63 717l134 508h90l-131 -508l131 -518h-90z" />
    <glyph glyph-name="guilsinglright" unicode="&#x203a;" horiz-adv-x="350" 
d="M195 719l-132 508h91l133 -508l-133 -518h-91z" />
    <glyph glyph-name="fraction" unicode="&#x2044;" horiz-adv-x="528" 
d="M578 1434l-566 -1434h-61l565 1434h62z" />
    <glyph glyph-name="zerosuperior" unicode="&#x2070;" horiz-adv-x="561" 
d="M78 1407q0 100 48 166q47 65 155 65q107 0 154 -65q48 -66 48 -166v-467q0 -100 -48 -166q-47 -65 -154 -65q-108 0 -155 65q-48 66 -48 166v467zM141 936q0 -71 32 -120q31 -48 108 -48q73 0 105 48q32 49 32 120v475q0 71 -32 120q-32 48 -105 48q-77 0 -108 -48
q-32 -49 -32 -120v-475z" />
    <glyph glyph-name="foursuperior" unicode="&#x2074;" horiz-adv-x="585" 
d="M444 915v-196h-63v196h-311v60l303 653h71v-653h76v-60h-76zM131 975h250v530z" />
    <glyph glyph-name="fivesuperior" unicode="&#x2075;" horiz-adv-x="555" 
d="M141 934q0 -71 32 -120q32 -48 103 -48q75 0 105 48q31 50 31 120v153q0 70 -31 120q-30 48 -105 48q-42 0 -79 -25q-37 -26 -45 -75v-16h-64l25 489h342v-61h-285l-14 -328q47 78 143 78q93 0 136 -64q42 -63 42 -161v-156q0 -98 -47 -165q-46 -66 -151 -66t-152 66
q-47 67 -47 165v49h61v-51z" />
    <glyph glyph-name="sixsuperior" unicode="&#x2076;" horiz-adv-x="561" 
d="M283 1638q106 0 152 -64t46 -165v-10h-61v14q0 71 -31 119q-30 47 -104 47q-79 0 -110 -49q-32 -50 -32 -127v-229q43 102 160 102q95 0 138 -64q42 -63 42 -161v-111q0 -99 -47 -166q-46 -65 -153 -65q-108 0 -155 65q-48 66 -48 166v465q0 54 11 94q12 44 36 74t62 48
q35 17 94 17zM283 1217q-76 0 -108 -49t-32 -121v-111q0 -71 32 -120q31 -48 108 -48q73 0 105 48q32 49 32 120v111q0 72 -32 121t-105 49z" />
    <glyph glyph-name="sevensuperior" unicode="&#x2077;" horiz-adv-x="552" 
d="M410 1569h-332v59h397v-57l-256 -852h-65z" />
    <glyph glyph-name="eightsuperior" unicode="&#x2078;" horiz-adv-x="567" 
d="M285 1638q104 0 156 -61q53 -62 53 -162v-29q0 -66 -26 -118t-85 -74q59 -22 85 -75q26 -54 26 -120v-63q0 -101 -53 -165q-52 -62 -156 -62q-108 0 -158 62q-51 63 -51 165v63q0 67 24 120q24 52 86 75q-59 22 -85 74q-25 50 -25 118v29q0 101 52 162t157 61zM285 1579
q-71 0 -109 -44q-37 -43 -37 -122v-37q0 -153 146 -153q143 0 143 153v37q0 79 -36 122q-36 44 -107 44zM285 1163q-146 0 -146 -157v-70q0 -78 36 -123t110 -45q71 0 107 45t36 123v70q0 157 -143 157z" />
    <glyph glyph-name="ninesuperior" unicode="&#x2079;" horiz-adv-x="561" 
d="M279 1638q107 0 154 -65q48 -66 48 -166v-465q0 -101 -47 -168q-46 -65 -155 -65q-105 0 -154 64t-49 165v12h63v-16q0 -72 32 -119t105 -47q77 0 108 49q32 50 32 127v227q-39 -100 -158 -100q-95 0 -139 64q-43 62 -43 159v113q0 100 48 166q47 65 155 65zM279 1579
q-75 0 -106 -48q-32 -49 -32 -120v-113q0 -70 32 -119t106 -49q73 0 105 49t32 119v113q0 71 -32 120q-32 48 -105 48z" />
    <glyph glyph-name="zeroinferior" unicode="&#x2080;" horiz-adv-x="561" 
d="M78 555q0 100 48 166q47 65 155 65q107 0 154 -65q48 -66 48 -166v-467q0 -100 -48 -166q-47 -65 -154 -65q-108 0 -155 65q-48 66 -48 166v467zM141 84q0 -71 32 -120q31 -48 108 -48q73 0 105 48q32 49 32 120v475q0 71 -32 120q-32 48 -105 48q-77 0 -108 -48
q-32 -49 -32 -120v-475z" />
    <glyph glyph-name="oneinferior" unicode="&#x2081;" horiz-adv-x="364" 
d="M209 672q-24 -29 -59 -47q-36 -19 -78 -23v51q65 4 99 38t52 85h51v-909h-65v805z" />
    <glyph glyph-name="twoinferior" unicode="&#x2082;" horiz-adv-x="555" 
d="M283 786q108 0 153 -66t45 -167q0 -67 -24 -119q-23 -51 -62 -99q-42 -52 -80 -90q-33 -33 -79 -90q-37 -46 -63 -101t-26 -120v-8h324v-59h-387v47q0 78 25 140q26 65 61 111q41 54 80 93q36 36 80 87q36 42 61 93q25 52 25 113q0 77 -30 127q-30 49 -105 49
q-76 0 -106 -50q-30 -49 -30 -124v-61h-61v59q0 52 11 92q13 46 35 75q25 33 61 50q37 18 92 18z" />
    <glyph glyph-name="threeinferior" unicode="&#x2083;" horiz-adv-x="555" 
d="M279 786q104 0 150 -65t46 -166v-23q0 -63 -28 -116q-27 -52 -87 -74q60 -18 87 -68q28 -51 28 -114v-72q0 -101 -46 -166t-150 -65q-107 0 -153 65t-46 166v51h61v-55q0 -70 31 -120q30 -48 104 -48q75 0 105 48q31 50 31 126v70q0 68 -34 108q-35 41 -99 41h-62v60h64
q59 0 96 45q37 44 35 106v33q0 76 -31 126q-30 48 -105 48q-74 0 -104 -48q-31 -50 -31 -120v-37h-61v33q0 101 46 166t153 65z" />
    <glyph glyph-name="fourinferior" unicode="&#x2084;" horiz-adv-x="585" 
d="M444 57v-196h-63v196h-311v60l303 653h71v-653h76v-60h-76zM131 117h250v530z" />
    <glyph glyph-name="fiveinferior" unicode="&#x2085;" horiz-adv-x="555" 
d="M141 88q0 -71 32 -120q31 -48 103 -48q75 0 105 48q31 50 31 120v154q0 69 -31 120q-30 50 -105 50q-42 0 -79 -27q-38 -27 -45 -76v-14h-64l25 487h342v-61h-285l-14 -326q46 76 143 76q94 0 136 -63t42 -162v-156q0 -98 -47 -165q-46 -66 -151 -66t-152 66
q-47 67 -47 165v51h61v-53z" />
    <glyph glyph-name="sixinferior" unicode="&#x2086;" horiz-adv-x="561" 
d="M283 786q106 0 152 -64t46 -165v-10h-61v14q0 71 -31 119q-30 47 -104 47q-79 0 -110 -49q-32 -50 -32 -127v-229q43 102 160 102q95 0 138 -64q42 -63 42 -161v-111q0 -99 -47 -166q-46 -65 -153 -65q-108 0 -155 65q-48 66 -48 166v465q0 54 11 94q12 44 36 74t62 48
q35 17 94 17zM283 365q-76 0 -108 -49t-32 -121v-111q0 -71 32 -120q31 -48 108 -48q73 0 105 48q32 49 32 120v111q0 72 -32 121t-105 49z" />
    <glyph glyph-name="seveninferior" unicode="&#x2087;" horiz-adv-x="552" 
d="M410 723h-332v59h397v-57l-256 -852h-65z" />
    <glyph glyph-name="eightinferior" unicode="&#x2088;" horiz-adv-x="567" 
d="M285 786q104 0 156 -61q53 -62 53 -162v-28q0 -67 -26 -119t-85 -74q59 -22 85 -75q26 -54 26 -120v-63q0 -101 -53 -165q-52 -62 -156 -62q-108 0 -158 62q-51 63 -51 165v63q0 67 24 120q24 52 86 75q-59 22 -85 74q-25 50 -25 119v28q0 101 52 162t157 61zM285 727
q-71 0 -109 -44q-37 -43 -37 -122v-37q0 -153 146 -153q143 0 143 153v37q0 78 -36 122t-107 44zM285 311q-146 0 -146 -157v-70q0 -78 36 -123t110 -45q71 0 107 45t36 123v70q0 157 -143 157z" />
    <glyph glyph-name="nineinferior" unicode="&#x2089;" horiz-adv-x="561" 
d="M279 786q107 0 154 -65q48 -66 48 -166v-465q0 -101 -47 -168q-46 -65 -155 -65q-105 0 -154 64t-49 165v12h63v-16q0 -72 32 -119t105 -47q77 0 108 49q32 50 32 127v227q-39 -100 -158 -100q-95 0 -139 64q-43 62 -43 159v113q0 100 48 166q47 65 155 65zM279 727
q-75 0 -106 -48q-32 -49 -32 -120v-113q0 -70 32 -119q31 -48 106 -48q73 0 105 48q32 49 32 119v113q0 71 -32 120q-32 48 -105 48z" />
    <glyph glyph-name="Euro" unicode="&#x20ac;" horiz-adv-x="813" 
d="M135 1083q0 75 17 143q17 67 53 115q38 51 94 77q59 28 139 28q81 0 140 -28q56 -26 94 -77q36 -48 53 -115q16 -64 16 -143v-77h-90v84q0 61 -11 106q-12 48 -36 86q-22 35 -65 57q-40 21 -99 21q-56 0 -97 -21t-65 -57q-25 -37 -37 -86q-12 -50 -12 -106v-230h396v-55
h-396v-168h396v-53h-396v-240q0 -57 12 -106q12 -51 35 -85q24 -36 65 -57q39 -20 99 -20t99 20q41 21 65 57t36 85q11 45 11 106v94h90v-88q0 -79 -16 -143q-17 -67 -53 -115q-38 -51 -94 -77q-57 -27 -140 -27q-82 0 -139 27q-56 26 -94 77q-36 48 -53 115q-17 68 -17 143
v234h-82v53h82v168h-82v55h82v223z" />
    <glyph glyph-name="uni20B9" unicode="&#x20b9;" horiz-adv-x="778" 
d="M420 1358q85 -38 120 -116q37 -81 38 -167h129v-76h-129q-5 -70 -27 -128q-22 -57 -66 -101t-105 -67q-60 -23 -144 -23h-60l512 -680h-102l-514 682v74h143q141 0 204 66q61 64 66 177h-407v76h407q0 128 -67 205q-68 78 -203 78h-137v76h629v-76h-287z" />
    <glyph glyph-name="uni2117" unicode="&#x2117;" horiz-adv-x="1531" 
d="M766 1436q150 0 280 -55q128 -54 221 -150q92 -95 145 -227q52 -129 52 -285t-52 -285q-53 -131 -145 -228q-93 -98 -221 -152t-280 -54t-280 54t-221 152q-92 97 -145 228q-52 129 -52 285t52 285q53 132 145 227q93 96 221 150q130 55 280 55zM766 1370
q-141 0 -255 -49q-118 -51 -200 -137q-85 -89 -131 -207q-47 -120 -47 -258t47 -259q46 -118 131 -208q84 -88 200 -138q119 -51 255 -51q133 0 254 51q118 50 200 138q85 91 130 208q47 121 47 259t-47 258q-46 117 -130 207q-81 86 -200 137q-116 49 -254 49zM809 1139
q117 0 165 -65t48 -173v-72q0 -117 -54 -174t-175 -57h-125v-336h-70v877h211zM788 662q89 0 126 40q38 41 38 134v59q0 79 -30 129q-30 49 -117 49h-137v-411h120z" />
    <glyph glyph-name="trademark" unicode="&#x2122;" horiz-adv-x="1187" 
d="M213 705v669h-184v60h432v-60h-182v-669h-66zM868 713h-63l-189 620v-628h-59v729h90l191 -623l188 623h90v-729h-61v628z" />
    <glyph glyph-name="uni2153" unicode="&#x2153;" horiz-adv-x="1159" 
d="M238 1329q-24 -28 -60 -47q-33 -17 -76 -22l-2 51q68 5 101 38q35 35 51 85h51v-910h-65v805zM836 1434l-566 -1434h-61l565 1434h62zM883 920q105 0 151 -66q47 -67 47 -166v-22q0 -67 -28 -116q-29 -51 -86 -73q60 -23 87 -70q27 -48 27 -114v-72q0 -99 -47 -166
q-46 -65 -151 -65q-107 0 -153 65t-46 166v51h61v-55q0 -70 31 -120q30 -48 105 -48q74 0 104 48q31 50 31 126v70q0 68 -34 108q-35 41 -99 41h-62v60h64q59 0 96 45q37 44 35 106v33q0 76 -31 126q-30 48 -104 48q-75 0 -105 -48q-31 -50 -31 -120v-37h-61v33
q0 101 46 166q46 66 153 66z" />
    <glyph glyph-name="uni2154" unicode="&#x2154;" horiz-adv-x="1249" 
d="M283 1444q107 0 153 -67q45 -66 45 -167q0 -65 -24 -118q-25 -56 -62 -101q-42 -52 -80 -90q-33 -33 -79 -90q-36 -45 -63 -100q-26 -54 -26 -119v-8h324v-60h-387v45q0 78 25 142q25 63 61 111q41 54 80 93q36 36 80 87q35 41 61 94q25 52 25 112q0 78 -30 127t-105 49
q-76 0 -106 -51t-30 -123v-61h-61v59q0 52 11 92q13 46 35 75q25 33 61 50q40 19 92 19zM375 0h-60l566 1434h59zM971 920q105 0 152 -66q46 -65 46 -166v-22q0 -67 -28 -116q-29 -51 -86 -73q60 -23 87 -70q27 -48 27 -114v-72q0 -101 -46 -166t-152 -65q-107 0 -153 65
t-46 166v51h62v-55q0 -72 30 -120t105 -48q76 0 106 48q31 50 31 126v70q0 68 -34 108q-35 41 -99 41h-62v60h64q59 0 95 45t36 106v33q0 76 -31 126q-30 48 -106 48q-75 0 -105 -48t-30 -120v-37h-62v33q0 101 46 166q46 66 153 66z" />
    <glyph glyph-name="oneeighth" unicode="&#x215b;" horiz-adv-x="1179" 
d="M238 1329q-24 -28 -60 -47q-33 -17 -76 -22l-2 51q68 5 101 38q35 35 51 85h51v-910h-65v805zM209 0l565 1434h62l-566 -1434h-61zM895 920q104 0 157 -62q52 -61 52 -162v-28q0 -67 -26 -119t-85 -74q62 -23 86 -75q25 -55 25 -119v-64q0 -102 -51 -165
q-50 -62 -158 -62t-158 62q-51 63 -51 165v64q0 64 25 119q24 52 86 75q-59 22 -85 74t-26 119v28q0 101 52 162q53 62 157 62zM895 860q-72 0 -108 -44q-35 -42 -35 -122v-37q0 -153 143 -153t143 153v37q0 78 -36 122t-107 44zM895 444q-143 0 -143 -157v-70
q0 -79 34 -123q34 -45 109 -45q74 0 109 45q34 44 34 123v70q0 157 -143 157z" />
    <glyph glyph-name="threeeighths" unicode="&#x215c;" horiz-adv-x="1282" 
d="M279 1444q103 0 150 -66q46 -65 46 -166v-22q0 -65 -28 -116t-87 -73q60 -23 87 -70q28 -50 28 -114v-72q0 -100 -46 -165q-47 -66 -150 -66q-107 0 -153 66q-46 65 -46 165v52h61v-56q0 -69 31 -119q31 -49 104 -49q74 0 105 49q31 50 31 126v69q0 69 -34 109
q-35 41 -99 41h-62v59h64q59 0 96 45q37 44 35 107v32q0 76 -31 126q-30 48 -105 48q-74 0 -104 -48q-31 -50 -31 -119v-37h-61v32q0 101 46 166q46 66 153 66zM946 1434l-565 -1434h-62l566 1434h61zM997 920q104 0 157 -62q52 -61 52 -162v-28q0 -69 -25 -119
q-26 -52 -85 -74q62 -23 86 -75t24 -119v-64q0 -102 -51 -165q-50 -62 -158 -62q-107 0 -157 62q-52 64 -52 165v64q0 64 25 119q24 52 86 75q-59 22 -85 74t-26 119v28q0 100 53 162t156 62zM997 860q-71 0 -107 -44t-36 -122v-37q0 -153 143 -153q144 0 144 153v37
q0 78 -36 122t-108 44zM997 444q-143 0 -143 -157v-70q0 -77 35 -123q35 -45 108 -45q75 0 109 45q35 46 35 123v70q0 157 -144 157z" />
    <glyph glyph-name="fiveeighths" unicode="&#x215d;" horiz-adv-x="1277" 
d="M156 1044q47 78 143 78q94 0 136 -63t42 -162v-156q0 -97 -47 -164t-151 -67q-105 0 -152 67t-47 164v50h61v-52q0 -70 32 -119t103 -49q74 0 105 49q31 50 31 119v154q0 70 -31 120q-30 48 -105 48q-41 0 -79 -26t-45 -74v-17h-64l25 490h342v-62h-285zM883 1434h61
l-565 -1434h-62zM995 920q104 0 157 -62q52 -61 52 -162v-28q0 -69 -25 -119q-26 -52 -85 -74q59 -22 85 -75q25 -51 25 -119v-64q0 -103 -52 -165t-157 -62q-107 0 -157 62q-52 64 -52 165v64q0 64 25 119q24 52 86 75q-59 22 -85 74t-26 119v28q0 100 53 162t156 62z
M995 860q-70 0 -108 -44q-37 -43 -37 -122v-37q0 -153 145 -153q144 0 144 153v37q0 78 -36 122t-108 44zM995 444q-145 0 -145 -157v-70q0 -78 36 -123t109 -45q72 0 108 45t36 123v70q0 157 -144 157z" />
    <glyph glyph-name="seveneighths" unicode="&#x215e;" horiz-adv-x="1148" 
d="M410 1374h-332v60h397v-58l-256 -852h-65zM227 0h-61l565 1434h62zM864 920q104 0 157 -62q52 -61 52 -162v-28q0 -69 -25 -119q-26 -52 -85 -74q62 -23 86 -75t24 -119v-64q0 -102 -51 -165q-50 -62 -158 -62q-104 0 -156 62q-53 64 -53 165v64q0 65 26 119q26 53 85 75
q-59 22 -85 74t-26 119v28q0 100 53 162t156 62zM864 860q-71 0 -107 -44t-36 -122v-37q0 -153 143 -153q146 0 146 153v37q0 79 -37 122q-38 44 -109 44zM864 444q-143 0 -143 -157v-70q0 -78 36 -123t107 -45q74 0 110 45t36 123v70q0 157 -146 157z" />
    <glyph glyph-name="minus" unicode="&#x2212;" horiz-adv-x="794" 
d="M725 752v-70h-653v70h653z" />
    <glyph glyph-name="infinity" unicode="&#x221e;" horiz-adv-x="1159" 
d="M831 985q118 0 186 -59t68 -176q0 -120 -68 -178t-186 -58h-28q-75 0 -136 28q-58 27 -81 95q-27 -70 -86 -96q-60 -27 -138 -27h-26q-118 0 -186 58q-70 59 -70 178q0 115 70 176q68 59 186 59h26q76 0 138 -28q59 -26 86 -95q23 68 81 95q61 28 136 28h28zM336 918
q-186 0 -186 -168q0 -164 186 -168h35q180 0 180 168t-180 168h-35zM793 918q-91 0 -136 -45q-43 -43 -43 -123t43 -123t136 -45h34q89 0 139 42t50 126t-50 126t-139 42h-34z" />
    <glyph glyph-name="approxequal" unicode="&#x2248;" horiz-adv-x="813" 
d="M254 981q46 0 87 -19q39 -18 81 -44q52 -32 77 -46q35 -20 76 -18q39 1 71 33q29 29 59 78l49 -45q-41 -68 -82 -103q-42 -36 -97 -37q-43 -1 -83 19q-54 28 -80 44t-78 44q-36 20 -80 18q-48 0 -80 -29q-31 -28 -65 -79l-52 43q46 68 93 104q46 36 104 37zM254 651
q46 0 87 -19q39 -18 81 -44q34 -21 77 -45q37 -21 76 -19q39 1 71 33q29 29 59 78l49 -45q-39 -64 -82 -102q-40 -35 -97 -37q-45 -2 -83 17q-39 19 -80 44q-39 24 -78 45t-80 21q-46 -1 -80 -31q-30 -26 -65 -80l-52 43q46 68 93 104q46 36 104 37z" />
    <glyph glyph-name="commaaccentcomb" unicode="&#xf6c3;" horiz-adv-x="0" 
d="M156 -360h-37l39 120h-27v170h80v-161z" />
    <glyph glyph-name="NULL" horiz-adv-x="0" 
 />
    <glyph glyph-name="zero.alt" 
d="M76 1083q0 81 18 147t58 115q38 47 98 74t141 27t141 -27q61 -28 99 -74q39 -47 57 -115q19 -70 19 -147v-733q0 -74 -19 -144q-18 -68 -57 -115q-40 -50 -99 -76q-60 -27 -141 -27t-141 27q-57 26 -98 76q-40 49 -58 115t-18 144v733zM170 346q0 -118 51 -195t170 -77
t170 77t51 195v744q0 116 -51 193t-170 77t-170 -77t-51 -193v-744z" />
    <glyph glyph-name="one.alt" horiz-adv-x="575" 
d="M281 1274q-40 -52 -96 -83q-58 -32 -128 -38v82q108 8 161 64q55 58 83 137h74v-1436h-94v1274z" />
    <glyph glyph-name="two.alt" horiz-adv-x="753" 
d="M381 1446q81 0 142 -28q56 -26 95 -77q37 -49 55 -115q17 -62 17 -145q0 -105 -39 -187q-40 -85 -96 -157q-53 -69 -125 -142q-71 -73 -126 -143q-57 -73 -97 -161q-40 -87 -41 -193v-12h512v-86h-606v70q0 127 39 223t97 175q54 73 126 147q61 63 126 139q57 68 97 147
q39 78 39 176q0 125 -48 204t-171 79q-59 0 -101 -22q-40 -21 -66 -59q-24 -36 -37 -88q-11 -45 -11 -108v-98h-90v92q0 82 17 146q18 69 54 116q37 49 96 78q60 29 142 29z" />
    <glyph glyph-name="three.alt" horiz-adv-x="763" 
d="M383 1446q79 0 140 -28q59 -27 97 -76q37 -47 55 -114q17 -62 17 -145v-34q0 -106 -50 -186q-48 -77 -142 -111q98 -28 145 -107t47 -184v-111q0 -82 -17 -144q-19 -69 -55 -115q-38 -49 -97 -76t-140 -27q-83 0 -142 27t-97 76q-36 46 -55 115q-17 62 -17 144v82h90v-86
q0 -63 11 -108q12 -50 38 -86t68 -58q39 -20 100 -20q119 0 169 78q50 79 50 200v111q0 112 -54 175q-54 62 -159 67h-98v86h102q99 6 154 70t55 169v51q0 124 -49 201q-50 78 -170 78q-118 0 -168 -77q-49 -76 -49 -193v-58h-90v51q0 83 17 145q18 67 55 114q38 49 97 76
q61 28 142 28z" />
    <glyph glyph-name="four.alt" horiz-adv-x="825" 
d="M645 317v-317h-94v317h-488v89l476 1030h106v-1033h121v-86h-121zM150 403h401v854z" />
    <glyph glyph-name="five.alt" horiz-adv-x="763" 
d="M182 834q73 112 232 112q76 0 127 -26q52 -27 87 -74q33 -45 49 -112q15 -64 15 -138v-246q0 -82 -17 -144q-19 -69 -55 -115q-38 -49 -97 -76t-140 -27t-140 27t-97 76q-36 46 -55 115q-17 62 -17 144v78h90v-82q0 -61 11 -106q12 -50 38 -86t68 -58q39 -20 100 -20
q59 0 99 20q43 22 68 58q27 39 38 86q12 50 12 106v242q0 56 -12 106q-11 47 -38 86q-25 36 -68 58q-40 20 -99 20q-79 0 -131 -42q-53 -42 -74 -122v-24h-90l39 766h537v-88h-453z" />
    <glyph glyph-name="six.alt" horiz-adv-x="782" 
d="M393 1446q83 0 141 -27q59 -27 96 -73q37 -45 55 -113q17 -62 17 -143v-17h-90v23q0 115 -49 189q-49 75 -168 75q-61 0 -103 -21q-45 -23 -70 -57q-29 -40 -40 -89q-12 -53 -12 -116v-332q34 60 96 96t160 36q76 0 129 -27q52 -27 87 -74q33 -44 50 -110q17 -65 17 -140
v-176q0 -74 -19 -144q-18 -68 -57 -115q-41 -50 -98 -76q-60 -27 -142 -27q-83 0 -143 27q-57 26 -98 76q-40 49 -58 115t-18 144v729q0 81 18 148q17 63 57 116q37 48 98 76q60 27 144 27zM393 788q-121 0 -172 -76t-51 -192v-174q0 -118 51 -194t172 -76q119 0 170 76
t51 194v174q0 116 -51 192t-170 76z" />
    <glyph glyph-name="seven.alt" horiz-adv-x="733" 
d="M578 1348h-519v88h615v-86l-395 -1350h-97z" />
    <glyph glyph-name="eight.alt" horiz-adv-x="794" 
d="M397 1446q164 0 245 -94t81 -254v-45q0 -110 -44 -192q-43 -80 -144 -109q104 -30 146 -113t42 -195v-102q0 -159 -80 -257q-79 -97 -246 -97q-164 0 -244 98q-81 99 -81 256v102q0 116 43 195q44 80 149 113q-105 29 -148 107q-44 80 -44 194v45q0 160 82 254t243 94z
M397 1360q-115 0 -173 -69q-58 -68 -58 -195v-60q0 -245 231 -245q232 0 232 245v60q0 125 -58 195q-57 69 -174 69zM397 705q-231 0 -231 -252v-109q0 -126 57 -198t174 -72t174 72q58 73 58 198v109q0 252 -232 252z" />
    <glyph glyph-name="nine.alt" horiz-adv-x="782" 
d="M389 1448q80 0 142 -28t99 -75q38 -48 56 -115q19 -70 19 -147v-729q0 -80 -18 -147q-19 -70 -56 -116q-40 -50 -99 -76q-60 -27 -143 -27t-141 26q-59 26 -97 74q-39 49 -57 114q-18 66 -18 144v19h90v-23q0 -116 51 -192t170 -76q121 0 172 78t51 206v353
q-35 -80 -96 -116q-62 -36 -158 -36q-76 0 -129 27q-54 28 -87 72t-50 111q-16 63 -16 140v174q0 81 18 147t58 115t98 75q62 28 141 28zM389 1360q-119 0 -170 -77t-51 -193v-175q0 -117 51 -193q51 -77 170 -77t170 77q51 76 51 193v175q0 116 -51 193t-170 77z" />
    <glyph glyph-name="Edotaaccent" horiz-adv-x="442" 
 />
    <glyph glyph-name="edotaaccent" horiz-adv-x="442" 
 />
    <glyph glyph-name="lcute" horiz-adv-x="442" 
 />
    </font>
</defs>
</svg>
