<svg xmlns="http://www.w3.org/2000/svg">
<defs>
<font id="SVN-Avobolditalic" horiz-adv-x="1311" >
  <font-face 
    font-family="SVN-Avo"
    font-weight="700"
    font-style="italic"
    font-stretch="normal"
    units-per-em="2048"
    panose-1="2 4 6 3 5 5 6 2 2 4"
    ascent="1638"
    descent="-410"
    x-height="1135"
    cap-height="1513"
    bbox="-59 -461 4553 2395"
    underline-thickness="109"
    underline-position="-359"
    unicode-range="U+0020-2026"
  />
<missing-glyph horiz-adv-x="4653" 
d="M788 1681v510h343v-61h-274v-157h236v-61h-236v-231h-69zM1253 1865q0 -72 30 -106.5t76 -34.5t77 34.5t31 106.5q0 69 -31 104.5t-77 35.5t-76 -35.5t-30 -104.5zM1189 1865q0 104 56 151q45 42 114 42q37 0 68.5 -13t54.5 -37t36 -59t13 -79q0 -52 -12.5 -89t-35.5 -61
t-54.5 -35t-69.5 -11q-78 0 -124 48.5t-46 142.5zM1608 1681v369h58v-53q41 61 115 61q56 0 85 -27t37 -63q2 -10 3.5 -24.5t1.5 -36.5v-226h-64v223q0 54 -19.5 77.5t-57.5 23.5q-20 0 -37.5 -6t-30 -20t-20 -37.5t-7.5 -58.5v-202h-64zM2149 1679q-14 -2 -25.5 -3.5
t-21.5 -1.5q-27 5 -44 8t-27 13t-13.5 31t-3.5 62v214h-45v48h45v90l64 38v-128h63v-48h-63v-217q0 -18 1.5 -28t5.5 -15t10.5 -6t16.5 -1h29zM2444 1851q4 -56 40 -86t106 -30q62 0 94.5 23t32.5 61q0 24 -12 41t-44 31q-10 4 -33 10t-57 14t-59 16t-39 16q-40 18 -57 45.5
t-17 65.5q0 29 12.5 54.5t36 45t56.5 30.5t75 11q45 0 80.5 -11.5t60.5 -31.5t39 -47.5t16 -60.5l-69 -3q-11 93 -124 93q-62 0 -88 -22.5t-26 -54.5q0 -27 18 -45q11 -11 35 -19t66 -18q82 -16 112 -32q46 -18 66.5 -50t20.5 -72q0 -34 -14 -61.5t-39 -47.5t-60 -31
t-78 -11q-100 0 -157.5 45t-57.5 130zM3022 1681l-193 510h74l130 -372q8 -22 14 -42l12 -40q6 22 14 42l16 40l140 372h69l-202 -510h-74zM3356 1681v510h72l257 -398v398h69v-510h-74l-255 396v-396h-69zM128 1098q0 -70 29 -104t71 -34t71.5 33t29.5 99q0 78 -30.5 113.5
t-72.5 35.5t-70 -34.5t-28 -108.5zM327 917v45q-37 -53 -104 -53q-35 0 -64 14t-50 39t-33 60t-12 78q0 42 10.5 77.5t30.5 61.5t48.5 40.5t64.5 14.5q34 0 59.5 -14.5t43.5 -38.5v186h64v-510h-58zM725 917v53q-23 -29 -52 -45t-65 -16q-56 0 -85 25.5t-37 65.5

<glyph glyph-name=".notdef" horiz-adv-x="4653" 
d="M788 1681v510h343v-61h-274v-157h236v-61h-236v-231h-69zM1253 1865q0 -72 30 -106.5t76 -34.5t77 34.5t31 106.5q0 69 -31 104.5t-77 35.5t-76 -35.5t-30 -104.5zM1189 1865q0 104 56 151q45 42 114 42q37 0 68.5 -13t54.5 -37t36 -59t13 -79q0 -52 -12.5 -89t-35.5 -61
t-54.5 -35t-69.5 -11q-78 0 -124 48.5t-46 142.5zM1608 1681v369h58v-53q41 61 115 61q56 0 85 -27t37 -63q2 -10 3.5 -24.5t1.5 -36.5v-226h-64v223q0 54 -19.5 77.5t-57.5 23.5q-20 0 -37.5 -6t-30 -20t-20 -37.5t-7.5 -58.5v-202h-64zM2149 1679q-14 -2 -25.5 -3.5
t-21.5 -1.5q-27 5 -44 8t-27 13t-13.5 31t-3.5 62v214h-45v48h45v90l64 38v-128h63v-48h-63v-217q0 -18 1.5 -28t5.5 -15t10.5 -6t16.5 -1h29zM2444 1851q4 -56 40 -86t106 -30q62 0 94.5 23t32.5 61q0 24 -12 41t-44 31q-10 4 -33 10t-57 14t-59 16t-39 16q-40 18 -57 45.5
t-17 65.5q0 29 12.5 54.5t36 45t56.5 30.5t75 11q45 0 80.5 -11.5t60.5 -31.5t39 -47.5t16 -60.5l-69 -3q-11 93 -124 93q-62 0 -88 -22.5t-26 -54.5q0 -27 18 -45q11 -11 35 -19t66 -18q82 -16 112 -32q46 -18 66.5 -50t20.5 -72q0 -34 -14 -61.5t-39 -47.5t-60 -31
t-78 -11q-100 0 -157.5 45t-57.5 130zM3022 1681l-193 510h74l130 -372q8 -22 14 -42l12 -40q6 22 14 42l16 40l140 372h69l-202 -510h-74zM3356 1681v510h72l257 -398v398h69v-510h-74l-255 396v-396h-69zM128 1098q0 -70 29 -104t71 -34t71.5 33t29.5 99q0 78 -30.5 113.5
t-72.5 35.5t-70 -34.5t-28 -108.5zM327 917v45q-37 -53 -104 -53q-35 0 -64 14t-50 39t-33 60t-12 78q0 42 10.5 77.5t30.5 61.5t48.5 40.5t64.5 14.5q34 0 59.5 -14.5t43.5 -38.5v186h64v-510h-58zM725 917v53q-23 -29 -52 -45t-65 -16q-56 0 -85 25.5t-37 65.5
q-2 8 -2.5 21.5t-0.5 33.5v231h64v-207q0 -24 0.5 -40t2.5 -26q5 -24 23 -37.5t48 -13.5q46 0 72 28.5t26 96.5v199h64v-369h-58zM669 1360h-48l-79 99h82zM878 917v369h59v-53q40 61 114 61q56 0 85 -27t37 -63q2 -10 3.5 -24.5t1.5 -36.5v-226h-63v223q0 54 -19.5 77.5
t-57.5 23.5q-20 0 -37.5 -6t-30.5 -20t-20.5 -37.5t-7.5 -58.5v-202h-64zM1311 1106q0 -72 28 -104t70 -32t71.5 32t29.5 104q0 66 -29.5 100.5t-71.5 34.5t-70 -34.5t-28 -100.5zM1324 883q2 -16 6.5 -27.5t14.5 -17.5q20 -16 61 -16q42 0 65 15.5t31 45.5q5 22 5 79
q-22 -22 -46.5 -33.5t-54.5 -11.5q-39 0 -68.5 14.5t-49.5 40t-30.5 59t-10.5 72.5q0 40 11 74.5t31 60.5t49.5 41t67.5 15q62 0 107 -53v45h58v-318q1 -63 -9 -100t-31 -57.5t-52.5 -28.5t-74.5 -13q-64 0 -104.5 29t-38.5 93zM1921 1103q0 -69 16 -95q28 -48 80 -48
q21 0 39.5 8.5t32.5 26t22.5 43.5t8.5 62q0 72 -29 108t-69 36q-42 0 -71.5 -35.5t-29.5 -105.5zM1924 917h-61v510h63v-183q18 26 43.5 38t57.5 12q34 0 62.5 -14t49.5 -39t33 -59.5t12 -75.5q0 -48 -13 -85t-34.5 -61.5t-50.5 -37.5t-61 -13q-34 0 -58.5 13.5t-42.5 39.5
v-45zM2500 1103q-18 -8 -44 -13.5t-60 -10.5q-27 -5 -44 -10t-27 -12.5t-13.5 -17t-3.5 -23.5q0 -26 18.5 -42.5t56.5 -16.5q34 0 63 14.5t43 44.5q8 21 8 63zM2502 962q-34 -29 -65.5 -41t-69.5 -12q-62 0 -93.5 29t-31.5 75q0 44 26 69t62 37q10 2 24 4t31 4q76 12 112 24
q2 6 2.5 10t0.5 6q0 37 -19 53q-26 21 -72 21t-66.5 -15.5t-28.5 -53.5l-64 8q12 56 50.5 85t114.5 29q37 0 62 -6.5t41 -17.5t24.5 -26t12.5 -32q2 -10 4 -24t2 -34v-85q0 -43 0.5 -68.5t2 -41t5 -24.5t10.5 -18h-64q-6 11 -8.5 21t-4.5 24zM2407 1406q21 0 24 2
q17 4 21 13q0 10 -11 14q-16 8 -48 8q-6 0 -13.5 -0.5t-17.5 -2.5l-3 35q6 2 18 2h30q22 -2 39.5 -6t31.5 -10q27 -11 32 -37q0 -36 -64 -40v-18h-39v40zM2656 917v369h58v-53q41 61 115 61q56 0 85 -27t37 -63q2 -10 3.5 -24.5t1.5 -36.5v-226h-64v223q0 54 -19.5 77.5
t-57.5 23.5q-20 0 -37.5 -6t-30 -20t-20 -37.5t-7.5 -58.5v-202h-64zM3089 1106q0 -72 28 -104t70 -32t71 32t29 104q0 66 -29 100.5t-71 34.5t-70 -34.5t-28 -100.5zM3102 883q3 -34 21 -45q19 -16 61 -16t65 15.5t31 45.5q2 10 3.5 30t1.5 49q-22 -22 -46.5 -33.5
t-54.5 -11.5q-39 0 -68.5 14.5t-49.5 40t-30.5 59t-10.5 72.5q0 40 10.5 74.5t31 60.5t50 41t67.5 15q62 0 106 -53v45h59v-318q1 -63 -9.5 -100t-31.5 -57.5t-52.5 -28.5t-74.5 -13q-64 0 -104.5 29t-38.5 93zM3640 917v369h59v-53q18 26 45.5 43.5t65.5 17.5
q42 0 67.5 -17t36.5 -47q43 64 116 64q114 0 114 -125v-252h-63v231q0 51 -15.5 72t-51.5 21q-38 0 -64 -26.5t-26 -84.5v-213h-63v239q0 42 -15 63.5t-49 21.5q-44 0 -68.5 -30.5t-24.5 -102.5v-191h-64zM4473 1103q-17 -8 -43 -13.5t-60 -10.5q-27 -5 -44 -10t-27 -12.5
t-13.5 -17t-3.5 -23.5q0 -26 18.5 -42.5t56.5 -16.5q34 0 63 14.5t43 44.5q8 21 8 63zM4476 962q-34 -29 -65.5 -41t-69.5 -12q-62 0 -93.5 29t-31.5 75q0 44 26 69t62 37q10 2 23.5 4t31.5 4q76 12 112 24q2 6 2 10v6q0 38 -18 53q-26 21 -72 21t-66.5 -15.5t-28.5 -53.5
l-64 8q12 56 50.5 85t114.5 29q37 0 62 -6.5t41 -17.5t24.5 -26t12.5 -32q2 -10 3.5 -24t1.5 -34v-85q0 -43 0.5 -68.5t2 -41t5.5 -24.5t11 -18h-64q-6 11 -8.5 21t-4.5 24zM4288 1350q-2 32 17.5 53t51.5 21q10 0 25 -5.5t33 -15.5q21 -8 32 -8q10 0 17 7.5t9 21.5h46
q-4 -74 -69 -74q-11 0 -26 4t-33 12q-12 6 -20 9.5t-14 3.5q-29 0 -24 -29h-45zM1364 535h69v-294q0 -54 -10 -95.5t-33.5 -70t-61.5 -43t-94 -14.5q-55 0 -93 12.5t-61.5 39.5t-34 69t-10.5 102v294h69v-291q0 -47 6.5 -78t21.5 -50t39 -26.5t58 -7.5q36 0 61.5 7.5
t42 25.5t24 49.5t7.5 79.5v291zM1539 26v369h58v-53q20 29 48.5 45t66.5 16q55 0 84.5 -27.5t37.5 -63.5q2 -10 3.5 -24t1.5 -37v-225h-64v223q0 54 -19.5 77.5t-57.5 23.5q-20 0 -37.5 -6t-30 -20.5t-20 -38t-7.5 -57.5v-202h-64zM1934 26v369h64v-369h-64zM1934 464v71h64
v-71h-64zM2396 153q-10 -64 -53 -99.5t-101 -35.5q-78 0 -122.5 49t-44.5 139q0 94 44.5 145.5t120.5 51.5q62 0 98 -30.5t50 -86.5l-64 -8q-10 34 -31 54t-51 20q-48 0 -75.5 -34.5t-27.5 -108.5t27 -107.5t74 -33.5q77 0 92 93zM2489 209q0 -72 30 -106.5t76 -34.5
t77.5 34.5t31.5 106.5q0 70 -31.5 105.5t-77.5 35.5t-76 -35.5t-30 -105.5zM2425 209q0 103 56 151q47 43 114 43q37 0 68.5 -13t54.5 -37.5t36 -59.5t13 -79q0 -52 -12.5 -89t-35.5 -61t-54.5 -35t-69.5 -11q-78 0 -124 48.5t-46 142.5zM2884 206q0 -69 29.5 -103.5
t71.5 -34.5t71.5 33.5t29.5 99.5q0 78 -31 113.5t-73 35.5q-41 0 -69.5 -35t-28.5 -109zM3083 26v45q-37 -53 -103 -53q-35 0 -64 14t-50 39t-33 60t-12 78q0 42 10.5 77.5t30.5 61.5t48 40.5t64 14.5q35 0 60.5 -15t43.5 -38v185h64v-509h-59zM3497 244q-2 23 -9 41t-17 30
q-34 37 -80 37t-76.5 -30t-32.5 -78h215zM3558 137q-16 -58 -58 -88.5t-106 -30.5q-82 0 -130 49t-48 139q0 94 47 145.5t125 51.5q39 0 71 -13.5t54.5 -39t35 -61t12.5 -80.5q0 -2 -0.5 -6t-2.5 -10h-278q2 -62 34 -93.5t80 -31.5q38 0 62 17.5t38 59.5z" />
    <glyph glyph-name=".null" horiz-adv-x="0" 
 />
    <glyph glyph-name="nonmarkingreturn" horiz-adv-x="571" 
 />
    <glyph glyph-name="space" unicode=" " horiz-adv-x="573" 
 />
    <glyph glyph-name="exclam" unicode="!" horiz-adv-x="573" 
d="M229 385l240 1128h272l-239 -1128h-273zM147 0l56 260h272l-55 -260h-273z" />
    <glyph glyph-name="quotedbl" unicode="&#x22;" horiz-adv-x="737" 
d="M375 1051l98 462h154l-99 -462h-153zM649 1051l99 462h153l-98 -462h-154z" />
    <glyph glyph-name="numbersign" unicode="#" horiz-adv-x="1147" 
d="M1167 678l-41 -201h-208l-168 -477h-183l166 477h-174l-168 -477h-180l166 477h-205l41 201h233l68 188h-203l43 201h228l155 449h178l-153 -449h176l154 449h184l-156 -449h185l-43 -201h-211l-66 -188h182zM868 866h-176l-65 -188h174z" />
    <glyph glyph-name="dollar" unicode="$" horiz-adv-x="1147" 
d="M231 510h269l-3 -35q0 -61 39 -101t105 -40q74 0 135 51t78 127l3 29v19q-1 10 -8 27q-3 11 -8.5 21.5t-14.5 23.5q-15 24 -49 40l-64 22q-147 47 -219 111q-89 80 -89 208v23t2 24q0 12 3.5 26t5.5 24q17 83 55 149t102.5 122.5t116.5 81.5q42 20 78 20l57 268h256
l-57 -268q87 -37 136.5 -114t49.5 -175v-36l-4 -23h-256q0 55 -27.5 88.5t-84.5 33.5q-55 0 -103 -40.5t-61 -94.5l-3 -18l-1 -18q0 -69 76 -108q25 -12 85 -34q100 -34 117 -43q62 -27 102.5 -69t61.5 -98q10 -28 15 -57t5 -64q0 -49 -12 -103q-18 -88 -58 -157.5
t-110 -133.5q-48 -41 -109 -77q-54 -30 -114 -44l-57 -272h-256l57 272q-111 19 -184.5 110t-73.5 207q0 25 1.5 36.5t6.5 33.5z" />
    <glyph glyph-name="percent" unicode="%" horiz-adv-x="1761" 
d="M457 0l948 1513h209l-948 -1513h-209zM739 1542q131 0 214 -81.5t83 -209.5l-1 -40q0 -13 -7 -37q-31 -153 -161 -261t-283 -108q-133 0 -216 82.5t-83 209.5l1 39q0 13 7 38q31 152 162 260t284 108zM690 1315q-61 0 -109 -40t-61 -101l-3 -28q0 -48 31 -82
q32 -32 81 -32q58 0 108.5 41.5t63.5 100.5l3 29q0 48 -32 80q-30 32 -82 32zM1491 700q131 0 214.5 -80.5t83.5 -207.5q0 -38 -9 -80q-31 -153 -162 -261t-285 -108q-133 0 -216 82.5t-83 209.5l1 39q0 13 7 38q33 154 163.5 261t285.5 107zM1442 473q-60 0 -109 -37
t-61 -96l-3 -32q0 -50 31 -84t82 -34q56 0 108 45t64 105l3 29q0 46 -32 75t-83 29z" />
    <glyph glyph-name="ampersand" unicode="&#x26;" horiz-adv-x="1393" 
d="M1241 893h301l-358 -457l207 -291l-236 -174l-160 217q-94 -103 -196 -159q-117 -66 -232 -66q-177 0 -294.5 105.5t-117.5 272.5q0 49 11 99q31 152 133 263q87 96 244 174q-37 49 -57 99t-20 107q0 22 1 33t6 35q35 167 169 279t300 112q137 0 226.5 -81.5t89.5 -211.5
q0 -36 -9 -80q-26 -126 -106 -217.5t-209 -154.5l106 -156zM801 985q99 42 141 84q35 35 47 86l3 31q0 92 -107 92q-54 0 -95.5 -33t-54.5 -88l-3 -26q0 -21 5 -39.5t18 -40.5q8 -14 20.5 -32t25.5 -34zM848 395l-180 264q-89 -34 -146 -85q-69 -61 -88 -146l-3 -21l-1 -22
q0 -71 46.5 -113.5t123.5 -42.5q71 0 140 51q52 40 108 115z" />
    <glyph glyph-name="quotesingle" unicode="'" horiz-adv-x="451" 
d="M375 1051l98 462h156l-99 -462h-155z" />
    <glyph glyph-name="parenleft" unicode="(" horiz-adv-x="778" 
d="M721 25l-62 -287q-106 18 -198 116q-73 78 -125 195q-75 170 -75 359q0 105 24 219q30 145 99 282.5t174 262t216 208.5q129 98 262 131l-61 -284q-159 -104 -269 -268q-102 -154 -141 -336q-5 -22 -7 -34t-6 -46t-5 -48t-1 -43q0 -132 43.5 -242.5t131.5 -184.5z" />
    <glyph glyph-name="parenright" unicode=")" horiz-adv-x="778" 
d="M336 1227l61 284q115 -30 205 -131q79 -86 129 -209q64 -152 64 -332q0 -55 -5 -104t-18 -108q-65 -308 -289 -568q-101 -116 -210 -199q-130 -98 -253 -122l62 287q157 98 267 265q51 76 87 160t56 173q9 47 14 90.5t5 83.5q0 130 -43.5 240t-131.5 190z" />
    <glyph glyph-name="asterisk" unicode="*" horiz-adv-x="901" 
d="M563 934l-114 61l151 187l-209 -15l31 142l203 -13l-74 183l139 61l53 -184l134 186l102 -72l-148 -174l207 15l-30 -144l-207 13l80 -172l-131 -74l-58 188z" />
    <glyph glyph-name="plus" unicode="+" horiz-adv-x="1229" 
d="M668 776l82 391h237l-82 -391h398l-52 -237h-397l-86 -406h-238l86 406h-397l51 237h398z" />
    <glyph glyph-name="comma" unicode="," horiz-adv-x="573" 
d="M147 0l58 272h272l-55 -262q-18 -84 -36 -120q-25 -55 -85 -103q-43 -35 -100 -55q-29 -9 -56 -14t-57 -5l29 137q60 9 93 33q38 28 50 82l8 35h-121z" />
    <glyph glyph-name="hyphen" unicode="-" horiz-adv-x="860" 
d="M264 530l51 242h568l-52 -242h-567z" />
    <glyph glyph-name="period" unicode="." horiz-adv-x="573" 
d="M147 0l58 272h272l-57 -272h-273z" />
    <glyph glyph-name="slash" unicode="/" horiz-adv-x="942" 
d="M-2 -262l1038 1775h193l-1039 -1775h-192z" />
    <glyph glyph-name="zero" unicode="0" horiz-adv-x="1147" 
d="M1290 1010l-110 -514q-24 -111 -66 -195q-50 -98 -131 -172q-87 -78 -197 -122t-215 -44q-109 0 -197 36.5t-151 111.5q-38 45 -58 102q-17 56 -17 121q0 19 1 40q1 20 4 40.5t7 44.5t10 49l106 502q24 111 66 195q48 99 129 171q88 80 201.5 123t222.5 43q105 0 192 -36
t146 -109q39 -48 57 -106.5t18 -129.5q0 -16 -1 -34.5t-5 -49.5t-12 -67zM547 1006l-103 -490l-10 -57l-5 -55q0 -31 5.5 -52t18.5 -43q22 -36 67 -58q22 -10 45.5 -16t48.5 -6q53 0 107.5 21t94 61.5t64.5 95.5q17 40 31 105l107 504q9 38 9 73q0 83 -49.5 135t-141.5 52
q-51 0 -103.5 -22.5t-91.5 -61t-62 -85.5q-9 -20 -17.5 -45.5t-14.5 -55.5z" />
    <glyph glyph-name="one" unicode="1" horiz-adv-x="1147" 
d="M504 0l266 1255h-190l55 258h463l-322 -1513h-272z" />
    <glyph glyph-name="two" unicode="2" horiz-adv-x="1147" 
d="M86 0l55 258l625 485q77 60 108 89q53 50 90 103t52 120q6 29 6 54q0 74 -48 121q-23 22 -55 34t-73 12q-117 0 -200 -86q-77 -80 -93 -199h-272l12 56q42 203 216.5 349t377.5 146q184 0 297.5 -108t113.5 -281q0 -51 -12 -111q-18 -89 -66 -169.5t-122 -155.5
l-232 -201l-344 -258h598l-55 -258h-979z" />
    <glyph glyph-name="three" unicode="3" horiz-adv-x="1147" 
d="M598 725l55 258h19q99 0 156 29q74 37 94 129q0 10 2 15l2 17q0 48 -33 75.5t-86 27.5q-54 0 -97 -36.5t-53 -92.5h-272q31 158 174.5 276.5t304.5 118.5q148 0 243.5 -90.5t95.5 -231.5q0 -39 -9 -81q-18 -85 -63 -153q-48 -72 -125 -118q83 -31 126 -111
q40 -75 40 -175q0 -62 -13 -117q-45 -216 -231 -362q-181 -140 -402 -140q-177 0 -292 113.5t-115 285.5q0 31 1.5 45.5t6.5 41.5h274l-3 -37q0 -79 57 -131t145 -52q99 0 182.5 69.5t104.5 168.5q3 15 5 29.5t2 30.5q0 95 -69 149q-36 29 -88 39q-22 4 -52 7t-60 3h-27z
" />
    <glyph glyph-name="four" unicode="4" horiz-adv-x="1147" 
d="M96 449l922 1064h229l-219 -1030h160l-55 -258h-160l-47 -225h-273l47 225h-653zM756 483l121 570l-484 -570h363z" />
    <glyph glyph-name="five" unicode="5" horiz-adv-x="1147" 
d="M1241 1513l-55 -258h-481l-107 -278q104 43 199 43q176 0 284 -120q101 -115 101 -289l-3 -55q0 -19 -10 -62q-45 -216 -232.5 -373.5t-401.5 -157.5q-177 0 -299 117.5t-122 289.5q0 43 7 79h272q0 -96 46 -155q51 -65 143 -65q114 0 202 75.5t113 193.5q6 27 6 53
q0 87 -59.5 145t-149.5 58q-58 0 -114 -26t-105 -75l-229 68l311 792h684z" />
    <glyph glyph-name="six" unicode="6" horiz-adv-x="1147" 
d="M907 1513h322l-447 -514l76 7q88 0 160.5 -38t122.5 -106q72 -98 72 -232q0 -59 -15 -128q-45 -220 -231 -379.5t-406 -159.5q-192 0 -309 117q-57 59 -86 133.5t-29 168.5q0 61 13 122q21 96 69 186q42 78 117 164zM725 754q-106 0 -192.5 -72.5t-110.5 -183.5
q-3 -16 -5 -31t-2 -33q0 -88 54.5 -146.5t146.5 -58.5q104 0 194 75t112 181q6 30 6 58q0 91 -55 151t-148 60z" />
    <glyph glyph-name="seven" unicode="7" horiz-adv-x="1147" 
d="M174 0l832 1255h-607l56 258h891l-56 -258l-813 -1255h-303z" />
    <glyph glyph-name="eight" unicode="8" horiz-adv-x="1147" 
d="M465 842q-39 49 -57 91t-18 94l3 42l8 51q37 177 175 298q142 124 317 124q147 0 239 -91t92 -234q0 -48 -10 -91q-18 -90 -60 -156t-124 -128q75 -42 112.5 -112.5t37.5 -162.5q0 -27 -3 -55t-10 -59q-42 -201 -222.5 -345.5t-383.5 -144.5q-185 0 -297.5 109.5
t-112.5 282.5q0 53 13 114q26 120 106 223q84 108 195 150zM842 1276q-66 0 -122 -45t-73 -111l-3 -30q0 -55 36 -92t96 -37q65 0 120.5 45.5t70.5 113.5l3 31q0 51 -36 88t-92 37zM715 694q-95 0 -179 -69q-80 -66 -104 -168l-5 -46q0 -78 53.5 -130t135.5 -52q96 0 177 66
t102 162q6 27 6 53q0 81 -52 132.5t-134 51.5z" />
    <glyph glyph-name="nine" unicode="9" horiz-adv-x="1147" 
d="M227 0l443 508h-52q-174 0 -273.5 104.5t-99.5 268.5q0 52 13 116q48 228 226 385q183 160 409 160q104 0 195.5 -42t150.5 -118q41 -54 60 -117t19 -133v-39q-3 -17 -4 -29t-3.5 -29t-7.5 -36q-17 -80 -49 -144q-27 -58 -77 -125q-36 -51 -100 -124l-530 -606h-320z
M831 1276q-100 0 -187 -75.5t-109 -178.5q-3 -16 -5 -31t-2 -33q0 -88 54.5 -144t148.5 -56q106 0 192.5 77.5t110.5 184.5q6 29 6 56q0 87 -58 143.5t-151 56.5z" />
    <glyph glyph-name="colon" unicode=":" horiz-adv-x="573" 
d="M147 0l58 272h272l-57 -272h-273zM307 756l60 272h272l-59 -272h-273z" />
    <glyph glyph-name="semicolon" unicode=";" horiz-adv-x="573" 
d="M147 0l58 272h272l-55 -262q-18 -84 -36 -120q-25 -55 -85 -103q-43 -35 -100 -55q-29 -9 -56 -14t-57 -5l29 137q60 9 93 33q38 28 50 82l8 35h-121zM307 756l60 272h272l-59 -272h-273z" />
    <glyph glyph-name="less" unicode="&#x3c;" horiz-adv-x="1229" 
d="M1210 313l-49 -227l-944 461l43 203l1141 464l-49 -227l-813 -342z" />
    <glyph glyph-name="equal" unicode="=" horiz-adv-x="1229" 
d="M1343 969l-51 -236h-1032l51 236h1032zM1257 569l-49 -235h-1032l49 235h1032z" />
    <glyph glyph-name="greater" unicode="&#x3e;" horiz-adv-x="1229" 
d="M166 313l811 332l-670 342l49 227l944 -464l-43 -203l-1140 -461z" />
    <glyph glyph-name="question" unicode="?" horiz-adv-x="1147" 
d="M565 1069h-272q25 90 59 154q40 77 99 139q80 81 196 130.5t221 49.5q86 0 160 -34t123 -95q37 -46 58.5 -109.5t21.5 -132.5q0 -51 -12 -110q-15 -73 -59 -139q-37 -56 -100 -116q-46 -43 -128 -102.5t-117 -106.5q-44 -56 -61 -142l-15 -70h-272l12 59q6 32 15 62
t23 62q26 60 66 119.5t89 103.5q24 23 112.5 85.5t124.5 108.5q29 39 39 88l7 56q0 65 -41.5 103t-114.5 38q-88 0 -151 -57q-56 -50 -83 -144zM385 0l55 260h273l-56 -260h-272z" />
    <glyph glyph-name="at" unicode="@" horiz-adv-x="1516" 
d="M1305 291h194q-147 -158 -324 -243q-86 -41 -179.5 -63t-188.5 -22q-291 0 -475 171t-184 447q0 81 18 171q72 336 350 563t614 227q142 0 255 -42.5t200 -133.5q71 -72 108 -159.5t37 -189.5q0 -54 -12 -116q-28 -132 -86 -231q-62 -106 -168 -197q-79 -67 -190 -120
q-124 -58 -207 -58q-45 0 -74 20t-29 57q0 15 5 31q-50 -45 -112.5 -71.5t-121.5 -26.5q-130 0 -201 75.5t-71 197.5q0 50 10 96q39 193 185 331q154 148 343 148q80 0 139.5 -30t90.5 -93l43 107h196l-231 -609l-16 -45q-1 -4 -1 -7q0 -8 5 -13q7 -8 22 -10q34 0 85 32
q46 28 79 62q51 56 89.5 134.5t55.5 152.5q8 39 12 70.5t4 66.5q0 195 -129.5 306.5t-352.5 111.5q-277 0 -493.5 -179.5t-276.5 -457.5q-16 -80 -16 -148q0 -224 151 -355.5t399 -131.5q117 0 232 47q104 42 217 127zM729 707l-4 -21l-1 -29q0 -60 30.5 -96.5t95.5 -36.5
q94 0 167.5 68.5t94.5 163.5l3 20l2 26q0 57 -35.5 94.5t-100.5 37.5q-83 0 -160 -73q-71 -68 -92 -154z" />
    <glyph glyph-name="A" unicode="A" horiz-adv-x="1516" 
d="M14 0l953 1513h219l315 -1513h-309l-80 391h-537l-251 -391h-310zM735 664h324l-66 458z" />
    <glyph glyph-name="B" unicode="B" horiz-adv-x="1188" 
d="M139 0l322 1513h274h62q74 0 123.5 -3t85.5 -11q70 -14 120 -43q68 -39 109 -110.5t41 -156.5q0 -25 -1 -36.5t-7 -36.5q-18 -92 -78.5 -170.5t-149.5 -118.5q93 -32 142 -105t49 -170q0 -47 -10 -91q-22 -111 -91 -203q-65 -89 -172 -158q-92 -59 -217 -83
q-93 -17 -223 -17h-379zM477 272h117q98 0 148 12.5t96 41.5q84 50 104 147l5 40q0 35 -18 65q-18 27 -53 48.5t-74 27t-94 5.5h-26h-123zM618 932h54h23h13h11q43 0 71 4q19 0 36.5 4.5t39.5 13.5q43 18 76 57q30 38 41 83l3 28q0 74 -71 105q-18 9 -42 12l-53 4l-43 -1
l-42 -1h-51z" />
    <glyph glyph-name="C" unicode="C" horiz-adv-x="1597" 
d="M1311 412h325q-129 -203 -354 -328q-221 -121 -444 -121q-279 0 -456 180t-177 450q0 81 18 165q66 321 346 552q140 116 288 174t308 58q230 0 404.5 -125t216.5 -336h-320q-51 87 -146.5 138t-209.5 51q-206 0 -384 -154t-224 -368q-11 -57 -11 -102q0 -172 113 -291
t287 -119q108 0 215 45.5t205 130.5z" />
    <glyph glyph-name="D" unicode="D" horiz-adv-x="1434" 
d="M139 0l322 1513h317q142 0 223 -11q116 -15 211 -52.5t166.5 -113t110.5 -186.5t39 -237q0 -39 -4 -80t-13 -83q-33 -160 -135.5 -316.5t-247.5 -259.5q-100 -72 -216 -114q-100 -35 -221 -50q-39 -4 -100 -7q-62 -3 -128 -3h-324zM477 272h35q182 0 287 28q87 24 170 75
q100 65 168.5 164t93.5 211q12 56 12 109q0 93 -32 166.5t-97 125.5q-55 43 -143 67q-41 11 -108 17t-158 6h-21z" />
    <glyph glyph-name="E" unicode="E" horiz-adv-x="1065" 
d="M139 0l322 1513h813l-57 -272h-533l-74 -348h510l-59 -272h-510l-74 -349h533l-58 -272h-813z" />
    <glyph glyph-name="F" unicode="F" horiz-adv-x="983" 
d="M139 0l322 1513h770l-57 -272h-490l-74 -348h467l-59 -272h-467l-131 -621h-281z" />
    <glyph glyph-name="G" unicode="G" horiz-adv-x="1720" 
d="M1827 1069h-336q-47 93 -143.5 147t-210.5 54q-97 0 -195 -33.5t-186.5 -99t-161.5 -172.5q-69 -102 -90 -207q-5 -21 -8 -46.5t-3 -54.5q0 -147 80 -251q61 -82 153 -126t202 -44q133 0 274 75.5t228 196.5h-633l55 264h987l-6 -33q-69 -326 -358 -554
q-282 -222 -613 -222q-285 0 -472 175.5t-187 447.5q0 78 18 162q69 329 357 562q144 116 297 174t319 58q236 0 414 -128.5t219 -344.5z" />
    <glyph glyph-name="H" unicode="H" horiz-adv-x="1393" 
d="M139 0l322 1513h280l-129 -606h541l129 606h281l-322 -1513h-280l135 635h-541l-135 -635h-281z" />
    <glyph glyph-name="I" unicode="I" horiz-adv-x="573" 
d="M139 0l322 1513h280l-321 -1513h-281z" />
    <glyph glyph-name="J" unicode="J" horiz-adv-x="983" 
d="M889 1513h280l-227 -1067q-22 -107 -44 -159q-32 -81 -95 -150q-70 -80 -170.5 -127t-200.5 -47q-151 0 -249 84.5t-98 225.5l1 36l6 39h281q0 -48 28 -76t78 -28q79 0 125 55q35 42 53 129z" />
    <glyph glyph-name="K" unicode="K" horiz-adv-x="1270" 
d="M139 0l322 1513h280l-139 -655l610 655h336l-729 -743l408 -770h-336l-330 664l-141 -664h-281z" />
    <glyph glyph-name="L" unicode="L" horiz-adv-x="901" 
d="M139 0l322 1513h280l-264 -1241h463l-57 -272h-744z" />
    <glyph glyph-name="M" unicode="M" horiz-adv-x="1843" 
d="M139 0l322 1513h383l160 -1157l657 1157h381l-322 -1513h-280l241 1135l-632 -1135h-238l-149 1135l-242 -1135h-281z" />
    <glyph glyph-name="N" unicode="N" horiz-adv-x="1516" 
d="M139 0l322 1513h315l395 -1105l236 1105h281l-322 -1513h-311l-402 1102l-233 -1102h-281z" />
    <glyph glyph-name="O" unicode="O" horiz-adv-x="1720" 
d="M1178 1542q281 0 459.5 -177.5t178.5 -448.5q0 -79 -18 -166q-69 -326 -350.5 -556.5t-605.5 -230.5q-279 0 -459 175.5t-180 446.5q0 78 18 165q69 330 348.5 561t608.5 231zM1120 1270q-210 0 -391 -150t-227 -364q-12 -54 -12 -107q0 -176 115.5 -294.5t293.5 -118.5
q207 0 390.5 153.5t228.5 366.5q12 57 12 111q0 173 -114 288t-296 115z" />
    <glyph glyph-name="P" unicode="P" horiz-adv-x="1147" 
d="M420 0h-281l322 1513h356q59 0 98 -1q38 -1 72 -2q23 0 51 -5t60 -14q59 -15 112 -57q62 -48 96 -124.5t34 -159.5l-3 -48l-8 -49q-24 -116 -91.5 -217t-170.5 -170q-67 -47 -152 -69q-37 -10 -69 -15.5t-66 -5.5q-53 0 -97 -1q-45 -1 -85 -2h-55zM600 846h51h54
q19 0 50 1q30 1 41 1q17 0 35 3.5t39 10.5q65 19 114.5 70t64.5 117l3 18l1 20q0 52 -29.5 88.5t-81.5 53.5q-20 4 -33 6.5t-31 2.5l-84 3h-59h-51z" />
    <glyph glyph-name="Q" unicode="Q" horiz-adv-x="1720" 
d="M1741 215l-53 -252q-112 0 -204 27.5t-165 87.5q-97 -53 -221 -84t-238 -31q-285 0 -471 175.5t-186 446.5q0 77 18 163q35 169 119.5 308t221 251t300.5 173.5t324 61.5q288 0 474.5 -176.5t186.5 -451.5q0 -79 -18 -166q-30 -145 -98.5 -263t-186.5 -229q29 -18 70 -30
q19 -5 40.5 -8t41.5 -3h45zM1128 285q-104 91 -202 138q-123 60 -248 60q-37 0 -71 -5t-72 -19q55 -113 163 -170q101 -53 246 -53q53 0 113 21zM504 766l-12 -82q42 12 106 20q30 3 57 5t56 2q119 0 217 -26.5t196 -86.5q78 -45 123 -80q60 -45 107 -100q74 62 124 147
q47 81 68 178q12 59 12 112q0 180 -116 297.5t-303 117.5q-107 0 -210.5 -41t-201.5 -121q-81 -67 -142 -157.5t-81 -184.5z" />
    <glyph glyph-name="R" unicode="R" horiz-adv-x="1188" 
d="M139 0l322 1513h438q64 0 115.5 -4t88.5 -13q102 -24 167 -89q50 -50 79 -123q14 -38 21 -73.5t7 -78.5q0 -48 -11 -98q-16 -84 -70.5 -175t-124.5 -154q-63 -57 -143 -94q-70 -32 -156 -52l291 -559h-346l-274 580l-123 -580h-281zM588 793h153q40 0 66 2t55 9
q70 15 117 52q82 65 104 164l4 28l1 19q0 77 -52 123q-35 32 -88 44q-17 3 -43.5 5t-64.5 2h-156z" />
    <glyph glyph-name="S" unicode="S" horiz-adv-x="1065" 
d="M119 426h293l-5 -42q0 -68 48 -108t127 -40q80 0 149.5 53.5t87.5 136.5q6 29 6 53q0 80 -69 134q-43 33 -141 67t-135 54q-61 33 -103 87q-66 87 -66 212q0 26 1 38.5t7 40.5q39 184 197.5 307t341.5 123q153 0 256.5 -98t103.5 -245q0 -46 -10 -87h-288l2 16v13
q0 57 -38.5 93t-99.5 36q-66 0 -117.5 -44.5t-66.5 -115.5l-4 -35q0 -58 50 -96q31 -26 106 -53q124 -46 143 -56q74 -34 123 -84q98 -93 98 -235q0 -49 -12 -109q-42 -201 -217 -340t-377 -139q-171 0 -286 104.5t-115 266.5q0 46 10 92z" />
    <glyph glyph-name="T" unicode="T" horiz-adv-x="860" 
d="M293 0l264 1241h-278l57 272h842l-58 -272h-282l-265 -1241h-280z" />
    <glyph glyph-name="U" unicode="U" 
d="M461 1513h280l-200 -944l-15 -73q-8 -45 -8 -72v-25q0 -10 1.5 -15.5t6.5 -18.5q18 -59 63 -94t109 -35q56 0 114.5 28t97.5 75.5t62 111.5q6 19 12.5 46.5t16.5 71.5l201 944h281l-201 -944q-27 -134 -64 -216q-48 -111 -133 -193q-94 -90 -212.5 -143.5t-231.5 -53.5
q-106 0 -198.5 50.5t-149.5 133.5q-30 44 -47 100q-14 56 -14 114q0 39 1.5 54.5t6.5 46.5q2 16 7 44.5t13 62.5z" />
    <glyph glyph-name="V" unicode="V" horiz-adv-x="1434" 
d="M604 0l-266 1513h295l164 -1151l651 1151h295l-907 -1513h-232z" />
    <glyph glyph-name="W" unicode="W" horiz-adv-x="1843" 
d="M455 0l-119 1513h287l39 -1058l485 1058h205l30 -1058l492 1058h287l-762 -1513h-223l-33 1001l-465 -1001h-223z" />
    <glyph glyph-name="X" unicode="X" horiz-adv-x="1393" 
d="M10 0l682 754l-360 759h327l248 -520l471 520h328l-686 -759l364 -754h-327l-250 516l-469 -516h-328z" />
    <glyph glyph-name="Y" unicode="Y" horiz-adv-x="1270" 
d="M504 0l119 559l-295 954h309l182 -696l477 696h308l-701 -954l-119 -559h-280z" />
    <glyph glyph-name="Z" unicode="Z" horiz-adv-x="1024" 
d="M88 240l789 1001h-543l57 272h875l-54 -253l-782 -988h610l-57 -272h-946z" />
    <glyph glyph-name="bracketleft" unicode="[" horiz-adv-x="655" 
d="M920 1513l-62 -292q-78 -24 -133 -91q-45 -54 -75 -141q-17 -49 -40 -149l-98 -465l-15 -79q-3 -27 -4 -38.5t-1 -35.5q0 -71 23 -116q27 -53 89 -75l-61 -291q-93 0 -174 66q-66 54 -113 147q-24 49 -36 104q-5 25 -8 55t-3 60q0 45 1.5 63t8 66t23.5 121l100 473
q14 68 30.5 122t37.5 97q49 103 141 197q87 87 171 138q107 64 198 64z" />
    <glyph glyph-name="backslash" unicode="\" 
d="M817 0l-323 1513h213l323 -1513h-213z" />
    <glyph glyph-name="bracketright" unicode="]" horiz-adv-x="655" 
d="M713 895l-101 -473q-10 -49 -20.5 -88.5t-22.5 -76.5q-15 -47 -30 -84.5t-35 -72.5q-23 -41 -47.5 -75t-59.5 -72q-86 -94 -172 -147q-105 -66 -205 -66l62 291q84 26 138 95q66 81 102 249l98 465l19 97q3 23 5 44t2 44q0 74 -23 120q-27 53 -87 76l61 292q88 0 168 -64
q64 -50 115 -138q29 -50 43 -106t14 -114v-12q0 -19 -1 -38t-5 -49.5t-18 -96.5z" />
    <glyph glyph-name="asciicircum" unicode="^" horiz-adv-x="1229" 
d="M479 645l-192 96l532 772h246l205 -772l-234 -96l-157 572z" />
    <glyph glyph-name="underscore" unicode="_" horiz-adv-x="1024" 
d="M965 -283h-1024l39 185h1024z" />
    <glyph glyph-name="grave" unicode="`" horiz-adv-x="860" 
d="M473 1511l162 209l395 -276l-149 -189z" />
    <glyph glyph-name="a" unicode="a" horiz-adv-x="1352" 
d="M1501 1135l-241 -1135h-250l32 154q-80 -85 -201.5 -138t-228.5 -53q-130 0 -224 49t-152 142q-69 111 -69 266q0 72 15 147q24 119 80.5 219t151.5 189q107 99 224 147.5t241 48.5q59 0 109 -12t94 -38q88 -50 135 -146l34 160h250zM1122 569q9 42 9 80q0 114 -71 185
t-194 71q-147 0 -264 -99t-149 -249q-4 -19 -6 -35.5t-2 -34.5q0 -113 76.5 -185.5t197.5 -72.5q145 0 258.5 96t144.5 244z" />
    <glyph glyph-name="b" unicode="b" horiz-adv-x="1352" 
d="M111 0l321 1513h273l-107 -497q73 77 185 119q98 36 204 36q207 0 333 -136q121 -132 121 -333l-3 -67q-1 -14 -4 -32t-7 -36q-20 -103 -83.5 -217.5t-149.5 -195.5q-94 -91 -215 -141t-242 -50q-120 0 -207 45q-91 48 -137 146l-33 -154h-249zM901 905
q-139 0 -259.5 -91.5t-152.5 -231.5l-6 -40l-2 -42q0 -121 73.5 -196t203.5 -75q143 0 253.5 95t143.5 241l6 39l2 41q0 115 -68 186q-71 74 -194 74z" />
    <glyph glyph-name="c" unicode="c" 
d="M1001 369h308q-92 -179 -276.5 -292.5t-373.5 -113.5q-113 0 -216 45.5t-169 124.5q-51 61 -78 140.5t-27 164.5q0 65 15 137q51 245 267.5 420.5t463.5 175.5q193 0 333 -114q145 -119 145 -299h-308q-56 147 -231 147q-145 0 -255.5 -94.5t-143.5 -239.5q-9 -42 -9 -82
q0 -117 75.5 -188.5t203.5 -71.5q77 0 151 38t125 102z" />
    <glyph glyph-name="d" unicode="d" horiz-adv-x="1352" 
d="M1577 1513l-322 -1513h-249l32 154q-80 -91 -194 -141t-228 -50q-121 0 -214.5 50.5t-153.5 140.5q-81 120 -81 284q0 28 3 58t10 67q25 116 86 222t157 193t220.5 140t239.5 53q100 0 184 -39.5t133 -113.5l105 495h272zM1122 569q8 42 8 72q0 114 -77.5 189t-198.5 75
q-130 0 -249 -99t-148 -231q-9 -41 -9 -79q0 -114 73 -191q37 -38 84.5 -57t109.5 -19q139 0 258 99t149 241z" />
    <glyph glyph-name="e" unicode="e" 
d="M1325 446h-881q10 -97 80 -157t174 -60q75 0 149 26.5t126 72.5h301q-84 -152 -264 -259q-89 -52 -178.5 -79t-180.5 -27q-214 0 -349 134t-135 339l3 59q3 34 4 38q5 18 6 26q54 253 267.5 432.5t465.5 179.5q205 0 339 -138q129 -134 129 -335l-3 -60q-3 -32 -4 -37
q-5 -17 -6 -24q-7 -33 -19 -66zM492 688h624q-12 98 -84 158q-36 29 -80 44t-98 15q-104 0 -206.5 -60.5t-155.5 -156.5z" />
    <glyph glyph-name="f" unicode="f" horiz-adv-x="573" 
d="M117 0l190 893h-96l51 242h96q40 167 162 284q129 123 295 123l74 -4l-58 -270q-95 0 -129 -19q-44 -25 -71 -114h157l-51 -242h-157l-191 -893h-272z" />
    <glyph glyph-name="g" unicode="g" horiz-adv-x="1352" 
d="M1243 1135h250l-205 -963q-29 -141 -83 -236q-60 -109 -168.5 -201.5t-238 -144t-255.5 -51.5q-185 0 -319 101q-138 105 -165 274h310q34 -47 99 -78t132 -31q69 0 141.5 24.5t132.5 70.5q64 49 103 117q21 37 59 141q-93 -93 -189 -141q-107 -54 -218 -54
q-107 0 -207 49.5t-160 128.5q-45 60 -68 137.5t-23 162.5q0 69 15 143q22 110 83.5 210.5t152.5 184.5q99 90 222 141t249 51q114 0 199 -47t118 -145zM1114 563q9 41 9 79q0 117 -76 190t-199 73q-63 0 -131 -26.5t-124 -75t-88.5 -102.5t-47.5 -128q-9 -42 -9 -81
q0 -117 76 -190t201 -73q133 0 246 99t143 235z" />
    <glyph glyph-name="h" unicode="h" horiz-adv-x="1229" 
d="M111 0l321 1513h273l-99 -464q54 56 151 92q84 30 167 30q91 0 172.5 -41t128.5 -110q27 -41 40 -89.5t13 -96.5q0 -30 -3 -60.5t-11 -72.5l-17 -87l-131 -614h-272l119 555l16 92q5 38 5 75q0 85 -36 130q-42 53 -143 53q-121 0 -207 -98q-41 -49 -66 -125
q-13 -39 -32 -131l-117 -551h-272z" />
    <glyph glyph-name="i" unicode="i" horiz-adv-x="492" 
d="M111 0l241 1135h273l-242 -1135h-272zM379 1266l53 247h273l-54 -247h-272z" />
    <glyph glyph-name="j" unicode="j" horiz-adv-x="532" 
d="M389 1135h273l-228 -1065q-21 -103 -57 -176q-21 -44 -50.5 -82.5t-68.5 -73.5q-59 -53 -143 -85t-160 -32l55 264q80 0 116 60q14 23 38 133zM416 1266l53 247h272l-53 -247h-272z" />
    <glyph glyph-name="k" unicode="k" horiz-adv-x="1188" 
d="M111 0l321 1513h273l-195 -913l479 535h322l-529 -555l355 -580h-365l-276 530l-113 -530h-272z" />
    <glyph glyph-name="l" unicode="l" horiz-adv-x="492" 
d="M111 0l321 1513h273l-322 -1513h-272z" />
    <glyph glyph-name="m" unicode="m" horiz-adv-x="1925" 
d="M111 0l241 1135h250l-22 -105q51 70 153 109q85 32 176 32q88 0 160.5 -36.5t112.5 -104.5q12 -16 18 -35q16 19 37 35q71 69 168.5 105t193.5 36q107 0 186 -32t130 -109q15 -22 25.5 -43.5t18.5 -49.5q14 -50 14 -106q0 -42 -6.5 -90.5t-18.5 -103.5l-136 -637h-272
l129 604l12 68q6 39 6 71q0 46 -15 81.5t-57.5 58t-92.5 22.5q-60 0 -113 -24t-94.5 -72.5t-68.5 -131.5l-34 -136l-114 -541h-273l129 604l12 65q6 33 6 59q0 24 -3.5 45t-14.5 40q-18 42 -61.5 67t-95.5 25q-100 0 -166 -59q-54 -48 -88 -139q-21 -59 -45 -166l-115 -541
h-272z" />
    <glyph glyph-name="n" unicode="n" horiz-adv-x="1229" 
d="M111 0l241 1135h252l-22 -105q66 69 158.5 105t185.5 36q90 0 167.5 -37t125.5 -104l11 -15q4 -4 11 -18q17 -35 28 -82q9 -45 9 -88q0 -56 -11 -117l-24 -122l-125 -588h-272l112 535q3 10 8 32.5t12.5 68t7.5 84.5l-3 49q-3 21 -12 42q-19 41 -63 67.5t-97 26.5
q-57 0 -115 -27t-98.5 -74.5t-69.5 -139.5l-36 -150l-109 -514h-272z" />
    <glyph glyph-name="o" unicode="o" 
d="M924 1171q213 0 348 -138q131 -134 131 -341q0 -31 -3 -61t-11 -66q-54 -252 -269.5 -427t-466.5 -175q-212 0 -348.5 137t-136.5 341q0 32 3 60.5t11 63.5q54 253 270.5 429.5t471.5 176.5zM854 905q-63 0 -132 -28.5t-124.5 -75t-91.5 -106.5t-51 -130q-4 -21 -6 -37
t-2 -36q0 -114 72 -188.5t192 -74.5q143 0 257.5 95.5t147.5 240.5l6 36l2 37q0 113 -75.5 190t-194.5 77z" />
    <glyph glyph-name="p" unicode="p" horiz-adv-x="1352" 
d="M31 -379l321 1514h250l-33 -148q86 93 189.5 138.5t220.5 45.5q129 0 216 -42t155 -142q42 -54 63 -126t21 -152q0 -67 -15 -142q-51 -245 -249 -422q-205 -182 -449 -182q-111 0 -185.5 37.5t-125.5 122.5l-107 -502h-272zM893 905q-143 0 -259.5 -96.5t-146.5 -241.5
q-9 -42 -9 -80q0 -101 63 -172q33 -39 88 -63q26 -11 53.5 -17t56.5 -6q144 0 260 97t148 243l6 36l2 37q0 111 -72 187t-190 76z" />
    <glyph glyph-name="q" unicode="q" horiz-adv-x="1352" 
d="M1243 1135h250l-322 -1514h-272l107 502q-84 -81 -179 -120.5t-202 -39.5q-210 0 -335 140q-120 134 -120 340l3 67q1 14 4 32t7 36q24 114 90 220t162 190t213 133.5t232 49.5q117 0 202.5 -44.5t126.5 -139.5zM862 905q-141 0 -258.5 -95.5t-148.5 -238.5
q-9 -42 -9 -81q0 -117 73.5 -189t199.5 -72q135 0 249.5 99.5t145.5 238.5q3 16 5 33t2 36q0 111 -72 190t-187 79z" />
    <glyph glyph-name="r" unicode="r" horiz-adv-x="655" 
d="M111 0l241 1135h248l-22 -103q63 72 130 105.5t148 33.5h21l-58 -264q-23 0 -44.5 -3t-46.5 -11q-46 -12 -85 -39q-62 -42 -93 -109q-21 -45 -36 -133l-131 -612h-272z" />
    <glyph glyph-name="s" unicode="s" horiz-adv-x="901" 
d="M1004 823h-267q0 39 -24 60.5t-62 21.5q-45 0 -81.5 -25.5t-45.5 -70.5l-2 -11v-7q0 -31 28 -52q16 -11 107 -42q44 -14 81 -28t57 -24q70 -34 107 -81q42 -54 42 -134l-1 -37q0 -14 -7 -39q-33 -158 -172 -272q-69 -53 -156.5 -86t-165.5 -33q-153 0 -243.5 85.5
t-90.5 228.5l1 38l6 41h278q0 -56 29.5 -91.5t87.5 -35.5q52 0 95.5 28.5t53.5 80.5l3 23q0 48 -59 82q-19 11 -105 42q-76 26 -99 38q-46 21 -84 61q-69 69 -69 168q0 24 1.5 35.5t6.5 33.5q33 152 171 254q132 96 288 96q127 0 213 -80t86 -201q0 -22 -1 -32.5t-7 -34.5z
" />
    <glyph glyph-name="t" unicode="t" horiz-adv-x="614" 
d="M152 0l190 893h-133l51 242h133l80 378h272l-79 -378h163l-51 -242h-164l-190 -893h-272z" />
    <glyph glyph-name="u" unicode="u" horiz-adv-x="1229" 
d="M1090 1135h272l-242 -1135h-250l27 121q-60 -78 -145.5 -118t-182.5 -40q-105 0 -188 39t-135 119q-28 37 -44 87q-13 50 -13 97q0 45 7 90q1 10 5.5 34.5t13.5 64.5l137 641h273l-119 -557l-15 -80q-3 -22 -5 -44t-2 -42q0 -14 1 -30q0 -16 7 -36q15 -53 61 -86
q23 -15 49.5 -23t59.5 -8q95 0 164 54q55 44 95 132q27 60 50 163z" />
    <glyph glyph-name="v" unicode="v" horiz-adv-x="1147" 
d="M461 0l-217 1135h303l104 -746l420 746h303l-700 -1135h-213z" />
    <glyph glyph-name="w" unicode="w" horiz-adv-x="1638" 
d="M430 0l-168 1135h289l63 -693l334 693h215l41 -693l357 693h288l-653 -1135h-168l-59 735l-371 -735h-168z" />
    <glyph glyph-name="x" unicode="x" horiz-adv-x="1147" 
d="M2 0l528 586l-235 549h315l131 -312l260 312h318l-467 -549l281 -586h-336l-152 367l-307 -367h-336z" />
    <glyph glyph-name="y" unicode="y" horiz-adv-x="1188" 
d="M139 -379l312 485l-197 1029h309l105 -727l428 727h309l-973 -1514h-293z" />
    <glyph glyph-name="z" unicode="z" horiz-adv-x="942" 
d="M41 0l51 242l643 651h-446l51 242h772l-51 -242l-643 -651h538l-51 -242h-864z" />
    <glyph glyph-name="braceleft" unicode="{" horiz-adv-x="696" 
d="M532 367l-83 -392l-8 -45l-3 -41q0 -57 28.5 -92t96.5 -57h-57q-97 0 -139.5 12.5t-79.5 40.5q-29 21 -41.5 52t-12.5 69q0 44 13 100l84 389l9 51l2 32q0 22 -3.5 36.5t-19.5 39.5t-43 42.5t-66 26.5q14 2 29 5.5t33 10.5t29 13t28 18q47 32 70 81q14 30 28 99l74 346
q15 81 34 125q29 71 81.5 113.5t131.5 58.5q24 4 61.5 7t80.5 3h51q-94 -24 -146 -83q-46 -53 -67 -150l-78 -365q-27 -124 -72 -183q-57 -75 -174 -99q76 -18 109.5 -57.5t33.5 -102.5q0 -23 -4 -47z" />
    <glyph glyph-name="bar" unicode="|" horiz-adv-x="1229" 
d="M498 0l321 1513h244l-322 -1513h-243z" />
    <glyph glyph-name="braceright" unicode="}" horiz-adv-x="696" 
d="M436 913l78 365q9 42 9 77q0 63 -29 100t-95 56h53q90 0 137 -10q70 -15 107 -59q14 -19 22 -48.5t8 -59.5v-23q-1 -12 -4 -31l-13 -76l-74 -346l-9 -50l-4 -44q0 -26 7.5 -46.5t27.5 -39.5q39 -36 97 -47q-79 -15 -138 -70q-36 -34 -54 -75q-10 -26 -23 -83l-84 -389
q-10 -45 -18.5 -73.5t-19.5 -50.5q-30 -62 -90.5 -96t-127.5 -46q-23 -4 -51 -6t-71 -2h-54q101 29 148 83q42 48 65 152l83 392q24 113 72 172q54 65 168 92q-74 18 -110 60q-30 38 -30 103q0 21 4 51t13 68z" />
    <glyph glyph-name="asciitilde" unicode="~" horiz-adv-x="1229" 
d="M1188 862l100 -149q-75 -89 -97 -111q-57 -60 -112 -91q-67 -38 -137 -38q-45 0 -93 15l-85 34l-74 35l-69 32q-48 19 -78 19q-62 0 -122 -57q-13 -13 -91 -111l-101 152q54 71 100 117q62 63 120 97q36 20 69.5 30t71.5 10q64 0 149 -35l141 -67q72 -33 111 -33
q43 0 86 31q18 14 111 120z" />
    <glyph glyph-name="dieresis" unicode="&#xa8;" horiz-adv-x="1024" 
 />
    <glyph glyph-name="onequarter" unicode="&#xbc;" horiz-adv-x="1780" 
 />
    <glyph glyph-name="onehalf" unicode="&#xbd;" horiz-adv-x="1780" 
 />
    <glyph glyph-name="threequarters" unicode="&#xbe;" horiz-adv-x="1780" 
 />
    <glyph glyph-name=".notdef.106" unicode="&#xc0;" horiz-adv-x="1516" 
d="M14 0l953 1513h219l315 -1513h-309l-80 391h-537l-251 -391h-310zM735 664h324l-66 458zM770 1920l139 150l420 -278l-135 -143z" />
    <glyph glyph-name=".notdef.107" unicode="&#xc1;" horiz-adv-x="1516" 
d="M14 0l953 1513h219l315 -1513h-309l-80 391h-537l-251 -391h-310zM930 1634l-64 189l518 272l64 -213zM735 664h324l-66 458z" />
    <glyph glyph-name=".notdef.111" unicode="&#xc2;" horiz-adv-x="1516" 
d="M14 0l953 1513h219l315 -1513h-309l-80 391h-537l-251 -391h-310zM707 1649l362 282h215l240 -282h-297l-82 131l-141 -131h-297zM735 664h324l-66 458z" />
    <glyph glyph-name=".notdef.109" unicode="&#xc3;" horiz-adv-x="1516" 
d="M14 0l953 1513h219l315 -1513h-309l-80 391h-537l-251 -391h-310zM870 1657l-61 180q43 34 103.5 55t117.5 21q43 0 94 -18q102 -37 123 -40q35 0 75 15t79 43l63 -174q-56 -42 -107 -66t-108 -24q-38 0 -145 36q-49 17 -88 17q-72 0 -146 -45zM735 664h324l-66 458z" />
    <glyph glyph-name=".notdef.123" unicode="&#xc8;" horiz-adv-x="1065" 
d="M139 0l322 1513h813l-57 -272h-533l-74 -348h510l-59 -272h-510l-74 -349h533l-58 -272h-813zM605 1920l139 150l420 -278l-135 -143z" />
    <glyph glyph-name=".notdef.124" unicode="&#xc9;" horiz-adv-x="1065" 
d="M139 0l322 1513h813l-57 -272h-533l-74 -348h510l-59 -272h-510l-74 -349h533l-58 -272h-813zM705 1634l-64 189l518 272l64 -213z" />
    <glyph glyph-name=".notdef.128" unicode="&#xca;" horiz-adv-x="1065" 
d="M139 0l322 1513h813l-57 -272h-533l-74 -348h510l-59 -272h-510l-74 -349h533l-58 -272h-813zM481 1649l363 282h215l239 -282h-297l-81 131l-142 -131h-297z" />
    <glyph glyph-name=".notdef.104" unicode="&#xcc;" horiz-adv-x="573" 
d="M139 0l322 1513h280l-321 -1513h-281zM337 1920l139 150l420 -278l-135 -143z" />
    <glyph glyph-name=".notdef.103" unicode="&#xcd;" horiz-adv-x="573" 
d="M139 0l322 1513h280l-321 -1513h-281zM459 1634l-64 189l518 272l64 -213z" />
    <glyph glyph-name=".notdef.099" unicode="&#xd2;" horiz-adv-x="1720" 
d="M1178 1542q281 0 459.5 -177.5t178.5 -448.5q0 -79 -18 -166q-69 -326 -350.5 -556.5t-605.5 -230.5q-279 0 -459 175.5t-180 446.5q0 78 18 165q69 330 348.5 561t608.5 231zM1120 1270q-210 0 -391 -150t-227 -364q-12 -54 -12 -107q0 -176 115.5 -294.5t293.5 -118.5
q207 0 390.5 153.5t228.5 366.5q12 57 12 111q0 173 -114 288t-296 115zM862 1920l139 150l420 -278l-135 -143z" />
    <glyph glyph-name=".notdef.098" unicode="&#xd3;" horiz-adv-x="1720" 
d="M1178 1542q281 0 459.5 -177.5t178.5 -448.5q0 -77 -18 -166q-69 -324 -350.5 -555.5t-605.5 -231.5q-280 0 -459.5 175.5t-179.5 446.5q0 78 18 165q69 330 348 561t609 231zM1032 1634l-63 189l518 272l63 -213zM1120 1270q-209 0 -389.5 -149.5t-228.5 -364.5
q-12 -54 -12 -107q0 -176 115.5 -294.5t293.5 -118.5q207 0 390 153t229 367q12 57 12 111q0 172 -114.5 287.5t-295.5 115.5z" />
    <glyph glyph-name=".notdef.094" unicode="&#xd4;" horiz-adv-x="1720" 
d="M1178 1542q281 0 459.5 -177.5t178.5 -448.5q0 -79 -18 -166q-69 -326 -350.5 -556.5t-605.5 -230.5q-279 0 -459 175.5t-180 446.5q0 78 18 165q69 330 348.5 561t608.5 231zM809 1649l362 282h215l240 -282h-297l-82 131l-141 -131h-297zM1120 1270q-210 0 -391 -150
t-227 -364q-12 -54 -12 -107q0 -176 115.5 -294.5t293.5 -118.5q207 0 390.5 153.5t228.5 366.5q12 57 12 111q0 173 -114 288t-296 115z" />
    <glyph glyph-name=".notdef.096" unicode="&#xd5;" horiz-adv-x="1720" 
d="M1178 1542q281 0 459.5 -177.5t178.5 -448.5q0 -77 -18 -166q-69 -324 -350.5 -555.5t-605.5 -231.5q-280 0 -459.5 175.5t-179.5 446.5q0 78 18 165q69 330 348 561t609 231zM973 1657l-62 180q42 33 103 54.5t119 21.5q49 0 145 -39q51 -19 72 -19q35 0 74.5 15
t78.5 43l64 -174q-52 -41 -104 -65q-25 -11 -56.5 -18t-54.5 -7q-24 0 -49.5 5t-36.5 8.5t-35 12.5q-72 27 -113 27q-73 0 -145 -45zM1120 1270q-209 0 -389.5 -149.5t-228.5 -364.5q-12 -54 -12 -107q0 -176 115.5 -294.5t293.5 -118.5q207 0 390 153t229 367q12 57 12 111
q0 172 -114.5 287.5t-295.5 115.5z" />
    <glyph glyph-name=".notdef.088" unicode="&#xd9;" 
d="M461 1513h280l-200 -944l-15 -73q-8 -45 -8 -72v-25q0 -10 1.5 -15.5t6.5 -18.5q18 -59 63 -94t109 -35q56 0 114.5 28t97.5 75.5t62 111.5q6 19 12.5 46.5t16.5 71.5l201 944h281l-201 -944q-27 -134 -64 -216q-48 -111 -133 -193q-94 -90 -212.5 -143.5t-231.5 -53.5
q-106 0 -198.5 50.5t-149.5 133.5q-30 44 -47 100q-14 56 -14 114q0 39 1.5 54.5t6.5 46.5q2 16 7 44.5t13 62.5zM674 1920l139 150l420 -278l-135 -143z" />
    <glyph glyph-name=".notdef.087" unicode="&#xda;" 
d="M461 1513h280l-200 -944l-15 -73q-8 -48 -8 -72v-25l1 -16l7 -18q18 -58 63.5 -93.5t108.5 -35.5q57 0 114 27t96 74.5t64 113.5l12 46l17 72l201 944h281l-201 -944q-27 -135 -64 -216q-48 -111 -133 -193q-93 -90 -212 -143.5t-232 -53.5q-106 0 -198 50.5t-150 133.5
q-28 41 -47 100q-14 58 -14 114l1 54l7 47l7 44q5 34 6 37q5 18 7 26zM827 1634l-63 189l518 272l64 -213z" />
    <glyph glyph-name=".notdef.070" unicode="&#xdd;" horiz-adv-x="1270" 
d="M504 0l119 559l-295 954h309l182 -696l477 696h308l-701 -954l-119 -559h-280zM807 1634l-64 189l519 272l63 -213z" />
    <glyph glyph-name=".notdef.066" unicode="&#xe0;" horiz-adv-x="1352" 
d="M1501 1135l-241 -1135h-250l32 154q-80 -85 -201.5 -138t-228.5 -53q-130 0 -224 49t-152 142q-69 111 -69 266q0 72 15 147q24 119 80.5 219t151.5 189q107 99 224 147.5t241 48.5q59 0 109 -12t94 -38q88 -50 135 -146l34 160h250zM1122 569q9 42 9 80q0 114 -71 185
t-194 71q-147 0 -264 -99t-149 -249q-4 -19 -6 -35.5t-2 -34.5q0 -113 76.5 -185.5t197.5 -72.5q145 0 258.5 96t144.5 244zM722 1526l139 150l420 -278l-135 -143z" />
    <glyph glyph-name=".notdef.065" unicode="&#xe1;" horiz-adv-x="1352" 
d="M1501 1135l-241 -1135h-250l32 154q-80 -85 -201.5 -138t-228.5 -53q-130 0 -224 49t-152 142q-69 111 -69 266q0 72 15 147q24 119 80.5 219t151.5 189q107 99 224 147.5t241 48.5q59 0 109 -12t94 -38q88 -50 135 -146l34 160h250zM766 1255l-61 189l518 272l63 -213z
M1122 569q9 42 9 80q0 114 -71 185t-194 71q-147 0 -264 -99t-149 -249q-4 -19 -6 -35.5t-2 -34.5q0 -113 76.5 -185.5t197.5 -72.5q145 0 258.5 96t144.5 244z" />
    <glyph glyph-name=".notdef.061" unicode="&#xe2;" horiz-adv-x="1352" 
d="M1501 1135l-241 -1135h-250l32 154q-80 -85 -201.5 -138t-228.5 -53q-130 0 -224 49t-152 142q-69 111 -69 266q0 72 15 147q24 119 80.5 219t151.5 189q107 99 224 147.5t241 48.5q59 0 109 -12t94 -38q88 -50 135 -146l34 160h250zM545 1270l362 282h215l240 -282h-297
l-84 131l-139 -131h-297zM1122 569q9 42 9 80q0 114 -71 185t-194 71q-147 0 -264 -99t-149 -249q-4 -19 -6 -35.5t-2 -34.5q0 -113 76.5 -185.5t197.5 -72.5q145 0 258.5 96t144.5 244z" />
    <glyph glyph-name=".notdef.063" unicode="&#xe3;" horiz-adv-x="1352" 
d="M1501 1135l-241 -1135h-250l32 154q-80 -85 -201.5 -138t-228.5 -53q-130 0 -224 49t-152 142q-69 111 -69 266q0 72 15 147q24 119 80.5 219t151.5 189q107 99 224 147.5t241 48.5q59 0 109 -12t94 -38q88 -50 135 -146l34 160h250zM709 1278l-64 180q46 34 106 55
t115 21q54 0 124 -28.5t93 -28.5q38 0 78 15t76 42l66 -174q-57 -42 -108.5 -66t-107.5 -24q-40 0 -147 36q-51 17 -88 17q-71 0 -143 -45zM1122 569q9 42 9 80q0 114 -71 185t-194 71q-147 0 -264 -99t-149 -249q-4 -19 -6 -35.5t-2 -34.5q0 -113 76.5 -185.5t197.5 -72.5
q145 0 258.5 96t144.5 244z" />
    <glyph glyph-name=".notdef.049" unicode="&#xe8;" 
d="M1325 446h-881q10 -97 80 -157t174 -60q75 0 149 26.5t126 72.5h301q-84 -152 -264 -259q-89 -52 -178.5 -79t-180.5 -27q-214 0 -349 134t-135 339l3 59q3 34 4 38q5 18 6 26q54 253 267.5 432.5t465.5 179.5q205 0 339 -138q129 -134 129 -335l-3 -60q-3 -32 -4 -37
q-5 -17 -6 -24q-7 -33 -19 -66zM492 688h624q-12 98 -84 158q-36 29 -80 44t-98 15q-104 0 -206.5 -60.5t-155.5 -156.5zM616 1526l139 150l420 -278l-135 -143z" />
    <glyph glyph-name=".notdef.048" unicode="&#xe9;" 
d="M1325 446h-881q10 -97 80 -157t174 -60q75 0 149 26.5t126 72.5h301q-84 -152 -264 -259q-89 -52 -178.5 -79t-180.5 -27q-214 0 -349 134t-135 339l3 59q3 34 4 38q5 18 6 26q54 253 267.5 432.5t465.5 179.5q205 0 339 -138q129 -134 129 -335l-3 -60q-3 -32 -4 -37
q-5 -17 -6 -24q-7 -33 -19 -66zM745 1255l-61 189l518 272l64 -213zM492 688h624q-12 98 -84 158q-36 29 -80 44t-98 15q-104 0 -206.5 -60.5t-155.5 -156.5z" />
    <glyph glyph-name=".notdef.044" unicode="&#xea;" 
d="M1325 446h-881q10 -97 80 -157t174 -60q75 0 149 26.5t126 72.5h301q-84 -152 -264 -259q-89 -52 -178.5 -79t-180.5 -27q-214 0 -349 134t-135 339l3 59q3 34 4 38q5 18 6 26q54 253 267.5 432.5t465.5 179.5q205 0 339 -138q129 -134 129 -335l-3 -60q-3 -32 -4 -37
q-5 -17 -6 -24q-7 -33 -19 -66zM524 1270l363 282h215l239 -282h-297l-83 131l-140 -131h-297zM492 688h624q-12 98 -84 158q-36 29 -80 44t-98 15q-104 0 -206.5 -60.5t-155.5 -156.5z" />
    <glyph glyph-name=".notdef.038" unicode="&#xec;" horiz-adv-x="492" 
d="M111 0l241 1135h273l-242 -1135h-272zM257 1526l139 150l420 -278l-135 -143z" />
    <glyph glyph-name=".notdef.037" unicode="&#xed;" horiz-adv-x="492" 
d="M111 0l241 1135h273l-242 -1135h-272zM336 1255l-62 189l519 272l63 -213z" />
    <glyph glyph-name=".notdef.033" unicode="&#xf2;" 
d="M924 1171q213 0 348 -138q131 -134 131 -341q0 -31 -3 -61t-11 -66q-54 -252 -269.5 -427t-466.5 -175q-212 0 -348.5 137t-136.5 341q0 32 3 60.5t11 63.5q54 253 270.5 429.5t471.5 176.5zM854 905q-63 0 -132 -28.5t-124.5 -75t-91.5 -106.5t-51 -130q-4 -21 -6 -37
t-2 -36q0 -114 72 -188.5t192 -74.5q143 0 257.5 95.5t147.5 240.5l6 36l2 37q0 113 -75.5 190t-194.5 77zM616 1526l139 150l420 -278l-135 -143z" />
    <glyph glyph-name=".notdef.032" unicode="&#xf3;" 
d="M924 1171q213 0 348 -138q131 -134 131 -341q0 -31 -3 -61t-11 -66q-54 -252 -269.5 -427t-466.5 -175q-212 0 -348.5 137t-136.5 341q0 32 3 60.5t11 63.5q54 253 270.5 429.5t471.5 176.5zM745 1255l-61 189l518 272l64 -213zM854 905q-63 0 -132 -28.5t-124.5 -75
t-91.5 -106.5t-51 -130q-4 -21 -6 -37t-2 -36q0 -114 72 -188.5t192 -74.5q143 0 257.5 95.5t147.5 240.5l6 36l2 37q0 113 -75.5 190t-194.5 77z" />
    <glyph glyph-name=".notdef.028" unicode="&#xf4;" 
d="M924 1171q213 0 348 -138q131 -134 131 -341q0 -31 -3 -61t-11 -66q-54 -252 -269.5 -427t-466.5 -175q-212 0 -348.5 137t-136.5 341q0 32 3 60.5t11 63.5q54 253 270.5 429.5t471.5 176.5zM524 1270l363 282h215l239 -282h-297l-83 131l-140 -131h-297zM854 905
q-63 0 -132 -28.5t-124.5 -75t-91.5 -106.5t-51 -130q-4 -21 -6 -37t-2 -36q0 -114 72 -188.5t192 -74.5q143 0 257.5 95.5t147.5 240.5l6 36l2 37q0 113 -75.5 190t-194.5 77z" />
    <glyph glyph-name=".notdef.030" unicode="&#xf5;" 
d="M924 1171q213 0 348 -138q131 -134 131 -341q0 -31 -3 -61t-11 -66q-54 -252 -269.5 -427t-466.5 -175q-212 0 -348.5 137t-136.5 341q0 32 3 60.5t11 63.5q54 253 270.5 429.5t471.5 176.5zM688 1278l-63 180q44 34 104.5 55t116.5 21q26 0 61.5 -9t84 -28.5t71.5 -19.5
q39 0 77.5 15t76.5 42l65 -174q-55 -42 -104 -65q-25 -11 -54.5 -18t-56.5 -7q-40 0 -147 36q-51 17 -89 17q-71 0 -143 -45zM854 905q-63 0 -132 -28.5t-124.5 -75t-91.5 -106.5t-51 -130q-4 -21 -6 -37t-2 -36q0 -114 72 -188.5t192 -74.5q143 0 257.5 95.5t147.5 240.5
l6 36l2 37q0 113 -75.5 190t-194.5 77z" />
    <glyph glyph-name="divide" unicode="&#xf7;" horiz-adv-x="1706" 
 />
    <glyph glyph-name=".notdef.022" unicode="&#xf9;" horiz-adv-x="1229" 
d="M1090 1135h272l-242 -1135h-250l27 121q-60 -78 -145.5 -118t-182.5 -40q-105 0 -188 39t-135 119q-28 37 -44 87q-13 50 -13 97q0 45 7 90q1 10 5.5 34.5t13.5 64.5l137 641h273l-119 -557l-15 -80q-3 -22 -5 -44t-2 -42q0 -14 1 -30q0 -16 7 -36q15 -53 61 -86
q23 -15 49.5 -23t59.5 -8q95 0 164 54q55 44 95 132q27 60 50 163zM576 1526l139 150l420 -278l-135 -143z" />
    <glyph glyph-name=".notdef.021" unicode="&#xfa;" horiz-adv-x="1229" 
d="M1090 1135h272l-242 -1135h-250l27 121q-60 -78 -145.5 -118t-182.5 -40q-105 0 -188 39t-135 119q-28 37 -44 87q-13 50 -13 97q0 45 7 90q1 10 5.5 34.5t13.5 64.5l137 641h273l-119 -557l-15 -80q-3 -22 -5 -44t-2 -42q0 -14 1 -30q0 -16 7 -36q15 -53 61 -86
q23 -15 49.5 -23t59.5 -8q95 0 164 54q55 44 95 132q27 60 50 163zM705 1255l-62 189l518 272l64 -213z" />
    <glyph glyph-name=".notdef.004" unicode="&#xfd;" horiz-adv-x="1188" 
d="M139 -379l312 485l-197 1029h309l105 -727l428 727h309l-973 -1514h-293zM684 1255l-61 189l518 272l63 -213z" />
    <glyph glyph-name=".notdef.117" unicode="&#x102;" horiz-adv-x="1516" 
d="M14 0l953 1513h219l315 -1513h-309l-80 391h-537l-251 -391h-310zM735 664h324l-66 458zM987 1899q5 -32 17 -56t29 -36q15 -8 37.5 -11.5t47 -3.5t48 4t41.5 12q21 12 44.5 35.5t42.5 55.5h211q-29 -63 -75.5 -116t-109.5 -96q-102 -66 -230 -66q-64 0 -113.5 16.5
t-81.5 49.5q-82 85 -76 212h168z" />
    <glyph glyph-name=".notdef.055" unicode="&#x103;" horiz-adv-x="1352" 
d="M1501 1135l-241 -1135h-250l32 154q-80 -85 -201.5 -138t-228.5 -53q-130 0 -224 49t-152 142q-69 111 -69 266q0 72 15 147q24 119 80.5 219t151.5 189q107 99 224 147.5t241 48.5q59 0 109 -12t94 -38q88 -50 135 -146l34 160h250zM1122 569q9 42 9 80q0 114 -71 185
t-194 71q-147 0 -264 -99t-149 -249q-4 -19 -6 -35.5t-2 -34.5q0 -113 76.5 -185.5t197.5 -72.5q145 0 258.5 96t144.5 244zM897 1533q5 -32 17 -56t29 -36q15 -8 37.5 -11.5t47 -3.5t48 4t41.5 12q21 12 44.5 35.5t42.5 55.5h211q-29 -63 -75.5 -116t-109.5 -96
q-102 -66 -230 -66q-64 0 -113.5 16.5t-81.5 49.5q-82 85 -76 212h168z" />
    <glyph glyph-name="Ccaron" unicode="&#x10c;" horiz-adv-x="1274" 
 />
    <glyph glyph-name="ccaron" unicode="&#x10d;" horiz-adv-x="922" 
 />
    <glyph glyph-name="Dslash" unicode="&#x110;" horiz-adv-x="1520" 
d="M549 0h-324l140 655h-197l47 217h197l135 641h317q142 0 223 -11q116 -15 211 -52.5t166.5 -113t110.5 -186.5t39 -237q0 -39 -4 -80t-13 -83q-33 -160 -135.5 -316.5t-247.5 -259.5q-100 -72 -216 -114q-100 -35 -221 -50q-39 -4 -100 -7q-62 -3 -128 -3zM930 872
l-47 -217h-238l-82 -383h35q182 0 287 28q87 24 170 75q100 65 168.5 164t93.5 211q12 56 12 109q0 93 -32 166.5t-97 125.5q-55 43 -143 67q-41 11 -108 17t-158 6h-21l-78 -369h238z" />
    <glyph glyph-name="dcroat" unicode="&#x111;" horiz-adv-x="1352" 
d="M1122 569q8 42 8 72q0 114 -77.5 189t-198.5 75q-130 0 -249 -99t-148 -231q-9 -41 -9 -79q0 -114 73 -191q37 -38 84.5 -57t109.5 -19q139 0 258 99t149 241zM1045 1429h252l23 84h272l-23 -82h96l-43 -207h-90l-277 -1224h-249l32 154q-80 -91 -194 -141t-228 -50
q-121 0 -214.5 50.5t-153.5 140.5q-81 120 -81 284q0 28 3 58t10 67q25 116 86 222t157 193t220.5 140t239.5 53q100 0 184 -39.5t133 -113.5l60 206h-254z" />
    <glyph glyph-name=".notdef.101" unicode="&#x128;" horiz-adv-x="573" 
d="M139 0l322 1513h280l-321 -1513h-281zM399 1657l-61 180q43 34 103.5 55t117.5 21q43 0 94 -18q102 -37 123 -40q35 0 75 15t79 43l63 -174q-56 -42 -107 -66t-108 -24q-38 0 -145 36q-49 17 -88 17q-72 0 -146 -45z" />
    <glyph glyph-name=".notdef.035" unicode="&#x129;" horiz-adv-x="492" 
d="M111 0l241 1135h273l-242 -1135h-272zM276 1303l-61 180q44 34 105 56q29 10 56.5 15t59.5 5q44 0 94 -18q106 -38 123 -40q39 0 78 15t76 43l65 -175q-55 -41 -108 -65.5t-109 -24.5q-41 0 -145 36q-51 18 -88 18q-34 0 -71 -11t-75 -34z" />
    <glyph glyph-name=".notdef.085" unicode="&#x168;" 
d="M461 1513h280l-200 -944l-15 -73q-8 -48 -8 -72v-25l1 -16l7 -18q18 -58 63.5 -93.5t108.5 -35.5q57 0 114 27t96 74.5t64 113.5l12 46l17 72l201 944h281l-201 -944q-27 -135 -64 -216q-48 -111 -133 -193q-93 -90 -212 -143.5t-232 -53.5q-106 0 -198 50.5t-150 133.5
q-28 41 -47 100q-14 58 -14 114l1 54l7 47l7 44q5 34 6 37q5 18 7 26zM748 1657l-62 180q42 33 103 54.5t118 21.5q43 0 94 -18q102 -37 123 -40q39 0 78 15t76 43l63 -174q-56 -42 -107 -66t-108 -24q-38 0 -145 36q-49 17 -88 17q-73 0 -145 -45z" />
    <glyph glyph-name=".notdef.019" unicode="&#x169;" horiz-adv-x="1229" 
d="M1090 1135h272l-242 -1135h-250l27 121q-60 -78 -145.5 -118t-182.5 -40q-105 0 -188 39t-135 119q-28 37 -44 87q-13 50 -13 97q0 45 7 90q1 10 5.5 34.5t13.5 64.5l137 641h273l-119 -557l-15 -80q-3 -22 -5 -44t-2 -42q0 -14 1 -30q0 -16 7 -36q15 -53 61 -86
q23 -15 49.5 -23t59.5 -8q95 0 164 54q55 44 95 132q27 60 50 163zM655 1298l-63 181q44 35 105.5 55t115.5 20q26 0 61.5 -9t84 -28.5t71.5 -19.5q21 0 39 3t39 11q39 15 76 43l65 -174q-54 -41 -106.5 -65.5t-108.5 -24.5q-40 0 -147 36q-51 17 -88 17q-29 0 -41 -2
t-33 -9q-35 -11 -70 -34z" />
    <glyph glyph-name=".notdef.077" unicode="&#x1a0;" horiz-adv-x="1720" 
d="M1120 1270q-210 0 -391 -150t-227 -364q-12 -54 -12 -107q0 -176 115.5 -294.5t293.5 -118.5q207 0 390.5 153.5t228.5 366.5q12 57 12 111q0 173 -114 288t-296 115zM1530 1448l41 192h272l-53 -247h-182q100 -86 153.5 -208.5t53.5 -269.5v-49q-3 -22 -4 -32
q0 -17 -3.5 -38t-9.5 -46q-69 -326 -350.5 -556.5t-605.5 -230.5q-279 0 -459 175.5t-180 446.5q0 78 18 165q69 330 348.5 561t608.5 231q100 0 188.5 -23.5t163.5 -70.5z" />
    <glyph glyph-name=".notdef.011" unicode="&#x1a1;" 
d="M854 905q-63 0 -132 -28.5t-124.5 -75t-91.5 -106.5t-51 -130q-4 -21 -6 -37t-2 -36q0 -114 72 -188.5t192 -74.5q143 0 257.5 95.5t147.5 240.5l6 36l2 37q0 113 -75.5 190t-194.5 77zM1245 1059l27 127h272l-53 -248h-150q62 -112 62 -246q0 -31 -3 -61t-11 -66
q-54 -252 -269.5 -427t-466.5 -175q-212 0 -348.5 137t-136.5 341q0 32 3 60.5t11 63.5q54 253 270.5 429.5t471.5 176.5q99 0 179.5 -28.5t141.5 -83.5z" />
    <glyph glyph-name=".notdef.083" unicode="&#x1af;" horiz-adv-x="1453" 
d="M1456 1393l-174 -824q-27 -134 -64 -216q-48 -111 -133 -193q-94 -90 -212.5 -143.5t-231.5 -53.5q-106 0 -198.5 50.5t-149.5 133.5q-30 44 -47 100q-14 56 -14 114q0 39 1.5 54.5t6.5 46.5q2 16 7 44.5t13 62.5l201 944h280l-200 -944l-15 -73q-8 -45 -8 -72v-25
q0 -10 1.5 -15.5t6.5 -18.5q18 -59 63 -94t109 -35q56 0 114.5 28t97.5 75.5t62 111.5q6 19 12.5 46.5t16.5 71.5l201 944h199l26 127h273l-53 -247h-191z" />
    <glyph glyph-name=".notdef.017" unicode="&#x1b0;" horiz-adv-x="1229" 
d="M1321 944l-201 -944h-250l27 121q-60 -78 -145.5 -118t-182.5 -40q-105 0 -188 39t-135 119q-28 37 -44 87q-13 50 -13 97q0 45 7 90q1 10 5.5 34.5t13.5 64.5l137 641h273l-119 -557l-15 -80q-3 -22 -5 -44t-2 -42q0 -14 1 -30q0 -16 7 -36q15 -53 61 -86
q23 -15 49.5 -23t59.5 -8q95 0 164 54q55 44 95 132q27 60 50 163l119 557h200l13 57h272l-53 -248h-201z" />
    <glyph glyph-name=".notdef.110" unicode="&#x1ea0;" horiz-adv-x="1516" 
d="M14 0l953 1513h219l315 -1513h-309l-80 391h-537l-251 -391h-310zM735 664h324l-66 458zM528 -408l58 273h272l-57 -273h-273z" />
    <glyph glyph-name=".notdef.062" unicode="&#x1ea1;" horiz-adv-x="1352" 
d="M1501 1135l-241 -1135h-250l32 154q-80 -85 -201.5 -138t-228.5 -53q-130 0 -224 49t-152 142q-69 111 -69 266q0 72 15 147q24 119 80.5 219t151.5 189q107 99 224 147.5t241 48.5q59 0 109 -12t94 -38q88 -50 135 -146l34 160h250zM1122 569q9 42 9 80q0 114 -71 185
t-194 71q-147 0 -264 -99t-149 -249q-4 -19 -6 -35.5t-2 -34.5q0 -113 76.5 -185.5t197.5 -72.5q145 0 258.5 96t144.5 244zM457 -414l53 248h272l-53 -248h-272z" />
    <glyph glyph-name=".notdef.108" unicode="&#x1ea2;" horiz-adv-x="1516" 
d="M14 0l953 1513h219l315 -1513h-309l-80 391h-537l-251 -391h-310zM735 664h324l-66 458zM899 1912l5 33l12 42q0 1 0.5 1.5t0.5 2.5q4 6 7.5 12.5t14.5 21.5h-1q9 19 25.5 37.5t37.5 38.5q17 14 37.5 26.5t49.5 23.5q62 22 105 22q101 0 157 -69t40 -163
q-6 -38 -33.5 -77t-74.5 -74q-38 -32 -62 -68t-30 -74h-180q5 35 23.5 73t51.5 77l104 102q11 8 15.5 20t8.5 28q5 30 -9.5 49t-38.5 19q-25 0 -43 -15q-15 -11 -25.5 -34t-16.5 -55h-181z" />
    <glyph glyph-name=".notdef.064" unicode="&#x1ea3;" horiz-adv-x="1352" 
d="M1501 1135l-241 -1135h-250l32 154q-80 -85 -201.5 -138t-228.5 -53q-130 0 -224 49t-152 142q-69 111 -69 266q0 72 15 147q24 119 80.5 219t151.5 189q107 99 224 147.5t241 48.5q59 0 109 -12t94 -38q88 -50 135 -146l34 160h250zM1122 569q9 42 9 80q0 114 -71 185
t-194 71q-147 0 -264 -99t-149 -249q-4 -19 -6 -35.5t-2 -34.5q0 -113 76.5 -185.5t197.5 -72.5q145 0 258.5 96t144.5 244zM784 1519l5 33l12 42q0 1 0.5 1.5t0.5 2.5q4 6 7.5 12.5t14.5 21.5h-1q9 19 25.5 37.5t37.5 38.5q17 14 37.5 26.5t49.5 23.5q62 22 105 22
q101 0 157 -69t40 -163q-6 -38 -33.5 -77t-74.5 -74q-38 -32 -62 -68t-30 -74h-180q5 35 23.5 73t51.5 77l104 102q11 8 15.5 20t8.5 28q5 30 -9.5 49t-38.5 19q-25 0 -43 -15q-15 -11 -25.5 -34t-16.5 -55h-181z" />
    <glyph glyph-name=".notdef.113" unicode="&#x1ea4;" horiz-adv-x="1516" 
d="M14 0l953 1513h219l315 -1513h-309l-80 391h-537l-251 -391h-310zM707 1649l362 282h215l240 -282h-297l-82 131l-141 -131h-297zM735 664h324l-66 458zM1493 1836l-64 189l518 272l64 -213z" />
    <glyph glyph-name=".notdef.059" unicode="&#x1ea5;" horiz-adv-x="1352" 
d="M1501 1135l-241 -1135h-250l32 154q-80 -85 -201.5 -138t-228.5 -53q-130 0 -224 49t-152 142q-69 111 -69 266q0 72 15 147q24 119 80.5 219t151.5 189q107 99 224 147.5t241 48.5q59 0 109 -12t94 -38q88 -50 135 -146l34 160h250zM545 1270l362 282h215l240 -282h-297
l-84 131l-139 -131h-297zM1122 569q9 42 9 80q0 114 -71 185t-194 71q-147 0 -264 -99t-149 -249q-4 -19 -6 -35.5t-2 -34.5q0 -113 76.5 -185.5t197.5 -72.5q145 0 258.5 96t144.5 244zM1331 1457l-64 189l518 272l64 -213z" />
    <glyph glyph-name=".notdef.112" unicode="&#x1ea6;" horiz-adv-x="1516" 
d="M14 0l953 1513h219l315 -1513h-309l-80 391h-537l-251 -391h-310zM707 1649l362 282h215l240 -282h-297l-82 131l-141 -131h-297zM735 664h324l-66 458zM1230 2108l139 150l420 -278l-135 -143z" />
    <glyph glyph-name=".notdef.060" unicode="&#x1ea7;" horiz-adv-x="1352" 
d="M1501 1135l-241 -1135h-250l32 154q-80 -85 -201.5 -138t-228.5 -53q-130 0 -224 49t-152 142q-69 111 -69 266q0 72 15 147q24 119 80.5 219t151.5 189q107 99 224 147.5t241 48.5q59 0 109 -12t94 -38q88 -50 135 -146l34 160h250zM545 1270l362 282h215l240 -282h-297
l-84 131l-139 -131h-297zM1122 569q9 42 9 80q0 114 -71 185t-194 71q-147 0 -264 -99t-149 -249q-4 -19 -6 -35.5t-2 -34.5q0 -113 76.5 -185.5t197.5 -72.5q145 0 258.5 96t144.5 244zM1068 1729l139 150l420 -278l-135 -143z" />
    <glyph glyph-name=".notdef.114" unicode="&#x1ea8;" horiz-adv-x="1516" 
d="M14 0l953 1513h219l315 -1513h-309l-80 391h-537l-251 -391h-310zM707 1649l362 282h215l240 -282h-297l-82 131l-141 -131h-297zM735 664h324l-66 458zM1350 2095l5 33l12 42q0 1 0.5 1.5t0.5 2.5q4 6 7.5 12.5t14.5 21.5h-1q9 19 25.5 37.5t37.5 38.5q17 14 37.5 26.5
t49.5 23.5q62 22 105 22q101 0 157 -69t40 -163q-6 -38 -33.5 -77t-74.5 -74q-38 -32 -62 -68t-30 -74h-180q5 35 23.5 73t51.5 77l104 102q11 8 15.5 20t8.5 28q5 30 -9.5 49t-38.5 19q-25 0 -43 -15q-15 -11 -25.5 -34t-16.5 -55h-181z" />
    <glyph glyph-name=".notdef.058" unicode="&#x1ea9;" horiz-adv-x="1352" 
d="M1501 1135l-241 -1135h-250l32 154q-80 -85 -201.5 -138t-228.5 -53q-130 0 -224 49t-152 142q-69 111 -69 266q0 72 15 147q24 119 80.5 219t151.5 189q107 99 224 147.5t241 48.5q59 0 109 -12t94 -38q88 -50 135 -146l34 160h250zM545 1270l362 282h215l240 -282h-297
l-84 131l-139 -131h-297zM1122 569q9 42 9 80q0 114 -71 185t-194 71q-147 0 -264 -99t-149 -249q-4 -19 -6 -35.5t-2 -34.5q0 -113 76.5 -185.5t197.5 -72.5q145 0 258.5 96t144.5 244zM1188 1716l5 33l12 42q0 1 0.5 1.5t0.5 2.5q4 6 7.5 12.5t14.5 21.5h-1
q9 19 25.5 37.5t37.5 38.5q17 14 37.5 26.5t49.5 23.5q62 22 105 22q101 0 157 -69t40 -163q-6 -38 -33.5 -77t-74.5 -74q-38 -32 -62 -68t-30 -74h-180q5 35 23.5 73t51.5 77l104 102q11 8 15.5 20t8.5 28q5 30 -9.5 49t-38.5 19q-25 0 -43 -15q-15 -11 -25.5 -34
t-16.5 -55h-181z" />
    <glyph glyph-name=".notdef.115" unicode="&#x1eaa;" horiz-adv-x="1516" 
d="M14 0l953 1513h219l315 -1513h-309l-80 391h-537l-251 -391h-310zM707 1649l362 282h215l240 -282h-297l-82 131l-141 -131h-297zM735 664h324l-66 458zM947 2024l-61 180q43 34 103.5 55t117.5 21q43 0 94 -18q102 -37 123 -40q35 0 75 15t79 43l63 -174
q-56 -42 -107 -66t-108 -24q-38 0 -145 36q-49 17 -88 17q-72 0 -146 -45z" />
    <glyph glyph-name=".notdef.057" unicode="&#x1eab;" horiz-adv-x="1352" 
d="M1501 1135l-241 -1135h-250l32 154q-80 -85 -201.5 -138t-228.5 -53q-130 0 -224 49t-152 142q-69 111 -69 266q0 72 15 147q24 119 80.5 219t151.5 189q107 99 224 147.5t241 48.5q59 0 109 -12t94 -38q88 -50 135 -146l34 160h250zM545 1270l362 282h215l240 -282h-297
l-84 131l-139 -131h-297zM1122 569q9 42 9 80q0 114 -71 185t-194 71q-147 0 -264 -99t-149 -249q-4 -19 -6 -35.5t-2 -34.5q0 -113 76.5 -185.5t197.5 -72.5q145 0 258.5 96t144.5 244zM785 1645l-61 180q43 34 103.5 55t117.5 21q43 0 94 -18q102 -37 123 -40q35 0 75 15
t79 43l63 -174q-56 -42 -107 -66t-108 -24q-38 0 -145 36q-49 17 -88 17q-72 0 -146 -45z" />
    <glyph glyph-name=".notdef.116" unicode="&#x1eac;" horiz-adv-x="1516" 
d="M14 0l953 1513h219l315 -1513h-309l-80 391h-537l-251 -391h-310zM707 1649l362 282h215l240 -282h-297l-82 131l-141 -131h-297zM735 664h324l-66 458zM528 -408l58 273h272l-57 -273h-273z" />
    <glyph glyph-name=".notdef.056" unicode="&#x1ead;" horiz-adv-x="1352" 
d="M1501 1135l-241 -1135h-250l32 154q-80 -85 -201.5 -138t-228.5 -53q-130 0 -224 49t-152 142q-69 111 -69 266q0 72 15 147q24 119 80.5 219t151.5 189q107 99 224 147.5t241 48.5q59 0 109 -12t94 -38q88 -50 135 -146l34 160h250zM545 1270l362 282h215l240 -282h-297
l-84 131l-139 -131h-297zM1122 569q9 42 9 80q0 114 -71 185t-194 71q-147 0 -264 -99t-149 -249q-4 -19 -6 -35.5t-2 -34.5q0 -113 76.5 -185.5t197.5 -72.5q145 0 258.5 96t144.5 244zM457 -414l53 248h272l-53 -248h-272z" />
    <glyph glyph-name=".notdef.119" unicode="&#x1eae;" horiz-adv-x="1516" 
d="M14 0l953 1513h219l315 -1513h-309l-80 391h-537l-251 -391h-310zM735 664h324l-66 458zM987 1899q5 -32 17 -56t29 -36q15 -8 37.5 -11.5t47 -3.5t48 4t41.5 12q21 12 44.5 35.5t42.5 55.5h211q-29 -63 -75.5 -116t-109.5 -96q-102 -66 -230 -66q-64 0 -113.5 16.5
t-81.5 49.5q-82 85 -76 212h168zM1049 1926l-64 189l518 272l64 -213z" />
    <glyph glyph-name=".notdef.053" unicode="&#x1eaf;" horiz-adv-x="1352" 
d="M1501 1135l-241 -1135h-250l32 154q-80 -85 -201.5 -138t-228.5 -53q-130 0 -224 49t-152 142q-69 111 -69 266q0 72 15 147q24 119 80.5 219t151.5 189q107 99 224 147.5t241 48.5q59 0 109 -12t94 -38q88 -50 135 -146l34 160h250zM1122 569q9 42 9 80q0 114 -71 185
t-194 71q-147 0 -264 -99t-149 -249q-4 -19 -6 -35.5t-2 -34.5q0 -113 76.5 -185.5t197.5 -72.5q145 0 258.5 96t144.5 244zM897 1533q5 -32 17 -56t29 -36q15 -8 37.5 -11.5t47 -3.5t48 4t41.5 12q21 12 44.5 35.5t42.5 55.5h211q-29 -63 -75.5 -116t-109.5 -96
q-102 -66 -230 -66q-64 0 -113.5 16.5t-81.5 49.5q-82 85 -76 212h168zM960 1559l-64 189l518 272l64 -213z" />
    <glyph glyph-name=".notdef.118" unicode="&#x1eb0;" horiz-adv-x="1516" 
d="M14 0l953 1513h219l315 -1513h-309l-80 391h-537l-251 -391h-310zM735 664h324l-66 458zM987 1899q5 -32 17 -56t29 -36q15 -8 37.5 -11.5t47 -3.5t48 4t41.5 12q21 12 44.5 35.5t42.5 55.5h211q-29 -63 -75.5 -116t-109.5 -96q-102 -66 -230 -66q-64 0 -113.5 16.5
t-81.5 49.5q-82 85 -76 212h168zM812 2198l139 150l420 -278l-135 -143z" />
    <glyph glyph-name=".notdef.054" unicode="&#x1eb1;" horiz-adv-x="1352" 
d="M1501 1135l-241 -1135h-250l32 154q-80 -85 -201.5 -138t-228.5 -53q-130 0 -224 49t-152 142q-69 111 -69 266q0 72 15 147q24 119 80.5 219t151.5 189q107 99 224 147.5t241 48.5q59 0 109 -12t94 -38q88 -50 135 -146l34 160h250zM1122 569q9 42 9 80q0 114 -71 185
t-194 71q-147 0 -264 -99t-149 -249q-4 -19 -6 -35.5t-2 -34.5q0 -113 76.5 -185.5t197.5 -72.5q145 0 258.5 96t144.5 244zM897 1533q5 -32 17 -56t29 -36q15 -8 37.5 -11.5t47 -3.5t48 4t41.5 12q21 12 44.5 35.5t42.5 55.5h211q-29 -63 -75.5 -116t-109.5 -96
q-102 -66 -230 -66q-64 0 -113.5 16.5t-81.5 49.5q-82 85 -76 212h168zM723 1832l139 150l420 -278l-135 -143z" />
    <glyph glyph-name=".notdef.120" unicode="&#x1eb2;" horiz-adv-x="1516" 
d="M14 0l953 1513h219l315 -1513h-309l-80 391h-537l-251 -391h-310zM735 664h324l-66 458zM986 1870q5 -30 16.5 -53t28.5 -35q15 -7 37.5 -10.5t46.5 -3.5t47.5 3.5t41.5 11.5q20 12 43.5 34.5t42.5 52.5h209q-57 -120 -183 -202q-102 -63 -228 -63q-130 0 -194 63
q-81 81 -75 202h167zM930 2134l5 33l12 42q0 1 0.5 1.5t0.5 2.5q4 6 7.5 12.5t14.5 21.5h-1q9 19 25.5 37.5t37.5 38.5q17 14 37.5 26.5t49.5 23.5q62 22 105 22q101 0 157 -69t40 -163q-6 -38 -33.5 -77t-74.5 -74q-38 -32 -62 -68t-30 -74h-180q5 35 23.5 73t51.5 77
l104 102q11 8 15.5 20t8.5 28q5 30 -9.5 49t-38.5 19q-25 0 -43 -15q-15 -11 -25.5 -34t-16.5 -55h-181z" />
    <glyph glyph-name=".notdef.052" unicode="&#x1eb3;" horiz-adv-x="1352" 
d="M1501 1135l-241 -1135h-250l32 154q-80 -85 -201.5 -138t-228.5 -53q-130 0 -224 49t-152 142q-69 111 -69 266q0 72 15 147q24 119 80.5 219t151.5 189q107 99 224 147.5t241 48.5q59 0 109 -12t94 -38q88 -50 135 -146l34 160h250zM1122 569q9 42 9 80q0 114 -71 185
t-194 71q-147 0 -264 -99t-149 -249q-4 -19 -6 -35.5t-2 -34.5q0 -113 76.5 -185.5t197.5 -72.5q145 0 258.5 96t144.5 244zM897 1533q5 -32 17 -56t29 -36q15 -8 37.5 -11.5t47 -3.5t48 4t41.5 12q21 12 44.5 35.5t42.5 55.5h211q-29 -63 -75.5 -116t-109.5 -96
q-102 -66 -230 -66q-64 0 -113.5 16.5t-81.5 49.5q-82 85 -76 212h168zM848 1805l5 33l12 42q0 1 0.5 1.5t0.5 2.5q4 6 7.5 12.5t14.5 21.5h-1q9 19 25.5 37.5t37.5 38.5q17 14 37.5 26.5t49.5 23.5q62 22 105 22q101 0 157 -69t40 -163q-6 -38 -33.5 -77t-74.5 -74
q-38 -32 -62 -68t-30 -74h-180q5 35 23.5 73t51.5 77l104 102q11 8 15.5 20t8.5 28q5 30 -9.5 49t-38.5 19q-25 0 -43 -15q-15 -11 -25.5 -34t-16.5 -55h-181z" />
    <glyph glyph-name=".notdef.121" unicode="&#x1eb4;" horiz-adv-x="1516" 
d="M14 0l953 1513h219l315 -1513h-309l-80 391h-537l-251 -391h-310zM735 664h324l-66 458zM987 1899q5 -32 17 -56t29 -36q15 -8 37.5 -11.5t47 -3.5t48 4t41.5 12q21 12 44.5 35.5t42.5 55.5h211q-29 -63 -75.5 -116t-109.5 -96q-102 -66 -230 -66q-64 0 -113.5 16.5
t-81.5 49.5q-82 85 -76 212h168zM898 1988l-61 180q43 34 103.5 55t117.5 21q43 0 94 -18q102 -37 123 -40q35 0 75 15t79 43l63 -174q-56 -42 -107 -66t-108 -24q-38 0 -145 36q-49 17 -88 17q-72 0 -146 -45z" />
    <glyph glyph-name=".notdef.051" unicode="&#x1eb5;" horiz-adv-x="1352" 
d="M1501 1135l-241 -1135h-250l32 154q-80 -85 -201.5 -138t-228.5 -53q-130 0 -224 49t-152 142q-69 111 -69 266q0 72 15 147q24 119 80.5 219t151.5 189q107 99 224 147.5t241 48.5q59 0 109 -12t94 -38q88 -50 135 -146l34 160h250zM1122 569q9 42 9 80q0 114 -71 185
t-194 71q-147 0 -264 -99t-149 -249q-4 -19 -6 -35.5t-2 -34.5q0 -113 76.5 -185.5t197.5 -72.5q145 0 258.5 96t144.5 244zM897 1533q5 -32 17 -56t29 -36q15 -8 37.5 -11.5t47 -3.5t48 4t41.5 12q21 12 44.5 35.5t42.5 55.5h211q-29 -63 -75.5 -116t-109.5 -96
q-102 -66 -230 -66q-64 0 -113.5 16.5t-81.5 49.5q-82 85 -76 212h168zM820 1647l-61 180q43 34 103.5 55t117.5 21q43 0 94 -18q102 -37 123 -40q35 0 75 15t79 43l63 -174q-56 -42 -107 -66t-108 -24q-38 0 -145 36q-49 17 -88 17q-72 0 -146 -45z" />
    <glyph glyph-name=".notdef.122" unicode="&#x1eb6;" horiz-adv-x="1516" 
d="M14 0l953 1513h219l315 -1513h-309l-80 391h-537l-251 -391h-310zM735 664h324l-66 458zM987 1899q5 -32 17 -56t29 -36q15 -8 37.5 -11.5t47 -3.5t48 4t41.5 12q21 12 44.5 35.5t42.5 55.5h211q-29 -63 -75.5 -116t-109.5 -96q-102 -66 -230 -66q-64 0 -113.5 16.5
t-81.5 49.5q-82 85 -76 212h168zM528 -408l58 273h272l-57 -273h-273z" />
    <glyph glyph-name=".notdef.050" unicode="&#x1eb7;" horiz-adv-x="1352" 
d="M1501 1135l-241 -1135h-250l32 154q-80 -85 -201.5 -138t-228.5 -53q-130 0 -224 49t-152 142q-69 111 -69 266q0 72 15 147q24 119 80.5 219t151.5 189q107 99 224 147.5t241 48.5q59 0 109 -12t94 -38q88 -50 135 -146l34 160h250zM1122 569q9 42 9 80q0 114 -71 185
t-194 71q-147 0 -264 -99t-149 -249q-4 -19 -6 -35.5t-2 -34.5q0 -113 76.5 -185.5t197.5 -72.5q145 0 258.5 96t144.5 244zM897 1533q5 -32 17 -56t29 -36q15 -8 37.5 -11.5t47 -3.5t48 4t41.5 12q21 12 44.5 35.5t42.5 55.5h211q-29 -63 -75.5 -116t-109.5 -96
q-102 -66 -230 -66q-64 0 -113.5 16.5t-81.5 49.5q-82 85 -76 212h168zM457 -414l53 248h272l-53 -248h-272z" />
    <glyph glyph-name=".notdef.127" unicode="&#x1eb8;" horiz-adv-x="1065" 
d="M139 0l322 1513h813l-57 -272h-533l-74 -348h510l-59 -272h-510l-74 -349h533l-58 -272h-813zM309 -395l58 272h272l-57 -272h-273z" />
    <glyph glyph-name=".notdef.045" unicode="&#x1eb9;" 
d="M1325 446h-881q10 -97 80 -157t174 -60q75 0 149 26.5t126 72.5h301q-84 -152 -264 -259q-89 -52 -178.5 -79t-180.5 -27q-214 0 -349 134t-135 339l3 59q3 34 4 38q5 18 6 26q54 253 267.5 432.5t465.5 179.5q205 0 339 -138q129 -134 129 -335l-3 -60q-3 -32 -4 -37
q-5 -17 -6 -24q-7 -33 -19 -66zM492 688h624q-12 98 -84 158q-36 29 -80 44t-98 15q-104 0 -206.5 -60.5t-155.5 -156.5zM440 -397l58 272h272l-57 -272h-273z" />
    <glyph glyph-name=".notdef.125" unicode="&#x1eba;" horiz-adv-x="1065" 
d="M139 0l322 1513h813l-57 -272h-533l-74 -348h510l-59 -272h-510l-74 -349h533l-58 -272h-813zM685 1912l5 33l12 42q0 1 0.5 1.5t0.5 2.5q4 6 7.5 12.5t14.5 21.5h-1q9 19 25.5 37.5t37.5 38.5q17 14 37.5 26.5t49.5 23.5q62 22 105 22q101 0 157 -69t40 -163
q-6 -38 -33.5 -77t-74.5 -74q-38 -32 -62 -68t-30 -74h-180q5 35 23.5 73t51.5 77l104 102q11 8 15.5 20t8.5 28q5 30 -9.5 49t-38.5 19q-25 0 -43 -15q-15 -11 -25.5 -34t-16.5 -55h-181z" />
    <glyph glyph-name=".notdef.047" unicode="&#x1ebb;" 
d="M1325 446h-881q10 -97 80 -157t174 -60q75 0 149 26.5t126 72.5h301q-84 -152 -264 -259q-89 -52 -178.5 -79t-180.5 -27q-214 0 -349 134t-135 339l3 59q3 34 4 38q5 18 6 26q54 253 267.5 432.5t465.5 179.5q205 0 339 -138q129 -134 129 -335l-3 -60q-3 -32 -4 -37
q-5 -17 -6 -24q-7 -33 -19 -66zM492 688h624q-12 98 -84 158q-36 29 -80 44t-98 15q-104 0 -206.5 -60.5t-155.5 -156.5zM716 1519l5 33l12 42q0 1 0.5 1.5t0.5 2.5q4 6 7.5 12.5t14.5 21.5h-1q9 19 25.5 37.5t37.5 38.5q17 14 37.5 26.5t49.5 23.5q62 22 105 22
q101 0 157 -69t40 -163q-6 -38 -33.5 -77t-74.5 -74q-38 -32 -62 -68t-30 -74h-180q5 35 23.5 73t51.5 77l104 102q11 8 15.5 20t8.5 28q5 30 -9.5 49t-38.5 19q-25 0 -43 -15q-15 -11 -25.5 -34t-16.5 -55h-181z" />
    <glyph glyph-name=".notdef.126" unicode="&#x1ebc;" horiz-adv-x="1065" 
d="M139 0l322 1513h813l-57 -272h-533l-74 -348h510l-59 -272h-510l-74 -349h533l-58 -272h-813zM705 1681l-64 181q44 34 106 55q31 10 58 15t57 5q25 0 63.5 -9.5t81.5 -28.5q51 -19 72 -19q42 0 77 13.5t77 43.5l65 -174q-55 -42 -104 -65q-25 -11 -56.5 -18t-54.5 -7
q-39 0 -147 36q-53 17 -88 17q-72 0 -143 -45z" />
    <glyph glyph-name=".notdef.046" unicode="&#x1ebd;" 
d="M1325 446h-881q10 -97 80 -157t174 -60q75 0 149 26.5t126 72.5h301q-84 -152 -264 -259q-89 -52 -178.5 -79t-180.5 -27q-214 0 -349 134t-135 339l3 59q3 34 4 38q5 18 6 26q54 253 267.5 432.5t465.5 179.5q205 0 339 -138q129 -134 129 -335l-3 -60q-3 -32 -4 -37
q-5 -17 -6 -24q-7 -33 -19 -66zM492 688h624q-12 98 -84 158q-36 29 -80 44t-98 15q-104 0 -206.5 -60.5t-155.5 -156.5zM709 1278l-64 180q46 34 106 55t115 21q54 0 124 -28.5t93 -28.5q38 0 78 15t76 42l66 -174q-57 -42 -108.5 -66t-107.5 -24q-40 0 -147 36
q-51 17 -88 17q-71 0 -143 -45z" />
    <glyph glyph-name=".notdef.130" unicode="&#x1ebe;" horiz-adv-x="1065" 
d="M139 0l322 1513h813l-57 -272h-533l-74 -348h510l-59 -272h-510l-74 -349h533l-58 -272h-813zM481 1649l363 282h215l239 -282h-297l-81 131l-142 -131h-297zM1267 1836l-64 189l518 272l64 -213z" />
    <glyph glyph-name=".notdef.042" unicode="&#x1ebf;" 
d="M1325 446h-881q10 -97 80 -157t174 -60q75 0 149 26.5t126 72.5h301q-84 -152 -264 -259q-89 -52 -178.5 -79t-180.5 -27q-214 0 -349 134t-135 339l3 59q3 34 4 38q5 18 6 26q54 253 267.5 432.5t465.5 179.5q205 0 339 -138q129 -134 129 -335l-3 -60q-3 -32 -4 -37
q-5 -17 -6 -24q-7 -33 -19 -66zM524 1270l363 282h215l239 -282h-297l-83 131l-140 -131h-297zM492 688h624q-12 98 -84 158q-36 29 -80 44t-98 15q-104 0 -206.5 -60.5t-155.5 -156.5zM1310 1457l-64 189l518 272l64 -213z" />
    <glyph glyph-name=".notdef.129" unicode="&#x1ec0;" horiz-adv-x="1065" 
d="M139 0l322 1513h813l-57 -272h-533l-74 -348h510l-59 -272h-510l-74 -349h533l-58 -272h-813zM481 1649l363 282h215l239 -282h-297l-81 131l-142 -131h-297zM1004 2109l139 150l420 -278l-135 -143z" />
    <glyph glyph-name=".notdef.043" unicode="&#x1ec1;" 
d="M1325 446h-881q10 -97 80 -157t174 -60q75 0 149 26.5t126 72.5h301q-84 -152 -264 -259q-89 -52 -178.5 -79t-180.5 -27q-214 0 -349 134t-135 339l3 59q3 34 4 38q5 18 6 26q54 253 267.5 432.5t465.5 179.5q205 0 339 -138q129 -134 129 -335l-3 -60q-3 -32 -4 -37
q-5 -17 -6 -24q-7 -33 -19 -66zM524 1270l363 282h215l239 -282h-297l-83 131l-140 -131h-297zM492 688h624q-12 98 -84 158q-36 29 -80 44t-98 15q-104 0 -206.5 -60.5t-155.5 -156.5zM1048 1729l139 150l420 -278l-135 -143z" />
    <glyph glyph-name=".notdef.131" unicode="&#x1ec2;" horiz-adv-x="1065" 
d="M139 0l322 1513h813l-57 -272h-533l-74 -348h510l-59 -272h-510l-74 -349h533l-58 -272h-813zM481 1649l363 282h215l239 -282h-297l-81 131l-142 -131h-297zM1124 2095l5 33l12 42q0 1 0.5 1.5t0.5 2.5q4 6 7.5 12.5t14.5 21.5h-1q9 19 25.5 37.5t37.5 38.5
q17 14 37.5 26.5t49.5 23.5q62 22 105 22q101 0 157 -69t40 -163q-6 -38 -33.5 -77t-74.5 -74q-38 -32 -62 -68t-30 -74h-180q5 35 23.5 73t51.5 77l104 102q11 8 15.5 20t8.5 28q5 30 -9.5 49t-38.5 19q-25 0 -43 -15q-15 -11 -25.5 -34t-16.5 -55h-181z" />
    <glyph glyph-name=".notdef.041" unicode="&#x1ec3;" 
d="M1325 446h-881q10 -97 80 -157t174 -60q75 0 149 26.5t126 72.5h301q-84 -152 -264 -259q-89 -52 -178.5 -79t-180.5 -27q-214 0 -349 134t-135 339l3 59q3 34 4 38q5 18 6 26q54 253 267.5 432.5t465.5 179.5q205 0 339 -138q129 -134 129 -335l-3 -60q-3 -32 -4 -37
q-5 -17 -6 -24q-7 -33 -19 -66zM524 1270l363 282h215l239 -282h-297l-83 131l-140 -131h-297zM492 688h624q-12 98 -84 158q-36 29 -80 44t-98 15q-104 0 -206.5 -60.5t-155.5 -156.5zM1167 1716l5 33l12 42q0 1 0.5 1.5t0.5 2.5q4 6 7.5 12.5t14.5 21.5h-1q9 19 25.5 37.5
t37.5 38.5q17 14 37.5 26.5t49.5 23.5q62 22 105 22q101 0 157 -69t40 -163q-6 -38 -33.5 -77t-74.5 -74q-38 -32 -62 -68t-30 -74h-180q5 35 23.5 73t51.5 77l104 102q11 8 15.5 20t8.5 28q5 30 -9.5 49t-38.5 19q-25 0 -43 -15q-15 -11 -25.5 -34t-16.5 -55h-181z" />
    <glyph glyph-name=".notdef.132" unicode="&#x1ec4;" horiz-adv-x="1065" 
d="M139 0l322 1513h813l-57 -272h-533l-74 -348h510l-59 -272h-510l-74 -349h533l-58 -272h-813zM481 1649l363 282h215l239 -282h-297l-81 131l-142 -131h-297zM721 2024l-61 180q43 34 103.5 55t117.5 21q43 0 94 -18q102 -37 123 -40q35 0 75 15t79 43l63 -174
q-56 -42 -107 -66t-108 -24q-38 0 -145 36q-49 17 -88 17q-72 0 -146 -45z" />
    <glyph glyph-name=".notdef.040" unicode="&#x1ec5;" 
d="M1325 446h-881q10 -97 80 -157t174 -60q75 0 149 26.5t126 72.5h301q-84 -152 -264 -259q-89 -52 -178.5 -79t-180.5 -27q-214 0 -349 134t-135 339l3 59q3 34 4 38q5 18 6 26q54 253 267.5 432.5t465.5 179.5q205 0 339 -138q129 -134 129 -335l-3 -60q-3 -32 -4 -37
q-5 -17 -6 -24q-7 -33 -19 -66zM524 1270l363 282h215l239 -282h-297l-83 131l-140 -131h-297zM492 688h624q-12 98 -84 158q-36 29 -80 44t-98 15q-104 0 -206.5 -60.5t-155.5 -156.5zM764 1645l-61 180q43 34 103.5 55t117.5 21q43 0 94 -18q102 -37 123 -40q35 0 75 15
t79 43l63 -174q-56 -42 -107 -66t-108 -24q-38 0 -145 36q-49 17 -88 17q-72 0 -146 -45z" />
    <glyph glyph-name=".notdef.105" unicode="&#x1ec6;" horiz-adv-x="1065" 
d="M139 0l322 1513h813l-57 -272h-533l-74 -348h510l-59 -272h-510l-74 -349h533l-58 -272h-813zM481 1649l363 282h215l239 -282h-297l-81 131l-142 -131h-297zM309 -395l58 272h272l-57 -272h-273z" />
    <glyph glyph-name=".notdef.039" unicode="&#x1ec7;" 
d="M1325 446h-881q10 -97 80 -157t174 -60q75 0 149 26.5t126 72.5h301q-84 -152 -264 -259q-89 -52 -178.5 -79t-180.5 -27q-214 0 -349 134t-135 339l3 59q3 34 4 38q5 18 6 26q54 253 267.5 432.5t465.5 179.5q205 0 339 -138q129 -134 129 -335l-3 -60q-3 -32 -4 -37
q-5 -17 -6 -24q-7 -33 -19 -66zM524 1270l363 282h215l239 -282h-297l-83 131l-140 -131h-297zM492 688h624q-12 98 -84 158q-36 29 -80 44t-98 15q-104 0 -206.5 -60.5t-155.5 -156.5zM440 -397l58 272h272l-57 -272h-273z" />
    <glyph glyph-name=".notdef.102" unicode="&#x1ec8;" horiz-adv-x="573" 
d="M139 0l322 1513h280l-321 -1513h-281zM429 1912l5 33l12 42q0 1 0.5 1.5t0.5 2.5q4 6 7.5 12.5t14.5 21.5h-1q9 19 25.5 37.5t37.5 38.5q17 14 37.5 26.5t49.5 23.5q62 22 105 22q101 0 157 -69t40 -163q-6 -38 -33.5 -77t-74.5 -74q-38 -32 -62 -68t-30 -74h-180
q5 35 23.5 73t51.5 77l104 102q11 8 15.5 20t8.5 28q5 30 -9.5 49t-38.5 19q-25 0 -43 -15q-15 -11 -25.5 -34t-16.5 -55h-181z" />
    <glyph glyph-name=".notdef.036" unicode="&#x1ec9;" horiz-adv-x="492" 
d="M111 0l241 1135h273l-242 -1135h-272zM310 1519l5 33l12 42q0 1 0.5 1.5t0.5 2.5q4 6 7.5 12.5t14.5 21.5h-1q9 19 25.5 37.5t37.5 38.5q17 14 37.5 26.5t49.5 23.5q62 22 105 22q101 0 157 -69t40 -163q-6 -38 -33.5 -77t-74.5 -74q-38 -32 -62 -68t-30 -74h-180
q5 35 23.5 73t51.5 77l104 102q11 8 15.5 20t8.5 28q5 30 -9.5 49t-38.5 19q-25 0 -43 -15q-15 -11 -25.5 -34t-16.5 -55h-181z" />
    <glyph glyph-name=".notdef.100" unicode="&#x1eca;" horiz-adv-x="573" 
d="M139 0l322 1513h280l-321 -1513h-281zM49 -403l57 272h273l-57 -272h-273z" />
    <glyph glyph-name=".notdef.034" unicode="&#x1ecb;" horiz-adv-x="492" 
d="M111 0l241 1135h273l-242 -1135h-272zM379 1266l53 247h273l-54 -247h-272zM23 -414l53 248h272l-53 -248h-272z" />
    <glyph glyph-name=".notdef.095" unicode="&#x1ecc;" horiz-adv-x="1720" 
d="M1178 1542q281 0 459.5 -177.5t178.5 -448.5q0 -77 -18 -166q-69 -324 -350.5 -555.5t-605.5 -231.5q-280 0 -459.5 175.5t-179.5 446.5q0 78 18 165q69 330 348 561t609 231zM1120 1270q-209 0 -389.5 -149.5t-228.5 -364.5q-12 -54 -12 -107q0 -176 115.5 -294.5
t293.5 -118.5q207 0 390 153t229 367q12 57 12 111q0 172 -114.5 287.5t-295.5 115.5zM625 -414l57 273h272l-57 -273h-272z" />
    <glyph glyph-name=".notdef.029" unicode="&#x1ecd;" 
d="M924 1171q213 0 348 -138q131 -134 131 -341q0 -31 -3 -61t-11 -66q-54 -252 -269.5 -427t-466.5 -175q-212 0 -348.5 137t-136.5 341q0 32 3 60.5t11 63.5q54 253 270.5 429.5t471.5 176.5zM854 905q-63 0 -132 -28.5t-124.5 -75t-91.5 -106.5t-51 -130q-4 -21 -6 -37
t-2 -36q0 -114 72 -188.5t192 -74.5q143 0 257.5 95.5t147.5 240.5l6 36l2 37q0 113 -75.5 190t-194.5 77zM440 -410l54 248h272l-53 -248h-273z" />
    <glyph glyph-name=".notdef.097" unicode="&#x1ece;" horiz-adv-x="1720" 
d="M1178 1542q281 0 459.5 -177.5t178.5 -448.5q0 -79 -18 -166q-69 -326 -350.5 -556.5t-605.5 -230.5q-279 0 -459 175.5t-180 446.5q0 78 18 165q69 330 348.5 561t608.5 231zM1120 1270q-210 0 -391 -150t-227 -364q-12 -54 -12 -107q0 -176 115.5 -294.5t293.5 -118.5
q207 0 390.5 153.5t228.5 366.5q12 57 12 111q0 173 -114 288t-296 115zM997 1912l5 33l12 42q0 1 0.5 1.5t0.5 2.5q4 6 7.5 12.5t14.5 21.5h-1q9 19 25.5 37.5t37.5 38.5q17 14 37.5 26.5t49.5 23.5q62 22 105 22q101 0 157 -69t40 -163q-6 -38 -33.5 -77t-74.5 -74
q-38 -32 -62 -68t-30 -74h-180q5 35 23.5 73t51.5 77l104 102q11 8 15.5 20t8.5 28q5 30 -9.5 49t-38.5 19q-25 0 -43 -15q-15 -11 -25.5 -34t-16.5 -55h-181z" />
    <glyph glyph-name=".notdef.031" unicode="&#x1ecf;" 
d="M924 1171q213 0 348 -138q131 -134 131 -341q0 -31 -3 -61t-11 -66q-54 -252 -269.5 -427t-466.5 -175q-212 0 -348.5 137t-136.5 341q0 32 3 60.5t11 63.5q54 253 270.5 429.5t471.5 176.5zM854 905q-63 0 -132 -28.5t-124.5 -75t-91.5 -106.5t-51 -130q-4 -21 -6 -37
t-2 -36q0 -114 72 -188.5t192 -74.5q143 0 257.5 95.5t147.5 240.5l6 36l2 37q0 113 -75.5 190t-194.5 77zM742 1519l5 33l12 42q0 1 0.5 1.5t0.5 2.5q4 6 7.5 12.5t14.5 21.5h-1q9 19 25.5 37.5t37.5 38.5q17 14 37.5 26.5t49.5 23.5q62 22 105 22q101 0 157 -69t40 -163
q-6 -38 -33.5 -77t-74.5 -74q-38 -32 -62 -68t-30 -74h-180q5 35 23.5 73t51.5 77l104 102q11 8 15.5 20t8.5 28q5 30 -9.5 49t-38.5 19q-25 0 -43 -15q-15 -11 -25.5 -34t-16.5 -55h-181z" />
    <glyph glyph-name=".notdef.092" unicode="&#x1ed0;" horiz-adv-x="1720" 
d="M1178 1542q281 0 459.5 -177.5t178.5 -448.5q0 -79 -18 -166q-69 -326 -350.5 -556.5t-605.5 -230.5q-279 0 -459 175.5t-180 446.5q0 78 18 165q69 330 348.5 561t608.5 231zM809 1649l362 282h215l240 -282h-297l-82 131l-141 -131h-297zM1120 1270q-210 0 -391 -150
t-227 -364q-12 -54 -12 -107q0 -176 115.5 -294.5t293.5 -118.5q207 0 390.5 153.5t228.5 366.5q12 57 12 111q0 173 -114 288t-296 115zM1596 1836l-64 189l518 272l64 -213z" />
    <glyph glyph-name=".notdef.026" unicode="&#x1ed1;" 
d="M924 1171q213 0 348 -138q131 -134 131 -341q0 -31 -3 -61t-11 -66q-54 -252 -269.5 -427t-466.5 -175q-212 0 -348.5 137t-136.5 341q0 32 3 60.5t11 63.5q54 253 270.5 429.5t471.5 176.5zM524 1270l363 282h215l239 -282h-297l-83 131l-140 -131h-297zM854 905
q-63 0 -132 -28.5t-124.5 -75t-91.5 -106.5t-51 -130q-4 -21 -6 -37t-2 -36q0 -114 72 -188.5t192 -74.5q143 0 257.5 95.5t147.5 240.5l6 36l2 37q0 113 -75.5 190t-194.5 77zM1310 1457l-64 189l518 272l64 -213z" />
    <glyph glyph-name=".notdef.093" unicode="&#x1ed2;" horiz-adv-x="1720" 
d="M1178 1542q281 0 459.5 -177.5t178.5 -448.5q0 -79 -18 -166q-69 -326 -350.5 -556.5t-605.5 -230.5q-279 0 -459 175.5t-180 446.5q0 78 18 165q69 330 348.5 561t608.5 231zM809 1649l362 282h215l240 -282h-297l-82 131l-141 -131h-297zM1120 1270q-210 0 -391 -150
t-227 -364q-12 -54 -12 -107q0 -176 115.5 -294.5t293.5 -118.5q207 0 390.5 153.5t228.5 366.5q12 57 12 111q0 173 -114 288t-296 115zM1332 2108l139 150l420 -278l-135 -143z" />
    <glyph glyph-name=".notdef.027" unicode="&#x1ed3;" 
d="M924 1171q213 0 348 -138q131 -134 131 -341q0 -31 -3 -61t-11 -66q-54 -252 -269.5 -427t-466.5 -175q-212 0 -348.5 137t-136.5 341q0 32 3 60.5t11 63.5q54 253 270.5 429.5t471.5 176.5zM524 1270l363 282h215l239 -282h-297l-83 131l-140 -131h-297zM854 905
q-63 0 -132 -28.5t-124.5 -75t-91.5 -106.5t-51 -130q-4 -21 -6 -37t-2 -36q0 -114 72 -188.5t192 -74.5q143 0 257.5 95.5t147.5 240.5l6 36l2 37q0 113 -75.5 190t-194.5 77zM1048 1729l139 150l420 -278l-135 -143z" />
    <glyph glyph-name=".notdef.091" unicode="&#x1ed4;" horiz-adv-x="1720" 
d="M1178 1542q281 0 459.5 -177.5t178.5 -448.5q0 -79 -18 -166q-69 -326 -350.5 -556.5t-605.5 -230.5q-279 0 -459 175.5t-180 446.5q0 78 18 165q69 330 348.5 561t608.5 231zM809 1649l362 282h215l240 -282h-297l-82 131l-141 -131h-297zM1120 1270q-210 0 -391 -150
t-227 -364q-12 -54 -12 -107q0 -176 115.5 -294.5t293.5 -118.5q207 0 390.5 153.5t228.5 366.5q12 57 12 111q0 173 -114 288t-296 115zM1453 2095l5 33l12 42q0 1 0.5 1.5t0.5 2.5q4 6 7.5 12.5t14.5 21.5h-1q9 19 25.5 37.5t37.5 38.5q17 14 37.5 26.5t49.5 23.5
q62 22 105 22q101 0 157 -69t40 -163q-6 -38 -33.5 -77t-74.5 -74q-38 -32 -62 -68t-30 -74h-180q5 35 23.5 73t51.5 77l104 102q11 8 15.5 20t8.5 28q5 30 -9.5 49t-38.5 19q-25 0 -43 -15q-15 -11 -25.5 -34t-16.5 -55h-181z" />
    <glyph glyph-name=".notdef.025" unicode="&#x1ed5;" 
d="M924 1171q213 0 348 -138q131 -134 131 -341q0 -31 -3 -61t-11 -66q-54 -252 -269.5 -427t-466.5 -175q-212 0 -348.5 137t-136.5 341q0 32 3 60.5t11 63.5q54 253 270.5 429.5t471.5 176.5zM524 1270l363 282h215l239 -282h-297l-83 131l-140 -131h-297zM854 905
q-63 0 -132 -28.5t-124.5 -75t-91.5 -106.5t-51 -130q-4 -21 -6 -37t-2 -36q0 -114 72 -188.5t192 -74.5q143 0 257.5 95.5t147.5 240.5l6 36l2 37q0 113 -75.5 190t-194.5 77zM1167 1716l5 33l12 42q0 1 0.5 1.5t0.5 2.5q4 6 7.5 12.5t14.5 21.5h-1q9 19 25.5 37.5
t37.5 38.5q17 14 37.5 26.5t49.5 23.5q62 22 105 22q101 0 157 -69t40 -163q-6 -38 -33.5 -77t-74.5 -74q-38 -32 -62 -68t-30 -74h-180q5 35 23.5 73t51.5 77l104 102q11 8 15.5 20t8.5 28q5 30 -9.5 49t-38.5 19q-25 0 -43 -15q-15 -11 -25.5 -34t-16.5 -55h-181z" />
    <glyph glyph-name=".notdef.090" unicode="&#x1ed6;" horiz-adv-x="1720" 
d="M1178 1542q281 0 459.5 -177.5t178.5 -448.5q0 -79 -18 -166q-69 -326 -350.5 -556.5t-605.5 -230.5q-279 0 -459 175.5t-180 446.5q0 78 18 165q69 330 348.5 561t608.5 231zM809 1649l362 282h215l240 -282h-297l-82 131l-141 -131h-297zM1120 1270q-210 0 -391 -150
t-227 -364q-12 -54 -12 -107q0 -176 115.5 -294.5t293.5 -118.5q207 0 390.5 153.5t228.5 366.5q12 57 12 111q0 173 -114 288t-296 115zM1051 2024l-61 180q43 34 103.5 55t117.5 21q43 0 94 -18q102 -37 123 -40q35 0 75 15t79 43l63 -174q-56 -42 -107 -66t-108 -24
q-38 0 -145 36q-49 17 -88 17q-72 0 -146 -45z" />
    <glyph glyph-name=".notdef.024" unicode="&#x1ed7;" 
d="M924 1171q213 0 348 -138q131 -134 131 -341q0 -31 -3 -61t-11 -66q-54 -252 -269.5 -427t-466.5 -175q-212 0 -348.5 137t-136.5 341q0 32 3 60.5t11 63.5q54 253 270.5 429.5t471.5 176.5zM524 1270l363 282h215l239 -282h-297l-83 131l-140 -131h-297zM854 905
q-63 0 -132 -28.5t-124.5 -75t-91.5 -106.5t-51 -130q-4 -21 -6 -37t-2 -36q0 -114 72 -188.5t192 -74.5q143 0 257.5 95.5t147.5 240.5l6 36l2 37q0 113 -75.5 190t-194.5 77zM764 1645l-61 180q43 34 103.5 55t117.5 21q43 0 94 -18q102 -37 123 -40q35 0 75 15t79 43
l63 -174q-56 -42 -107 -66t-108 -24q-38 0 -145 36q-49 17 -88 17q-72 0 -146 -45z" />
    <glyph glyph-name=".notdef.089" unicode="&#x1ed8;" horiz-adv-x="1720" 
d="M1178 1542q281 0 459.5 -177.5t178.5 -448.5q0 -77 -18 -166q-69 -324 -350.5 -555.5t-605.5 -231.5q-280 0 -459.5 175.5t-179.5 446.5q0 78 18 165q69 330 348 561t609 231zM809 1649l362 282h215l240 -282h-297l-82 131l-141 -131h-297zM1120 1270
q-209 0 -389.5 -149.5t-228.5 -364.5q-12 -54 -12 -107q0 -176 115.5 -294.5t293.5 -118.5q207 0 390 153t229 367q12 57 12 111q0 172 -114.5 287.5t-295.5 115.5zM627 -406l57 273h272l-57 -273h-272z" />
    <glyph glyph-name=".notdef.023" unicode="&#x1ed9;" 
d="M924 1171q213 0 348 -138q131 -134 131 -341q0 -31 -3 -61t-11 -66q-54 -252 -269.5 -427t-466.5 -175q-212 0 -348.5 137t-136.5 341q0 32 3 60.5t11 63.5q54 253 270.5 429.5t471.5 176.5zM524 1270l363 282h215l239 -282h-297l-83 131l-140 -131h-297zM854 905
q-63 0 -132 -28.5t-124.5 -75t-91.5 -106.5t-51 -130q-4 -21 -6 -37t-2 -36q0 -114 72 -188.5t192 -74.5q143 0 257.5 95.5t147.5 240.5l6 36l2 37q0 113 -75.5 190t-194.5 77zM442 -401l54 247h272l-53 -247h-273z" />
    <glyph glyph-name=".notdef.075" unicode="&#x1eda;" horiz-adv-x="1720" 
d="M1032 1634l-63 189l518 272l63 -213zM1120 1270q-209 0 -389.5 -149.5t-228.5 -364.5q-12 -54 -12 -107q0 -176 115.5 -294.5t293.5 -118.5q207 0 390 153t229 367q12 57 12 111q0 172 -114.5 287.5t-295.5 115.5zM1530 1448l41 192h272l-53 -247h-182
q100 -86 153.5 -208.5t53.5 -269.5v-49l-4 -32v-21q-3 -12 -4 -17l-9 -46q-69 -324 -350.5 -555.5t-605.5 -231.5q-280 0 -459.5 175.5t-179.5 446.5q0 78 18 165q69 330 348 561t609 231q98 0 187 -23t165 -71z" />
    <glyph glyph-name=".notdef.009" unicode="&#x1edb;" 
d="M745 1255l-61 189l518 272l64 -213zM854 905q-63 0 -132 -28.5t-124.5 -75t-91.5 -106.5t-51 -130q-4 -21 -6 -37t-2 -36q0 -114 72 -188.5t192 -74.5q143 0 257.5 95.5t147.5 240.5l6 36l2 37q0 113 -75.5 190t-194.5 77zM1245 1059l27 127h272l-53 -248h-150
q62 -112 62 -246q0 -31 -3 -61t-11 -66q-54 -252 -269.5 -427t-466.5 -175q-212 0 -348.5 137t-136.5 341q0 32 3 60.5t11 63.5q54 253 270.5 429.5t471.5 176.5q99 0 179.5 -28.5t141.5 -83.5z" />
    <glyph glyph-name=".notdef.076" unicode="&#x1edc;" horiz-adv-x="1720" 
d="M1120 1270q-210 0 -391 -150t-227 -364q-12 -54 -12 -107q0 -176 115.5 -294.5t293.5 -118.5q207 0 390.5 153.5t228.5 366.5q12 57 12 111q0 173 -114 288t-296 115zM1530 1448l41 192h272l-53 -247h-182q100 -86 153.5 -208.5t53.5 -269.5v-49q-3 -22 -4 -32
q0 -17 -3.5 -38t-9.5 -46q-69 -326 -350.5 -556.5t-605.5 -230.5q-279 0 -459 175.5t-180 446.5q0 78 18 165q69 330 348.5 561t608.5 231q100 0 188.5 -23.5t163.5 -70.5zM862 1920l139 150l420 -278l-135 -143z" />
    <glyph glyph-name=".notdef.010" unicode="&#x1edd;" 
d="M854 905q-63 0 -132 -28.5t-124.5 -75t-91.5 -106.5t-51 -130q-4 -21 -6 -37t-2 -36q0 -114 72 -188.5t192 -74.5q143 0 257.5 95.5t147.5 240.5l6 36l2 37q0 113 -75.5 190t-194.5 77zM1245 1059l27 127h272l-53 -248h-150q62 -112 62 -246q0 -31 -3 -61t-11 -66
q-54 -252 -269.5 -427t-466.5 -175q-212 0 -348.5 137t-136.5 341q0 32 3 60.5t11 63.5q54 253 270.5 429.5t471.5 176.5q99 0 179.5 -28.5t141.5 -83.5zM616 1526l139 150l420 -278l-135 -143z" />
    <glyph glyph-name=".notdef.074" unicode="&#x1ede;" horiz-adv-x="1720" 
d="M1120 1270q-210 0 -391 -150t-227 -364q-12 -54 -12 -107q0 -176 115.5 -294.5t293.5 -118.5q207 0 390.5 153.5t228.5 366.5q12 57 12 111q0 173 -114 288t-296 115zM1530 1448l41 192h272l-53 -247h-182q100 -86 153.5 -208.5t53.5 -269.5v-49q-3 -22 -4 -32
q0 -17 -3.5 -38t-9.5 -46q-69 -326 -350.5 -556.5t-605.5 -230.5q-279 0 -459 175.5t-180 446.5q0 78 18 165q69 330 348.5 561t608.5 231q100 0 188.5 -23.5t163.5 -70.5zM997 1912l5 33l12 42q0 1 0.5 1.5t0.5 2.5q4 6 7.5 12.5t14.5 21.5h-1q9 19 25.5 37.5t37.5 38.5
q17 14 37.5 26.5t49.5 23.5q62 22 105 22q101 0 157 -69t40 -163q-6 -38 -33.5 -77t-74.5 -74q-38 -32 -62 -68t-30 -74h-180q5 35 23.5 73t51.5 77l104 102q11 8 15.5 20t8.5 28q5 30 -9.5 49t-38.5 19q-25 0 -43 -15q-15 -11 -25.5 -34t-16.5 -55h-181z" />
    <glyph glyph-name=".notdef.008" unicode="&#x1edf;" 
d="M854 905q-63 0 -132 -28.5t-124.5 -75t-91.5 -106.5t-51 -130q-4 -21 -6 -37t-2 -36q0 -114 72 -188.5t192 -74.5q143 0 257.5 95.5t147.5 240.5l6 36l2 37q0 113 -75.5 190t-194.5 77zM1245 1059l27 127h272l-53 -248h-150q62 -112 62 -246q0 -31 -3 -61t-11 -66
q-54 -252 -269.5 -427t-466.5 -175q-212 0 -348.5 137t-136.5 341q0 32 3 60.5t11 63.5q54 253 270.5 429.5t471.5 176.5q99 0 179.5 -28.5t141.5 -83.5zM742 1519l5 33l12 42q0 1 0.5 1.5t0.5 2.5q4 6 7.5 12.5t14.5 21.5h-1q9 19 25.5 37.5t37.5 38.5q17 14 37.5 26.5
t49.5 23.5q62 22 105 22q101 0 157 -69t40 -163q-6 -38 -33.5 -77t-74.5 -74q-38 -32 -62 -68t-30 -74h-180q5 35 23.5 73t51.5 77l104 102q11 8 15.5 20t8.5 28q5 30 -9.5 49t-38.5 19q-25 0 -43 -15q-15 -11 -25.5 -34t-16.5 -55h-181z" />
    <glyph glyph-name=".notdef.073" unicode="&#x1ee0;" horiz-adv-x="1720" 
d="M973 1657l-62 180q42 33 103 54.5t119 21.5q49 0 145 -39q51 -19 72 -19q35 0 74.5 15t78.5 43l64 -174q-52 -41 -104 -65q-25 -11 -56.5 -18t-54.5 -7q-24 0 -49.5 5t-36.5 8.5t-35 12.5q-72 27 -113 27q-73 0 -145 -45zM1120 1270q-209 0 -389.5 -149.5t-228.5 -364.5
q-12 -54 -12 -107q0 -176 115.5 -294.5t293.5 -118.5q207 0 390 153t229 367q12 57 12 111q0 172 -114.5 287.5t-295.5 115.5zM1530 1448l41 192h272l-53 -247h-182q100 -86 153.5 -208.5t53.5 -269.5v-49l-4 -32v-21q-3 -12 -4 -17l-9 -46q-69 -324 -350.5 -555.5
t-605.5 -231.5q-280 0 -459.5 175.5t-179.5 446.5q0 78 18 165q69 330 348 561t609 231q98 0 187 -23t165 -71z" />
    <glyph glyph-name=".notdef.007" unicode="&#x1ee1;" 
d="M688 1278l-63 180q44 34 104.5 55t116.5 21q26 0 61.5 -9t84 -28.5t71.5 -19.5q39 0 77.5 15t76.5 42l65 -174q-55 -42 -104 -65q-25 -11 -54.5 -18t-56.5 -7q-40 0 -147 36q-51 17 -89 17q-71 0 -143 -45zM854 905q-63 0 -132 -28.5t-124.5 -75t-91.5 -106.5t-51 -130
q-4 -21 -6 -37t-2 -36q0 -114 72 -188.5t192 -74.5q143 0 257.5 95.5t147.5 240.5l6 36l2 37q0 113 -75.5 190t-194.5 77zM1245 1059l27 127h272l-53 -248h-150q62 -112 62 -246q0 -31 -3 -61t-11 -66q-54 -252 -269.5 -427t-466.5 -175q-212 0 -348.5 137t-136.5 341
q0 32 3 60.5t11 63.5q54 253 270.5 429.5t471.5 176.5q99 0 179.5 -28.5t141.5 -83.5z" />
    <glyph glyph-name=".notdef.072" unicode="&#x1ee2;" horiz-adv-x="1720" 
d="M625 -414l57 273h272l-57 -273h-272zM1120 1270q-209 0 -389.5 -149.5t-228.5 -364.5q-12 -54 -12 -107q0 -176 115.5 -294.5t293.5 -118.5q207 0 390 153t229 367q12 57 12 111q0 172 -114.5 287.5t-295.5 115.5zM1530 1448l41 192h272l-53 -247h-182
q100 -86 153.5 -208.5t53.5 -269.5v-49l-4 -32v-21q-3 -12 -4 -17l-9 -46q-69 -324 -350.5 -555.5t-605.5 -231.5q-280 0 -459.5 175.5t-179.5 446.5q0 78 18 165q69 330 348 561t609 231q98 0 187 -23t165 -71z" />
    <glyph glyph-name=".notdef.006" unicode="&#x1ee3;" 
d="M440 -410l54 248h272l-53 -248h-273zM854 905q-63 0 -132 -28.5t-124.5 -75t-91.5 -106.5t-51 -130q-4 -21 -6 -37t-2 -36q0 -114 72 -188.5t192 -74.5q143 0 257.5 95.5t147.5 240.5l6 36l2 37q0 113 -75.5 190t-194.5 77zM1245 1059l27 127h272l-53 -248h-150
q62 -112 62 -246q0 -31 -3 -61t-11 -66q-54 -252 -269.5 -427t-466.5 -175q-212 0 -348.5 137t-136.5 341q0 32 3 60.5t11 63.5q54 253 270.5 429.5t471.5 176.5q99 0 179.5 -28.5t141.5 -83.5z" />
    <glyph glyph-name=".notdef.084" unicode="&#x1ee4;" 
d="M461 1513h280l-200 -944l-15 -73q-8 -48 -8 -72v-25l1 -16l7 -18q18 -58 63.5 -93.5t108.5 -35.5q57 0 114 27t96 74.5t64 113.5l12 46l17 72l201 944h281l-201 -944q-27 -135 -64 -216q-48 -111 -133 -193q-93 -90 -212 -143.5t-232 -53.5q-106 0 -198 50.5t-150 133.5
q-28 41 -47 100q-14 58 -14 114l1 54l7 47l7 44q5 34 6 37q5 18 7 26zM428 -412l59 273h273l-60 -273h-272z" />
    <glyph glyph-name=".notdef.018" unicode="&#x1ee5;" horiz-adv-x="1229" 
d="M1090 1135h272l-242 -1135h-250l27 121q-60 -78 -145.5 -118t-182.5 -40q-105 0 -188 39t-135 119q-28 37 -44 87q-13 50 -13 97q0 45 7 90q1 10 5.5 34.5t13.5 64.5l137 641h273l-119 -557l-15 -80q-3 -22 -5 -44t-2 -42q0 -14 1 -30q0 -16 7 -36q15 -53 61 -86
q23 -15 49.5 -23t59.5 -8q95 0 164 54q55 44 95 132q27 60 50 163zM469 -145h272l-55 -261h-272z" />
    <glyph glyph-name=".notdef.086" unicode="&#x1ee6;" 
d="M461 1513h280l-200 -944l-15 -73q-8 -48 -8 -72v-25l1 -16l7 -18q18 -58 63.5 -93.5t108.5 -35.5q57 0 114 27t96 74.5t64 113.5l12 46l17 72l201 944h281l-201 -944q-27 -135 -64 -216q-48 -111 -133 -193q-93 -90 -212 -143.5t-232 -53.5q-106 0 -198 50.5t-150 133.5
q-28 41 -47 100q-14 58 -14 114l1 54l7 47l7 44q5 34 6 37q5 18 7 26zM811 1912l5 33l12 42q0 1 0.5 1.5t0.5 2.5q4 6 7.5 12.5t14.5 21.5h-1q9 19 25.5 37.5t37.5 38.5q17 14 37.5 26.5t49.5 23.5q62 22 105 22q101 0 157 -69t40 -163q-6 -38 -33.5 -77t-74.5 -74
q-38 -32 -62 -68t-30 -74h-180q5 35 23.5 73t51.5 77l104 102q11 8 15.5 20t8.5 28q5 30 -9.5 49t-38.5 19q-25 0 -43 -15q-15 -11 -25.5 -34t-16.5 -55h-181z" />
    <glyph glyph-name=".notdef.020" unicode="&#x1ee7;" horiz-adv-x="1229" 
d="M1090 1135h272l-242 -1135h-250l27 121q-60 -78 -145.5 -118t-182.5 -40q-105 0 -188 39t-135 119q-28 37 -44 87q-13 50 -13 97q0 45 7 90q1 10 5.5 34.5t13.5 64.5l137 641h273l-119 -557l-15 -80q-3 -22 -5 -44t-2 -42q0 -14 1 -30q0 -16 7 -36q15 -53 61 -86
q23 -15 49.5 -23t59.5 -8q95 0 164 54q55 44 95 132q27 60 50 163zM689 1520l5 33l12 42q0 1 0.5 1.5t0.5 2.5q4 6 7.5 12.5t14.5 21.5h-1q9 19 25.5 37.5t37.5 38.5q17 14 37.5 26.5t49.5 23.5q62 22 105 22q101 0 157 -69t40 -163q-6 -38 -33.5 -77t-74.5 -74
q-38 -32 -62 -68t-30 -74h-180q5 35 23.5 73t51.5 77l104 102q11 8 15.5 20t8.5 28q5 30 -9.5 49t-38.5 19q-25 0 -43 -15q-15 -11 -25.5 -34t-16.5 -55h-181z" />
    <glyph glyph-name=".notdef.081" unicode="&#x1ee8;" 
d="M827 1634l-63 189l518 272l64 -213zM1456 1393l-174 -824q-27 -135 -64 -216q-48 -111 -133 -193q-93 -90 -212 -143.5t-232 -53.5q-106 0 -198 50.5t-150 133.5q-28 41 -47 100q-14 58 -14 114l1 54l7 47l7 44q5 34 6 37q5 18 7 26l201 944h280l-200 -944l-15 -73
q-8 -48 -8 -72v-25l1 -16l7 -18q18 -58 63.5 -93.5t108.5 -35.5q57 0 114 27t96 74.5t64 113.5l12 46l17 72l201 944h199l26 127h273l-53 -247h-191z" />
    <glyph glyph-name=".notdef.015" unicode="&#x1ee9;" horiz-adv-x="1229" 
d="M705 1255l-62 189l518 272l64 -213zM1321 944l-201 -944h-250l27 121q-60 -78 -145.5 -118t-182.5 -40q-105 0 -188 39t-135 119q-28 37 -44 87q-13 50 -13 97q0 45 7 90q1 10 5.5 34.5t13.5 64.5l137 641h273l-119 -557l-15 -80q-3 -22 -5 -44t-2 -42q0 -14 1 -30
q0 -16 7 -36q15 -53 61 -86q23 -15 49.5 -23t59.5 -8q95 0 164 54q55 44 95 132q27 60 50 163l119 557h200l13 57h272l-53 -248h-201z" />
    <glyph glyph-name=".notdef.082" unicode="&#x1eea;" horiz-adv-x="1453" 
d="M1456 1393l-174 -824q-27 -134 -64 -216q-48 -111 -133 -193q-94 -90 -212.5 -143.5t-231.5 -53.5q-106 0 -198.5 50.5t-149.5 133.5q-30 44 -47 100q-14 56 -14 114q0 39 1.5 54.5t6.5 46.5q2 16 7 44.5t13 62.5l201 944h280l-200 -944l-15 -73q-8 -45 -8 -72v-25
q0 -10 1.5 -15.5t6.5 -18.5q18 -59 63 -94t109 -35q56 0 114.5 28t97.5 75.5t62 111.5q6 19 12.5 46.5t16.5 71.5l201 944h199l26 127h273l-53 -247h-191zM674 1920l139 150l420 -278l-135 -143z" />
    <glyph glyph-name=".notdef.016" unicode="&#x1eeb;" horiz-adv-x="1229" 
d="M1321 944l-201 -944h-250l27 121q-60 -78 -145.5 -118t-182.5 -40q-105 0 -188 39t-135 119q-28 37 -44 87q-13 50 -13 97q0 45 7 90q1 10 5.5 34.5t13.5 64.5l137 641h273l-119 -557l-15 -80q-3 -22 -5 -44t-2 -42q0 -14 1 -30q0 -16 7 -36q15 -53 61 -86
q23 -15 49.5 -23t59.5 -8q95 0 164 54q55 44 95 132q27 60 50 163l119 557h200l13 57h272l-53 -248h-201zM576 1526l139 150l420 -278l-135 -143z" />
    <glyph glyph-name=".notdef.080" unicode="&#x1eec;" horiz-adv-x="1453" 
d="M1456 1393l-174 -824q-27 -134 -64 -216q-48 -111 -133 -193q-94 -90 -212.5 -143.5t-231.5 -53.5q-106 0 -198.5 50.5t-149.5 133.5q-30 44 -47 100q-14 56 -14 114q0 39 1.5 54.5t6.5 46.5q2 16 7 44.5t13 62.5l201 944h280l-200 -944l-15 -73q-8 -45 -8 -72v-25
q0 -10 1.5 -15.5t6.5 -18.5q18 -59 63 -94t109 -35q56 0 114.5 28t97.5 75.5t62 111.5q6 19 12.5 46.5t16.5 71.5l201 944h199l26 127h273l-53 -247h-191zM811 1912l5 33l12 42q0 1 0.5 1.5t0.5 2.5q4 6 7.5 12.5t14.5 21.5h-1q9 19 25.5 37.5t37.5 38.5q17 14 37.5 26.5
t49.5 23.5q62 22 105 22q101 0 157 -69t40 -163q-6 -38 -33.5 -77t-74.5 -74q-38 -32 -62 -68t-30 -74h-180q5 35 23.5 73t51.5 77l104 102q11 8 15.5 20t8.5 28q5 30 -9.5 49t-38.5 19q-25 0 -43 -15q-15 -11 -25.5 -34t-16.5 -55h-181z" />
    <glyph glyph-name=".notdef.014" unicode="&#x1eed;" horiz-adv-x="1229" 
d="M1321 944l-201 -944h-250l27 121q-60 -78 -145.5 -118t-182.5 -40q-105 0 -188 39t-135 119q-28 37 -44 87q-13 50 -13 97q0 45 7 90q1 10 5.5 34.5t13.5 64.5l137 641h273l-119 -557l-15 -80q-3 -22 -5 -44t-2 -42q0 -14 1 -30q0 -16 7 -36q15 -53 61 -86
q23 -15 49.5 -23t59.5 -8q95 0 164 54q55 44 95 132q27 60 50 163l119 557h200l13 57h272l-53 -248h-201zM689 1520l5 33l12 42q0 1 0.5 1.5t0.5 2.5q4 6 7.5 12.5t14.5 21.5h-1q9 19 25.5 37.5t37.5 38.5q17 14 37.5 26.5t49.5 23.5q62 22 105 22q101 0 157 -69t40 -163
q-6 -38 -33.5 -77t-74.5 -74q-38 -32 -62 -68t-30 -74h-180q5 35 23.5 73t51.5 77l104 102q11 8 15.5 20t8.5 28q5 30 -9.5 49t-38.5 19q-25 0 -43 -15q-15 -11 -25.5 -34t-16.5 -55h-181z" />
    <glyph glyph-name=".notdef.079" unicode="&#x1eee;" 
d="M748 1657l-62 180q42 33 103 54.5t118 21.5q43 0 94 -18q102 -37 123 -40q39 0 78 15t76 43l63 -174q-56 -42 -107 -66t-108 -24q-38 0 -145 36q-49 17 -88 17q-73 0 -145 -45zM1456 1393l-174 -824q-27 -135 -64 -216q-48 -111 -133 -193q-93 -90 -212 -143.5
t-232 -53.5q-106 0 -198 50.5t-150 133.5q-28 41 -47 100q-14 58 -14 114l1 54l7 47l7 44q5 34 6 37q5 18 7 26l201 944h280l-200 -944l-15 -73q-8 -48 -8 -72v-25l1 -16l7 -18q18 -58 63.5 -93.5t108.5 -35.5q57 0 114 27t96 74.5t64 113.5l12 46l17 72l201 944h199l26 127
h273l-53 -247h-191z" />
    <glyph glyph-name=".notdef.013" unicode="&#x1eef;" horiz-adv-x="1229" 
d="M655 1298l-63 181q44 35 105.5 55t115.5 20q26 0 61.5 -9t84 -28.5t71.5 -19.5q21 0 39 3t39 11q39 15 76 43l65 -174q-54 -41 -106.5 -65.5t-108.5 -24.5q-40 0 -147 36q-51 17 -88 17q-29 0 -41 -2t-33 -9q-35 -11 -70 -34zM1321 944l-201 -944h-250l27 121
q-60 -78 -145.5 -118t-182.5 -40q-105 0 -188 39t-135 119q-28 37 -44 87q-13 50 -13 97q0 45 7 90q1 10 5.5 34.5t13.5 64.5l137 641h273l-119 -557l-15 -80q-3 -22 -5 -44t-2 -42q0 -14 1 -30q0 -16 7 -36q15 -53 61 -86q23 -15 49.5 -23t59.5 -8q95 0 164 54
q55 44 95 132q27 60 50 163l119 557h200l13 57h272l-53 -248h-201z" />
    <glyph glyph-name=".notdef.078" unicode="&#x1ef0;" 
d="M428 -412l59 273h273l-60 -273h-272zM1456 1393l-174 -824q-27 -135 -64 -216q-48 -111 -133 -193q-93 -90 -212 -143.5t-232 -53.5q-106 0 -198 50.5t-150 133.5q-28 41 -47 100q-14 58 -14 114l1 54l7 47l7 44q5 34 6 37q5 18 7 26l201 944h280l-200 -944l-15 -73
q-8 -48 -8 -72v-25l1 -16l7 -18q18 -58 63.5 -93.5t108.5 -35.5q57 0 114 27t96 74.5t64 113.5l12 46l17 72l201 944h199l26 127h273l-53 -247h-191z" />
    <glyph glyph-name=".notdef.012" unicode="&#x1ef1;" horiz-adv-x="1229" 
d="M469 -145h272l-55 -261h-272zM1321 944l-201 -944h-250l27 121q-60 -78 -145.5 -118t-182.5 -40q-105 0 -188 39t-135 119q-28 37 -44 87q-13 50 -13 97q0 45 7 90q1 10 5.5 34.5t13.5 64.5l137 641h273l-119 -557l-15 -80q-3 -22 -5 -44t-2 -42q0 -14 1 -30q0 -16 7 -36
q15 -53 61 -86q23 -15 49.5 -23t59.5 -8q95 0 164 54q55 44 95 132q27 60 50 163l119 557h200l13 57h272l-53 -248h-201z" />
    <glyph glyph-name=".notdef.071" unicode="&#x1ef2;" horiz-adv-x="1270" 
d="M504 0l119 559l-295 954h309l182 -696l477 696h308l-701 -954l-119 -559h-280zM711 1920l139 150l420 -278l-135 -143z" />
    <glyph glyph-name=".notdef.005" unicode="&#x1ef3;" horiz-adv-x="1188" 
d="M139 -379l312 485l-197 1029h309l105 -727l428 727h309l-973 -1514h-293zM524 1526l139 150l420 -278l-135 -143z" />
    <glyph glyph-name=".notdef.067" unicode="&#x1ef4;" horiz-adv-x="1270" 
d="M504 0l119 559l-295 954h309l182 -696l477 696h308l-701 -954l-119 -559h-280zM428 -412l59 273h273l-60 -273h-272z" />
    <glyph glyph-name=".notdef.001" unicode="&#x1ef5;" horiz-adv-x="1188" 
d="M139 -379l312 485l-197 1029h309l105 -727l428 727h309l-973 -1514h-293zM680 -145h272l-55 -261h-272z" />
    <glyph glyph-name=".notdef.069" unicode="&#x1ef6;" horiz-adv-x="1270" 
d="M504 0l119 559l-295 954h309l182 -696l477 696h308l-701 -954l-119 -559h-280zM788 1912l5 33l12 42q0 1 0.5 1.5t0.5 2.5q4 6 7.5 12.5t14.5 21.5h-1q9 19 25.5 37.5t37.5 38.5q17 14 37.5 26.5t49.5 23.5q62 22 105 22q101 0 157 -69t40 -163q-6 -38 -33.5 -77
t-74.5 -74q-38 -32 -62 -68t-30 -74h-180q5 35 23.5 73t51.5 77l104 102q11 8 15.5 20t8.5 28q5 30 -9.5 49t-38.5 19q-25 0 -43 -15q-15 -11 -25.5 -34t-16.5 -55h-181z" />
    <glyph glyph-name=".notdef.003" unicode="&#x1ef7;" horiz-adv-x="1188" 
d="M139 -379l312 485l-197 1029h309l105 -727l428 727h309l-973 -1514h-293zM663 1520l5 33l12 42q0 1 0.5 1.5t0.5 2.5q4 6 7.5 12.5t14.5 21.5h-1q9 19 25.5 37.5t37.5 38.5q17 14 37.5 26.5t49.5 23.5q62 22 105 22q101 0 157 -69t40 -163q-6 -38 -33.5 -77t-74.5 -74
q-38 -32 -62 -68t-30 -74h-180q5 35 23.5 73t51.5 77l104 102q11 8 15.5 20t8.5 28q5 30 -9.5 49t-38.5 19q-25 0 -43 -15q-15 -11 -25.5 -34t-16.5 -55h-181z" />
    <glyph glyph-name=".notdef.068" unicode="&#x1ef8;" horiz-adv-x="1270" 
d="M504 0l119 559l-295 954h309l182 -696l477 696h308l-701 -954l-119 -559h-280zM748 1657l-62 180q42 33 103 54.5t118 21.5q43 0 94 -18q102 -37 123 -40q39 0 78 15t76 43l63 -174q-56 -42 -107 -66t-108 -24q-38 0 -145 36q-49 17 -88 17q-73 0 -145 -45z" />
    <glyph glyph-name=".notdef.002" unicode="&#x1ef9;" horiz-adv-x="1188" 
d="M139 -379l312 485l-197 1029h309l105 -727l428 727h309l-973 -1514h-293zM627 1278l-64 180q46 34 106 55t115 21q54 0 124 -28.5t93 -28.5q38 0 78 15t76 42l66 -174q-55 -42 -104 -65q-25 -11 -54.5 -18t-56.5 -7q-25 0 -54 6t-68 20q-72 27 -114 27q-71 0 -143 -45z
" />
    <glyph glyph-name="quoteleft" unicode="&#x2018;" horiz-adv-x="451" 
d="M375 1051l98 462h156l-99 -462h-155z" />
    <glyph glyph-name="quoteright" unicode="&#x2019;" horiz-adv-x="451" 
d="M375 1051l98 462h156l-99 -462h-155z" />
    <glyph glyph-name="quotedblleft" unicode="&#x201c;" horiz-adv-x="737" 
d="M375 1051l98 462h154l-99 -462h-153zM649 1051l99 462h153l-98 -462h-154z" />
    <glyph glyph-name="quotedblright" unicode="&#x201d;" horiz-adv-x="737" 
d="M375 1051l98 462h154l-99 -462h-153zM649 1051l99 462h153l-98 -462h-154z" />
    <glyph glyph-name="ellipsis" unicode="&#x2026;" horiz-adv-x="2048" 
d="M205 0l57 272h273l-58 -272h-272zM887 0l57 272h273l-58 -272h-272zM1569 0l57 272h272l-57 -272h-272z" />
    <glyph glyph-name="ugrave" horiz-adv-x="582" 
 />
    <glyph glyph-name="uacute" horiz-adv-x="580" 
 />
    <glyph glyph-name="yacute" horiz-adv-x="629" 
 />
  </font>
</defs>
</svg>
