<?xml version="1.0" standalone="no"?>
<!DOCTYPE svg PUBLIC "-//W3C//DTD SVG 1.1//EN" "http://www.w3.org/Graphics/SVG/1.1/DTD/svg11.dtd" >
<svg xmlns="http://www.w3.org/2000/svg" xmlns:xlink="http://www.w3.org/1999/xlink" version="1.1">
<metadata>
Created by FontForge 20170731 at Mon Jan 18 17:58:33 2021
 By Aleksey,,,
Copyright  2010 by Ryoichi Tsunekawa. All rights reserved.
</metadata>
<defs>
<font id="SVN-BebasNeue" horiz-adv-x="796" >
  <font-face 
    font-family="SVN-Bebas Neue"
    font-weight="400"
    font-stretch="normal"
    units-per-em="2048"
    panose-1="0 0 5 0 0 0 0 0 0 0"
    ascent="1536"
    descent="-512"
    x-height="1434"
    cap-height="1434"
    bbox="-162 -362 1702 2075"
    underline-thickness="102"
    underline-position="-327"
    unicode-range="U+0020-F6C3"
  />
<missing-glyph horiz-adv-x="1122" 
d="M102 1434h918v-1434h-918v1434zM475 733l-225 -575h112l189 483l188 -483h127l-225 575l211 541h-113l-176 -447l-174 447h-125z" />
    <glyph glyph-name=".notdef" horiz-adv-x="1122" 
d="M102 1434h918v-1434h-918v1434zM475 733l-225 -575h112l189 483l188 -483h127l-225 575l211 541h-113l-176 -447l-174 447h-125z" />
    <glyph glyph-name=".null" horiz-adv-x="0" 
 />
    <glyph glyph-name="nonmarkingreturn" horiz-adv-x="317" 
 />
    <glyph glyph-name="space" unicode=" " horiz-adv-x="317" 
 />
    <glyph glyph-name="exclam" unicode="!" horiz-adv-x="323" 
d="M82 760v674h160v-674l-21 -443h-119zM238 199v-199h-154v199h154z" />
    <glyph glyph-name="quotedbl" unicode="&#x22;" horiz-adv-x="542" 
d="M236 1434l-23 -387h-111l-20 387h154zM461 1434l-23 -387h-110l-21 387h154z" />
    <glyph glyph-name="numbersign" unicode="#" horiz-adv-x="843" 
d="M670 967l-43 -420h114l-12 -115h-115l-45 -432h-131l45 432h-186l-47 -432h-131l47 432h-119l12 115h117l45 420h-121l13 114h118l37 353h131l-37 -353h189l37 353h131l-37 -353h115l-13 -114h-114zM539 967h-187l-45 -420h189z" />
    <glyph glyph-name="dollar" unicode="$" horiz-adv-x="792" 
d="M463 1427q131 -18 192 -112q62 -95 62 -240v-39h-150v49q0 98 -40 151q-41 54 -126 54q-86 0 -125 -54q-38 -53 -38 -151q0 -82 35 -137q36 -57 89 -104q56 -49 116 -91q60 -41 116 -99q53 -55 89 -125q36 -71 36 -171q0 -146 -63 -240q-64 -96 -193 -114v-108h-131v108
q-135 18 -197 113q-61 94 -61 241v88h149v-98q0 -97 41 -150t127 -53q87 0 128 53q40 52 40 150q0 80 -36 137q-38 59 -89 105q-54 48 -115 91q-60 42 -114 98q-53 55 -89 125t-36 171q0 149 61 240t191 112v115h131v-115z" />
    <glyph glyph-name="percent" unicode="%" horiz-adv-x="1261" 
d="M279 1442q104 0 154 -64t50 -168v-452q0 -104 -50 -168t-154 -64q-105 0 -155 64t-50 168v452q0 104 50 168t155 64zM956 1434l-565 -1434h-96l565 1434h96zM279 1348q-55 0 -79 -36t-24 -95v-467q0 -60 24 -95q24 -34 79 -34q53 0 77 34q25 36 25 95v467q0 57 -25 95
q-24 36 -77 36zM983 905q107 0 156 -62t49 -167v-451q0 -106 -49 -168q-49 -63 -156 -63q-105 0 -155 63q-50 64 -50 168v451q0 103 50 167q49 62 155 62zM983 811q-54 0 -78 -35q-24 -34 -24 -94v-465q0 -59 24 -95t78 -36t78 36t24 95v465q0 60 -24 94q-24 35 -78 35z" />
    <glyph glyph-name="ampersand" unicode="&#x26;" horiz-adv-x="835" 
d="M426 1288q-92 0 -138 -49t-46 -154v-71q0 -92 44 -142q43 -48 122 -53h161v160h158v-160h70v-143h-70v-494q0 -58 4 -97q5 -45 27 -85h-162q-12 28 -18 52q-8 33 -9 73q-31 -71 -89 -105t-136 -34q-135 0 -198 88q-62 87 -62 241v140q0 106 40 185q41 80 130 114
q-88 30 -129 107t-41 186v32q0 171 83 263t255 92h231v-146h-227zM420 676q-178 -6 -178 -217v-131q0 -97 41 -147t125 -50q70 0 113 40q44 41 48 124v381h-149z" />
    <glyph glyph-name="quotesingle" unicode="'" horiz-adv-x="309" 
d="M231 1434l-22 -387h-111l-20 387h153z" />
    <glyph glyph-name="parenleft" unicode="(" horiz-adv-x="493" 
d="M397 1303q-83 0 -115 -46t-32 -139v-803q0 -93 31 -139q30 -45 116 -45h47v-131h-57q-163 0 -229 77t-66 238v803q0 162 66 239t229 77h57v-131h-47z" />
    <glyph glyph-name="parenright" unicode=")" horiz-adv-x="493" 
d="M106 1434q164 0 230 -77q65 -75 65 -239v-803q0 -163 -65 -238q-66 -77 -230 -77h-57v131h47q87 0 117 45q31 46 31 139v803q0 93 -32 139t-116 46h-47v131h57z" />
    <glyph glyph-name="asterisk" unicode="*" horiz-adv-x="808" 
d="M453 1044l217 -239l-105 -78l-162 285l-159 -285l-105 78l215 239l-317 66l39 125l299 -131l-37 323h131l-35 -323l299 129l39 -125z" />
    <glyph glyph-name="plus" unicode="+" horiz-adv-x="802" 
d="M459 659v-288h-115v288h-283v115h283v285h115v-285h282v-115h-282z" />
    <glyph glyph-name="comma" unicode="," horiz-adv-x="327" 
d="M152 0h-60v199h154v-185l-80 -194h-66z" />
    <glyph glyph-name="hyphen" unicode="-" horiz-adv-x="542" 
d="M76 788h391v-143h-391v143z" />
    <glyph glyph-name="period" unicode="." horiz-adv-x="317" 
d="M236 199v-199h-154v199h154z" />
    <glyph glyph-name="slash" unicode="/" horiz-adv-x="770" 
d="M737 1434l-565 -1434h-139l565 1434h139z" />
    <glyph glyph-name="zero" unicode="0" 
d="M70 1087q0 167 81 264t246 97q166 0 248 -97t82 -264v-739q0 -166 -82 -264t-248 -98t-246 98q-81 99 -81 264v739zM227 338q0 -99 42 -153t128 -54q89 0 129 54q41 55 41 153v758q0 97 -41 153t-129 56q-86 0 -128 -56q-42 -55 -42 -153v-758z" />
    <glyph glyph-name="one" unicode="1" horiz-adv-x="692" 
d="M375 1174q-41 -24 -91 -41q-49 -16 -108 -21v131q55 1 98 19t69 42q30 28 46 59q20 38 33 71h110v-1434h-157v1174z" />
    <glyph glyph-name="two" unicode="2" horiz-adv-x="792" 
d="M403 1448q169 0 246 -98q78 -99 78 -265q0 -108 -36 -195t-90 -162q-51 -71 -117 -140q-62 -65 -116 -131q-56 -69 -92 -136q-36 -68 -36 -153v-23h471v-145h-629v123q0 115 36 203q36 87 90 160q59 78 117 138q57 59 116 132q55 68 90 145q36 78 36 178q0 111 -39 168
q-40 58 -129 58q-87 0 -128 -58q-40 -56 -40 -153v-127h-149v116q0 167 78 266t243 99z" />
    <glyph glyph-name="three" unicode="3" horiz-adv-x="792" 
d="M395 1448q166 0 245 -97t79 -264v-36q0 -110 -44 -187q-42 -74 -130 -108q92 -35 133 -112t41 -185v-111q0 -166 -79 -264t-245 -98q-163 0 -242 99q-79 98 -79 263v98h149v-108q0 -98 41 -153q40 -54 127 -54q88 0 128 55t40 166v111q0 207 -180 213h-86v143h94
q80 5 126 53q46 49 46 144v65q0 111 -40 167q-41 57 -128 57q-86 0 -127 -56t-41 -153v-74h-149v65q0 167 78 264t243 97z" />
    <glyph glyph-name="four" unicode="4" horiz-adv-x="819" 
d="M664 289v-289h-156v289h-463v145l444 1000h175v-1000h114v-145h-114zM193 434h315v701z" />
    <glyph glyph-name="five" unicode="5" horiz-adv-x="792" 
d="M242 850q69 119 213 119q139 0 202 -93q64 -94 64 -247v-281q0 -163 -80 -263q-79 -99 -244 -99q-162 0 -242 99q-79 98 -79 263v96h149v-106q0 -98 41 -153q40 -54 127 -54q86 0 127 54q41 55 41 153v278q0 98 -41 153q-41 54 -127 54q-64 0 -108 -38t-54 -115v-33h-149
l39 797h565v-144h-422z" />
    <glyph glyph-name="six" unicode="6" 
d="M401 1448q165 0 245 -96q79 -95 79 -262v-27h-150v37q0 99 -40 151q-42 54 -129 54q-93 0 -134 -58t-41 -174v-321q28 72 87 113q58 40 145 40q140 0 203 -92q63 -91 63 -248v-217q0 -165 -81 -264q-80 -98 -247 -98q-165 0 -247 98t-82 264v731q0 173 79 271t250 98z
M401 760q-89 0 -129 -54q-41 -55 -41 -153v-215q0 -98 41 -153q40 -54 129 -54q86 0 128 54t42 153v215q0 99 -42 153t-128 54z" />
    <glyph glyph-name="seven" unicode="7" horiz-adv-x="792" 
d="M559 1290h-487v144h649v-140l-369 -1294h-159z" />
    <glyph glyph-name="eight" unicode="8" horiz-adv-x="802" 
d="M401 1448q167 0 252 -94q86 -95 86 -260v-45q0 -111 -39 -187q-38 -74 -125 -108q89 -34 127 -115q37 -78 37 -188v-107q0 -167 -85 -262q-86 -96 -253 -96t-253 96q-85 95 -85 262v107q0 111 37 188t129 115q-88 34 -127 109t-39 186v45q0 164 87 260q85 94 251 94z
M401 1305q-86 0 -133 -53t-47 -162v-70q0 -104 47 -153q46 -48 133 -48t134 48q47 49 47 153v70q0 109 -47 162t-134 53zM401 676q-180 0 -180 -207v-121q0 -111 47 -164t133 -53t133 53q46 52 48 164v121q0 207 -181 207z" />
    <glyph glyph-name="nine" unicode="9" 
d="M395 1448q166 0 248 -97t82 -264v-731q0 -169 -80 -270q-79 -100 -252 -100q-166 0 -245 97q-78 96 -78 263v27h149v-37q0 -100 42 -152q42 -53 128 -53q92 0 134 57t42 172v322q-60 -152 -231 -152q-140 0 -203 92t-63 246v219q0 168 80 264q81 97 247 97zM395 1303
q-85 0 -128 -55q-42 -54 -42 -152v-215q0 -99 42 -153t128 -54q89 0 129 54q41 55 41 153v215q0 97 -41 152t-129 55z" />
    <glyph glyph-name="colon" unicode=":" horiz-adv-x="317" 
d="M236 979v-199h-154v199h154zM236 199v-199h-154v199h154z" />
    <glyph glyph-name="semicolon" unicode=";" horiz-adv-x="327" 
d="M246 979v-199h-154v199h154zM152 0h-60v199h154v-185l-80 -194h-66z" />
    <glyph glyph-name="less" unicode="&#x3c;" horiz-adv-x="784" 
d="M702 399l-634 260v115l634 260v-116l-485 -201l485 -201v-117z" />
    <glyph glyph-name="equal" unicode="=" horiz-adv-x="716" 
d="M641 934v-115h-565v115h565zM641 643v-115h-565v115h565z" />
    <glyph glyph-name="greater" unicode="&#x3e;" horiz-adv-x="784" 
d="M82 516l485 201l-485 201v116l635 -260v-115l-635 -260v117z" />
    <glyph glyph-name="question" unicode="?" horiz-adv-x="739" 
d="M373 1448q166 0 242 -98q77 -100 77 -265q0 -85 -21 -151q-18 -58 -53 -120q-28 -50 -68 -100q-45 -56 -69 -93q-31 -48 -52 -102t-21 -122q0 -39 10 -78h-144q-3 12 -7 38q-3 19 -3 44q0 76 20 138q18 55 50 108q30 50 64 94q33 42 65 96q31 51 50 111t19 146
q0 98 -37 154q-37 57 -126 57q-88 0 -126 -58t-38 -153v-127h-150v116q0 79 19 149q18 68 57 115q38 46 99 74q60 27 143 27zM420 199v-199h-152v199h152z" />
    <glyph glyph-name="at" unicode="@" horiz-adv-x="1411" 
d="M801 1505q153 0 261 -45q107 -45 173 -124q65 -78 95 -186t30 -235q0 -150 -32 -270q-32 -119 -84 -201q-51 -81 -120 -125q-67 -43 -139 -43q-151 0 -162 140q-30 -67 -83 -105q-51 -37 -128 -35q-114 1 -158 90q-45 90 -30 224l22 205q15 142 77 222q63 81 177 77
q70 0 114 -35q45 -36 63 -101l14 127h139l-61 -587q-4 -34 8 -62q12 -26 51 -26q58 0 99 50t65 125q25 78 35 163q10 84 10 163q0 105 -26 194q-26 87 -79 148q-54 61 -138 95q-80 32 -197 32q-155 0 -267 -60q-111 -59 -187 -167q-75 -107 -111 -253q-35 -143 -35 -318
q0 -134 30 -239q29 -103 95 -178q65 -74 161 -112q99 -39 232 -39q108 0 207 27t196 102l-12 -141q-94 -65 -193 -88q-101 -23 -206 -23q-167 0 -292 51q-121 50 -201 141q-80 92 -117 220q-38 131 -38 287q0 180 44 348q42 161 137 292q92 126 231 201q138 74 330 74z
M741 954q-72 2 -109 -44q-38 -47 -48 -130l-19 -184q-10 -78 18 -131q27 -52 99 -53q72 -2 110 48q37 49 48 134l20 197q8 73 -21 117q-30 46 -98 46z" />
    <glyph glyph-name="A" unicode="A" horiz-adv-x="864" 
d="M244 289l-56 -289h-147l274 1434h232l274 -1434h-159l-56 289h-362zM264 426h320l-162 827z" />
    <glyph glyph-name="B" unicode="B" horiz-adv-x="802" 
d="M403 1434q168 0 240 -79t72 -239v-67q0 -116 -37 -186q-38 -71 -131 -99q104 -28 148 -109q44 -80 44 -198v-121q0 -161 -80 -249q-79 -87 -247 -87h-330v1434h321zM365 825q96 0 144 39t48 152v84q0 96 -36 142t-122 46h-157v-463h123zM412 145q170 0 170 195v127
q0 121 -48 167q-47 46 -153 46h-139v-535h170z" />
    <glyph glyph-name="C" unicode="C" horiz-adv-x="778" 
d="M391 1448q166 0 245 -98t79 -263v-129h-152v138q0 99 -40 152q-41 55 -128 55q-86 0 -127 -55t-41 -152v-758q0 -98 41 -153q40 -54 127 -54t128 54q40 53 40 153v186h152v-178q0 -164 -79 -262t-245 -98q-164 0 -243 98q-78 97 -78 262v741q0 85 19 149q21 70 59 114
q40 46 101 72t142 26z" />
    <glyph glyph-name="D" unicode="D" horiz-adv-x="811" 
d="M418 1434q166 0 247 -96q78 -93 78 -261v-723q0 -167 -78 -260q-79 -94 -247 -94h-336v1434h336zM416 145q86 0 128 53q42 52 42 150v737q0 99 -42 151t-130 52h-172v-1143h174z" />
    <glyph glyph-name="E" unicode="E" horiz-adv-x="737" 
d="M592 799v-144h-350v-510h430v-145h-590v1434h590v-146h-430v-489h350z" />
    <glyph glyph-name="F" unicode="F" horiz-adv-x="696" 
d="M571 766v-145h-329v-621h-160v1434h569v-146h-409v-522h329z" />
    <glyph glyph-name="G" unicode="G" horiz-adv-x="784" 
d="M391 1448q166 0 245 -98t79 -263v-122h-152v131q0 99 -40 152q-41 55 -128 55q-86 0 -127 -55t-41 -152v-758q0 -98 41 -153q40 -54 127 -54t128 54q40 53 40 153v287h-147v143h299v-422q0 -164 -79 -262t-245 -98q-164 0 -243 98q-78 97 -78 262v741q0 85 19 149
q21 70 59 114q40 46 101 72t142 26z" />
    <glyph glyph-name="H" unicode="H" horiz-adv-x="835" 
d="M242 645v-645h-160v1434h160v-646h352v646h160v-1434h-160v645h-352z" />
    <glyph glyph-name="I" unicode="I" horiz-adv-x="323" 
d="M242 1434v-1434h-160v1434h160z" />
    <glyph glyph-name="J" unicode="J" horiz-adv-x="522" 
d="M41 145q28 -2 41 -2h39q78 5 123 48t45 153v1090h157v-1080q0 -103 -23 -168q-23 -66 -65 -109q-41 -42 -97 -60q-55 -17 -120 -19q-36 0 -51 -1q-22 -1 -49 3v145z" />
    <glyph glyph-name="K" unicode="K" horiz-adv-x="837" 
d="M326 623l-84 -142v-481h-160v1434h160v-693l381 693h161l-362 -654l375 -780h-164z" />
    <glyph glyph-name="L" unicode="L" horiz-adv-x="690" 
d="M82 0v1434h160v-1289h409v-145h-569z" />
    <glyph glyph-name="M" unicode="M" horiz-adv-x="1071" 
d="M610 2h-153l-238 1141v-1143h-139v1434h223l236 -1145l227 1145h223v-1434h-151v1153z" />
    <glyph glyph-name="N" unicode="N" horiz-adv-x="837" 
d="M223 0h-143v1434h203l331 -1037v1037h142v-1434h-166l-367 1159v-1159z" />
    <glyph glyph-name="O" unicode="O" 
d="M70 1087q0 167 81 264t246 97q166 0 248 -97t82 -264v-741q0 -164 -82 -262t-248 -98t-246 98q-81 99 -81 262v741zM227 338q0 -99 42 -153t128 -54q89 0 129 54q41 55 41 153v758q0 97 -41 152t-129 55q-85 0 -128 -55q-42 -54 -42 -152v-758z" />
    <glyph glyph-name="P" unicode="P" horiz-adv-x="765" 
d="M395 1434q169 0 246 -94q76 -92 76 -257v-172q0 -172 -81 -259t-253 -87h-141v-565h-160v1434h313zM383 709q89 0 133 44q43 43 43 148v191q0 97 -38 147q-37 49 -126 49h-153v-579h141z" />
    <glyph glyph-name="Q" unicode="Q" horiz-adv-x="823" 
d="M397 1448q166 0 248 -97t82 -264v-741q0 -138 -55 -223q12 -27 33 -36t55 -9h20v-141h-26q-132 0 -183 92q-32 -20 -77 -32q-40 -11 -97 -11q-166 0 -246 98q-81 99 -81 262v741q0 167 81 264t246 97zM397 1303q-85 0 -128 -55q-42 -54 -42 -152v-758q0 -99 42 -153
t128 -54q89 0 129 54q41 55 41 153v758q0 97 -41 152t-129 55z" />
    <glyph glyph-name="R" unicode="R" horiz-adv-x="806" 
d="M401 1434q170 0 245 -84t75 -244v-117q0 -119 -43 -192q-44 -75 -135 -103q98 -28 139 -105t41 -194v-223q0 -52 4 -91q5 -45 25 -81h-162q-15 30 -21 67q-6 36 -6 107v225q0 121 -54 167q-53 46 -155 46h-112v-612h-160v1434h319zM360 758q98 0 150 40q53 41 53 156v138
q0 97 -38 147q-37 49 -128 49h-155v-530h118z" />
    <glyph glyph-name="S" unicode="S" horiz-adv-x="761" 
d="M383 1448q164 0 242 -97q77 -96 77 -261v-39h-151v47q0 98 -39 151q-40 54 -125 54t-125 -54q-39 -53 -39 -149q0 -79 36 -139t89 -110t116 -98q62 -47 116 -106q52 -57 89 -130q36 -72 36 -173q0 -164 -79 -261t-245 -97t-244 97t-78 261v82h150v-90q0 -99 41 -152
t127 -53t127 53t41 152q0 80 -36 138q-37 60 -89 109q-51 48 -115 98q-65 51 -115 105q-52 57 -89 130q-35 70 -35 174q0 167 77 262q78 96 240 96z" />
    <glyph glyph-name="T" unicode="T" horiz-adv-x="743" 
d="M291 0v1288h-264v146h688v-146h-264v-1288h-160z" />
    <glyph glyph-name="U" unicode="U" horiz-adv-x="792" 
d="M233 338q0 -100 40 -153q41 -54 128 -54q85 0 126 54q40 53 40 153v1096h150v-1088q0 -164 -78 -263t-244 -99q-163 0 -241 99t-78 263v1088h157v-1096z" />
    <glyph glyph-name="V" unicode="V" horiz-adv-x="856" 
d="M203 1434l233 -1248l232 1248h147l-268 -1434h-236l-270 1434h162z" />
    <glyph glyph-name="W" unicode="W" horiz-adv-x="1193" 
d="M463 0h-219l-197 1434h156l168 -1221l159 1219h158l158 -1221l162 1223h139l-195 -1434h-211l-137 973z" />
    <glyph glyph-name="X" unicode="X" horiz-adv-x="890" 
d="M438 618l-239 -618h-152l289 739l-270 695h165l222 -574l223 574h149l-268 -695l287 -739h-168z" />
    <glyph glyph-name="Y" unicode="Y" horiz-adv-x="831" 
d="M336 514l-303 920h166l223 -705l225 705h152l-305 -920v-514h-158v514z" />
    <glyph glyph-name="Z" unicode="Z" horiz-adv-x="776" 
d="M711 0h-652v143l492 1145h-469v146h633v-144l-494 -1145h490v-145z" />
    <glyph glyph-name="bracketleft" unicode="[" horiz-adv-x="495" 
d="M438 131v-131h-346v1434h346v-131h-188v-1172h188z" />
    <glyph glyph-name="backslash" unicode="\" horiz-adv-x="770" 
d="M172 1434l565 -1434h-139l-565 1434h139z" />
    <glyph glyph-name="bracketright" unicode="]" horiz-adv-x="495" 
d="M244 131v1172h-187v131h346v-1434h-346v131h187z" />
    <glyph glyph-name="asciicircum" unicode="^" horiz-adv-x="825" 
d="M184 799h-129l299 635h117l299 -635h-129l-229 489z" />
    <glyph glyph-name="underscore" unicode="_" horiz-adv-x="1038" 
d="M1004 -20v-117h-977v117h977z" />
    <glyph glyph-name="grave" unicode="`" horiz-adv-x="456" 
d="M254 1737l141 -211h-116l-191 211h166z" />
    <glyph glyph-name="a" unicode="a" horiz-adv-x="864" 
d="M244 289l-56 -289h-147l274 1434h232l274 -1434h-159l-56 289h-362zM264 426h320l-162 827z" />
    <glyph glyph-name="b" unicode="b" horiz-adv-x="802" 
d="M403 1434q168 0 240 -79t72 -239v-67q0 -116 -37 -186q-38 -71 -131 -99q104 -28 148 -109q44 -80 44 -198v-121q0 -161 -80 -249q-79 -87 -247 -87h-330v1434h321zM365 825q96 0 144 39t48 152v84q0 96 -36 142t-122 46h-157v-463h123zM412 145q170 0 170 195v127
q0 121 -48 167q-47 46 -153 46h-139v-535h170z" />
    <glyph glyph-name="c" unicode="c" horiz-adv-x="778" 
d="M391 1448q166 0 245 -98t79 -263v-129h-152v138q0 99 -40 152q-41 55 -128 55q-86 0 -127 -55t-41 -152v-758q0 -98 41 -153q40 -54 127 -54t128 54q40 53 40 153v186h152v-178q0 -164 -79 -262t-245 -98q-164 0 -243 98q-78 97 -78 262v741q0 85 19 149q21 70 59 114
q40 46 101 72t142 26z" />
    <glyph glyph-name="d" unicode="d" horiz-adv-x="811" 
d="M418 1434q166 0 247 -96q78 -93 78 -261v-723q0 -167 -78 -260q-79 -94 -247 -94h-336v1434h336zM416 145q86 0 128 53q42 52 42 150v737q0 99 -42 151t-130 52h-172v-1143h174z" />
    <glyph glyph-name="e" unicode="e" horiz-adv-x="737" 
d="M592 799v-144h-350v-510h430v-145h-590v1434h590v-146h-430v-489h350z" />
    <glyph glyph-name="f" unicode="f" horiz-adv-x="696" 
d="M571 766v-145h-329v-621h-160v1434h569v-146h-409v-522h329z" />
    <glyph glyph-name="g" unicode="g" horiz-adv-x="784" 
d="M391 1448q166 0 245 -98t79 -263v-122h-152v131q0 99 -40 152q-41 55 -128 55q-86 0 -127 -55t-41 -152v-758q0 -98 41 -153q40 -54 127 -54t128 54q40 53 40 153v287h-147v143h299v-422q0 -164 -79 -262t-245 -98q-164 0 -243 98q-78 97 -78 262v741q0 85 19 149
q21 70 59 114q40 46 101 72t142 26z" />
    <glyph glyph-name="h" unicode="h" horiz-adv-x="835" 
d="M242 645v-645h-160v1434h160v-646h352v646h160v-1434h-160v645h-352z" />
    <glyph glyph-name="i" unicode="i" horiz-adv-x="323" 
d="M242 1434v-1434h-160v1434h160z" />
    <glyph glyph-name="j" unicode="j" horiz-adv-x="522" 
d="M41 145q28 -2 41 -2h39q78 5 123 48t45 153v1090h157v-1080q0 -103 -23 -168q-23 -66 -65 -109q-41 -42 -97 -60q-55 -17 -120 -19q-36 0 -51 -1q-22 -1 -49 3v145z" />
    <glyph glyph-name="k" unicode="k" horiz-adv-x="837" 
d="M326 623l-84 -142v-481h-160v1434h160v-693l381 693h161l-362 -654l375 -780h-164z" />
    <glyph glyph-name="l" unicode="l" horiz-adv-x="690" 
d="M82 0v1434h160v-1289h409v-145h-569z" />
    <glyph glyph-name="m" unicode="m" horiz-adv-x="1071" 
d="M610 2h-153l-238 1141v-1143h-139v1434h223l236 -1145l227 1145h223v-1434h-151v1153z" />
    <glyph glyph-name="n" unicode="n" horiz-adv-x="837" 
d="M223 0h-143v1434h203l331 -1037v1037h142v-1434h-166l-367 1159v-1159z" />
    <glyph glyph-name="o" unicode="o" 
d="M70 1087q0 167 81 264t246 97q166 0 248 -97t82 -264v-741q0 -164 -82 -262t-248 -98t-246 98q-81 99 -81 262v741zM227 338q0 -99 42 -153t128 -54q89 0 129 54q41 55 41 153v758q0 97 -41 152t-129 55q-85 0 -128 -55q-42 -54 -42 -152v-758z" />
    <glyph glyph-name="p" unicode="p" horiz-adv-x="759" 
d="M395 1434q169 0 246 -94q76 -92 76 -257v-172q0 -172 -81 -259t-253 -87h-141v-565h-160v1434h313zM383 709q89 0 133 44q43 43 43 148v191q0 97 -38 147q-37 49 -126 49h-153v-579h141z" />
    <glyph glyph-name="q" unicode="q" horiz-adv-x="802" 
d="M397 1448q166 0 248 -97t82 -264v-741q0 -138 -55 -223q12 -27 33 -36t55 -9h20v-141h-26q-132 0 -183 92q-32 -20 -77 -32q-40 -11 -97 -11q-166 0 -246 98q-81 99 -81 262v741q0 167 81 264t246 97zM397 1303q-85 0 -128 -55q-42 -54 -42 -152v-758q0 -99 42 -153
t128 -54q89 0 129 54q41 55 41 153v758q0 97 -41 152t-129 55z" />
    <glyph glyph-name="r" unicode="r" horiz-adv-x="806" 
d="M401 1434q170 0 245 -84t75 -244v-117q0 -119 -43 -192q-44 -75 -135 -103q98 -28 139 -105t41 -194v-223q0 -52 4 -91q5 -45 25 -81h-162q-15 30 -21 67q-6 36 -6 107v225q0 121 -54 167q-53 46 -155 46h-112v-612h-160v1434h319zM360 758q98 0 150 40q53 41 53 156v138
q0 97 -38 147q-37 49 -128 49h-155v-530h118z" />
    <glyph glyph-name="s" unicode="s" horiz-adv-x="761" 
d="M383 1448q164 0 242 -97q77 -96 77 -261v-39h-151v47q0 98 -39 151q-40 54 -125 54t-125 -54q-39 -53 -39 -149q0 -79 36 -139t89 -110t116 -98q62 -47 116 -106q52 -57 89 -130q36 -72 36 -173q0 -164 -79 -261t-245 -97t-244 97t-78 261v82h150v-90q0 -99 41 -152
t127 -53t127 53t41 152q0 80 -36 138q-37 60 -89 109q-51 48 -115 98q-65 51 -115 105q-52 57 -89 130q-35 70 -35 174q0 167 77 262q78 96 240 96z" />
    <glyph glyph-name="t" unicode="t" horiz-adv-x="737" 
d="M289 0v1288h-264v146h686v-146h-265v-1288h-157z" />
    <glyph glyph-name="u" unicode="u" horiz-adv-x="792" 
d="M233 338q0 -100 40 -153q41 -54 128 -54q85 0 126 54q40 53 40 153v1096h150v-1088q0 -164 -78 -263t-244 -99q-163 0 -241 99t-78 263v1088h157v-1096z" />
    <glyph glyph-name="v" unicode="v" horiz-adv-x="856" 
d="M203 1434l233 -1248l232 1248h147l-268 -1434h-236l-270 1434h162z" />
    <glyph glyph-name="w" unicode="w" horiz-adv-x="1193" 
d="M463 0h-219l-197 1434h156l168 -1221l159 1219h158l158 -1221l162 1223h139l-195 -1434h-211l-137 973z" />
    <glyph glyph-name="x" unicode="x" horiz-adv-x="890" 
d="M438 618l-239 -618h-152l289 739l-270 695h165l222 -574l223 574h149l-268 -695l287 -739h-168z" />
    <glyph glyph-name="y" unicode="y" horiz-adv-x="831" 
d="M336 514l-303 920h166l223 -705l225 705h152l-305 -920v-514h-158v514z" />
    <glyph glyph-name="z" unicode="z" horiz-adv-x="776" 
d="M711 0h-652v143l492 1145h-469v146h633v-144l-494 -1145h490v-145z" />
    <glyph glyph-name="braceleft" unicode="{" horiz-adv-x="526" 
d="M438 1303q-65 0 -89 -38q-22 -35 -27 -120l-13 -232q-1 -23 -7 -63q-5 -32 -19 -56q-15 -25 -40 -46q-24 -20 -67 -31q43 -11 67 -31q25 -21 40 -46q14 -24 19 -56q6 -39 7 -64l13 -231q5 -85 27 -120q24 -38 89 -38h39v-131h-94q-97 0 -147 57q-51 58 -58 162l-14 279
q-4 74 -26 110q-21 35 -97 41v135q76 6 97 41q22 35 26 111l14 278q7 104 58 162q50 58 147 58h94v-131h-39z" />
    <glyph glyph-name="bar" unicode="|" horiz-adv-x="763" 
d="M455 1524v-1614h-131v1614h131z" />
    <glyph glyph-name="braceright" unicode="}" horiz-adv-x="526" 
d="M143 1434q97 0 147 -58t56 -162l16 -278q1 -22 8 -65q5 -27 17 -46q12 -17 36 -28q27 -12 60 -13v-135q-37 -4 -60 -13t-36 -28q-12 -19 -17 -46q-7 -43 -8 -64l-16 -279q-6 -104 -56 -162q-50 -57 -147 -57h-94v131h39q65 0 89 38q23 37 28 120l12 231q1 25 7 64
q4 30 20 56q15 25 40 46q25 20 66 31q-41 11 -66 31q-25 21 -40 46q-16 26 -20 56q-6 40 -7 63l-12 232q-5 83 -28 120q-24 38 -89 38h-39v131h94z" />
    <glyph glyph-name="asciitilde" unicode="~" horiz-adv-x="811" 
d="M256 840q42 0 84 -20q48 -23 79 -43q30 -19 74 -43q35 -19 70 -19q40 0 67 27q25 25 66 85l78 -77q-56 -87 -105 -122q-48 -34 -106 -36q-44 0 -83 19q-44 21 -78 43q-25 16 -73 44q-36 21 -73 21q-40 0 -71 -28q-29 -26 -70 -87l-78 74q60 91 109 126q50 36 110 36z" />
    <glyph glyph-name="uni00A0" unicode="&#xa0;" horiz-adv-x="317" 
 />
    <glyph glyph-name="exclamdown" unicode="&#xa1;" horiz-adv-x="323" 
d="M238 1434v-197h-154v197h154zM82 633l20 483h119l21 -483v-633h-160v633z" />
    <glyph glyph-name="cent" unicode="&#xa2;" horiz-adv-x="792" 
d="M461 1354q134 -16 197 -110q63 -93 63 -240v-82h-150v90q0 97 -41 150q-40 52 -127 52t-128 -54q-39 -52 -39 -152v-582q0 -99 39 -151q41 -54 128 -54q86 0 127 53t41 152v137h150v-127q0 -148 -63 -242q-64 -96 -197 -112v-102h-131v102q-131 18 -193 114
q-61 94 -61 240v561q0 147 61 241q62 96 193 114v102h131v-100z" />
    <glyph glyph-name="sterling" unicode="&#xa3;" horiz-adv-x="800" 
d="M410 1448q82 0 142 -27q61 -28 99 -74q40 -49 58 -115t18 -149v-114h-152v123q0 99 -36 154q-38 57 -125 57q-88 0 -126 -56t-38 -153q0 -98 17 -162q20 -74 41 -123q28 -65 49 -108q26 -53 42 -115h275v-125h-264q2 -85 -31 -159t-111 -157h453v-145h-653v139
q42 17 78 46q40 32 66 71q29 43 43 92q15 52 11 113h-170v125h150q-17 58 -45 110q-26 49 -51 107q-24 55 -42 123t-18 159q0 165 77 265q76 98 243 98z" />
    <glyph glyph-name="currency" unicode="&#xa4;" horiz-adv-x="761" 
d="M586 856q45 -61 45 -139q0 -81 -45 -142l106 -104l-65 -63l-105 102q-27 -20 -65 -32q-34 -11 -76 -11q-76 0 -141 43l-105 -102l-63 63l104 104q-45 61 -45 142q0 82 45 139l-104 107l63 63l107 -104q61 45 139 45t141 -45l105 104l65 -63zM381 868q-64 0 -108 -44
t-44 -107q0 -64 44 -108t108 -44q62 0 108 44t46 108q0 63 -46 107t-108 44z" />
    <glyph glyph-name="yen" unicode="&#xa5;" horiz-adv-x="847" 
d="M504 475v-121h205v-82h-205v-272h-160v272h-205v82h205v121h-205v84h193l-295 875h166l227 -701l229 701h152l-297 -875h195v-84h-205z" />
    <glyph glyph-name="brokenbar" unicode="&#xa6;" horiz-adv-x="765" 
d="M324 1524h131v-684h-131v684zM324 594h131v-684h-131v684z" />
    <glyph glyph-name="section" unicode="&#xa7;" horiz-adv-x="792" 
d="M397 1448q147 0 232 -74q84 -74 84 -196v-56h-152v35q0 71 -44 115q-43 43 -116 43q-69 0 -117 -36t-48 -110q-2 -52 33 -85q34 -33 89 -61q50 -26 116 -54q63 -27 116 -68q54 -42 89 -100q36 -60 36 -150q0 -89 -46 -154q-48 -68 -124 -106q30 -16 66 -43q32 -24 56 -56
q21 -27 36 -73q14 -42 14 -92q-1 -121 -89 -196q-86 -74 -231 -74q-149 0 -235 72t-86 198v84h151v-64q0 -75 47 -116t119 -41q66 0 114 36q49 36 50 107q0 52 -35 87q-32 32 -88 61q-50 26 -116 54q-62 26 -115 66t-89 99q-36 60 -36 149q0 90 50 157q50 66 128 101
q-35 20 -70 45q-30 22 -57 57q-24 31 -39 72q-14 38 -14 95q1 121 88 197q86 75 233 75zM391 844q-65 -10 -113 -63q-49 -54 -49 -126q0 -39 16 -71q15 -31 41 -55q26 -25 58 -42q22 -12 68 -32q65 16 108 67q43 50 43 125q0 77 -51 120q-51 44 -121 77z" />
    <glyph glyph-name="dieresis" unicode="&#xa8;" horiz-adv-x="448" 
d="M211 1702v-184h-139v184h139zM377 1702v-184h-139v184h139z" />
    <glyph glyph-name="copyright" unicode="&#xa9;" horiz-adv-x="1519" 
d="M760 1442q151 0 280 -54t224 -152t147 -230q53 -135 53 -289q0 -157 -53 -290q-52 -131 -147 -229t-224 -152t-280 -54q-152 0 -281 54q-127 53 -223 152q-95 98 -147 229q-54 136 -54 290q0 152 54 289q52 132 147 230q96 99 223 152q129 54 281 54zM760 1339
q-128 0 -240 -47q-109 -45 -190 -130q-80 -83 -125 -197t-45 -248t45 -248q46 -116 125 -198q81 -85 190 -130q112 -47 240 -47q127 0 239 47q110 46 191 130q79 82 125 198q45 114 45 248t-45 248t-125 197q-81 84 -191 130q-112 47 -239 47zM752 1167q116 0 169 -68
q54 -69 54 -186v-61h-107v70q0 66 -27 103q-27 38 -87 38t-87 -38q-28 -39 -28 -103v-410q0 -64 28 -103q27 -38 87 -38t87 38t27 103v100h107v-94q0 -114 -54 -183t-169 -69q-118 0 -170 69q-54 71 -54 183v395q0 115 54 186q52 68 170 68z" />
    <glyph glyph-name="ordfeminine" unicode="&#xaa;" horiz-adv-x="563" 
d="M301 1444q104 0 145 -62t41 -163v-535h-88l-6 113q-18 -58 -58 -90q-41 -33 -102 -33q-84 0 -124 52q-41 53 -41 151v8q0 75 26 120t71 73q43 27 101 39q54 11 119 13v103q0 54 -19 85q-20 32 -69 32q-102 0 -102 -125v-37h-97v31q0 104 48 164q49 61 155 61zM385 1053
q-101 -5 -157 -43t-56 -111v-14q0 -115 100 -115q53 0 80 34t33 87v162zM487 567v-102h-417v102h417z" />
    <glyph glyph-name="guillemotleft" unicode="&#xab;" horiz-adv-x="655" 
d="M49 719l129 514h146l-129 -514l129 -535h-146zM332 719l131 514h143l-129 -514l129 -535h-143z" />
    <glyph glyph-name="logicalnot" unicode="&#xac;" horiz-adv-x="794" 
d="M61 659v115h672v-391h-115v276h-557z" />
    <glyph glyph-name="uni00AD" unicode="&#xad;" horiz-adv-x="542" 
d="M76 788h391v-143h-391v143z" />
    <glyph glyph-name="registered" unicode="&#xae;" horiz-adv-x="1519" 
d="M760 1442q151 0 280 -54t224 -152t147 -230q53 -135 53 -289q0 -157 -53 -290q-52 -131 -147 -229t-224 -152t-280 -54q-152 0 -281 54q-127 53 -223 152q-95 98 -147 229q-54 136 -54 290q0 152 54 289q52 132 147 230q96 99 223 152q129 54 281 54zM760 1339
q-128 0 -240 -47q-109 -45 -190 -130q-80 -83 -125 -197t-45 -248t45 -248q46 -116 125 -198q81 -85 190 -130q112 -47 240 -47q127 0 239 47q110 46 191 130q79 82 125 198q45 114 45 248t-45 248t-125 197q-81 84 -191 130q-112 47 -239 47zM770 1155q118 0 170 -58
q53 -59 53 -171v-21q0 -79 -27 -132q-27 -52 -92 -75q67 -23 93 -74t26 -130v-95q0 -34 3 -64q3 -28 20 -56h-117q-10 21 -13 46q-3 24 -3 74v95q0 86 -39 116q-40 31 -111 31h-76v-362h-110v876h223zM750 745q62 0 97 29q34 28 34 107v32q0 67 -26 104q-26 36 -91 36h-107
v-308h93z" />
    <glyph glyph-name="macron" unicode="&#xaf;" horiz-adv-x="514" 
d="M475 1638v-114h-434v114h434z" />
    <glyph glyph-name="degree" unicode="&#xb0;" horiz-adv-x="448" 
d="M223 1450q73 0 126 -51q52 -51 52 -125t-52 -125q-53 -51 -126 -51q-38 0 -68 13q-31 13 -56 38q-22 22 -38 56q-14 29 -14 69q0 39 14 68q17 36 38 57q25 24 56 38q30 13 68 13zM223 1374q-41 0 -70 -28q-30 -28 -30 -72q0 -41 30 -71q29 -29 70 -29q43 0 72 29
q31 31 31 71q0 43 -31 72q-29 28 -72 28z" />
    <glyph glyph-name="plusminus" unicode="&#xb1;" horiz-adv-x="802" 
d="M344 485v203h-268v115h268v256h115v-256h268v-115h-268v-203h268v-114h-651v114h268z" />
    <glyph glyph-name="twosuperior" unicode="&#xb2;" horiz-adv-x="563" 
d="M291 1640q105 0 155 -63q50 -64 50 -168q0 -68 -23 -125q-24 -58 -56 -102q-40 -54 -74 -88q-38 -38 -75 -83q-33 -40 -58 -87q-24 -45 -24 -99v-12h299v-94h-401v78q0 75 22 129q20 50 58 101q34 47 75 87q32 32 74 85q37 46 58 93q22 48 22 115q0 139 -106 139
q-53 0 -79 -36q-26 -37 -26 -97v-78h-98v72q0 105 49 169t158 64z" />
    <glyph glyph-name="threesuperior" unicode="&#xb3;" horiz-adv-x="563" 
d="M283 1638q105 0 154 -62q50 -64 50 -169v-23q0 -143 -106 -186q58 -23 82 -72q24 -50 24 -116v-70q0 -105 -50 -169q-49 -62 -154 -62q-108 0 -157 62q-50 64 -50 169v61h98v-69q0 -59 26 -94t79 -35q106 0 106 139v70q0 133 -113 133h-55v94h59q49 0 79 33t30 92v41
q0 139 -106 139q-53 0 -79 -35t-26 -94v-47h-98v39q0 105 50 169q49 62 157 62z" />
    <glyph glyph-name="acute" unicode="&#xb4;" horiz-adv-x="456" 
d="M365 1737l-191 -211h-111l144 211h158z" />
    <glyph glyph-name="uni00B5" unicode="&#xb5;" horiz-adv-x="815" 
d="M586 147q-28 -73 -84 -117t-123 -44q-55 0 -88 26q-34 27 -51 68v-268h-160v1212h160v-684q0 -100 40 -153q40 -54 126 -54q84 0 125 54q40 53 40 153v684h160v-1024h-145v147z" />
    <glyph glyph-name="paragraph" unicode="&#xb6;" horiz-adv-x="811" 
d="M416 1317v-1446h-117l2 696q-135 5 -199 97q-63 91 -63 247v176q0 163 72 255t237 92h369v-1563h-117v1446h-184z" />
    <glyph glyph-name="periodcentered" unicode="&#xb7;" horiz-adv-x="317" 
d="M236 825v-198h-154v198h154z" />
    <glyph glyph-name="cedilla" unicode="&#xb8;" horiz-adv-x="509" 
d="M293 -80q71 0 110 -20q41 -21 41 -80q0 -40 -15 -64q-15 -25 -42 -38q-27 -14 -61 -18q-38 -5 -74 -5q-38 0 -72 6q-36 6 -60 19q-27 14 -41 37q-16 26 -16 59v16h109v-14q0 -35 26 -47q29 -14 54 -15q31 0 57 16q25 16 25 52q0 41 -28 53q-27 12 -68 12h-17v129h72v-98z
" />
    <glyph glyph-name="onesuperior" unicode="&#xb9;" horiz-adv-x="387" 
d="M61 1509q74 2 106 37t50 82h72v-909h-103v751q-51 -30 -125 -36v75z" />
    <glyph glyph-name="ordmasculine" unicode="&#xba;" horiz-adv-x="567" 
d="M283 1444q105 0 158 -63q53 -64 53 -167v-313q0 -103 -53 -167q-52 -62 -158 -62q-108 0 -158 62q-51 63 -51 167v313q0 104 51 167t158 63zM283 1350q-56 0 -81 -34q-26 -35 -26 -95v-326q0 -60 26 -95q25 -34 81 -34t81 34t25 95v326q0 61 -25 95t-81 34zM494 569v-102
h-418v102h418z" />
    <glyph glyph-name="guillemotright" unicode="&#xbb;" horiz-adv-x="655" 
d="M178 719l-129 514h144l131 -514l-131 -535h-144zM461 719l-129 514h143l131 -514l-131 -535h-143z" />
    <glyph glyph-name="onequarter" unicode="&#xbc;" horiz-adv-x="1181" 
d="M242 1276q-53 -31 -125 -37v76q73 1 105 37q32 35 50 82h72v-910h-102v752zM375 0h-96l565 1434h96zM1057 0h-103v180h-292v96l280 633h115v-633h69v-96h-69v-180zM954 276v435l-198 -435h198z" />
    <glyph glyph-name="onehalf" unicode="&#xbd;" horiz-adv-x="1226" 
d="M242 1276q-53 -31 -125 -37v76q73 1 105 37q32 35 50 82h72v-910h-102v752zM899 1434l-565 -1434h-96l565 1434h96zM954 922q106 0 156 -64q49 -62 49 -168q0 -69 -22 -123q-23 -55 -57 -102q-43 -58 -73 -89q-37 -38 -75 -83q-35 -41 -59 -86q-23 -43 -23 -98v-15h299
v-94h-401v78q0 75 22 129q22 53 57 101q35 46 75 87q37 37 75 85q35 44 57 93q23 51 23 115q0 139 -107 139q-54 0 -79 -35t-25 -98v-78h-98v72q0 105 49 169q50 65 157 65z" />
    <glyph glyph-name="threequarters" unicode="&#xbe;" horiz-adv-x="1232" 
d="M283 1444q104 0 154 -63q50 -64 50 -169v-22q0 -143 -106 -186q58 -23 82 -72q24 -50 24 -117v-70q0 -104 -50 -168q-50 -63 -154 -63q-107 0 -157 63q-50 64 -50 168v62h98v-70q0 -59 26 -94t79 -35q106 0 106 140v69q0 133 -113 133h-55v94h59q49 0 79 33t30 92v41
q0 140 -106 140q-53 0 -79 -35t-26 -94v-47h-98v38q0 105 50 169q50 63 157 63zM909 1434h97l-566 -1434h-96zM1006 180h-293v96l280 633h115v-633h70v-96h-70v-180h-102v180zM807 276h199v435z" />
    <glyph glyph-name="questiondown" unicode="&#xbf;" horiz-adv-x="739" 
d="M473 1434v-199h-154v199h154zM465 1114q12 -38 12 -82q0 -80 -20 -137q-22 -63 -50 -109q-27 -44 -65 -94q-40 -52 -66 -95q-31 -51 -50 -113q-19 -61 -19 -144q0 -97 38 -155q37 -56 126 -56t126 57q38 58 38 154v127h151v-117q0 -163 -77 -264q-76 -100 -242 -100
t-242 98t-76 264q0 86 21 152q22 68 52 120q33 57 68 100q38 46 69 93q29 43 52 100q21 53 21 123q0 43 -8 78h141z" />
    <glyph glyph-name="Agrave" unicode="&#xc0;" horiz-adv-x="864" 
d="M381 1720l143 -211h-116l-191 211h164zM244 289l-56 -289h-147l274 1434h232l274 -1434h-159l-56 289h-362zM264 426h320l-162 827z" />
    <glyph glyph-name="Aacute" unicode="&#xc1;" horiz-adv-x="864" 
d="M662 1720l-189 -211h-113l144 211h158zM244 289l-56 -289h-147l274 1434h232l274 -1434h-159l-56 289h-362zM264 426h320l-162 827z" />
    <glyph glyph-name="Acircumflex" unicode="&#xc2;" horiz-adv-x="864" 
d="M322 1509h-140l176 205h144l176 -205h-139l-109 121zM244 289l-56 -289h-147l274 1434h232l274 -1434h-159l-56 289h-362zM264 426h320l-162 827z" />
    <glyph glyph-name="Atilde" unicode="&#xc3;" horiz-adv-x="864" 
d="M330 1692q28 0 56 -10q27 -9 47 -21q28 -16 42 -22q21 -9 43 -9q25 1 46 16q20 14 36 46l80 -56q-23 -59 -62 -88q-37 -28 -83 -28q-32 0 -56 9q-32 12 -46 20q-21 12 -42 21t-45 9q-29 0 -49 -13t-37 -48l-80 55q24 62 64 90t86 29zM244 289l-56 -289h-147l274 1434h232
l274 -1434h-159l-56 289h-362zM264 426h320l-162 827z" />
    <glyph glyph-name="Adieresis" unicode="&#xc4;" horiz-adv-x="864" 
d="M373 1694v-185h-140v185h140zM627 1694v-185h-140v185h140zM244 289l-56 -289h-147l274 1434h232l274 -1434h-159l-56 289h-362zM264 426h320l-162 827z" />
    <glyph glyph-name="Aring" unicode="&#xc5;" horiz-adv-x="864" 
d="M430 1808q64 0 107 -43t43 -106q0 -66 -43 -108t-107 -42t-108 42q-43 42 -43 108q0 63 43 106t108 43zM430 1733q-32 0 -54 -22t-22 -52q0 -31 22 -53q21 -21 54 -21q31 0 52 21q22 22 22 53q0 30 -22 52t-52 22zM244 289l-56 -289h-147l274 1434h232l274 -1434h-159
l-56 289h-362zM264 426h320l-162 827z" />
    <glyph glyph-name="AE" unicode="&#xc6;" horiz-adv-x="1198" 
d="M1057 799v-144h-330v-510h406v-145h-564v291h-293l-92 -291h-151l446 1434h654v-146h-406v-489h330zM313 430h256v803z" />
    <glyph glyph-name="Ccedilla" unicode="&#xc7;" horiz-adv-x="778" 
d="M391 1448q166 0 245 -98t79 -263v-129h-152v138q0 99 -40 152q-41 55 -128 55q-86 0 -127 -55t-41 -152v-758q0 -98 41 -153q40 -54 127 -54t128 54q40 53 40 153v186h152v-178q0 -153 -71 -251q-70 -96 -218 -107v-64q71 0 112 -27q40 -27 40 -77q0 -61 -52 -96
t-143 -35q-92 0 -139 33q-49 34 -49 94v16h104v-14q0 -54 84 -60q88 0 88 66q0 61 -100 61h-19v103q-146 11 -214 108q-68 98 -68 250v741q0 85 19 149q21 70 59 114q40 46 101 72t142 26z" />
    <glyph glyph-name="Egrave" unicode="&#xc8;" horiz-adv-x="737" 
d="M342 1731l141 -211h-116l-191 211h166zM592 799v-144h-350v-510h430v-145h-590v1434h590v-146h-430v-489h350z" />
    <glyph glyph-name="Eacute" unicode="&#xc9;" horiz-adv-x="737" 
d="M580 1724l-191 -211h-110l143 211h158zM592 799v-144h-350v-510h430v-145h-590v1434h590v-146h-430v-489h350z" />
    <glyph glyph-name="Ecircumflex" unicode="&#xca;" horiz-adv-x="737" 
d="M266 1513h-139l176 207h141l179 -207h-140l-110 123zM592 799v-144h-350v-510h430v-145h-590v1434h590v-146h-430v-489h350z" />
    <glyph glyph-name="Edieresis" unicode="&#xcb;" horiz-adv-x="737" 
d="M317 1698v-185h-139v185h139zM571 1698v-185h-139v185h139zM592 799v-144h-350v-510h430v-145h-590v1434h590v-146h-430v-489h350z" />
    <glyph glyph-name="Igrave" unicode="&#xcc;" horiz-adv-x="323" 
d="M-51 1724h166l143 -211h-119zM82 1434h160v-1434h-160v1434z" />
    <glyph glyph-name="Iacute" unicode="&#xcd;" horiz-adv-x="323" 
d="M205 1724h160l-191 -211h-111zM82 1434h160v-1434h-160v1434z" />
    <glyph glyph-name="Icircumflex" unicode="&#xce;" horiz-adv-x="323" 
d="M231 1718l179 -205h-140l-108 121l-109 -121h-139l176 205h141zM82 1434h160v-1434h-160v1434z" />
    <glyph glyph-name="Idieresis" unicode="&#xcf;" horiz-adv-x="323" 
d="M104 1698v-185h-139v185h139zM358 1698v-185h-139v185h139zM242 1434v-1434h-160v1434h160z" />
    <glyph glyph-name="Eth" unicode="&#xd0;" horiz-adv-x="811" 
d="M418 1434q166 0 247 -96q78 -93 78 -261v-723q0 -167 -78 -260q-79 -94 -247 -94h-336v651h-84v131h84v652h336zM401 651h-159v-506h174q86 0 128 53q42 52 42 150v737q0 99 -42 151t-130 52h-172v-506h159v-131z" />
    <glyph glyph-name="Ntilde" unicode="&#xd1;" horiz-adv-x="837" 
d="M670 1647q-24 -62 -62 -91q-37 -28 -84 -28q-31 0 -55 9q-27 10 -46 21q-14 8 -42 20q-21 9 -45 9q-28 0 -49 -12q-20 -11 -37 -47l-80 53q25 64 63 91q40 28 89 28q31 0 55 -9q27 -10 46 -21q14 -8 42 -20q23 -10 43 -10q54 0 82 60zM223 0h-143v1434h203l331 -1037
v1037h142v-1434h-166l-367 1159v-1159z" />
    <glyph glyph-name="Ograve" unicode="&#xd2;" 
d="M385 1731l141 -211h-116l-191 211h166zM397 1448q166 0 248 -97t82 -264v-741q0 -164 -82 -262t-248 -98t-246 98q-81 99 -81 262v741q0 167 81 264t246 97zM397 1303q-85 0 -128 -55q-42 -54 -42 -152v-758q0 -99 42 -153t128 -54q89 0 129 54q41 55 41 153v758
q0 97 -41 152t-129 55z" />
    <glyph glyph-name="Oacute" unicode="&#xd3;" 
d="M645 1731l-190 -211h-111l143 211h158zM397 1448q166 0 248 -97t82 -264v-741q0 -164 -82 -262t-248 -98t-246 98q-81 99 -81 262v741q0 167 81 264t246 97zM397 1303q-85 0 -128 -55q-42 -54 -42 -152v-758q0 -99 42 -153t128 -54q89 0 129 54q41 55 41 153v758
q0 97 -41 152t-129 55z" />
    <glyph glyph-name="Ocircumflex" unicode="&#xd4;" 
d="M297 1518h-139l176 206h141l178 -206h-139l-111 120zM397 1448q166 0 248 -97t82 -264v-741q0 -164 -82 -262t-248 -98t-246 98q-81 99 -81 262v741q0 167 81 264t246 97zM397 1303q-85 0 -128 -55q-42 -54 -42 -152v-758q0 -99 42 -153t128 -54q89 0 129 54
q41 55 41 153v758q0 97 -41 152t-129 55z" />
    <glyph glyph-name="Otilde" unicode="&#xd5;" 
d="M672 1642q-22 -61 -61 -89q-37 -27 -85 -27q-30 0 -54 9q-29 11 -46 20q-25 13 -43 21q-21 9 -45 9q-29 0 -49 -13t-37 -48l-80 55q27 63 66 90q40 28 86 29q31 0 55 -9q22 -8 46 -22q18 -10 43 -21q23 -10 44 -10q25 1 46 16q20 14 36 46zM397 1448q166 0 248 -97
t82 -264v-741q0 -164 -82 -262t-248 -98t-246 98q-81 99 -81 262v741q0 167 81 264t246 97zM397 1303q-85 0 -128 -55q-42 -54 -42 -152v-758q0 -99 42 -153t128 -54q89 0 129 54q41 55 41 153v758q0 97 -41 152t-129 55z" />
    <glyph glyph-name="Odieresis" unicode="&#xd6;" 
d="M340 1702v-184h-139v184h139zM594 1702v-184h-139v184h139zM397 1448q166 0 248 -97t82 -264v-741q0 -164 -82 -262t-248 -98t-246 98q-81 99 -81 262v741q0 167 81 264t246 97zM397 1303q-85 0 -128 -55q-42 -54 -42 -152v-758q0 -99 42 -153t128 -54q89 0 129 54
q41 55 41 153v758q0 97 -41 152t-129 55z" />
    <glyph glyph-name="multiply" unicode="&#xd7;" horiz-adv-x="749" 
d="M592 422l-217 217l-217 -217l-78 78l215 217l-215 215l78 78l217 -215l217 215l78 -78l-217 -215l217 -217z" />
    <glyph glyph-name="Oslash" unicode="&#xd8;" 
d="M666 1323q61 -91 61 -236v-741q0 -164 -82 -262t-248 -98q-129 0 -209 63l-38 -102l-70 26l51 138q-61 91 -61 235v741q0 167 81 264t246 97q127 0 211 -64l37 101l72 -27zM545 1217q-41 86 -148 86q-85 0 -128 -55q-42 -54 -42 -152v-727zM397 131q89 0 129 54
q41 55 41 153v723l-317 -846q40 -84 147 -84z" />
    <glyph glyph-name="Ugrave" unicode="&#xd9;" horiz-adv-x="792" 
d="M354 1724l144 -211h-119l-191 211h166zM717 346q0 -164 -78 -263t-244 -99q-163 0 -241 99t-78 263v1088h157v-1096q0 -100 40 -153q41 -54 128 -54q85 0 126 54q40 53 40 153v1096h150v-1088z" />
    <glyph glyph-name="Uacute" unicode="&#xda;" horiz-adv-x="792" 
d="M606 1731l-190 -211h-111l144 211h157zM717 346q0 -164 -78 -263t-244 -99q-163 0 -241 99t-78 263v1088h157v-1096q0 -100 40 -153q41 -54 128 -54q85 0 126 54q40 53 40 153v1096h150v-1088z" />
    <glyph glyph-name="Ucircumflex" unicode="&#xdb;" horiz-adv-x="792" 
d="M291 1518h-139l176 206h141l178 -206h-139l-111 120zM717 346q0 -164 -78 -263t-244 -99q-163 0 -241 99t-78 263v1088h157v-1096q0 -100 40 -153q41 -54 128 -54q85 0 126 54q40 53 40 153v1096h150v-1088z" />
    <glyph glyph-name="Udieresis" unicode="&#xdc;" horiz-adv-x="792" 
d="M342 1700v-184h-141v184h141zM596 1700v-184h-139v184h139zM717 346q0 -164 -78 -263t-244 -99q-163 0 -241 99t-78 263v1088h157v-1096q0 -100 40 -153q41 -54 128 -54q85 0 126 54q40 53 40 153v1096h150v-1088z" />
    <glyph glyph-name="Yacute" unicode="&#xdd;" horiz-adv-x="831" 
d="M631 1724l-191 -211h-110l143 211h158zM336 514l-303 920h166l223 -705l225 705h152l-305 -920v-514h-158v514z" />
    <glyph glyph-name="Thorn" unicode="&#xde;" horiz-adv-x="772" 
d="M395 1227q169 0 246 -93q76 -92 76 -260v-169q0 -175 -81 -262t-253 -87h-141v-356h-160v1434h160v-207h153zM383 502q89 0 133 44q43 43 43 148v191q0 97 -38 147q-37 49 -126 49h-153v-579h141z" />
    <glyph glyph-name="germandbls" unicode="&#xdf;" horiz-adv-x="1492" 
d="M379 1448q167 0 243 -97t76 -261v-39h-151v47q0 98 -39 151q-40 54 -125 54t-125 -54q-39 -53 -39 -149q0 -79 36 -139t89 -110t116 -98q58 -44 115 -106q55 -59 90 -130q35 -70 35 -173q0 -165 -78 -261q-79 -97 -245 -97t-244 97t-78 261v82h150v-90q0 -99 41 -152
t127 -53q87 0 128 53q40 52 40 152q0 80 -36 138q-37 60 -89 109q-51 48 -115 98q-65 51 -115 105q-52 57 -89 130q-36 72 -36 174q0 166 78 262t240 96zM1118 1448q165 0 241 -97q77 -98 77 -261v-39h-150v47q0 98 -39 151q-40 54 -125 54t-125 -54q-39 -53 -39 -149
q0 -79 36 -139t89 -110q51 -48 115 -98q62 -48 115 -106q53 -57 89 -130q36 -72 36 -173q0 -164 -78 -261t-244 -97t-245 97q-78 96 -78 261v82h151v-90q0 -99 41 -152t127 -53t127 53t41 152q0 80 -36 138q-37 60 -89 109q-53 50 -116 98q-61 47 -115 105q-52 57 -89 130
q-36 72 -36 174q0 167 79 262q79 96 240 96z" />
    <glyph glyph-name="agrave" unicode="&#xe0;" horiz-adv-x="864" 
d="M381 1720l143 -211h-116l-191 211h164zM244 289l-56 -289h-147l274 1434h232l274 -1434h-159l-56 289h-362zM264 426h320l-162 827z" />
    <glyph glyph-name="aacute" unicode="&#xe1;" horiz-adv-x="864" 
d="M662 1720l-189 -211h-113l144 211h158zM244 289l-56 -289h-147l274 1434h232l274 -1434h-159l-56 289h-362zM264 426h320l-162 827z" />
    <glyph glyph-name="acircumflex" unicode="&#xe2;" horiz-adv-x="864" 
d="M322 1509h-140l176 205h144l176 -205h-139l-109 121zM244 289l-56 -289h-147l274 1434h232l274 -1434h-159l-56 289h-362zM264 426h320l-162 827z" />
    <glyph glyph-name="atilde" unicode="&#xe3;" horiz-adv-x="864" 
d="M330 1692q28 0 56 -10q27 -9 47 -21q28 -16 42 -22q21 -9 43 -9q25 1 46 16q20 14 36 46l80 -56q-23 -59 -62 -88q-37 -28 -83 -28q-32 0 -56 9q-32 12 -46 20q-21 12 -42 21t-45 9q-29 0 -49 -13t-37 -48l-80 55q24 62 64 90t86 29zM244 289l-56 -289h-147l274 1434h232
l274 -1434h-159l-56 289h-362zM264 426h320l-162 827z" />
    <glyph glyph-name="adieresis" unicode="&#xe4;" horiz-adv-x="864" 
d="M373 1694v-185h-140v185h140zM627 1694v-185h-140v185h140zM244 289l-56 -289h-147l274 1434h232l274 -1434h-159l-56 289h-362zM264 426h320l-162 827z" />
    <glyph glyph-name="aring" unicode="&#xe5;" horiz-adv-x="864" 
d="M430 1808q64 0 107 -43t43 -106q0 -66 -43 -108t-107 -42t-108 42q-43 42 -43 108q0 63 43 106t108 43zM430 1733q-32 0 -54 -22t-22 -52q0 -31 22 -53q21 -21 54 -21q31 0 52 21q22 22 22 53q0 30 -22 52t-52 22zM244 289l-56 -289h-147l274 1434h232l274 -1434h-159
l-56 289h-362zM264 426h320l-162 827z" />
    <glyph glyph-name="ae" unicode="&#xe6;" horiz-adv-x="1198" 
d="M1057 799v-144h-330v-510h406v-145h-564v291h-293l-92 -291h-151l446 1434h654v-146h-406v-489h330zM313 430h256v803z" />
    <glyph glyph-name="ccedilla" unicode="&#xe7;" horiz-adv-x="778" 
d="M391 1448q166 0 245 -98t79 -263v-129h-152v138q0 99 -40 152q-41 55 -128 55q-86 0 -127 -55t-41 -152v-758q0 -98 41 -153q40 -54 127 -54t128 54q40 53 40 153v186h152v-178q0 -153 -71 -251q-70 -96 -218 -107v-64q71 0 112 -27q40 -27 40 -77q0 -61 -52 -96
t-143 -35q-92 0 -139 33q-49 34 -49 94v16h104v-14q0 -54 84 -60q88 0 88 66q0 61 -100 61h-19v103q-146 11 -214 108q-68 98 -68 250v741q0 85 19 149q21 70 59 114q40 46 101 72t142 26z" />
    <glyph glyph-name="egrave" unicode="&#xe8;" horiz-adv-x="737" 
d="M342 1731l141 -211h-116l-191 211h166zM592 799v-144h-350v-510h430v-145h-590v1434h590v-146h-430v-489h350z" />
    <glyph glyph-name="eacute" unicode="&#xe9;" horiz-adv-x="737" 
d="M580 1724l-191 -211h-110l143 211h158zM592 799v-144h-350v-510h430v-145h-590v1434h590v-146h-430v-489h350z" />
    <glyph glyph-name="ecircumflex" unicode="&#xea;" horiz-adv-x="737" 
d="M266 1513h-139l176 207h141l179 -207h-140l-110 123zM592 799v-144h-350v-510h430v-145h-590v1434h590v-146h-430v-489h350z" />
    <glyph glyph-name="edieresis" unicode="&#xeb;" horiz-adv-x="737" 
d="M317 1698v-185h-139v185h139zM571 1698v-185h-139v185h139zM592 799v-144h-350v-510h430v-145h-590v1434h590v-146h-430v-489h350z" />
    <glyph glyph-name="igrave" unicode="&#xec;" horiz-adv-x="323" 
d="M-51 1724h166l143 -211h-119zM82 1434h160v-1434h-160v1434z" />
    <glyph glyph-name="iacute" unicode="&#xed;" horiz-adv-x="323" 
d="M205 1724h160l-191 -211h-111zM82 1434h160v-1434h-160v1434z" />
    <glyph glyph-name="icircumflex" unicode="&#xee;" horiz-adv-x="323" 
d="M231 1718l179 -205h-140l-108 121l-109 -121h-139l176 205h141zM82 1434h160v-1434h-160v1434z" />
    <glyph glyph-name="idieresis" unicode="&#xef;" horiz-adv-x="323" 
d="M104 1698v-185h-139v185h139zM358 1698v-185h-139v185h139zM242 1434v-1434h-160v1434h160z" />
    <glyph glyph-name="eth" unicode="&#xf0;" horiz-adv-x="811" 
d="M418 1434q166 0 247 -96q78 -93 78 -261v-723q0 -167 -78 -260q-79 -94 -247 -94h-336v651h-80v129h80v654h336zM403 651h-161v-506h174q86 0 128 53q42 52 42 150v737q0 99 -42 151t-130 52h-172v-508h161v-129z" />
    <glyph glyph-name="ntilde" unicode="&#xf1;" horiz-adv-x="837" 
d="M670 1647q-24 -62 -62 -91q-37 -28 -84 -28q-31 0 -55 9q-27 10 -46 21q-14 8 -42 20q-21 9 -45 9q-28 0 -49 -12q-20 -11 -37 -47l-80 53q25 64 63 91q40 28 89 28q31 0 55 -9q27 -10 46 -21q14 -8 42 -20q23 -10 43 -10q54 0 82 60zM223 0h-143v1434h203l331 -1037
v1037h142v-1434h-166l-367 1159v-1159z" />
    <glyph glyph-name="ograve" unicode="&#xf2;" 
d="M385 1731l141 -211h-116l-191 211h166zM397 1448q166 0 248 -97t82 -264v-741q0 -164 -82 -262t-248 -98t-246 98q-81 99 -81 262v741q0 167 81 264t246 97zM397 1303q-85 0 -128 -55q-42 -54 -42 -152v-758q0 -99 42 -153t128 -54q89 0 129 54q41 55 41 153v758
q0 97 -41 152t-129 55z" />
    <glyph glyph-name="oacute" unicode="&#xf3;" 
d="M645 1731l-190 -211h-111l143 211h158zM397 1448q166 0 248 -97t82 -264v-741q0 -164 -82 -262t-248 -98t-246 98q-81 99 -81 262v741q0 167 81 264t246 97zM397 1303q-85 0 -128 -55q-42 -54 -42 -152v-758q0 -99 42 -153t128 -54q89 0 129 54q41 55 41 153v758
q0 97 -41 152t-129 55z" />
    <glyph glyph-name="ocircumflex" unicode="&#xf4;" 
d="M297 1518h-139l176 206h141l178 -206h-139l-111 120zM397 1448q166 0 248 -97t82 -264v-741q0 -164 -82 -262t-248 -98t-246 98q-81 99 -81 262v741q0 167 81 264t246 97zM397 1303q-85 0 -128 -55q-42 -54 -42 -152v-758q0 -99 42 -153t128 -54q89 0 129 54
q41 55 41 153v758q0 97 -41 152t-129 55z" />
    <glyph glyph-name="otilde" unicode="&#xf5;" 
d="M397 1448q166 0 248 -97t82 -264v-741q0 -164 -82 -262t-248 -98t-246 98q-81 99 -81 262v741q0 167 81 264t246 97zM397 1303q-85 0 -128 -55q-42 -54 -42 -152v-758q0 -99 42 -153t128 -54q89 0 129 54q41 55 41 153v758q0 97 -41 152t-129 55zM672 1642
q-22 -61 -61 -89q-37 -27 -85 -27q-30 0 -54 9q-29 11 -46 20q-25 13 -43 21q-21 9 -45 9q-29 0 -49 -13t-37 -48l-80 55q27 63 66 90q40 28 86 29q31 0 55 -9q22 -8 46 -22q18 -10 43 -21q23 -10 44 -10q25 1 46 16q20 14 36 46z" />
    <glyph glyph-name="odieresis" unicode="&#xf6;" 
d="M340 1702v-184h-139v184h139zM594 1702v-184h-139v184h139zM397 1448q166 0 248 -97t82 -264v-741q0 -164 -82 -262t-248 -98t-246 98q-81 99 -81 262v741q0 167 81 264t246 97zM397 1303q-85 0 -128 -55q-42 -54 -42 -152v-758q0 -99 42 -153t128 -54q89 0 129 54
q41 55 41 153v758q0 97 -41 152t-129 55z" />
    <glyph glyph-name="divide" unicode="&#xf7;" horiz-adv-x="716" 
d="M434 1079v-198h-153v198h153zM655 774v-115h-594v115h594zM434 553v-199h-153v199h153z" />
    <glyph glyph-name="oslash" unicode="&#xf8;" 
d="M666 1323q61 -91 61 -236v-741q0 -164 -82 -262t-248 -98q-129 0 -209 63l-38 -102l-70 26l51 138q-61 91 -61 235v741q0 167 81 264t246 97q127 0 211 -64l37 101l72 -27zM545 1217q-41 86 -148 86q-85 0 -128 -55q-42 -54 -42 -152v-727zM397 131q89 0 129 54
q41 55 41 153v723l-317 -846q40 -84 147 -84z" />
    <glyph glyph-name="ugrave" unicode="&#xf9;" horiz-adv-x="792" 
d="M354 1724l144 -211h-119l-191 211h166zM717 346q0 -164 -78 -263t-244 -99q-163 0 -241 99t-78 263v1088h157v-1096q0 -100 40 -153q41 -54 128 -54q85 0 126 54q40 53 40 153v1096h150v-1088z" />
    <glyph glyph-name="uacute" unicode="&#xfa;" horiz-adv-x="792" 
d="M606 1731l-190 -211h-111l144 211h157zM717 346q0 -164 -78 -263t-244 -99q-163 0 -241 99t-78 263v1088h157v-1096q0 -100 40 -153q41 -54 128 -54q85 0 126 54q40 53 40 153v1096h150v-1088z" />
    <glyph glyph-name="ucircumflex" unicode="&#xfb;" horiz-adv-x="792" 
d="M291 1518h-139l176 206h141l178 -206h-139l-111 120zM717 346q0 -164 -78 -263t-244 -99q-163 0 -241 99t-78 263v1088h157v-1096q0 -100 40 -153q41 -54 128 -54q85 0 126 54q40 53 40 153v1096h150v-1088z" />
    <glyph glyph-name="udieresis" unicode="&#xfc;" horiz-adv-x="792" 
d="M342 1700v-184h-141v184h141zM596 1700v-184h-139v184h139zM717 346q0 -164 -78 -263t-244 -99q-163 0 -241 99t-78 263v1088h157v-1096q0 -100 40 -153q41 -54 128 -54q85 0 126 54q40 53 40 153v1096h150v-1088z" />
    <glyph glyph-name="yacute" unicode="&#xfd;" horiz-adv-x="831" 
d="M631 1724l-191 -211h-110l143 211h158zM336 514l-303 920h166l223 -705l225 705h152l-305 -920v-514h-158v514z" />
    <glyph glyph-name="thorn" unicode="&#xfe;" horiz-adv-x="772" 
d="M395 1227q169 0 246 -93q76 -92 76 -260v-169q0 -175 -81 -262t-253 -87h-141v-356h-160v1434h160v-207h153zM383 502q89 0 133 44q43 43 43 148v191q0 97 -38 147q-37 49 -126 49h-153v-579h141z" />
    <glyph glyph-name="ydieresis" unicode="&#xff;" horiz-adv-x="831" 
d="M362 1698v-185h-139v185h139zM616 1698v-185h-139v185h139zM336 514l-303 920h166l223 -705l225 705h152l-305 -920v-514h-158v514z" />
    <glyph glyph-name="Abreve" unicode="&#x102;" horiz-adv-x="864" 
d="M643 1708q0 -96 -57 -152q-56 -55 -158 -55q-101 0 -155 55q-55 56 -56 152h96q4 -59 36 -83q30 -23 79 -23q50 0 82 23q33 24 37 83h96zM244 289l-56 -289h-147l274 1434h232l274 -1434h-159l-56 289h-362zM264 426h320l-162 827z" />
    <glyph glyph-name="abreve" unicode="&#x103;" horiz-adv-x="864" 
d="M643 1708q0 -96 -57 -152q-56 -55 -158 -55q-101 0 -155 55q-55 56 -56 152h96q4 -59 36 -83q30 -23 79 -23q50 0 82 23q33 24 37 83h96zM244 289l-56 -289h-147l274 1434h232l274 -1434h-159l-56 289h-362zM264 426h320l-162 827z" />
    <glyph glyph-name="Dcroat" unicode="&#x110;" horiz-adv-x="811" 
d="M418 1434q166 0 247 -96q78 -93 78 -261v-723q0 -167 -78 -260q-79 -94 -247 -94h-336v651h-80v129h80v654h336zM403 651h-161v-506h174q86 0 128 53q42 52 42 150v737q0 99 -42 151t-130 52h-172v-508h161v-129z" />
    <glyph glyph-name="dcroat" unicode="&#x111;" horiz-adv-x="811" 
d="M418 1434q166 0 247 -96q78 -93 78 -261v-723q0 -167 -78 -260q-79 -94 -247 -94h-336v651h-80v129h80v654h336zM403 651h-161v-506h174q86 0 128 53q42 52 42 150v737q0 99 -42 151t-130 52h-172v-508h161v-129z" />
    <glyph glyph-name="Itilde" unicode="&#x128;" horiz-adv-x="323" 
d="M412 1642q-45 -118 -146 -118q-30 0 -54 9q-29 11 -46 20q-25 13 -43 21q-21 9 -45 9q-28 0 -49 -12q-20 -11 -37 -47l-80 53q28 65 65 91q40 28 86 28q32 0 56 -9q27 -10 46 -21q11 -6 43 -20q23 -10 44 -10q26 0 46 14t36 46zM242 1434v-1434h-160v1434h160z" />
    <glyph glyph-name="itilde" unicode="&#x129;" horiz-adv-x="323" 
d="M412 1642q-45 -118 -146 -118q-30 0 -54 9q-29 11 -46 20q-25 13 -43 21q-21 9 -45 9q-28 0 -49 -12q-20 -11 -37 -47l-80 53q28 65 65 91q40 28 86 28q32 0 56 -9q27 -10 46 -21q11 -6 43 -20q23 -10 44 -10q26 0 46 14t36 46zM242 1434v-1434h-160v1434h160z" />
    <glyph glyph-name="OE" unicode="&#x152;" horiz-adv-x="1181" 
d="M1040 799v-144h-329v-510h405v-145h-731q-166 0 -242 97q-75 96 -75 259v721q0 163 75 259q77 98 242 98h731v-146h-405v-489h329zM387 1288q-86 0 -123 -55t-37 -148v-737q0 -92 37 -147q38 -56 123 -56h166v1143h-166z" />
    <glyph glyph-name="oe" unicode="&#x153;" horiz-adv-x="1181" 
d="M1040 799v-144h-329v-510h405v-145h-731q-166 0 -242 97q-75 96 -75 259v721q0 163 75 259q77 98 242 98h731v-146h-405v-489h329zM387 1288q-86 0 -123 -55t-37 -148v-737q0 -92 37 -147q38 -56 123 -56h166v1143h-166z" />
    <glyph glyph-name="Scaron" unicode="&#x160;" horiz-adv-x="761" 
d="M276 1724l107 -122l109 122h141l-178 -204h-142l-176 204h139zM383 1448q164 0 242 -97q77 -96 77 -261v-39h-151v47q0 98 -39 151q-40 54 -125 54t-125 -54q-39 -53 -39 -149q0 -79 36 -139t89 -110t116 -98q62 -47 116 -106q52 -57 89 -130q36 -72 36 -173
q0 -164 -79 -261t-245 -97t-244 97t-78 261v82h150v-90q0 -99 41 -152t127 -53t127 53t41 152q0 80 -36 138q-37 60 -89 109q-51 48 -115 98q-65 51 -115 105q-52 57 -89 130q-35 70 -35 174q0 167 77 262q78 96 240 96z" />
    <glyph glyph-name="scaron" unicode="&#x161;" horiz-adv-x="761" 
d="M274 1724l109 -122l109 122h139l-178 -204h-142l-176 204h139zM383 1448q164 0 242 -97q77 -96 77 -261v-39h-151v47q0 98 -39 151q-40 54 -125 54t-125 -54q-39 -53 -39 -149q0 -79 36 -139t89 -110t116 -98q62 -47 116 -106q52 -57 89 -130q36 -72 36 -173
q0 -164 -79 -261t-245 -97t-244 97t-78 261v82h150v-90q0 -99 41 -152t127 -53t127 53t41 152q0 80 -36 138q-37 60 -89 109q-51 48 -115 98q-65 51 -115 105q-52 57 -89 130q-35 70 -35 174q0 167 77 262q78 96 240 96z" />
    <glyph glyph-name="Utilde" unicode="&#x168;" horiz-adv-x="792" 
d="M649 1642q-24 -62 -62 -89t-85 -27q-31 0 -55 9q-29 11 -45 20q-21 12 -42 21t-45 9q-29 0 -49 -13t-37 -48l-79 55q24 63 63 90q40 28 86 29q31 0 55 -9q22 -8 46 -22q18 -10 43 -21q23 -10 44 -10q26 1 47 16q18 13 35 46zM717 346q0 -164 -78 -263t-244 -99
q-163 0 -241 99t-78 263v1088h157v-1096q0 -100 40 -153q41 -54 128 -54q85 0 126 54q40 53 40 153v1096h150v-1088z" />
    <glyph glyph-name="utilde" unicode="&#x169;" horiz-adv-x="792" 
d="M649 1642q-24 -62 -62 -89t-85 -27q-31 0 -55 9q-29 11 -45 20q-21 12 -42 21t-45 9q-29 0 -49 -13t-37 -48l-79 55q24 63 63 90q40 28 86 29q31 0 55 -9q22 -8 46 -22q18 -10 43 -21q23 -10 44 -10q26 1 47 16q18 13 35 46zM717 346q0 -164 -78 -263t-244 -99
q-163 0 -241 99t-78 263v1088h157v-1096q0 -100 40 -153q41 -54 128 -54q85 0 126 54q40 53 40 153v1096h150v-1088z" />
    <glyph glyph-name="Ydieresis" unicode="&#x178;" horiz-adv-x="831" 
d="M362 1698v-185h-139v185h139zM616 1698v-185h-139v185h139zM336 514l-303 920h166l223 -705l225 705h152l-305 -920v-514h-158v514z" />
    <glyph glyph-name="Zcaron" unicode="&#x17d;" horiz-adv-x="776" 
d="M289 1724l106 -122l111 122h139l-178 -206h-141l-176 206h139zM711 0h-652v143l492 1145h-469v146h633v-144l-494 -1145h490v-145z" />
    <glyph glyph-name="zcaron" unicode="&#x17e;" horiz-adv-x="776" 
d="M289 1724l106 -122l111 122h139l-178 -206h-141l-176 206h139zM711 0h-652v143l492 1145h-469v146h633v-144l-494 -1145h490v-145z" />
    <glyph glyph-name="Ohorn" unicode="&#x1a0;" 
d="M70 1087q0 167 81 264t246 97q35 0 59 -4q36 -6 52 -10h80q64 0 77 23t13 81v43h119v-37q0 -105 -31 -156t-102 -63q63 -91 63 -238v-741q0 -164 -82 -262t-248 -98t-246 98q-81 99 -81 262v741zM227 338q0 -99 42 -153t128 -54q89 0 129 54q41 55 41 153v758
q0 97 -41 152t-129 55q-85 0 -128 -55q-42 -54 -42 -152v-758z" />
    <glyph glyph-name="ohorn" unicode="&#x1a1;" 
d="M70 1087q0 167 81 264t246 97q35 0 59 -4q36 -6 52 -10h80q64 0 77 23t13 81v43h119v-37q0 -105 -31 -156t-102 -63q63 -91 63 -238v-741q0 -164 -82 -262t-248 -98t-246 98q-81 99 -81 262v741zM227 338q0 -99 42 -153t128 -54q89 0 129 54q41 55 41 153v758
q0 97 -41 152t-129 55q-85 0 -128 -55q-42 -54 -42 -152v-758z" />
    <glyph glyph-name="Uhorn" unicode="&#x1af;" horiz-adv-x="804" 
d="M233 338q0 -100 40 -153q41 -54 128 -54q85 0 126 54q40 53 40 153v1096h101q51 5 61 27q10 23 10 77v43h119v-37q0 -110 -33 -160q-32 -49 -108 -59v-979q0 -164 -78 -263t-244 -99q-163 0 -241 99t-78 263v1088h157v-1096z" />
    <glyph glyph-name="uhorn" unicode="&#x1b0;" horiz-adv-x="804" 
d="M233 338q0 -100 40 -153q41 -54 128 -54q85 0 126 54q40 53 40 153v1096h101q51 5 61 27q10 23 10 77v43h119v-37q0 -110 -33 -160q-32 -49 -108 -59v-979q0 -164 -78 -263t-244 -99q-163 0 -241 99t-78 263v1088h157v-1096z" />
    <glyph glyph-name="uni02BC" unicode="&#x2bc;" horiz-adv-x="327" 
d="M166 1055h-66l52 180h-60v199h154v-183z" />
    <glyph glyph-name="circumflex" unicode="&#x2c6;" horiz-adv-x="512" 
d="M147 1532h-139l178 205h142l176 -205h-139l-109 121z" />
    <glyph glyph-name="caron" unicode="&#x2c7;" horiz-adv-x="512" 
d="M147 1737l109 -123l109 123h139l-176 -205h-142l-178 205h139z" />
    <glyph glyph-name="breve" unicode="&#x2d8;" horiz-adv-x="516" 
d="M473 1708q-2 -97 -58 -152t-159 -55q-101 0 -155 55q-55 56 -56 152h96q4 -59 36 -83q30 -23 79 -23q53 0 83 23q32 24 36 83h98z" />
    <glyph glyph-name="dotaccent" unicode="&#x2d9;" horiz-adv-x="405" 
d="M272 1706v-184h-139v184h139z" />
    <glyph glyph-name="ring" unicode="&#x2da;" horiz-adv-x="479" 
d="M240 1817q63 0 106 -43t43 -107q0 -63 -43 -106t-106 -43q-65 0 -108 43q-44 44 -44 106q0 63 44 107q43 43 108 43zM240 1741q-34 0 -55 -21t-21 -53t21 -53t55 -21q31 0 52 21t21 53t-21 53t-52 21z" />
    <glyph glyph-name="ogonek" unicode="&#x2db;" horiz-adv-x="464" 
d="M297 6q-43 -32 -64 -75q-20 -39 -18 -72q0 -32 24 -47t52 -15q27 0 47 5q9 2 35 14v-84q-31 -16 -61 -20q-33 -5 -66 -5q-66 0 -111 28q-43 27 -43 87q-2 52 34 99q36 48 101 85h70z" />
    <glyph glyph-name="tilde" unicode="&#x2dc;" horiz-adv-x="524" 
d="M512 1642q-22 -62 -60 -90q-37 -28 -85 -28q-31 0 -55 9q-29 11 -46 20q-25 13 -43 21q-21 9 -45 9q-28 0 -49 -12q-20 -11 -37 -47l-80 53q28 64 66 91q40 28 86 28q31 0 55 -9q27 -10 46 -21q11 -6 43 -20q23 -10 44 -10q26 0 46 14t36 46z" />
    <glyph glyph-name="hungarumlaut" unicode="&#x2dd;" horiz-adv-x="495" 
d="M258 1737l-164 -211h-102l119 211h147zM477 1737l-164 -211h-100l117 211h147z" />
    <glyph glyph-name="uni1EA0" unicode="&#x1ea0;" horiz-adv-x="864" 
d="M498 -121v-198h-154v198h154zM244 289l-56 -289h-147l274 1434h232l274 -1434h-159l-56 289h-362zM264 426h320l-162 827z" />
    <glyph glyph-name="uni1EA1" unicode="&#x1ea1;" horiz-adv-x="864" 
d="M498 -121v-198h-154v198h154zM244 289l-56 -289h-147l274 1434h232l274 -1434h-159l-56 289h-362zM264 426h320l-162 827z" />
    <glyph glyph-name="uni1EA2" unicode="&#x1ea2;" horiz-adv-x="864" 
d="M422 1831q75 0 110 -38t35 -99q0 -37 -14 -55q-13 -17 -31 -35l-30 -33q-15 -17 -15 -45v-17h-94v17q0 46 13 69q15 26 30 40q5 5 15 14.5t15 13.5q13 12 13 35q0 24 -10 35q-11 12 -39 12q-25 0 -38 -19q-11 -17 -11 -47v-6h-92v2q0 73 34 114q34 42 109 42zM244 289
l-56 -289h-147l274 1434h232l274 -1434h-159l-56 289h-362zM264 426h320l-162 827z" />
    <glyph glyph-name="uni1EA3" unicode="&#x1ea3;" horiz-adv-x="864" 
d="M422 1831q75 0 110 -38t35 -99q0 -37 -14 -55q-13 -17 -31 -35l-30 -33q-15 -17 -15 -45v-17h-94v17q0 46 13 69q15 26 30 40q5 5 15 14.5t15 13.5q13 12 13 35q0 24 -10 35q-11 12 -39 12q-25 0 -38 -19q-11 -17 -11 -47v-6h-92v2q0 73 34 114q34 42 109 42zM244 289
l-56 -289h-147l274 1434h232l274 -1434h-159l-56 289h-362zM264 426h320l-162 827z" />
    <glyph glyph-name="uni1EA4" unicode="&#x1ea4;" horiz-adv-x="864" 
d="M915 1884l-190 -211h-111l144 211h157zM322 1509h-140l176 205h144l176 -205h-139l-109 121zM244 289l-56 -289h-147l274 1434h232l274 -1434h-159l-56 289h-362zM264 426h320l-162 827z" />
    <glyph glyph-name="uni1EA5" unicode="&#x1ea5;" horiz-adv-x="864" 
d="M915 1884l-190 -211h-111l144 211h157zM322 1509h-140l176 205h144l176 -205h-139l-109 121zM244 289l-56 -289h-147l274 1434h232l274 -1434h-159l-56 289h-362zM264 426h320l-162 827z" />
    <glyph glyph-name="uni1EA6" unicode="&#x1ea6;" horiz-adv-x="864" 
d="M623 1884l141 -211h-117l-190 211h166zM322 1509h-140l176 205h144l176 -205h-139l-109 121zM244 289l-56 -289h-147l274 1434h232l274 -1434h-159l-56 289h-362zM264 426h320l-162 827z" />
    <glyph glyph-name="uni1EA7" unicode="&#x1ea7;" horiz-adv-x="864" 
d="M623 1884l141 -211h-117l-190 211h166zM322 1509h-140l176 205h144l176 -205h-139l-109 121zM244 289l-56 -289h-147l274 1434h232l274 -1434h-159l-56 289h-362zM264 426h320l-162 827z" />
    <glyph glyph-name="uni1EA8" unicode="&#x1ea8;" horiz-adv-x="864" 
d="M651 1995q76 0 111 -38t35 -99q0 -36 -15 -55q-20 -26 -30 -36q-21 -21 -31 -32q-14 -15 -14 -45v-17h-95v17q0 44 14 69q16 28 29 40q5 5 15 14.5t15 13.5q13 12 13 35t-10 34q-11 13 -39 13q-25 0 -38 -19q-11 -16 -11 -47v-6h-92v2q0 71 35 114q35 42 108 42z
M322 1509h-140l176 205h144l176 -205h-139l-109 121zM244 289l-56 -289h-147l274 1434h232l274 -1434h-159l-56 289h-362zM264 426h320l-162 827z" />
    <glyph glyph-name="uni1EA9" unicode="&#x1ea9;" horiz-adv-x="864" 
d="M651 1995q76 0 111 -38t35 -99q0 -36 -15 -55q-20 -26 -30 -36q-21 -21 -31 -32q-14 -15 -14 -45v-17h-95v17q0 44 14 69q16 28 29 40q5 5 15 14.5t15 13.5q13 12 13 35t-10 34q-11 13 -39 13q-25 0 -38 -19q-11 -16 -11 -47v-6h-92v2q0 71 35 114q35 42 108 42z
M322 1509h-140l176 205h144l176 -205h-139l-109 121zM244 289l-56 -289h-147l274 1434h232l274 -1434h-159l-56 289h-362zM264 426h320l-162 827z" />
    <glyph glyph-name="uni1EAA" unicode="&#x1eaa;" horiz-adv-x="864" 
d="M672 1882q-45 -113 -135 -113q-25 0 -52 9q-23 8 -43 19q-24 14 -41 21q-21 9 -41 9q-30 0 -47 -13t-34 -47l-74 54q27 59 61 86q34 26 80 28q28 0 52 -9q26 -10 44 -20q23 -13 40 -21q20 -9 40 -9q24 2 43 14t35 45zM322 1509h-140l176 205h144l176 -205h-139l-109 121z
M244 289l-56 -289h-147l274 1434h232l274 -1434h-159l-56 289h-362zM264 426h320l-162 827z" />
    <glyph glyph-name="uni1EAB" unicode="&#x1eab;" horiz-adv-x="864" 
d="M672 1882q-45 -113 -135 -113q-25 0 -52 9q-23 8 -43 19q-24 14 -41 21q-21 9 -41 9q-30 0 -47 -13t-34 -47l-74 54q27 59 61 86q34 26 80 28q28 0 52 -9q26 -10 44 -20q23 -13 40 -21q20 -9 40 -9q24 2 43 14t35 45zM322 1509h-140l176 205h144l176 -205h-139l-109 121z
M244 289l-56 -289h-147l274 1434h232l274 -1434h-159l-56 289h-362zM264 426h320l-162 827z" />
    <glyph glyph-name="uni1EAC" unicode="&#x1eac;" horiz-adv-x="864" 
d="M498 -121v-198h-154v198h154zM322 1509h-140l176 205h144l176 -205h-139l-109 121zM244 289l-56 -289h-147l274 1434h232l274 -1434h-159l-56 289h-362zM264 426h320l-162 827z" />
    <glyph glyph-name="uni1EAD" unicode="&#x1ead;" horiz-adv-x="864" 
d="M498 -121v-198h-154v198h154zM322 1509h-140l176 205h144l176 -205h-139l-109 121zM244 289l-56 -289h-147l274 1434h232l274 -1434h-159l-56 289h-362zM264 426h320l-162 827z" />
    <glyph glyph-name="uni1EAE" unicode="&#x1eae;" horiz-adv-x="864" 
d="M670 1964l-189 -211h-112l143 211h158zM643 1708q0 -96 -57 -152q-56 -55 -158 -55q-101 0 -155 55q-55 56 -56 152h96q4 -59 36 -83q30 -23 79 -23q50 0 82 23q33 24 37 83h96zM244 289l-56 -289h-147l274 1434h232l274 -1434h-159l-56 289h-362zM264 426h320l-162 827z
" />
    <glyph glyph-name="uni1EAF" unicode="&#x1eaf;" horiz-adv-x="864" 
d="M670 1964l-189 -211h-112l143 211h158zM643 1708q0 -96 -57 -152q-56 -55 -158 -55q-101 0 -155 55q-55 56 -56 152h96q4 -59 36 -83q30 -23 79 -23q50 0 82 23q33 24 37 83h96zM244 289l-56 -289h-147l274 1434h232l274 -1434h-159l-56 289h-362zM264 426h320l-162 827z
" />
    <glyph glyph-name="uni1EB0" unicode="&#x1eb0;" horiz-adv-x="864" 
d="M356 1964l142 -211h-117l-191 211h166zM643 1708q0 -96 -57 -152q-56 -55 -158 -55q-101 0 -155 55q-55 56 -56 152h96q4 -59 36 -83q30 -23 79 -23q50 0 82 23q33 24 37 83h96zM244 289l-56 -289h-147l274 1434h232l274 -1434h-159l-56 289h-362zM264 426h320l-162 827z
" />
    <glyph glyph-name="uni1EB1" unicode="&#x1eb1;" horiz-adv-x="864" 
d="M356 1964l142 -211h-117l-191 211h166zM643 1708q0 -96 -57 -152q-56 -55 -158 -55q-101 0 -155 55q-55 56 -56 152h96q4 -59 36 -83q30 -23 79 -23q50 0 82 23q33 24 37 83h96zM244 289l-56 -289h-147l274 1434h232l274 -1434h-159l-56 289h-362zM264 426h320l-162 827z
" />
    <glyph glyph-name="uni1EB2" unicode="&#x1eb2;" horiz-adv-x="864" 
d="M422 2075q75 0 110 -38t35 -100q0 -36 -14 -54q-17 -22 -31 -36q-10 -10 -30 -32q-15 -17 -15 -46v-16h-94v16q0 47 13 70q15 26 30 40q5 5 15 14.5t15 13.5q13 12 13 35t-10 34q-11 13 -39 13q-25 0 -38 -19q-11 -16 -11 -47v-6h-92v2q0 73 34 114q34 42 109 42z
M643 1708q0 -96 -57 -152q-56 -55 -158 -55q-101 0 -155 55q-55 56 -56 152h96q4 -59 36 -83q30 -23 79 -23q50 0 82 23q33 24 37 83h96zM244 289l-56 -289h-147l274 1434h232l274 -1434h-159l-56 289h-362zM264 426h320l-162 827z" />
    <glyph glyph-name="uni1EB3" unicode="&#x1eb3;" horiz-adv-x="864" 
d="M422 2075q75 0 110 -38t35 -100q0 -36 -14 -54q-17 -22 -31 -36q-10 -10 -30 -32q-15 -17 -15 -46v-16h-94v16q0 47 13 70q15 26 30 40q5 5 15 14.5t15 13.5q13 12 13 35t-10 34q-11 13 -39 13q-25 0 -38 -19q-11 -16 -11 -47v-6h-92v2q0 73 34 114q34 42 109 42z
M643 1708q0 -96 -57 -152q-56 -55 -158 -55q-101 0 -155 55q-55 56 -56 152h96q4 -59 36 -83q30 -23 79 -23q50 0 82 23q33 24 37 83h96zM244 289l-56 -289h-147l274 1434h232l274 -1434h-159l-56 289h-362zM264 426h320l-162 827z" />
    <glyph glyph-name="uni1EB4" unicode="&#x1eb4;" horiz-adv-x="864" 
d="M336 1913q28 0 51 -9q15 -6 43 -20l39 -19q20 -10 39 -10q48 4 76 58l73 -51q-45 -107 -133 -107q-27 0 -51 8q-18 6 -42 19q-13 7 -39 19q-20 9 -42 9q-25 0 -43 -12q-19 -12 -35 -45l-73 51q23 59 58 82q38 26 79 27zM643 1708q0 -96 -57 -152q-56 -55 -158 -55
q-101 0 -155 55q-55 56 -56 152h96q4 -59 36 -83q30 -23 79 -23q50 0 82 23q33 24 37 83h96zM244 289l-56 -289h-147l274 1434h232l274 -1434h-159l-56 289h-362zM264 426h320l-162 827z" />
    <glyph glyph-name="uni1EB5" unicode="&#x1eb5;" horiz-adv-x="864" 
d="M336 1913q28 0 51 -9q15 -6 43 -20l39 -19q20 -10 39 -10q48 4 76 58l73 -51q-45 -107 -133 -107q-27 0 -51 8q-18 6 -42 19q-13 7 -39 19q-20 9 -42 9q-25 0 -43 -12q-19 -12 -35 -45l-73 51q23 59 58 82q38 26 79 27zM643 1708q0 -96 -57 -152q-56 -55 -158 -55
q-101 0 -155 55q-55 56 -56 152h96q4 -59 36 -83q30 -23 79 -23q50 0 82 23q33 24 37 83h96zM244 289l-56 -289h-147l274 1434h232l274 -1434h-159l-56 289h-362zM264 426h320l-162 827z" />
    <glyph glyph-name="uni1EB6" unicode="&#x1eb6;" horiz-adv-x="864" 
d="M498 -121v-198h-154v198h154zM643 1708q0 -96 -57 -152q-56 -55 -158 -55q-101 0 -155 55q-55 56 -56 152h96q4 -59 36 -83q30 -23 79 -23q50 0 82 23q33 24 37 83h96zM244 289l-56 -289h-147l274 1434h232l274 -1434h-159l-56 289h-362zM264 426h320l-162 827z" />
    <glyph glyph-name="uni1EB7" unicode="&#x1eb7;" horiz-adv-x="864" 
d="M498 -121v-198h-154v198h154zM643 1708q0 -96 -57 -152q-56 -55 -158 -55q-101 0 -155 55q-55 56 -56 152h96q4 -59 36 -83q30 -23 79 -23q50 0 82 23q33 24 37 83h96zM244 289l-56 -289h-147l274 1434h232l274 -1434h-159l-56 289h-362zM264 426h320l-162 827z" />
    <glyph glyph-name="uni1EB8" unicode="&#x1eb8;" horiz-adv-x="737" 
d="M440 -121v-198h-153v198h153zM592 799v-144h-350v-510h430v-145h-590v1434h590v-146h-430v-489h350z" />
    <glyph glyph-name="uni1EB9" unicode="&#x1eb9;" horiz-adv-x="737" 
d="M440 -121v-198h-153v198h153zM592 799v-144h-350v-510h430v-145h-590v1434h590v-146h-430v-489h350z" />
    <glyph glyph-name="uni1EBA" unicode="&#x1eba;" horiz-adv-x="737" 
d="M387 1831q76 0 111 -38q34 -37 34 -99q0 -37 -14 -55q-13 -17 -31 -35l-30 -33q-15 -17 -15 -45v-17h-94v17q0 46 13 69q15 26 30 40q5 5 15 14.5t15 13.5q13 12 13 35q0 24 -10 35q-10 12 -39 12q-25 0 -38 -19q-11 -17 -11 -47v-6h-92v2q0 71 35 114q35 42 108 42z
M592 799v-144h-350v-510h430v-145h-590v1434h590v-146h-430v-489h350z" />
    <glyph glyph-name="uni1EBB" unicode="&#x1ebb;" horiz-adv-x="737" 
d="M387 1831q76 0 111 -38q34 -37 34 -99q0 -37 -14 -55q-13 -17 -31 -35l-30 -33q-15 -17 -15 -45v-17h-94v17q0 46 13 69q15 26 30 40q5 5 15 14.5t15 13.5q13 12 13 35q0 24 -10 35q-10 12 -39 12q-25 0 -38 -19q-11 -17 -11 -47v-6h-92v2q0 71 35 114q35 42 108 42z
M592 799v-144h-350v-510h430v-145h-590v1434h590v-146h-430v-489h350z" />
    <glyph glyph-name="uni1EBC" unicode="&#x1ebc;" horiz-adv-x="737" 
d="M625 1642q-24 -61 -63 -89q-38 -27 -85 -27q-30 0 -54 9q-29 11 -45 20q-21 12 -42 21t-45 9q-29 0 -49 -13t-37 -48l-80 55q24 63 63 90q40 28 86 29q32 0 56 -9q22 -8 46 -22q18 -10 43 -21q23 -10 44 -10q25 1 46 16q20 14 36 46zM592 799v-144h-350v-510h430v-145
h-590v1434h590v-146h-430v-489h350z" />
    <glyph glyph-name="uni1EBD" unicode="&#x1ebd;" horiz-adv-x="737" 
d="M625 1642q-24 -61 -63 -89q-38 -27 -85 -27q-30 0 -54 9q-29 11 -45 20q-21 12 -42 21t-45 9q-29 0 -49 -13t-37 -48l-80 55q24 63 63 90q40 28 86 29q32 0 56 -9q22 -8 46 -22q18 -10 43 -21q23 -10 44 -10q25 1 46 16q20 14 36 46zM592 799v-144h-350v-510h430v-145
h-590v1434h590v-146h-430v-489h350z" />
    <glyph glyph-name="uni1EBE" unicode="&#x1ebe;" horiz-adv-x="737" 
d="M860 1888l-190 -211h-111l143 211h158zM266 1513h-139l176 207h141l179 -207h-140l-110 123zM592 799v-144h-350v-510h430v-145h-590v1434h590v-146h-430v-489h350z" />
    <glyph glyph-name="uni1EBF" unicode="&#x1ebf;" horiz-adv-x="737" 
d="M858 1888l-190 -211h-111l143 211h158zM266 1513h-139l176 207h141l179 -207h-140l-110 123zM592 799v-144h-350v-510h430v-145h-590v1434h590v-146h-430v-489h350z" />
    <glyph glyph-name="uni1EC0" unicode="&#x1ec0;" horiz-adv-x="737" 
d="M565 1888l142 -211h-117l-191 211h166zM266 1513h-139l176 207h141l179 -207h-140l-110 123zM592 799v-144h-350v-510h430v-145h-590v1434h590v-146h-430v-489h350z" />
    <glyph glyph-name="uni1EC1" unicode="&#x1ec1;" horiz-adv-x="737" 
d="M565 1888l142 -211h-117l-191 211h166zM266 1513h-139l176 207h141l179 -207h-140l-110 123zM592 799v-144h-350v-510h430v-145h-590v1434h590v-146h-430v-489h350z" />
    <glyph glyph-name="uni1EC2" unicode="&#x1ec2;" horiz-adv-x="737" 
d="M594 1999q76 0 111 -38q34 -37 34 -99q0 -37 -14 -55q-13 -17 -31 -35q-5 -5 -10 -10.5t-11 -12t-9 -10.5q-15 -17 -15 -45v-17h-94v17q0 46 13 69q15 26 30 40q5 5 15 14.5t15 13.5q13 12 13 35q0 24 -10 35q-11 12 -39 12q-25 0 -38 -19q-11 -17 -11 -47v-6h-92v2
q0 73 34 114q35 42 109 42zM266 1513h-139l176 207h141l179 -207h-140l-110 123zM592 799v-144h-350v-510h430v-145h-590v1434h590v-146h-430v-489h350z" />
    <glyph glyph-name="uni1EC3" unicode="&#x1ec3;" horiz-adv-x="737" 
d="M594 1999q76 0 111 -38q34 -37 34 -99q0 -37 -14 -55q-13 -17 -31 -35q-5 -5 -10 -10.5t-11 -12t-9 -10.5q-15 -17 -15 -45v-17h-94v17q0 46 13 69q15 26 30 40q5 5 15 14.5t15 13.5q13 12 13 35q0 24 -10 35q-11 12 -39 12q-25 0 -38 -19q-11 -17 -11 -47v-6h-92v2
q0 73 34 114q35 42 109 42zM266 1513h-139l176 207h141l179 -207h-140l-110 123zM592 799v-144h-350v-510h430v-145h-590v1434h590v-146h-430v-489h350z" />
    <glyph glyph-name="uni1EC4" unicode="&#x1ec4;" horiz-adv-x="737" 
d="M614 1886q-45 -112 -135 -112q-27 0 -51 8q-23 8 -43 19q-24 14 -41 21q-21 9 -41 9q-30 0 -47 -13q-19 -14 -35 -46l-74 53q26 58 62 86q34 26 80 28q28 0 52 -9q26 -10 44 -20q23 -13 40 -21q20 -9 40 -9q24 2 43 14t35 45zM266 1513h-139l176 207h141l179 -207h-140
l-110 123zM592 799v-144h-350v-510h430v-145h-590v1434h590v-146h-430v-489h350z" />
    <glyph glyph-name="uni1EC5" unicode="&#x1ec5;" horiz-adv-x="737" 
d="M614 1886q-45 -112 -135 -112q-27 0 -51 8q-23 8 -43 19q-24 14 -41 21q-21 9 -41 9q-30 0 -47 -13q-19 -14 -35 -46l-74 53q26 58 62 86q34 26 80 28q28 0 52 -9q26 -10 44 -20q23 -13 40 -21q20 -9 40 -9q24 2 43 14t35 45zM266 1513h-139l176 207h141l179 -207h-140
l-110 123zM592 799v-144h-350v-510h430v-145h-590v1434h590v-146h-430v-489h350z" />
    <glyph glyph-name="uni1EC6" unicode="&#x1ec6;" horiz-adv-x="737" 
d="M440 -121v-198h-153v198h153zM266 1513h-139l176 207h141l179 -207h-140l-110 123zM592 799v-144h-350v-510h430v-145h-590v1434h590v-146h-430v-489h350z" />
    <glyph glyph-name="uni1EC7" unicode="&#x1ec7;" horiz-adv-x="737" 
d="M440 -121v-198h-153v198h153zM266 1513h-139l176 207h141l179 -207h-140l-110 123zM592 799v-144h-350v-510h430v-145h-590v1434h590v-146h-430v-489h350z" />
    <glyph glyph-name="uni1EC8" unicode="&#x1ec8;" horiz-adv-x="323" 
d="M154 1831q75 0 110 -38t35 -99q0 -37 -14 -55q-13 -17 -31 -35q-11 -11 -31 -33q-14 -15 -14 -45v-17h-94v17q0 46 13 69q15 26 30 40q6 5 15.5 14.5l13.5 13.5q14 12 14 35q0 22 -11 35q-11 12 -38 12q-25 0 -38 -19q-12 -18 -12 -47v-6h-92v2q0 71 35 114q35 42 109 42
zM242 1434v-1434h-160v1434h160z" />
    <glyph glyph-name="uni1EC9" unicode="&#x1ec9;" horiz-adv-x="323" 
d="M154 1831q75 0 110 -38t35 -99q0 -37 -14 -55q-13 -17 -31 -35q-11 -11 -31 -33q-14 -15 -14 -45v-17h-94v17q0 46 13 69q15 26 30 40q6 5 15.5 14.5l13.5 13.5q14 12 14 35q0 22 -11 35q-11 12 -38 12q-25 0 -38 -19q-12 -18 -12 -47v-6h-92v2q0 71 35 114q35 42 109 42
zM242 1434v-1434h-160v1434h160z" />
    <glyph glyph-name="uni1ECA" unicode="&#x1eca;" horiz-adv-x="323" 
d="M238 -121v-198h-154v198h154zM242 1434v-1434h-160v1434h160z" />
    <glyph glyph-name="uni1ECB" unicode="&#x1ecb;" horiz-adv-x="323" 
d="M238 -121v-198h-154v198h154zM242 1434v-1434h-160v1434h160z" />
    <glyph glyph-name="uni1ECC" unicode="&#x1ecc;" 
d="M473 -121v-198h-154v198h154zM70 1087q0 167 81 264t246 97q166 0 248 -97t82 -264v-741q0 -164 -82 -262t-248 -98t-246 98q-81 99 -81 262v741zM227 338q0 -99 42 -153t128 -54q89 0 129 54q41 55 41 153v758q0 97 -41 152t-129 55q-85 0 -128 -55q-42 -54 -42 -152
v-758z" />
    <glyph glyph-name="uni1ECD" unicode="&#x1ecd;" 
d="M473 -121v-198h-154v198h154zM70 1087q0 167 81 264t246 97q166 0 248 -97t82 -264v-741q0 -164 -82 -262t-248 -98t-246 98q-81 99 -81 262v741zM227 338q0 -99 42 -153t128 -54q89 0 129 54q41 55 41 153v758q0 97 -41 152t-129 55q-85 0 -128 -55q-42 -54 -42 -152
v-758z" />
    <glyph glyph-name="uni1ECE" unicode="&#x1ece;" 
d="M420 1831q75 0 110 -38t35 -99q0 -37 -14 -55q-13 -17 -31 -35q-11 -11 -31 -33q-14 -15 -14 -45v-17h-94v17q0 46 13 69q15 26 30 40q5 5 15 14.5t15 13.5q13 12 13 35q0 24 -10 35q-11 12 -39 12q-25 0 -38 -19q-11 -17 -11 -47v-6h-93v2q0 71 35 114q35 42 109 42z
M70 1087q0 167 81 264t246 97q166 0 248 -97t82 -264v-741q0 -164 -82 -262t-248 -98t-246 98q-81 99 -81 262v741zM227 338q0 -99 42 -153t128 -54q89 0 129 54q41 55 41 153v758q0 97 -41 152t-129 55q-85 0 -128 -55q-42 -54 -42 -152v-758z" />
    <glyph glyph-name="uni1ECF" unicode="&#x1ecf;" 
d="M420 1831q75 0 110 -38t35 -99q0 -37 -14 -55q-13 -17 -31 -35q-11 -11 -31 -33q-14 -15 -14 -45v-17h-94v17q0 46 13 69q15 26 30 40q5 5 15 14.5t15 13.5q13 12 13 35q0 24 -10 35q-11 12 -39 12q-25 0 -38 -19q-11 -17 -11 -47v-6h-93v2q0 71 35 114q35 42 109 42z
M70 1087q0 167 81 264t246 97q166 0 248 -97t82 -264v-741q0 -164 -82 -262t-248 -98t-246 98q-81 99 -81 262v741zM227 338q0 -99 42 -153t128 -54q89 0 129 54q41 55 41 153v758q0 97 -41 152t-129 55q-85 0 -128 -55q-42 -54 -42 -152v-758z" />
    <glyph glyph-name="uni1ED0" unicode="&#x1ed0;" 
d="M891 1892l-191 -211h-110l143 211h158zM297 1518h-139l176 206h141l178 -206h-139l-111 120zM397 1448q166 0 248 -97t82 -264v-741q0 -164 -82 -262t-248 -98t-246 98q-81 99 -81 262v741q0 167 81 264t246 97zM397 1303q-85 0 -128 -55q-42 -54 -42 -152v-758
q0 -99 42 -153t128 -54q89 0 129 54q41 55 41 153v758q0 97 -41 152t-129 55z" />
    <glyph glyph-name="uni1ED1" unicode="&#x1ed1;" 
d="M297 1518h-139l176 206h141l178 -206h-139l-111 120zM397 1448q166 0 248 -97t82 -264v-741q0 -164 -82 -262t-248 -98t-246 98q-81 99 -81 262v741q0 167 81 264t246 97zM397 1303q-85 0 -128 -55q-42 -54 -42 -152v-758q0 -99 42 -153t128 -54q89 0 129 54
q41 55 41 153v758q0 97 -41 152t-129 55zM891 1892l-191 -211h-110l143 211h158z" />
    <glyph glyph-name="uni1ED2" unicode="&#x1ed2;" 
d="M598 1892l141 -211h-116l-191 211h166zM297 1518h-139l176 206h141l178 -206h-139l-111 120zM397 1448q166 0 248 -97t82 -264v-741q0 -164 -82 -262t-248 -98t-246 98q-81 99 -81 262v741q0 167 81 264t246 97zM397 1303q-85 0 -128 -55q-42 -54 -42 -152v-758
q0 -99 42 -153t128 -54q89 0 129 54q41 55 41 153v758q0 97 -41 152t-129 55z" />
    <glyph glyph-name="uni1ED3" unicode="&#x1ed3;" 
d="M297 1518h-139l176 206h141l178 -206h-139l-111 120zM397 1448q166 0 248 -97t82 -264v-741q0 -164 -82 -262t-248 -98t-246 98q-81 99 -81 262v741q0 167 81 264t246 97zM397 1303q-85 0 -128 -55q-42 -54 -42 -152v-758q0 -99 42 -153t128 -54q89 0 129 54
q41 55 41 153v758q0 97 -41 152t-129 55zM596 1892l141 -211h-116l-191 211h166z" />
    <glyph glyph-name="uni1ED4" unicode="&#x1ed4;" 
d="M625 2003q75 0 110 -38t35 -99q0 -37 -14 -55q-13 -17 -31 -35q-11 -11 -31 -33q-14 -15 -14 -45v-17h-94v17q0 46 13 69q15 26 30 40q6 5 15.5 14.5l13.5 13.5q14 12 14 35q0 24 -10 35q-10 12 -39 12q-25 0 -38 -19q-12 -18 -12 -47v-6h-92v2q0 71 35 114q34 42 109 42
zM297 1518h-139l176 206h141l178 -206h-139l-111 120zM397 1448q166 0 248 -97t82 -264v-741q0 -164 -82 -262t-248 -98t-246 98q-81 99 -81 262v741q0 167 81 264t246 97zM397 1303q-85 0 -128 -55q-42 -54 -42 -152v-758q0 -99 42 -153t128 -54q89 0 129 54q41 55 41 153
v758q0 97 -41 152t-129 55z" />
    <glyph glyph-name="uni1ED5" unicode="&#x1ed5;" 
d="M297 1518h-139l176 206h141l178 -206h-139l-111 120zM397 1448q166 0 248 -97t82 -264v-741q0 -164 -82 -262t-248 -98t-246 98q-81 99 -81 262v741q0 167 81 264t246 97zM397 1303q-85 0 -128 -55q-42 -54 -42 -152v-758q0 -99 42 -153t128 -54q89 0 129 54
q41 55 41 153v758q0 97 -41 152t-129 55zM625 2003q75 0 110 -38t35 -99q0 -37 -14 -55q-13 -17 -31 -35q-11 -11 -31 -33q-14 -15 -14 -45v-17h-94v17q0 46 13 69q15 26 30 40q6 5 15.5 14.5l13.5 13.5q14 12 14 35q0 24 -10 35q-10 12 -39 12q-25 0 -38 -19
q-12 -18 -12 -47v-6h-92v2q0 71 35 114q34 42 109 42z" />
    <glyph glyph-name="uni1ED6" unicode="&#x1ed6;" 
d="M645 1890q-45 -112 -135 -112q-27 0 -51 8q-23 8 -43 19q-24 14 -41 21q-21 9 -41 9q-30 0 -47 -13q-19 -14 -35 -46l-74 53q26 58 62 86q35 28 79 29q26 0 53 -10q26 -10 44 -20q23 -13 40 -21q20 -9 40 -9q24 2 43 14q17 11 34 46zM297 1518h-139l176 206h141l178 -206
h-139l-111 120zM397 1448q166 0 248 -97t82 -264v-741q0 -164 -82 -262t-248 -98t-246 98q-81 99 -81 262v741q0 167 81 264t246 97zM397 1303q-85 0 -128 -55q-42 -54 -42 -152v-758q0 -99 42 -153t128 -54q89 0 129 54q41 55 41 153v758q0 97 -41 152t-129 55z" />
    <glyph glyph-name="uni1ED7" unicode="&#x1ed7;" 
d="M297 1518h-139l176 206h141l178 -206h-139l-111 120zM397 1448q166 0 248 -97t82 -264v-741q0 -164 -82 -262t-248 -98t-246 98q-81 99 -81 262v741q0 167 81 264t246 97zM397 1303q-85 0 -128 -55q-42 -54 -42 -152v-758q0 -99 42 -153t128 -54q89 0 129 54
q41 55 41 153v758q0 97 -41 152t-129 55zM645 1890q-45 -112 -135 -112q-27 0 -51 8q-23 8 -43 19q-24 14 -41 21q-21 9 -41 9q-30 0 -47 -13q-19 -14 -35 -46l-74 53q26 58 62 86q35 28 79 29q26 0 53 -10q26 -10 44 -20q23 -13 40 -21q20 -9 40 -9q24 2 43 14q17 11 34 46
z" />
    <glyph glyph-name="uni1ED8" unicode="&#x1ed8;" 
d="M473 -121v-198h-154v198h154zM297 1518h-139l176 206h141l178 -206h-139l-111 120zM397 1448q166 0 248 -97t82 -264v-741q0 -164 -82 -262t-248 -98t-246 98q-81 99 -81 262v741q0 167 81 264t246 97zM397 1303q-85 0 -128 -55q-42 -54 -42 -152v-758q0 -99 42 -153
t128 -54q89 0 129 54q41 55 41 153v758q0 97 -41 152t-129 55z" />
    <glyph glyph-name="uni1ED9" unicode="&#x1ed9;" 
d="M297 1518h-139l176 206h141l178 -206h-139l-111 120zM397 1448q166 0 248 -97t82 -264v-741q0 -164 -82 -262t-248 -98t-246 98q-81 99 -81 262v741q0 167 81 264t246 97zM397 1303q-85 0 -128 -55q-42 -54 -42 -152v-758q0 -99 42 -153t128 -54q89 0 129 54
q41 55 41 153v758q0 97 -41 152t-129 55zM473 -121v-198h-154v198h154z" />
    <glyph glyph-name="uni1EDA" unicode="&#x1eda;" 
d="M645 1731l-190 -211h-111l143 211h158zM70 1087q0 167 81 264t246 97q35 0 59 -4q36 -6 52 -10h80q64 0 77 23t13 81v43h119v-37q0 -105 -31 -156t-102 -63q63 -91 63 -238v-741q0 -164 -82 -262t-248 -98t-246 98q-81 99 -81 262v741zM227 338q0 -99 42 -153t128 -54
q89 0 129 54q41 55 41 153v758q0 97 -41 152t-129 55q-85 0 -128 -55q-42 -54 -42 -152v-758z" />
    <glyph glyph-name="uni1EDB" unicode="&#x1edb;" 
d="M645 1731l-190 -211h-111l143 211h158zM70 1087q0 167 81 264t246 97q35 0 59 -4q36 -6 52 -10h80q64 0 77 23t13 81v43h119v-37q0 -105 -31 -156t-102 -63q63 -91 63 -238v-741q0 -164 -82 -262t-248 -98t-246 98q-81 99 -81 262v741zM227 338q0 -99 42 -153t128 -54
q89 0 129 54q41 55 41 153v758q0 97 -41 152t-129 55q-85 0 -128 -55q-42 -54 -42 -152v-758z" />
    <glyph glyph-name="uni1EDC" unicode="&#x1edc;" 
d="M385 1731l141 -211h-116l-191 211h166zM70 1087q0 167 81 264t246 97q35 0 59 -4q36 -6 52 -10h80q64 0 77 23t13 81v43h119v-37q0 -105 -31 -156t-102 -63q63 -91 63 -238v-741q0 -164 -82 -262t-248 -98t-246 98q-81 99 -81 262v741zM227 338q0 -99 42 -153t128 -54
q89 0 129 54q41 55 41 153v758q0 97 -41 152t-129 55q-85 0 -128 -55q-42 -54 -42 -152v-758z" />
    <glyph glyph-name="uni1EDD" unicode="&#x1edd;" 
d="M385 1731l141 -211h-116l-191 211h166zM70 1087q0 167 81 264t246 97q35 0 59 -4q36 -6 52 -10h80q64 0 77 23t13 81v43h119v-37q0 -105 -31 -156t-102 -63q63 -91 63 -238v-741q0 -164 -82 -262t-248 -98t-246 98q-81 99 -81 262v741zM227 338q0 -99 42 -153t128 -54
q89 0 129 54q41 55 41 153v758q0 97 -41 152t-129 55q-85 0 -128 -55q-42 -54 -42 -152v-758z" />
    <glyph glyph-name="uni1EDE" unicode="&#x1ede;" 
d="M420 1831q75 0 110 -38t35 -99q0 -37 -14 -55q-13 -17 -31 -35q-11 -11 -31 -33q-14 -15 -14 -45v-17h-94v17q0 46 13 69q15 26 30 40q5 5 15 14.5t15 13.5q13 12 13 35q0 24 -10 35q-11 12 -39 12q-25 0 -38 -19q-11 -17 -11 -47v-6h-93v2q0 71 35 114q35 42 109 42z
M70 1087q0 167 81 264t246 97q35 0 59 -4q36 -6 52 -10h80q64 0 77 23t13 81v43h119v-37q0 -105 -31 -156t-102 -63q63 -91 63 -238v-741q0 -164 -82 -262t-248 -98t-246 98q-81 99 -81 262v741zM227 338q0 -99 42 -153t128 -54q89 0 129 54q41 55 41 153v758q0 97 -41 152
t-129 55q-85 0 -128 -55q-42 -54 -42 -152v-758z" />
    <glyph glyph-name="uni1EDF" unicode="&#x1edf;" 
d="M420 1831q75 0 110 -38t35 -99q0 -37 -14 -55q-13 -17 -31 -35q-11 -11 -31 -33q-14 -15 -14 -45v-17h-94v17q0 46 13 69q15 26 30 40q5 5 15 14.5t15 13.5q13 12 13 35q0 24 -10 35q-11 12 -39 12q-25 0 -38 -19q-11 -17 -11 -47v-6h-93v2q0 71 35 114q35 42 109 42z
M70 1087q0 167 81 264t246 97q35 0 59 -4q36 -6 52 -10h80q64 0 77 23t13 81v43h119v-37q0 -105 -31 -156t-102 -63q63 -91 63 -238v-741q0 -164 -82 -262t-248 -98t-246 98q-81 99 -81 262v741zM227 338q0 -99 42 -153t128 -54q89 0 129 54q41 55 41 153v758q0 97 -41 152
t-129 55q-85 0 -128 -55q-42 -54 -42 -152v-758z" />
    <glyph glyph-name="uni1EE0" unicode="&#x1ee0;" 
d="M672 1642q-22 -61 -61 -89q-37 -27 -85 -27q-30 0 -54 9q-29 11 -46 20q-25 13 -43 21q-21 9 -45 9q-29 0 -49 -13t-37 -48l-80 55q27 63 66 90q40 28 86 29q31 0 55 -9q22 -8 46 -22q18 -10 43 -21q23 -10 44 -10q25 1 46 16q20 14 36 46zM70 1087q0 167 81 264t246 97
q35 0 59 -4q36 -6 52 -10h80q64 0 77 23t13 81v43h119v-37q0 -105 -31 -156t-102 -63q63 -91 63 -238v-741q0 -164 -82 -262t-248 -98t-246 98q-81 99 -81 262v741zM227 338q0 -99 42 -153t128 -54q89 0 129 54q41 55 41 153v758q0 97 -41 152t-129 55q-85 0 -128 -55
q-42 -54 -42 -152v-758z" />
    <glyph glyph-name="uni1EE1" unicode="&#x1ee1;" 
d="M672 1642q-22 -61 -61 -89q-37 -27 -85 -27q-30 0 -54 9q-29 11 -46 20q-25 13 -43 21q-21 9 -45 9q-29 0 -49 -13t-37 -48l-80 55q27 63 66 90q40 28 86 29q31 0 55 -9q22 -8 46 -22q18 -10 43 -21q23 -10 44 -10q25 1 46 16q20 14 36 46zM70 1087q0 167 81 264t246 97
q35 0 59 -4q36 -6 52 -10h80q64 0 77 23t13 81v43h119v-37q0 -105 -31 -156t-102 -63q63 -91 63 -238v-741q0 -164 -82 -262t-248 -98t-246 98q-81 99 -81 262v741zM227 338q0 -99 42 -153t128 -54q89 0 129 54q41 55 41 153v758q0 97 -41 152t-129 55q-85 0 -128 -55
q-42 -54 -42 -152v-758z" />
    <glyph glyph-name="uni1EE2" unicode="&#x1ee2;" 
d="M473 -121v-198h-154v198h154zM70 1087q0 167 81 264t246 97q35 0 59 -4q36 -6 52 -10h80q64 0 77 23t13 81v43h119v-37q0 -105 -31 -156t-102 -63q63 -91 63 -238v-741q0 -164 -82 -262t-248 -98t-246 98q-81 99 -81 262v741zM227 338q0 -99 42 -153t128 -54q89 0 129 54
q41 55 41 153v758q0 97 -41 152t-129 55q-85 0 -128 -55q-42 -54 -42 -152v-758z" />
    <glyph glyph-name="uni1EE3" unicode="&#x1ee3;" 
d="M473 -121v-198h-154v198h154zM70 1087q0 167 81 264t246 97q35 0 59 -4q36 -6 52 -10h80q64 0 77 23t13 81v43h119v-37q0 -105 -31 -156t-102 -63q63 -91 63 -238v-741q0 -164 -82 -262t-248 -98t-246 98q-81 99 -81 262v741zM227 338q0 -99 42 -153t128 -54q89 0 129 54
q41 55 41 153v758q0 97 -41 152t-129 55q-85 0 -128 -55q-42 -54 -42 -152v-758z" />
    <glyph glyph-name="uni1EE4" unicode="&#x1ee4;" horiz-adv-x="792" 
d="M233 338q0 -100 40 -153q41 -54 128 -54q85 0 126 54q40 53 40 153v1096h150v-1088q0 -164 -78 -263t-244 -99q-163 0 -241 99t-78 263v1088h157v-1096zM473 -121v-198h-154v198h154z" />
    <glyph glyph-name="uni1EE5" unicode="&#x1ee5;" horiz-adv-x="792" 
d="M473 -121v-198h-154v198h154zM233 338q0 -100 40 -153q41 -54 128 -54q85 0 126 54q40 53 40 153v1096h150v-1088q0 -164 -78 -263t-244 -99q-163 0 -241 99t-78 263v1088h157v-1096z" />
    <glyph glyph-name="uni1EE6" unicode="&#x1ee6;" horiz-adv-x="792" 
d="M399 1831q76 0 111 -38t35 -99q0 -35 -15 -55q-17 -22 -30 -35q-11 -11 -31 -33q-14 -15 -14 -45v-17h-95v17q0 44 14 69q16 28 29 40q5 5 15 14.5t15 13.5q13 12 13 35q0 24 -10 35q-10 12 -39 12q-25 0 -38 -19q-11 -17 -11 -47v-6h-92v2q0 71 35 114q35 42 108 42z
M233 338q0 -100 40 -153q41 -54 128 -54q85 0 126 54q40 53 40 153v1096h150v-1088q0 -164 -78 -263t-244 -99q-163 0 -241 99t-78 263v1088h157v-1096z" />
    <glyph glyph-name="uni1EE7" unicode="&#x1ee7;" horiz-adv-x="792" 
d="M399 1831q76 0 111 -38t35 -99q0 -35 -15 -55q-17 -22 -30 -35q-11 -11 -31 -33q-14 -15 -14 -45v-17h-95v17q0 44 14 69q16 28 29 40q5 5 15 14.5t15 13.5q13 12 13 35q0 24 -10 35q-10 12 -39 12q-25 0 -38 -19q-11 -17 -11 -47v-6h-92v2q0 71 35 114q35 42 108 42z
M233 338q0 -100 40 -153q41 -54 128 -54q85 0 126 54q40 53 40 153v1096h150v-1088q0 -164 -78 -263t-244 -99q-163 0 -241 99t-78 263v1088h157v-1096z" />
    <glyph glyph-name="uni1EE8" unicode="&#x1ee8;" horiz-adv-x="804" 
d="M606 1731l-190 -211h-111l144 211h157zM233 338q0 -100 40 -153q41 -54 128 -54q85 0 126 54q40 53 40 153v1096h101q51 5 61 27q10 23 10 77v43h119v-37q0 -110 -33 -160q-32 -49 -108 -59v-979q0 -164 -78 -263t-244 -99q-163 0 -241 99t-78 263v1088h157v-1096z" />
    <glyph glyph-name="uni1EE9" unicode="&#x1ee9;" horiz-adv-x="804" 
d="M606 1731l-190 -211h-111l144 211h157zM233 338q0 -100 40 -153q41 -54 128 -54q85 0 126 54q40 53 40 153v1096h101q51 5 61 27q10 23 10 77v43h119v-37q0 -110 -33 -160q-32 -49 -108 -59v-979q0 -164 -78 -263t-244 -99q-163 0 -241 99t-78 263v1088h157v-1096z" />
    <glyph glyph-name="uni1EEA" unicode="&#x1eea;" horiz-adv-x="804" 
d="M354 1724l144 -211h-119l-191 211h166zM233 338q0 -100 40 -153q41 -54 128 -54q85 0 126 54q40 53 40 153v1096h101q51 5 61 27q10 23 10 77v43h119v-37q0 -110 -33 -160q-32 -49 -108 -59v-979q0 -164 -78 -263t-244 -99q-163 0 -241 99t-78 263v1088h157v-1096z" />
    <glyph glyph-name="uni1EEB" unicode="&#x1eeb;" horiz-adv-x="804" 
d="M354 1724l144 -211h-119l-191 211h166zM233 338q0 -100 40 -153q41 -54 128 -54q85 0 126 54q40 53 40 153v1096h101q51 5 61 27q10 23 10 77v43h119v-37q0 -110 -33 -160q-32 -49 -108 -59v-979q0 -164 -78 -263t-244 -99q-163 0 -241 99t-78 263v1088h157v-1096z" />
    <glyph glyph-name="uni1EEC" unicode="&#x1eec;" horiz-adv-x="804" 
d="M399 1831q76 0 111 -38t35 -99q0 -35 -15 -55q-17 -22 -30 -35q-11 -11 -31 -33q-14 -15 -14 -45v-17h-95v17q0 44 14 69q16 28 29 40q5 5 15 14.5t15 13.5q13 12 13 35q0 24 -10 35q-10 12 -39 12q-25 0 -38 -19q-11 -17 -11 -47v-6h-92v2q0 71 35 114q35 42 108 42z
M233 338q0 -100 40 -153q41 -54 128 -54q85 0 126 54q40 53 40 153v1096h101q51 5 61 27q10 23 10 77v43h119v-37q0 -110 -33 -160q-32 -49 -108 -59v-979q0 -164 -78 -263t-244 -99q-163 0 -241 99t-78 263v1088h157v-1096z" />
    <glyph glyph-name="uni1EED" unicode="&#x1eed;" horiz-adv-x="804" 
d="M399 1831q76 0 111 -38t35 -99q0 -35 -15 -55q-17 -22 -30 -35q-11 -11 -31 -33q-14 -15 -14 -45v-17h-95v17q0 44 14 69q16 28 29 40q5 5 15 14.5t15 13.5q13 12 13 35q0 24 -10 35q-10 12 -39 12q-25 0 -38 -19q-11 -17 -11 -47v-6h-92v2q0 71 35 114q35 42 108 42z
M233 338q0 -100 40 -153q41 -54 128 -54q85 0 126 54q40 53 40 153v1096h101q51 5 61 27q10 23 10 77v43h119v-37q0 -110 -33 -160q-32 -49 -108 -59v-979q0 -164 -78 -263t-244 -99q-163 0 -241 99t-78 263v1088h157v-1096z" />
    <glyph glyph-name="uni1EEE" unicode="&#x1eee;" horiz-adv-x="804" 
d="M649 1642q-24 -62 -62 -89t-85 -27q-31 0 -55 9q-29 11 -45 20q-21 12 -42 21t-45 9q-29 0 -49 -13t-37 -48l-79 55q24 63 63 90q40 28 86 29q31 0 55 -9q22 -8 46 -22q18 -10 43 -21q23 -10 44 -10q26 1 47 16q18 13 35 46zM233 338q0 -100 40 -153q41 -54 128 -54
q85 0 126 54q40 53 40 153v1096h101q51 5 61 27q10 23 10 77v43h119v-37q0 -110 -33 -160q-32 -49 -108 -59v-979q0 -164 -78 -263t-244 -99q-163 0 -241 99t-78 263v1088h157v-1096z" />
    <glyph glyph-name="uni1EEF" unicode="&#x1eef;" horiz-adv-x="804" 
d="M649 1642q-24 -62 -62 -89t-85 -27q-31 0 -55 9q-29 11 -45 20q-21 12 -42 21t-45 9q-29 0 -49 -13t-37 -48l-79 55q24 63 63 90q40 28 86 29q31 0 55 -9q22 -8 46 -22q18 -10 43 -21q23 -10 44 -10q26 1 47 16q18 13 35 46zM233 338q0 -100 40 -153q41 -54 128 -54
q85 0 126 54q40 53 40 153v1096h101q51 5 61 27q10 23 10 77v43h119v-37q0 -110 -33 -160q-32 -49 -108 -59v-979q0 -164 -78 -263t-244 -99q-163 0 -241 99t-78 263v1088h157v-1096z" />
    <glyph glyph-name="uni1EF0" unicode="&#x1ef0;" horiz-adv-x="804" 
d="M473 -121v-198h-154v198h154zM233 338q0 -100 40 -153q41 -54 128 -54q85 0 126 54q40 53 40 153v1096h101q51 5 61 27q10 23 10 77v43h119v-37q0 -110 -33 -160q-32 -49 -108 -59v-979q0 -164 -78 -263t-244 -99q-163 0 -241 99t-78 263v1088h157v-1096z" />
    <glyph glyph-name="uni1EF1" unicode="&#x1ef1;" horiz-adv-x="804" 
d="M473 -121v-198h-154v198h154zM233 338q0 -100 40 -153q41 -54 128 -54q85 0 126 54q40 53 40 153v1096h101q51 5 61 27q10 23 10 77v43h119v-37q0 -110 -33 -160q-32 -49 -108 -59v-979q0 -164 -78 -263t-244 -99q-163 0 -241 99t-78 263v1088h157v-1096z" />
    <glyph glyph-name="Ygrave" unicode="&#x1ef2;" horiz-adv-x="831" 
d="M360 1731l142 -211h-117l-190 211h165zM336 514l-303 920h166l223 -705l225 705h152l-305 -920v-514h-158v514z" />
    <glyph glyph-name="ygrave" unicode="&#x1ef3;" horiz-adv-x="831" 
d="M360 1731l142 -211h-117l-190 211h165zM336 514l-303 920h166l223 -705l225 705h152l-305 -920v-514h-158v514z" />
    <glyph glyph-name="uni1EF4" unicode="&#x1ef4;" horiz-adv-x="831" 
d="M492 -121v-198h-154v198h154zM336 514l-303 920h166l223 -705l225 705h152l-305 -920v-514h-158v514z" />
    <glyph glyph-name="uni1EF5" unicode="&#x1ef5;" horiz-adv-x="831" 
d="M492 -121v-198h-154v198h154zM336 514l-303 920h166l223 -705l225 705h152l-305 -920v-514h-158v514z" />
    <glyph glyph-name="uni1EF6" unicode="&#x1ef6;" horiz-adv-x="831" 
d="M420 1831q75 0 110 -38t35 -99q0 -37 -14 -55q-13 -17 -31 -35q-11 -11 -31 -33q-14 -15 -14 -45v-17h-94v17q0 46 13 69q15 26 30 40q5 5 15 14.5t15 13.5q13 12 13 35q0 24 -10 35q-11 12 -39 12q-25 0 -38 -19q-11 -17 -11 -47v-6h-93v2q0 71 35 114q35 42 109 42z
M336 514l-303 920h166l223 -705l225 705h152l-305 -920v-514h-158v514z" />
    <glyph glyph-name="uni1EF7" unicode="&#x1ef7;" horiz-adv-x="831" 
d="M420 1831q75 0 110 -38t35 -99q0 -37 -14 -55q-13 -17 -31 -35q-11 -11 -31 -33q-14 -15 -14 -45v-17h-94v17q0 46 13 69q15 26 30 40q5 5 15 14.5t15 13.5q13 12 13 35q0 24 -10 35q-11 12 -39 12q-25 0 -38 -19q-11 -17 -11 -47v-6h-93v2q0 71 35 114q35 42 109 42z
M336 514l-303 920h166l223 -705l225 705h152l-305 -920v-514h-158v514z" />
    <glyph glyph-name="uni1EF8" unicode="&#x1ef8;" horiz-adv-x="831" 
d="M664 1642q-24 -61 -63 -89q-37 -27 -85 -27q-30 0 -54 9q-29 11 -45 20q-21 12 -42 21t-45 9q-29 0 -49 -13t-37 -48l-80 55q24 63 63 90q40 28 86 29q32 0 56 -9q22 -8 46 -22q18 -10 43 -21q23 -10 44 -10q25 1 46 16q20 14 36 46zM336 514l-303 920h166l223 -705
l225 705h152l-305 -920v-514h-158v514z" />
    <glyph glyph-name="uni1EF9" unicode="&#x1ef9;" horiz-adv-x="831" 
d="M664 1642q-24 -61 -63 -89q-37 -27 -85 -27q-30 0 -54 9q-29 11 -45 20q-21 12 -42 21t-45 9q-29 0 -49 -13t-37 -48l-80 55q24 63 63 90q40 28 86 29q32 0 56 -9q22 -8 46 -22q18 -10 43 -21q23 -10 44 -10q25 1 46 16q20 14 36 46zM336 514l-303 920h166l223 -705
l225 705h152l-305 -920v-514h-158v514z" />
    <glyph glyph-name="uni1EFA" unicode="&#x1efa;" horiz-adv-x="0" 
d="M592 1434h57q64 0 77 23t13 81v43h119v-37q0 -127 -45 -175t-149 -48h-17q-15 0 -26 1q-18 2 -29 3v109z" />
    <glyph glyph-name="figuredash" unicode="&#x2012;" horiz-adv-x="870" 
d="M27 782h817v-131h-817v131z" />
    <glyph glyph-name="endash" unicode="&#x2013;" horiz-adv-x="937" 
d="M27 782h884v-131h-884v131z" />
    <glyph glyph-name="emdash" unicode="&#x2014;" horiz-adv-x="1705" 
d="M27 782h1652v-131h-1652v131z" />
    <glyph glyph-name="quoteleft" unicode="&#x2018;" horiz-adv-x="327" 
d="M160 1434h67l-51 -181h60v-198h-154v184z" />
    <glyph glyph-name="quoteright" unicode="&#x2019;" horiz-adv-x="327" 
d="M166 1055h-66l52 180h-60v199h154v-183z" />
    <glyph glyph-name="quotesinglbase" unicode="&#x201a;" horiz-adv-x="327" 
d="M166 -180h-66l52 180h-60v199h154v-185z" />
    <glyph glyph-name="quotedblleft" unicode="&#x201c;" horiz-adv-x="555" 
d="M160 1434h67l-51 -181h60v-198h-154v184zM389 1434h66l-49 -181h57v-198h-152v184z" />
    <glyph glyph-name="quotedblright" unicode="&#x201d;" horiz-adv-x="555" 
d="M156 1055h-66l49 180h-57v199h151v-185zM385 1055h-68l52 180h-60v199h154v-185z" />
    <glyph glyph-name="quotedblbase" unicode="&#x201e;" horiz-adv-x="561" 
d="M166 -180h-66l52 180h-60v199h154v-185zM401 -180h-67l51 180h-59v199h153v-185z" />
    <glyph glyph-name="dagger" unicode="&#x2020;" horiz-adv-x="806" 
d="M469 1051h279v-125h-279v-1059h-131v1059h-277v125h277v383h131v-383z" />
    <glyph glyph-name="daggerdbl" unicode="&#x2021;" horiz-adv-x="806" 
d="M469 1051h279v-125h-279v-549h279v-125h-279v-385h-131v385h-277v125h277v549h-277v125h277v383h131v-383z" />
    <glyph glyph-name="bullet" unicode="&#x2022;" horiz-adv-x="671" 
d="M336 932q45 0 84 -18t67 -46q30 -30 47 -67t17 -84t-17 -84q-18 -38 -47 -69q-28 -30 -67 -46q-38 -16 -84 -16t-84 16q-40 17 -69 46t-46 69q-16 38 -16 84t16 84q16 39 46 67q29 28 69 46q39 18 84 18z" />
    <glyph glyph-name="ellipsis" unicode="&#x2026;" horiz-adv-x="776" 
d="M236 199v-199h-154v199h154zM465 199v-199h-154v199h154zM694 199v-199h-153v199h153z" />
    <glyph glyph-name="perthousand" unicode="&#x2030;" horiz-adv-x="1775" 
d="M279 1442q104 0 154 -64t50 -168v-452q0 -104 -50 -168t-154 -64q-105 0 -155 64t-50 168v452q0 104 50 168t155 64zM956 1434l-565 -1434h-96l565 1434h96zM279 1348q-55 0 -79 -36t-24 -95v-467q0 -60 24 -95q24 -34 79 -34q53 0 77 34q25 36 25 95v467q0 57 -25 95
q-24 36 -77 36zM983 905q107 0 156 -62t49 -167v-451q0 -106 -49 -168q-49 -63 -156 -63q-105 0 -155 63q-50 64 -50 168v451q0 103 50 167q49 62 155 62zM1497 905q107 0 156 -62t49 -167v-451q0 -106 -49 -168q-49 -63 -156 -63q-105 0 -155 63q-50 64 -50 168v451
q0 103 50 167q49 62 155 62zM983 811q-54 0 -78 -35q-24 -34 -24 -94v-465q0 -59 24 -95t78 -36t78 36t24 95v465q0 60 -24 94q-24 35 -78 35zM1497 811q-53 0 -77 -35q-23 -33 -23 -94v-465q0 -61 23 -95q24 -36 77 -36q54 0 78 36t24 95v465q0 60 -24 94q-24 35 -78 35z
" />
    <glyph glyph-name="guilsinglleft" unicode="&#x2039;" horiz-adv-x="374" 
d="M49 719l127 526h152l-127 -526l127 -549h-152z" />
    <glyph glyph-name="guilsinglright" unicode="&#x203a;" horiz-adv-x="374" 
d="M174 719l-125 526h150l129 -526l-129 -547h-150z" />
    <glyph glyph-name="fraction" unicode="&#x2044;" horiz-adv-x="335" 
d="M500 1434l-566 -1434h-96l565 1434h97z" />
    <glyph glyph-name="zerosuperior" unicode="&#x2070;" horiz-adv-x="567" 
d="M74 1407q0 106 51 169q50 62 158 62q106 0 158 -62q53 -64 53 -169v-467q0 -105 -53 -169q-52 -62 -158 -62q-108 0 -158 62q-51 63 -51 169v467zM176 932q0 -59 26 -94t81 -35t81 35q25 34 25 94v483q0 60 -25 94q-26 35 -81 35t-81 -35t-26 -94v-483z" />
    <glyph glyph-name="foursuperior" unicode="&#x2074;" horiz-adv-x="579" 
d="M455 899v-180h-103v180h-293v96l283 633h113v-633h71v-96h-71zM154 995h198v435z" />
    <glyph glyph-name="fivesuperior" unicode="&#x2075;" horiz-adv-x="563" 
d="M176 930q0 -60 26 -95q25 -34 79 -34q53 0 78 34q26 35 26 95v176q0 59 -26 94t-78 35q-39 0 -68 -24t-33 -72v-21h-98l27 508h358v-94h-268l-13 -272q43 71 136 71q87 0 127 -59t40 -158v-178q0 -104 -50 -168q-49 -63 -156 -63q-105 0 -155 63q-50 64 -50 168v61h98
v-67z" />
    <glyph glyph-name="sixsuperior" unicode="&#x2076;" horiz-adv-x="567" 
d="M287 1638q107 0 156 -62q51 -65 51 -167v-16h-99v22q0 61 -25 95t-79 34q-59 0 -85 -36q-26 -37 -26 -109v-197q41 92 146 92q89 0 129 -59q41 -61 41 -158v-137q0 -104 -52 -168q-51 -63 -157 -63q-107 0 -159 63q-52 62 -52 168v463q0 108 50 172q50 63 161 63z
M287 1200q-55 0 -81 -35t-26 -96v-137q0 -60 26 -95q25 -34 81 -34q53 0 80 34q26 33 26 95v137q0 63 -26 96q-27 35 -80 35z" />
    <glyph glyph-name="sevensuperior" unicode="&#x2077;" horiz-adv-x="563" 
d="M383 1534h-307v94h413v-90l-235 -819h-102z" />
    <glyph glyph-name="eightsuperior" unicode="&#x2078;" horiz-adv-x="571" 
d="M285 1638q105 0 161 -60q56 -61 56 -165v-31q0 -64 -24 -114q-24 -49 -77 -72q53 -24 77 -76q24 -51 24 -116v-68q0 -103 -55 -166q-54 -61 -162 -61q-107 0 -161 61q-54 62 -54 166v68q0 66 22 116q23 52 76 76q-51 22 -75 72q-23 47 -23 114v31q0 106 55 165
q56 60 160 60zM285 1544q-53 0 -83 -32t-30 -103v-43q0 -127 113 -127q52 0 83 31q29 29 29 96v43q0 73 -29 103q-30 32 -83 32zM285 1145q-113 0 -113 -129v-78q0 -135 113 -135q112 0 112 135v78q0 129 -112 129z" />
    <glyph glyph-name="ninesuperior" unicode="&#x2079;" horiz-adv-x="567" 
d="M281 1638q106 0 157 -63t51 -168v-463q0 -108 -50 -172q-49 -63 -160 -63q-106 0 -156 62q-51 63 -51 167v16h98v-22q0 -60 27 -95q27 -34 79 -34q111 0 111 145v197q-41 -92 -147 -92q-87 0 -127 59q-41 61 -41 158v137q0 105 51 168t158 63zM281 1544q-53 0 -80 -34
t-27 -95v-137q0 -62 27 -96q27 -35 80 -35q52 0 79 35q27 34 27 96v137q0 61 -27 95t-79 34z" />
    <glyph glyph-name="zeroinferior" unicode="&#x2080;" horiz-adv-x="567" 
d="M74 555q0 106 51 169q50 62 158 62q106 0 158 -62q53 -64 53 -169v-467q0 -105 -53 -169q-52 -62 -158 -62q-108 0 -158 62q-51 63 -51 169v467zM176 80q0 -59 26 -94t81 -35t81 35q25 34 25 94v483q0 60 -25 94q-26 35 -81 35t-81 -35t-26 -94v-483z" />
    <glyph glyph-name="oneinferior" unicode="&#x2081;" horiz-adv-x="387" 
d="M186 618q-51 -30 -125 -36v75q74 2 106 37t50 82h72v-909h-103v751z" />
    <glyph glyph-name="twoinferior" unicode="&#x2082;" horiz-adv-x="563" 
d="M291 788q105 0 155 -63q50 -64 50 -168q0 -69 -24 -125t-58 -103q-34 -48 -75 -90t-75 -84t-57 -87t-21 -99v-8h299v-94h-401v78q0 75 22 129q20 50 58 101q34 47 75 87q32 32 74 85q37 46 58 93q22 48 22 115q0 139 -106 139q-53 0 -79 -36q-26 -37 -26 -97v-78h-98v72
q0 105 49 169t158 64z" />
    <glyph glyph-name="threeinferior" unicode="&#x2083;" horiz-adv-x="563" 
d="M283 786q105 0 154 -62q50 -64 50 -169v-23q0 -143 -106 -186q55 -22 81 -72q25 -49 25 -116v-70q0 -105 -50 -169q-49 -62 -154 -62q-108 0 -157 62q-50 64 -50 169v62h98v-70q0 -59 26 -94t79 -35q106 0 106 139v70q0 133 -113 133h-55v94h59q49 0 79 33t30 92v41
q0 139 -106 139q-53 0 -79 -35t-26 -94v-47h-98v39q0 105 50 169q49 62 157 62z" />
    <glyph glyph-name="fourinferior" unicode="&#x2084;" horiz-adv-x="579" 
d="M455 45v-182h-103v182h-293v94l283 633h113v-633h71v-94h-71zM154 139h198v434z" />
    <glyph glyph-name="fiveinferior" unicode="&#x2085;" horiz-adv-x="563" 
d="M176 82q0 -60 26 -95q25 -34 79 -34q53 0 78 34q26 35 26 95v176q0 59 -26 94t-78 35q-41 0 -68 -23q-29 -24 -33 -73v-21h-98l27 508h358v-94h-268l-13 -274q43 71 136 71q87 0 127 -58t40 -157v-180q0 -103 -50 -167q-49 -62 -156 -62q-106 0 -155 62q-50 64 -50 167
v64h98v-68z" />
    <glyph glyph-name="sixinferior" unicode="&#x2086;" horiz-adv-x="567" 
d="M287 786q107 0 156 -62q51 -65 51 -167v-16h-99v22q0 61 -25 95t-79 34q-59 0 -85 -36q-26 -37 -26 -109v-197q41 92 146 92q89 0 129 -59q41 -61 41 -158v-137q0 -104 -52 -168q-51 -63 -157 -63q-107 0 -159 63q-52 62 -52 168v463q0 108 50 172q50 63 161 63zM287 348
q-55 0 -81 -35t-26 -96v-137q0 -60 26 -95q25 -34 81 -34q53 0 80 34q26 33 26 95v137q0 63 -26 96q-27 35 -80 35z" />
    <glyph glyph-name="seveninferior" unicode="&#x2087;" horiz-adv-x="563" 
d="M383 686h-307v94h413v-90l-235 -819h-102z" />
    <glyph glyph-name="eightinferior" unicode="&#x2088;" horiz-adv-x="571" 
d="M285 786q105 0 161 -60q56 -61 56 -165v-31q0 -65 -24 -114t-77 -72q53 -24 77 -76q24 -51 24 -116v-68q0 -103 -55 -166q-54 -61 -162 -61q-107 0 -161 61q-54 62 -54 166v68q0 66 22 116q23 52 76 76q-51 22 -75 72q-23 47 -23 114v31q0 106 55 165q55 60 160 60z
M285 692q-53 0 -83 -32t-30 -103v-43q0 -127 113 -127q52 0 83 31q29 29 29 96v43q0 73 -29 103q-30 32 -83 32zM285 293q-113 0 -113 -129v-78q0 -135 113 -135q112 0 112 135v78q0 129 -112 129z" />
    <glyph glyph-name="nineinferior" unicode="&#x2089;" horiz-adv-x="567" 
d="M281 786q106 0 157 -63t51 -168v-463q0 -108 -50 -172q-49 -63 -160 -63q-106 0 -156 62q-51 63 -51 167v16h98v-22q0 -60 27 -95q27 -34 79 -34q111 0 111 145v197q-41 -92 -147 -92q-87 0 -127 59q-41 61 -41 158v137q0 105 51 168t158 63zM281 692q-53 0 -80 -34
t-27 -95v-137q0 -62 27 -96q27 -35 80 -35q52 0 79 35q27 34 27 96v137q0 61 -27 95t-79 34z" />
    <glyph glyph-name="Euro" unicode="&#x20ac;" horiz-adv-x="813" 
d="M117 1087q0 83 18 149t58 114q40 47 98 72q61 26 141 26t141 -26q60 -26 99 -72q38 -46 57 -114q19 -70 19 -149v-92h-150v101q0 95 -38 151t-124 56t-124 -56t-38 -151v-222h357v-81h-357v-142h357v-84h-357v-229q0 -96 38 -152q37 -55 124 -55t124 55q38 56 38 152v111
h150v-103q0 -163 -76 -261q-76 -99 -240 -99q-162 0 -239 99q-76 98 -76 261v221h-90v84h90v142h-90v81h90v213z" />
    <glyph glyph-name="uni20B9" unicode="&#x20b9;" horiz-adv-x="794" 
d="M502 1309q54 -34 77 -89q22 -53 27 -120h125v-125h-125q-10 -144 -100 -229q-88 -84 -238 -84h-35l496 -662h-172l-494 662v122h164q114 0 168 49q55 50 56 142h-385v125h385q0 102 -57 155q-59 54 -167 54h-161v125h665v-125h-229z" />
    <glyph glyph-name="uni2117" unicode="&#x2117;" horiz-adv-x="1519" 
d="M760 1442q151 0 280 -54t224 -152t147 -230q53 -135 53 -289t-53 -289q-52 -133 -147 -229t-224 -152q-128 -55 -280 -55q-153 0 -281 55q-127 55 -223 152q-95 96 -147 229q-54 137 -54 289t54 289q52 132 147 230q96 99 223 152q129 54 281 54zM760 1339
q-128 0 -240 -47q-109 -45 -190 -130q-80 -83 -125 -197t-45 -248t45 -248q46 -116 125 -198q81 -85 190 -130q112 -47 240 -47q127 0 239 47q110 46 191 130q79 82 125 198q45 114 45 248t-45 248t-125 197q-81 84 -191 130q-112 47 -239 47zM805 1137q118 0 170 -61
q51 -60 51 -171v-94q0 -117 -54 -174t-175 -57h-105v-320h-110v877h223zM791 684q65 0 95 34q29 33 29 105v70q0 66 -25 103q-26 38 -91 38h-107v-350h99z" />
    <glyph glyph-name="trademark" unicode="&#x2122;" horiz-adv-x="1193" 
d="M193 705v634h-168v95h436v-95h-166v-634h-102zM893 709h-98l-150 567v-571h-92v729h143l150 -570l143 570h144v-729h-99v575z" />
    <glyph glyph-name="uni2153" unicode="&#x2153;" horiz-adv-x="1220" 
d="M242 1276q-53 -31 -125 -37v76q73 1 105 37q32 35 50 82h72v-910h-102v752zM899 1434l-565 -1434h-96l565 1434h96zM938 920q108 0 157 -63q50 -64 50 -169v-22q0 -143 -109 -187q58 -23 83 -71q26 -50 26 -117v-70q0 -105 -50 -169q-49 -62 -157 -62q-107 0 -156 62
t-49 169v62h98v-70q0 -59 26 -94t79 -35q104 0 104 139v70q0 133 -112 133h-56v94h60q51 0 81 33q29 31 27 92v41q0 139 -104 139q-54 0 -79 -34q-26 -35 -26 -95v-47h-98v39q0 107 49 169q50 63 156 63z" />
    <glyph glyph-name="uni2154" unicode="&#x2154;" horiz-adv-x="1265" 
d="M291 1444q105 0 155 -64t50 -168q0 -70 -24 -125q-26 -60 -57 -102q-35 -47 -75 -90q-44 -47 -75 -85t-56 -86q-23 -44 -23 -97v-11h299v-94h-401v78q0 74 22 130q21 53 58 103q34 47 75 87q36 36 74 84q37 46 58 93q22 48 22 113q0 140 -106 140q-53 0 -79 -36
q-26 -37 -26 -97v-78h-98v73q0 106 49 168q50 64 158 64zM410 0h-97l566 1434h96zM985 920q105 0 155 -63q50 -64 50 -169v-22q0 -143 -109 -187q58 -23 83 -71q26 -50 26 -117v-70q0 -105 -50 -169q-49 -62 -155 -62q-108 0 -157 62q-50 64 -50 169v62h99v-70q0 -60 25 -94
q26 -35 79 -35q104 0 104 139v70q0 133 -112 133h-55v94h59q51 0 81 33q29 31 27 92v41q0 139 -104 139q-54 0 -79 -34t-25 -95v-47h-99v39q0 105 50 169q50 63 157 63z" />
    <glyph glyph-name="oneeighth" unicode="&#x215b;" horiz-adv-x="1230" 
d="M242 1276q-53 -31 -125 -37v76q73 1 105 37q32 35 50 82h72v-910h-102v752zM238 0l565 1434h96l-565 -1434h-96zM946 920q104 0 160 -61q55 -59 55 -165v-30q0 -68 -23 -115q-24 -49 -75 -72q53 -24 76 -76q22 -50 22 -116v-68q0 -105 -54 -166t-161 -61q-109 0 -163 61
t-54 166v68q0 65 24 116q25 53 76 76q-52 22 -76 72t-24 115v30q0 106 55 165q56 61 162 61zM946 825q-53 0 -83 -31q-29 -30 -29 -104v-43q0 -127 112 -127q52 0 83 31q30 30 30 96v43q0 72 -30 104q-30 31 -83 31zM946 426q-112 0 -112 -129v-78q0 -135 112 -135
q113 0 113 135v78q0 129 -113 129z" />
    <glyph glyph-name="threeeighths" unicode="&#x215c;" horiz-adv-x="1282" 
d="M283 1444q104 0 154 -63q50 -64 50 -169v-22q0 -143 -106 -186q58 -23 82 -72q24 -50 24 -117v-70q0 -104 -50 -168q-50 -63 -154 -63q-107 0 -157 63q-50 64 -50 168v62h98v-70q0 -59 26 -94t79 -35q106 0 106 140v69q0 133 -113 133h-55v94h59q49 0 79 33t30 92v41
q0 140 -106 140q-53 0 -79 -35t-26 -94v-47h-98v38q0 105 50 169q50 63 157 63zM969 1434l-566 -1434h-96l565 1434h97zM997 920q106 0 161 -61q54 -60 54 -165v-30q0 -67 -22 -115q-22 -49 -76 -72q53 -24 76 -76q22 -50 22 -116v-68q0 -105 -54 -166t-161 -61
q-106 0 -160 61q-55 63 -55 166v68q0 64 23 116t76 76q-54 23 -76 72q-23 51 -23 115v30q0 104 55 165t160 61zM997 825q-53 0 -83 -31q-29 -30 -29 -104v-43q0 -127 112 -127q52 0 83 31q30 30 30 96v43q0 72 -30 104q-30 31 -83 31zM997 426q-112 0 -112 -129v-78
q0 -135 112 -135q113 0 113 135v78q0 129 -113 129z" />
    <glyph glyph-name="fiveeighths" unicode="&#x215d;" horiz-adv-x="1282" 
d="M870 1434h97l-566 -1434h-96zM186 1065q43 72 136 72q86 0 127 -60q40 -59 40 -157v-179q0 -104 -50 -168q-49 -63 -156 -63q-105 0 -155 63q-50 64 -50 168v62h98v-68q0 -60 26 -95q25 -34 79 -34q53 0 78 34q26 35 26 95v176q0 60 -26 95q-25 34 -78 34q-41 0 -68 -23
q-29 -24 -33 -73v-20h-98l27 508h358v-95h-268zM995 920q106 0 162 -61q55 -59 55 -165v-30q0 -68 -23 -115q-24 -49 -77 -72q53 -24 77 -76q23 -49 23 -116v-68q0 -105 -54 -166t-163 -61q-106 0 -160 61q-55 63 -55 166v68q0 64 23 116t76 76q-51 23 -75 72
q-24 50 -24 115v30q0 104 56 165t159 61zM995 825q-53 0 -83 -31q-29 -30 -29 -104v-43q0 -127 112 -127q52 0 83 31q30 30 30 96v43q0 72 -30 104q-30 31 -83 31zM995 426q-112 0 -112 -129v-78q0 -135 112 -135q113 0 113 135v78q0 129 -113 129z" />
    <glyph glyph-name="seveneighths" unicode="&#x215e;" horiz-adv-x="1216" 
d="M383 1339h-307v95h413v-91l-235 -819h-102zM295 0h-96l565 1434h96zM930 920q106 0 162 -61q55 -59 55 -165v-30q0 -66 -24 -115q-24 -50 -76 -72q51 -23 76 -76q24 -51 24 -116v-68q0 -105 -54 -166t-163 -61q-107 0 -161 61t-54 166v68q0 66 22 116q23 52 76 76
q-54 23 -76 72q-22 48 -22 115v30q0 105 54 165q55 61 161 61zM930 825q-53 0 -83 -31q-30 -32 -30 -104v-43q0 -127 113 -127q52 0 83 31q29 29 29 96v43q0 74 -29 104q-30 31 -83 31zM930 426q-113 0 -113 -129v-78q0 -135 113 -135q112 0 112 135v78q0 129 -112 129z" />
    <glyph glyph-name="minus" unicode="&#x2212;" horiz-adv-x="802" 
d="M741 774v-115h-680v115h680z" />
    <glyph glyph-name="infinity" unicode="&#x221e;" horiz-adv-x="1193" 
d="M856 989q128 0 199 -64t71 -192t-71 -190q-73 -64 -199 -64h-27q-82 0 -139 27q-58 27 -84 86q-29 -64 -89 -88q-63 -25 -140 -25h-25q-126 0 -199 64t-73 190q0 127 73 192q71 64 199 64h25q81 0 140 -25q60 -25 89 -90q27 62 84 89q55 26 139 26h27zM354 879
q-88 0 -125 -40q-36 -39 -36 -106t36 -103q39 -39 125 -40h37q81 0 121 38q39 38 39 105q0 68 -39 107t-121 39h-37zM813 879q-90 0 -124 -40t-34 -106t34 -103q35 -39 124 -40h37q82 0 123 38t41 105q0 68 -41 107t-123 39h-37z" />
    <glyph glyph-name="approxequal" unicode="&#x2248;" horiz-adv-x="811" 
d="M256 1008q44 0 84 -21q54 -28 79 -44q33 -21 75 -43q37 -19 71 -19q38 1 66 29q22 22 65 85l78 -77q-56 -87 -105 -122q-48 -34 -106 -36q-44 0 -82 19q-45 22 -77 43q-38 24 -74 43q-38 20 -74 20q-41 0 -71 -27t-70 -86l-78 72q61 91 110 126q52 36 109 38zM256 672
q42 0 84 -20q48 -23 79 -43q33 -21 75 -43q37 -19 71 -19q39 0 66 28q23 24 65 84l78 -75q-57 -88 -105 -123q-49 -35 -106 -35q-44 0 -82 19q-45 22 -77 43q-38 24 -74 43q-38 20 -74 20q-40 0 -71 -28q-27 -24 -70 -85l-78 72q61 91 110 126q51 36 109 36z" />
    <glyph glyph-name="commaaccentcomb" unicode="&#xf6c3;" horiz-adv-x="0" 
d="M209 -362h-59l47 114h-52v180h136v-165z" />
    <glyph glyph-name="NULL" horiz-adv-x="0" 
 />
    <glyph glyph-name="zero.alt" 
d="M70 1087q0 167 81 264t246 97q166 0 248 -97t82 -264v-739q0 -166 -82 -264t-248 -98t-246 98q-81 99 -81 264v739zM227 338q0 -99 42 -153t128 -54q89 0 129 54q41 55 41 153v758q0 97 -41 153t-129 56q-86 0 -128 -56q-42 -55 -42 -153v-758z" />
    <glyph glyph-name="one.alt" horiz-adv-x="522" 
d="M252 1174q-41 -24 -91 -41q-49 -16 -108 -21v131q56 1 99 19q41 17 68 42q30 28 46 59q20 38 33 71h111v-1434h-158v1174z" />
    <glyph glyph-name="two.alt" horiz-adv-x="753" 
d="M385 1448q169 0 245 -98q77 -100 77 -265q0 -107 -36 -196q-36 -87 -90 -163q-51 -71 -117 -140q-63 -66 -117 -132q-51 -63 -91 -139q-37 -71 -37 -155v-15h473v-145h-629v123q0 115 36 203q36 87 90 160q59 78 117 138q63 64 117 132q55 68 90 145q36 78 36 178
q0 112 -40 168q-41 58 -128 58t-128 -58q-40 -56 -40 -153v-127h-150v116q0 167 78 266t244 99z" />
    <glyph glyph-name="three.alt" horiz-adv-x="772" 
d="M387 1448q166 0 244 -97t78 -264v-36q0 -110 -44 -187q-42 -74 -130 -108q92 -35 133 -112t41 -185v-111q0 -165 -79 -263q-80 -99 -243 -99q-166 0 -245 98t-79 264v98h152v-108q0 -100 40 -153q41 -54 128 -54q168 0 168 221v111q0 207 -182 213h-86v143h96
q80 5 126 53q46 49 46 144v65q0 224 -168 224q-87 0 -128 -56q-40 -55 -40 -153v-74h-152v65q0 167 79 264t245 97z" />
    <glyph glyph-name="four.alt" horiz-adv-x="819" 
d="M664 289v-289h-158v289h-461v145l444 1000h175v-1000h114v-145h-114zM193 434h313v694z" />
    <glyph glyph-name="five.alt" horiz-adv-x="774" 
d="M231 850q69 119 215 119q138 0 201 -93q64 -94 64 -247v-281q0 -166 -79 -264t-245 -98q-163 0 -243 99q-78 97 -78 263v96h149v-106q0 -98 41 -153q40 -54 127 -54t128 54q40 53 40 153v278q0 100 -40 153q-41 54 -128 54q-65 0 -108 -38q-42 -37 -52 -115v-33h-151
l41 797h565v-144h-424z" />
    <glyph glyph-name="six.alt" horiz-adv-x="790" 
d="M399 1448q165 0 245 -96q79 -95 79 -262v-27h-152v37q0 99 -40 151q-42 54 -128 54q-176 0 -176 -232v-321q29 72 89 113q58 40 145 40q137 0 202 -92q64 -91 64 -248v-217q0 -166 -82 -264t-248 -98t-246 98q-81 99 -81 264v731q0 173 78 270q80 99 251 99zM397 760
q-86 0 -128 -54t-42 -153v-215q0 -99 42 -153t128 -54q89 0 129 54q41 55 41 153v215q0 98 -41 153q-40 54 -129 54z" />
    <glyph glyph-name="seven.alt" horiz-adv-x="714" 
d="M516 1290h-475v144h633v-140l-352 -1294h-160z" />
    <glyph glyph-name="eight.alt" horiz-adv-x="804" 
d="M401 1448q169 0 254 -94q86 -95 86 -260v-45q0 -111 -39 -187q-38 -75 -124 -108q89 -34 127 -115q36 -76 36 -188v-107q0 -167 -85 -262q-86 -96 -255 -96q-167 0 -253 96q-85 95 -85 262v107q0 109 38 188q37 77 128 115q-86 35 -126 109t-40 186v45q0 164 87 260
q85 94 251 94zM401 1305q-84 0 -131 -53t-47 -162v-70q0 -106 46 -153q47 -48 132 -48q87 0 134 48q47 49 47 153v70q0 109 -47 162t-134 53zM401 676q-178 0 -178 -207v-121q0 -112 46 -164q47 -53 132 -53q181 0 181 217v121q0 207 -181 207z" />
    <glyph glyph-name="nine.alt" horiz-adv-x="790" 
d="M393 1448q166 0 247 -97t81 -264v-731q0 -170 -79 -270t-251 -100q-166 0 -245 97q-78 96 -78 263v27h149v-37q0 -100 42 -152q42 -53 128 -53q176 0 176 229v322q-63 -152 -233 -152q-137 0 -202 92t-65 246v219q0 167 82 264t248 97zM393 1303q-88 0 -129 -55t-41 -152
v-215q0 -98 41 -153q40 -54 129 -54q86 0 128 54t42 153v215q0 98 -42 152q-43 55 -128 55z" />
    <glyph glyph-name="Edotaaccent" horiz-adv-x="829" 
 />
    <glyph glyph-name="edotaaccent" horiz-adv-x="829" 
 />
    <glyph glyph-name="lcute" horiz-adv-x="829" 
 />
    </font>
</defs>
</svg>
